<?xml version="1.0" encoding="UTF-8"?>
<svg height="600" width="800" xmlns="http://www.w3.org/2000/svg" xmlns:xlink="http://www.w3.org/1999/xlink">
    <style>
        .multicolor-0:blue { fill:#354EA2; opacity:1.0 }
    </style>
    <g id="Notes" font-family="'LucidaGrande', 'Lucida Grande', sans-serif" font-size="13">
        <rect fill="white" height="600.0" width="800.0" x="0.0" y="0.0" />
        <g font-size="13">
            <text x="18.0" y="176.0">Small</text>
            <text x="18.0" y="376.0">Medium</text>
            <text x="18.0" y="576.0">Large</text>
        </g>
        <g font-size="9">
            <text x="250.0" y="30.0">Ultralight</text>
            <text x="450.0" y="30.0">Regular</text>
            <text x="650.0" y="30.0">Black</text>
            <text id="template-version" fill="#505050" text-anchor="end" x="785.0" y="575.0">Template v.3.0</text>
            <a href="https://github.com/swhitty/SwiftDraw">
                <text fill="#505050" text-anchor="end" x="785.0" y="590.0">https://github.com/swhitty/SwiftDraw</text>
            </a>
        </g>
    </g>
    <g id="Guides" stroke="rgb(39, 170, 225)" stroke-width="0.5">
        <path id="Capline-S" d="M18,76 l800,0" />
        <path id="H-reference" d="M85,145.755 L87.685,145.755 L113.369,79.287 L114.052,79.287 L114.052,76 L112.148,76 L85,145.755 Z M95.693,121.536 L130.996,121.536 L130.263,119.313 L96.474,119.313 L95.693,121.536 Z M139.15,145.755 L141.787,145.755 L114.638,76 L113.466,76 L113.466,79.287 L139.15,145.755 Z" stroke="none" />
        <path id="Baseline-S" d="M18,146 l800,0" />
        <path id="left-margin-Ultralight-S" d="M221,56 l0,110" />
        <path id="right-margin-Ultralight-S" d="M309,56 l0,110" />
        <path id="left-margin-Regular-S" d="M421,56 l0,110" />
        <path id="right-margin-Regular-S" d="M509,56 l0,110" />
        <path id="left-margin-Black-S" d="M621,56 l0,110" />
        <path id="right-margin-Black-S" d="M709,56 l0,110" />
        <path id="Capline-M" d="M18,276 l800,0" />
        <path id="Baseline-M" d="M18,346 l800,0" />
        <path id="Capline-L" d="M18,476 l800,0" />
        <path id="Baseline-L" d="M18,546 l800,0" />
    </g>
    <g id="Symbols">
        <g id="Ultralight-S">
            <path class="multicolor-0:blue" d="M270.726,83.251 C270.726,82.572 270.484,81.912 270.047,81.392 L265.83,76.384 C265.397,75.872 264.606,75.872 264.173,76.384 L259.957,81.392 C259.516,81.912 259.274,82.572 259.274,83.251 L259.274,102.067 L270.726,102.067 L270.726,83.251 Z M296.221,109.721 C297.217,109.721 298.026,108.912 298.026,107.916 L298.026,107.122 C298.026,106.125 297.217,105.317 296.221,105.317 L233.779,105.317 C232.783,105.317 231.974,106.125 231.974,107.122 L231.974,107.916 C231.974,108.912 232.783,109.721 233.779,109.721 L234.44,109.721 L246.285,121.566 L246.285,144.195 C246.285,145.195 247.093,146 248.09,146 L281.91,146 C282.907,146 283.715,145.195 283.715,144.195 L283.715,121.566 L295.56,109.721 L296.221,109.721 Z M239.328,109.721 L246.285,109.721 L246.285,116.678 L239.328,109.721 Z M283.715,116.678 L283.715,109.721 L290.672,109.721 L283.715,116.678 Z M275.813,124.646 C275.744,124.913 275.405,125.007 275.21,124.808 L274.123,123.718 L269.823,128.021 L275.109,133.307 C275.322,133.52 275.322,133.863 275.109,134.076 L270.997,138.184 C270.787,138.393 270.444,138.393 270.231,138.184 L264.946,132.895 L259.74,138.101 C259.527,138.314 259.184,138.314 258.975,138.101 L254.866,133.989 C254.653,133.779 254.653,133.437 254.866,133.224 L260.072,128.021 L255.852,123.801 L254.79,124.862 C254.595,125.061 254.256,124.971 254.187,124.7 L251.707,115.194 C251.639,114.927 251.881,114.685 252.148,114.754 L261.653,117.234 C261.921,117.303 262.014,117.638 261.816,117.837 L260.726,118.927 L264.946,123.144 L269.246,118.844 L268.184,117.783 C267.986,117.584 268.079,117.248 268.347,117.176 L277.852,114.7 C278.119,114.627 278.361,114.873 278.293,115.14 L275.813,124.646 Z" />
        </g>
        <g id="Regular-S">
            <path class="multicolor-0:blue" d="M470.726,83.251 C470.726,82.572 470.484,81.912 470.047,81.392 L465.83,76.384 C465.397,75.872 464.606,75.872 464.173,76.384 L459.957,81.392 C459.516,81.912 459.274,82.572 459.274,83.251 L459.274,102.067 L470.726,102.067 L470.726,83.251 Z M496.221,109.721 C497.217,109.721 498.026,108.912 498.026,107.916 L498.026,107.122 C498.026,106.125 497.217,105.317 496.221,105.317 L433.779,105.317 C432.783,105.317 431.974,106.125 431.974,107.122 L431.974,107.916 C431.974,108.912 432.783,109.721 433.779,109.721 L434.44,109.721 L446.285,121.566 L446.285,144.195 C446.285,145.195 447.093,146 448.09,146 L481.91,146 C482.907,146 483.715,145.195 483.715,144.195 L483.715,121.566 L495.56,109.721 L496.221,109.721 Z M439.328,109.721 L446.285,109.721 L446.285,116.678 L439.328,109.721 Z M483.715,116.678 L483.715,109.721 L490.672,109.721 L483.715,116.678 Z M475.813,124.646 C475.744,124.913 475.405,125.007 475.21,124.808 L474.123,123.718 L469.823,128.021 L475.109,133.307 C475.322,133.52 475.322,133.863 475.109,134.076 L470.997,138.184 C470.787,138.393 470.444,138.393 470.231,138.184 L464.946,132.895 L459.74,138.101 C459.527,138.314 459.184,138.314 458.975,138.101 L454.866,133.989 C454.653,133.779 454.653,133.437 454.866,133.224 L460.072,128.021 L455.852,123.801 L454.79,124.862 C454.595,125.061 454.256,124.971 454.187,124.7 L451.707,115.194 C451.639,114.927 451.881,114.685 452.148,114.754 L461.653,117.234 C461.921,117.303 462.014,117.638 461.816,117.837 L460.726,118.927 L464.946,123.144 L469.246,118.844 L468.184,117.783 C467.986,117.584 468.079,117.248 468.347,117.176 L477.852,114.7 C478.119,114.627 478.361,114.873 478.293,115.14 L475.813,124.646 Z" />
        </g>
        <g id="Black-S">
            <path class="multicolor-0:blue" d="M670.726,83.251 C670.726,82.572 670.484,81.912 670.047,81.392 L665.83,76.384 C665.397,75.872 664.607,75.872 664.173,76.384 L659.957,81.392 C659.516,81.912 659.274,82.572 659.274,83.251 L659.274,102.067 L670.726,102.067 L670.726,83.251 Z M696.221,109.721 C697.217,109.721 698.026,108.912 698.026,107.916 L698.026,107.122 C698.026,106.125 697.217,105.317 696.221,105.317 L633.779,105.317 C632.783,105.317 631.974,106.125 631.974,107.122 L631.974,107.916 C631.974,108.912 632.783,109.721 633.779,109.721 L634.44,109.721 L646.285,121.566 L646.285,144.195 C646.285,145.195 647.093,146 648.09,146 L681.91,146 C682.907,146 683.715,145.195 683.715,144.195 L683.715,121.566 L695.56,109.721 L696.221,109.721 Z M639.328,109.721 L646.285,109.721 L646.285,116.678 L639.328,109.721 Z M683.715,116.678 L683.715,109.721 L690.672,109.721 L683.715,116.678 Z M675.813,124.646 C675.744,124.913 675.405,125.007 675.21,124.808 L674.123,123.718 L669.823,128.021 L675.109,133.307 C675.322,133.52 675.322,133.863 675.109,134.076 L670.997,138.184 C670.787,138.393 670.444,138.393 670.231,138.184 L664.946,132.895 L659.74,138.101 C659.527,138.314 659.184,138.314 658.975,138.101 L654.866,133.989 C654.653,133.779 654.653,133.437 654.866,133.224 L660.072,128.021 L655.852,123.801 L654.79,124.862 C654.595,125.061 654.256,124.971 654.187,124.7 L651.707,115.194 C651.639,114.927 651.881,114.685 652.148,114.754 L661.653,117.234 C661.92,117.303 662.014,117.638 661.816,117.837 L660.726,118.927 L664.946,123.144 L669.246,118.844 L668.184,117.783 C667.986,117.584 668.08,117.248 668.347,117.176 L677.852,114.7 C678.119,114.627 678.361,114.873 678.293,115.14 L675.813,124.646 Z" />
        </g>
    </g>
</svg>