<?xml version="1.0" encoding="UTF-8"?>
<svg height="600" width="800" xmlns="http://www.w3.org/2000/svg" xmlns:xlink="http://www.w3.org/1999/xlink">
    <g id="Notes" font-family="'LucidaGrande', 'Lucida Grande', sans-serif" font-size="13">
        <rect fill="white" height="600.0" width="800.0" x="0.0" y="0.0" />
        <g font-size="13">
            <text x="18.0" y="176.0">Small</text>
            <text x="18.0" y="376.0">Medium</text>
            <text x="18.0" y="576.0">Large</text>
        </g>
        <g font-size="9">
            <text x="250.0" y="30.0">Ultralight</text>
            <text x="450.0" y="30.0">Regular</text>
            <text x="650.0" y="30.0">Black</text>
            <text id="template-version" fill="#505050" text-anchor="end" x="785.0" y="575.0">Template v.3.0</text>
            <a href="https://github.com/swhitty/SwiftDraw">
                <text fill="#505050" text-anchor="end" x="785.0" y="590.0">https://github.com/swhitty/SwiftDraw</text>
            </a>
        </g>
    </g>
    <g id="Guides" stroke="rgb(39, 170, 225)" stroke-width="0.5">
        <path id="Capline-S" d="M18,76 l800,0" />
        <path id="H-reference" d="M85,145.755 L87.685,145.755 L113.369,79.287 L114.052,79.287 L114.052,76 L112.148,76 L85,145.755 Z M95.693,121.536 L130.996,121.536 L130.263,119.313 L96.474,119.313 L95.693,121.536 Z M139.15,145.755 L141.787,145.755 L114.638,76 L113.466,76 L113.466,79.287 L139.15,145.755 Z" stroke="none" />
        <path id="Baseline-S" d="M18,146 l800,0" />
        <path id="left-margin-Ultralight-S" d="M219.164,56 l0,110" />
        <path id="right-margin-Ultralight-S" d="M310.836,56 l0,110" />
        <path id="left-margin-Regular-S" d="M419.164,56 l0,110" />
        <path id="right-margin-Regular-S" d="M510.836,56 l0,110" />
        <path id="left-margin-Black-S" d="M619.164,56 l0,110" />
        <path id="right-margin-Black-S" d="M710.836,56 l0,110" />
        <path id="Capline-M" d="M18,276 l800,0" />
        <path id="Baseline-M" d="M18,346 l800,0" />
        <path id="Capline-L" d="M18,476 l800,0" />
        <path id="Baseline-L" d="M18,546 l800,0" />
    </g>
    <g id="Symbols">
        <g id="Ultralight-S">
            <path d="M263.985,89.824 C262.225,96.616 257.581,107.945 245.755,112.011 L251.474,145.993 L239.813,145.993 L229.164,112.011 C251.19,107.945 259.842,96.616 263.117,89.824 L263.702,87.815 L263.702,76 L266.305,76 L281.963,81.722 L266.305,87.815 L266.883,89.824 C270.162,96.623 278.817,107.952 300.836,112.011 L290.19,145.993 L278.523,145.993 L284.241,112.011 C272.412,107.952 267.772,96.616 266.011,89.824 L263.985,89.824 Z" />
            <path d="M271.656,136.897 C269.644,136.855 267.313,136.341 265.003,135.323 C262.701,136.341 260.363,136.855 258.351,136.897 L259.026,146 L270.97,146 L271.642,136.897 L271.656,136.897 Z" />
            <path d="M272.445,134.23 C270.837,134.037 267.739,133.196 264.543,130.796 C261.347,133.196 258.249,134.037 256.641,134.23 C253.42,134.62 249.12,129.926 249.108,129.914 C253.752,129.224 257.379,127.916 260.198,126.381 C258.569,124.178 257.1,121.388 256.017,117.855 L253.678,119.394 C253.674,119.361 253.12,114.643 257.219,108.386 C257.219,108.386 259.931,114.798 263.452,117.158 L259.747,117.03 C259.808,117.195 260.941,120.235 264.543,123.378 C268.145,120.235 269.274,117.19 269.331,117.03 L265.634,117.158 C269.155,114.798 271.867,108.386 271.867,108.386 C275.966,114.647 275.412,119.361 275.408,119.394 L273.065,117.855 C271.986,121.388 270.517,124.182 268.888,126.381 C271.707,127.911 275.334,129.224 279.978,129.914 C279.966,129.93 275.662,134.62 272.445,134.23 Z" />
        </g>
        <g id="Regular-S">
            <path d="M463.985,89.824 C462.225,96.616 457.581,107.945 445.755,112.011 L451.474,145.993 L439.813,145.993 L429.164,112.011 C451.19,107.945 459.842,96.616 463.117,89.824 L463.702,87.815 L463.702,76 L466.305,76 L481.963,81.722 L466.305,87.815 L466.883,89.824 C470.162,96.623 478.817,107.952 500.836,112.011 L490.19,145.993 L478.523,145.993 L484.241,112.011 C472.412,107.952 467.772,96.616 466.011,89.824 L463.985,89.824 Z" />
            <path d="M471.656,136.897 C469.644,136.855 467.313,136.341 465.003,135.323 C462.701,136.341 460.363,136.855 458.351,136.897 L459.026,146 L470.97,146 L471.642,136.897 L471.656,136.897 Z" />
            <path d="M472.445,134.23 C470.837,134.037 467.739,133.196 464.543,130.796 C461.347,133.196 458.249,134.037 456.641,134.23 C453.42,134.62 449.12,129.926 449.108,129.914 C453.752,129.224 457.379,127.916 460.198,126.381 C458.569,124.178 457.1,121.388 456.017,117.855 L453.678,119.394 C453.674,119.361 453.12,114.643 457.219,108.386 C457.219,108.386 459.931,114.798 463.452,117.158 L459.747,117.03 C459.808,117.195 460.941,120.235 464.543,123.378 C468.145,120.235 469.274,117.19 469.331,117.03 L465.634,117.158 C469.155,114.798 471.867,108.386 471.867,108.386 C475.966,114.647 475.412,119.361 475.408,119.394 L473.065,117.855 C471.986,121.388 470.517,124.182 468.888,126.381 C471.707,127.911 475.334,129.224 479.978,129.914 C479.966,129.93 475.662,134.62 472.445,134.23 Z" />
        </g>
        <g id="Black-S">
            <path d="M663.985,89.824 C662.225,96.616 657.581,107.945 645.755,112.011 L651.474,145.993 L639.813,145.993 L629.164,112.011 C651.19,107.945 659.842,96.616 663.117,89.824 L663.702,87.815 L663.702,76 L666.305,76 L681.963,81.722 L666.305,87.815 L666.883,89.824 C670.162,96.623 678.817,107.952 700.836,112.011 L690.19,145.993 L678.523,145.993 L684.241,112.011 C672.412,107.952 667.772,96.616 666.011,89.824 L663.985,89.824 Z" />
            <path d="M671.656,136.897 C669.644,136.855 667.313,136.341 665.004,135.323 C662.701,136.341 660.363,136.855 658.351,136.897 L659.026,146 L670.97,146 L671.642,136.897 L671.656,136.897 Z" />
            <path d="M672.445,134.23 C670.837,134.037 667.739,133.196 664.543,130.796 C661.347,133.196 658.249,134.037 656.641,134.23 C653.42,134.62 649.12,129.926 649.108,129.914 C653.752,129.224 657.379,127.916 660.198,126.381 C658.569,124.178 657.1,121.388 656.017,117.855 L653.678,119.394 C653.674,119.361 653.12,114.643 657.219,108.386 C657.219,108.386 659.931,114.798 663.452,117.158 L659.747,117.03 C659.808,117.195 660.941,120.235 664.543,123.378 C668.146,120.235 669.274,117.19 669.331,117.03 L665.634,117.158 C669.155,114.798 671.867,108.386 671.867,108.386 C675.966,114.647 675.412,119.361 675.408,119.394 L673.065,117.855 C671.986,121.388 670.517,124.182 668.888,126.381 C671.707,127.911 675.334,129.224 679.978,129.914 C679.966,129.93 675.662,134.62 672.445,134.23 Z" />
        </g>
    </g>
</svg>