<svg fill="none" height="30" viewBox="0 0 30 30" width="30" xmlns="http://www.w3.org/2000/svg" xmlns:xlink="http://www.w3.org/1999/xlink"><clipPath id="a"><path d="m4.75897 4h20.482v20h-20.482z"/></clipPath><g clip-path="url(#a)"><path d="m15.5403 7.95018h-1.079c-.9366 1.94112-3.4082 5.17792-9.70233 6.33942l3.04271 9.7104h14.39502l3.0427-9.7104c-6.2925-1.1599-8.7658-4.39668-9.7024-6.33942z" fill="#f02d7d"/><path d="m15.2895 7.95018h-.5807c-.5031 1.94112-1.8295 5.17792-5.20865 6.33942l1.63375 9.7104h7.7289l1.6338-9.7104c-3.3792-1.1599-4.7056-4.3983-5.2087-6.33942z" fill="#fff"/><path d="m17.1773 18.2818c.1941-.3672.3397-.7781.4173-1.2375 0 0 .5112.7538.715.9593.3106-2.1644.1019-3.2757-.3526-4.7493-1.5157 2.3212-2.7694 2.8793-2.7694 2.8793.5889.2297 1.2763.2734 1.2763.2734-.2507.385-.7376.8686-1.4639 1.2504-.7263-.3834-1.2132-.8654-1.4639-1.2504 0 0 .6875-.0437 1.2763-.2734 0 0-1.2537-.5581-2.7694-2.8793-.4561 1.4736-.6632 2.5865-.3526 4.7493.2038-.2071.715-.9593.715-.9593.0792.4578.2248.8687.4173 1.2375-.6681.0598-1.4251.0275-2.2711-.144.1051.4416.2831.6066.5322.7247.3866.1828.9075.2459 1.4558.1779.0227-.0032.0421.0146.0469.0405.0049.0259-.008.0517-.0291.0582-.2054.0728-.4529.1488-.7408.1488-.1343 0-.2702-.0178-.4093-.0485.165.4012.3607.5257.6212.5888.1456.0356.3041.0534.4739.0534.309 0 .6406-.0582.9851-.1747.0211-.0065.0437.0065.0518.0307.0081.0243 0 .0518-.021.0647-.2912.1731-.6665.3025-1.0676.3316-.11.0081-.2281-.0097-.3478-.0307.2912.6535 1.6143.7279 2.8971.1618 1.2828.5661 2.606.4901 2.8971-.1618-.1197.0194-.2361.0388-.3478.0307-.4011-.0291-.7764-.1601-1.0676-.3316-.0194-.0113-.0291-.0388-.021-.0647.0081-.0242.0307-.0388.0518-.0307.3445.1165.6761.1747.9851.1747.1698 0 .3284-.0178.4739-.0534.2589-.0647.4562-.1876.6212-.5888-.1391.0324-.2734.0485-.4093.0485-.2879 0-.5354-.0744-.7408-.1488-.021-.0081-.034-.034-.0291-.0582.0048-.0259.0226-.0437.0453-.0405.5483.068 1.0676.0049 1.4558-.1779.2491-.1165.427-.2815.5322-.7247-.846.1715-1.6014.2055-2.2711.144z" fill="#f02d7d"/><path d="m15.3721 4h-.7441v3.37593h.7441l4.4742-1.74054z" fill="#fff"/><g fill="#f02d7d"><path d="m15.372 7.37593 4.4743-1.74054-4.4743-1.63539z"/><path d="m16.9007 21.4005c-.5743-.0113-1.2407-.1585-1.9007-.4497-.6584.2912-1.3264.4384-1.9007.4497l.1925 2.6011h3.4131l.1925-2.6011z"/><path d="m15.5403 7.95018h-1.079l.1666-.57425h.7441z"/></g></g></svg>