<svg width="22" height="20" viewBox="0 0 22 20" fill="none" xmlns="http://www.w3.org/2000/svg">
<mask id="mask0_7_89" style="mask-type:luminance" maskUnits="userSpaceOnUse" x="0" y="0" width="22" height="20">
<path d="M0.758972 0H21.241V20H0.758972V0Z" fill="white"/>
</mask>
<g mask="url(#mask0_7_89)">
<path d="M11.5403 3.95018H10.4613C9.5247 5.8913 7.0531 9.1281 0.758972 10.2896L3.80168 20H18.1967L21.2394 10.2896C14.9469 9.1297 12.4736 5.89292 11.537 3.95018H11.5403Z" fill="#F02D7D"/>
<path d="M11.2895 3.95018H10.7088C10.2057 5.8913 8.87927 9.1281 5.50012 10.2896L7.13387 20H14.8628L16.4966 10.2896C13.1174 9.1297 11.791 5.8913 11.2879 3.95018H11.2895Z" fill="white"/>
<path d="M13.1773 14.2818C13.3714 13.9146 13.517 13.5037 13.5946 13.0443C13.5946 13.0443 14.1058 13.7981 14.3096 14.0036C14.6202 11.8392 14.4115 10.7279 13.957 9.2543C12.4413 11.5755 11.1876 12.1336 11.1876 12.1336C11.7765 12.3633 12.4639 12.407 12.4639 12.407C12.2132 12.792 11.7263 13.2756 11 13.6574C10.2737 13.274 9.78677 12.792 9.53607 12.407C9.53607 12.407 10.2236 12.3633 10.8124 12.1336C10.8124 12.1336 9.55867 11.5755 8.04297 9.2543C7.58687 10.7279 7.37977 11.8408 7.69037 14.0036C7.89417 13.7965 8.40537 13.0443 8.40537 13.0443C8.48457 13.5021 8.63017 13.913 8.82267 14.2818C8.15457 14.3416 7.39757 14.3093 6.55157 14.1378C6.65667 14.5794 6.83467 14.7444 7.08377 14.8625C7.47037 15.0453 7.99127 15.1084 8.53957 15.0404C8.56227 15.0372 8.58167 15.055 8.58647 15.0809C8.59137 15.1068 8.57847 15.1326 8.55737 15.1391C8.35197 15.2119 8.10447 15.2879 7.81657 15.2879C7.68227 15.2879 7.54637 15.2701 7.40727 15.2394C7.57227 15.6406 7.76797 15.7651 8.02847 15.8282C8.17407 15.8638 8.33257 15.8816 8.50237 15.8816C8.81137 15.8816 9.14297 15.8234 9.48747 15.7069C9.50857 15.7004 9.53117 15.7134 9.53927 15.7376C9.54737 15.7619 9.53927 15.7894 9.51827 15.8023C9.22707 15.9754 8.85177 16.1048 8.45067 16.1339C8.34067 16.142 8.22257 16.1242 8.10287 16.1032C8.39407 16.7567 9.71717 16.8311 11 16.265C12.2828 16.8311 13.606 16.7551 13.8971 16.1032C13.7774 16.1226 13.661 16.142 13.5493 16.1339C13.1482 16.1048 12.7729 15.9738 12.4817 15.8023C12.4623 15.791 12.4526 15.7635 12.4607 15.7376C12.4688 15.7134 12.4914 15.6988 12.5125 15.7069C12.857 15.8234 13.1886 15.8816 13.4976 15.8816C13.6674 15.8816 13.826 15.8638 13.9715 15.8282C14.2304 15.7635 14.4277 15.6406 14.5927 15.2394C14.4536 15.2718 14.3193 15.2879 14.1834 15.2879C13.8955 15.2879 13.648 15.2135 13.4426 15.1391C13.4216 15.131 13.4086 15.1051 13.4135 15.0809C13.4183 15.055 13.4361 15.0372 13.4588 15.0404C14.0071 15.1084 14.5264 15.0453 14.9146 14.8625C15.1637 14.746 15.3416 14.581 15.4468 14.1378C14.6008 14.3093 13.8454 14.3433 13.1757 14.2818H13.1773Z" fill="#F02D7D"/>
<path d="M11.3721 0H10.628V3.37593H11.3721L15.8463 1.63539L11.3721 0Z" fill="white"/>
<path d="M11.372 3.37593L15.8463 1.63539L11.372 0V3.37593Z" fill="#F02D7D"/>
<path d="M12.9007 17.4005C12.3264 17.3892 11.66 17.242 11 16.9508C10.3416 17.242 9.6736 17.3892 9.0993 17.4005L9.2918 20.0016H12.7049L12.8974 17.4005H12.9007Z" fill="#F02D7D"/>
<path d="M11.5403 3.95018H10.4613L10.6279 3.37593H11.372L11.5403 3.95018Z" fill="#F02D7D"/>
</g>
</svg>
