<svg width="25" height="23" viewBox="0 0 25 23" fill="none" xmlns="http://www.w3.org/2000/svg">
<g clip-path="url(#clip0_7_112)">
<path d="M21.7949 13.5058C23.765 12.9567 25.1254 11.8758 24.9908 9.9433C24.8997 8.6311 24.0201 7.7636 22.954 7.5096C22.3062 7.3556 21.1887 7.4673 20.8131 7.836C21.3826 7.8249 22.3221 8.2955 22.475 9.0955C22.6212 9.8611 21.9245 10.7187 20.4706 10.5187C20.4651 10.4402 20.4596 10.3617 20.4535 10.2832C20.366 9.0562 20.2663 7.6605 20.3923 6.0379L20.429 5.56243L19.9611 5.59187C19.7574 5.60414 19.5568 5.61089 19.3647 5.61089C19.0375 5.61113 18.7106 5.59064 18.386 5.54954C18.5286 5.15937 18.6246 4.67165 18.5598 3.9637C18.4527 2.78336 17.4098 1.84351 16.5633 1.50978C15.7167 1.17604 15.3938 0.6325 15.2598 0C15.2598 0 14.8316 0.59814 14.8549 1.22205C14.883 2.0478 15.4121 2.7171 15.7975 3.0171C16.1828 3.31709 15.9914 3.92995 15.4109 4.48515C14.5546 3.97351 13.6945 3.2766 12.7807 2.37233L12.4969 2.09135L12.2131 2.37233C11.2999 3.27598 10.4392 3.97229 9.5829 4.48454C9.0031 3.92934 8.803 3.32384 9.197 3.0171C9.5909 2.71036 10.1145 2.0478 10.1401 1.22205C10.1616 0.59814 9.7352 0 9.7352 0C9.6007 0.6325 9.2777 1.1785 8.4311 1.50978C7.5846 1.84105 6.5417 2.78091 6.43466 3.9637C6.37043 4.67165 6.46647 5.15937 6.60837 5.54893C6.28378 5.59016 5.95689 5.61065 5.6297 5.61028C5.43825 5.61028 5.23824 5.60353 5.03516 5.59126L4.56785 5.56181L4.60455 6.0373C4.72688 7.6624 4.62902 9.0568 4.54338 10.2868C4.53727 10.3647 4.53176 10.4414 4.52687 10.5187C3.07293 10.7175 2.37808 9.8599 2.52488 9.0948C2.6778 8.2973 3.61671 7.8243 4.18678 7.8354C3.81183 7.4673 2.6937 7.355 2.04594 7.509C0.980418 7.7636 0.100228 8.6311 0.00908814 9.9433C-0.124872 11.8758 1.23548 12.9567 3.20505 13.5058C3.66721 13.627 4.11631 13.7936 4.54583 14.0033C4.58859 14.2941 4.64658 14.5824 4.71954 14.8671C4.12928 14.9781 3.56043 15.275 3.06192 15.6756C2.3371 16.2591 2.05695 16.9339 2.09671 17.7854C2.11812 18.2504 2.28021 18.5676 2.47166 18.7762C2.64966 18.067 2.9298 17.6234 3.57267 17.375C4.41249 17.0492 5.37892 18.1032 6.00343 19.289C6.86956 20.9356 8.5828 21.3792 10.2992 20.5872L10.3915 20.543C11.068 20.8964 11.6962 21.2755 12.2186 21.7859L12.5006 22.062L12.7825 21.7859C13.3055 21.2749 13.9337 20.8958 14.6114 20.5418C14.642 20.5571 14.6726 20.5724 14.705 20.5872C16.4177 21.3792 18.134 20.9356 19.0008 19.289C19.6247 18.1032 20.5911 17.0492 21.4315 17.375C22.0726 17.6234 22.3521 18.067 22.5325 18.7762C22.7264 18.5676 22.8861 18.2504 22.9075 17.7854C22.9473 16.9327 22.6677 16.2591 21.9429 15.6756C21.4432 15.2744 20.8737 14.9769 20.2822 14.8665C20.3552 14.5824 20.4132 14.2947 20.4559 14.0045C20.8849 13.7947 21.3333 13.6276 21.7949 13.5058Z" fill="#F54910"/>
<path d="M6.04616 6.9989C6.12446 8.3485 6.04005 9.5037 5.96481 10.5356C5.83269 12.3564 5.7281 13.795 6.49146 15.4809C7.29703 17.26 8.76317 17.9722 10.1805 18.6624C10.983 19.0525 11.8099 19.455 12.4999 20.0445C13.1899 19.455 14.0168 19.0525 14.8193 18.6624C16.2372 17.9722 17.7028 17.2593 18.5083 15.4809C19.2717 13.795 19.1671 12.3564 19.035 10.5356C18.9603 9.5037 18.8759 8.3461 18.9542 6.9989C18.8778 6.9989 18.8025 7.002 18.7279 7.002C16.4739 7.002 14.5979 6.1547 12.4999 4.17995C10.4025 6.1566 8.52407 7.002 6.27187 7.002C6.19725 7.002 6.12201 7.0007 6.04616 6.9989Z" fill="white"/>
<path d="M11.3524 17.6557C11.7525 17.9569 12.0956 18.3274 12.495 18.801C12.8945 18.328 13.237 17.9575 13.637 17.6557C13.2509 17.5714 12.8695 17.4668 12.4944 17.3422C12.1195 17.4665 11.7383 17.5711 11.3524 17.6557Z" fill="#F54910"/>
<path d="M10.8894 16.5606C10.6171 16.3948 10.3539 16.2144 10.101 16.0201C10.0988 16.0262 10.0952 16.0317 10.0905 16.0362C10.0859 16.0407 10.0802 16.044 10.074 16.0459C9.83725 16.1251 9.58975 16.168 9.34005 16.1729C9.20345 16.1723 9.06715 16.1581 8.93335 16.1305C9.09725 16.4747 9.29295 16.5802 9.55055 16.6354C9.70585 16.6673 9.86415 16.6829 10.0227 16.6821C10.3155 16.6782 10.6067 16.6374 10.8894 16.5606Z" fill="#F54910"/>
<path d="M10.0294 15.9631C9.76502 15.7557 9.51182 15.5344 9.27092 15.2999C8.87252 15.2932 8.47522 15.2559 8.08252 15.1882C8.18712 15.5668 8.36382 15.7079 8.61222 15.8085C8.98962 15.9612 9.49302 16.014 10.0294 15.9631Z" fill="#F54910"/>
<path d="M11.0003 16.6275C10.6837 16.8012 10.3292 16.8939 9.96835 16.8974C9.85285 16.897 9.73755 16.8884 9.62335 16.8716C9.86805 17.3434 10.8467 17.4949 12.0829 17.1612C11.7091 17.0109 11.3472 16.8324 11.0003 16.6275Z" fill="#F54910"/>
<path d="M9.14253 12.4626C9.57333 12.4338 9.99943 12.3554 10.4123 12.2288C10.4123 12.2288 9.16573 11.7509 7.65984 9.7626C7.20599 11.0252 6.99924 11.9773 7.30814 13.83C7.51121 13.6533 8.01893 13.0079 8.01893 13.0079C10.1646 17.2084 14.8133 17.9428 15.3674 16.8729C15.2534 16.8933 15.1376 16.902 15.0218 16.8986C14.6527 16.8758 14.2919 16.779 13.9606 16.614C13.9512 16.6089 13.9439 16.6006 13.9401 16.5905C13.9363 16.5805 13.9362 16.5695 13.9398 16.5594C13.9436 16.5493 13.9509 16.5411 13.9604 16.5362C13.9699 16.5313 13.9809 16.5302 13.9912 16.533C14.3088 16.6285 14.6383 16.6789 14.9699 16.6827C15.1282 16.6836 15.2863 16.668 15.4415 16.6361C15.6996 16.5809 15.8947 16.4753 16.0592 16.1312C15.9254 16.1587 15.7891 16.1729 15.6525 16.1735C15.4016 16.1688 15.1529 16.126 14.9148 16.0465C14.9046 16.0432 14.896 16.0363 14.8907 16.027C14.8854 16.0176 14.8837 16.0067 14.8861 15.9962C14.8876 15.9855 14.8932 15.9758 14.9018 15.9693C14.9104 15.9627 14.9212 15.9598 14.9319 15.9612C15.4769 16.0195 15.9944 15.9649 16.3798 15.8091C16.6275 15.7085 16.8043 15.5674 16.9095 15.1889C13.5771 15.7686 9.97993 13.8705 9.14253 12.4626Z" fill="#F54910"/>
<path d="M11.6736 10.6319C11.9067 10.6319 12.029 10.7264 12.0315 10.9595C12.0045 12.4582 11.5635 13.165 10.939 13.6864C11.2767 13.9785 11.9269 14.2128 12.4945 14.3821C13.0615 14.2128 13.7117 13.9785 14.0487 13.6864C13.4242 13.165 12.9832 12.4595 12.9563 10.9595C12.9563 10.7264 13.0786 10.6319 13.3141 10.6319C13.9503 10.6319 14.3258 10.4301 14.3258 9.9172V9.597L12.9532 9.7663V9.3369C13.3398 9.2259 13.6734 8.9786 13.8925 8.6404C14.1117 8.3023 14.2017 7.8961 14.1458 7.4967C14.09 7.0974 13.892 6.7317 13.5886 6.4671C13.2851 6.2024 12.8966 6.0567 12.4945 6.0567C12.0924 6.0567 11.7038 6.2024 11.4004 6.4671C11.097 6.7317 10.8991 7.0974 10.8432 7.4967C10.7874 7.8961 10.8773 8.3023 11.0964 8.6404C11.3156 8.9786 11.6492 9.2259 12.0357 9.3369V9.7663L10.6631 9.597V9.9172C10.6619 10.4313 11.0375 10.6319 11.6736 10.6319ZM12.4951 7.094C12.6211 7.094 12.7442 7.1315 12.8489 7.2017C12.9536 7.2719 13.0353 7.3716 13.0834 7.4884C13.1316 7.6051 13.1442 7.7335 13.1196 7.8574C13.0949 7.9813 13.0342 8.0951 12.9451 8.1844C12.856 8.2737 12.7425 8.3345 12.6189 8.359C12.4954 8.3836 12.3673 8.3709 12.251 8.3225C12.1347 8.274 12.0353 8.1921 11.9654 8.087C11.8955 7.9819 11.8582 7.8583 11.8584 7.732C11.8584 7.6482 11.8748 7.5651 11.9068 7.4877C11.9388 7.4103 11.9858 7.3399 12.0449 7.2806C12.104 7.2214 12.1742 7.1744 12.2515 7.1424C12.3287 7.1103 12.4115 7.0939 12.4951 7.094Z" fill="#F54910"/>
<path d="M17.3284 9.7626C15.888 11.6779 14.5759 12.2288 14.5759 12.2288C14.9888 12.3554 15.4149 12.4338 15.8457 12.4625C15.4304 13.1607 14.3368 13.9797 12.933 14.557C13.7645 14.8404 14.6311 15.0071 15.5081 15.052C16.0953 14.4484 16.5881 13.7593 16.97 13.0079C16.97 13.0079 17.4771 13.6533 17.6801 13.83C18.0196 12.4589 17.7823 11.0252 17.3284 9.7626Z" fill="#F54910"/>
</g>
<defs>
<clipPath id="clip0_7_112">
<rect width="25" height="23" fill="white"/>
</clipPath>
</defs>
</svg>
