<svg fill="none" height="30" viewBox="0 0 30 30" width="30" xmlns="http://www.w3.org/2000/svg"><path d="m23.7949 17.5058c1.9701-.5491 3.3305-1.63 3.1959-3.5625-.0911-1.3122-.9707-2.1797-2.0368-2.4337-.6478-.154-1.7653-.0423-2.1409.3264.5695-.0111 1.509.4595 1.6619 1.2595.1462.7656-.5505 1.6232-2.0044 1.4232-.0055-.0785-.011-.157-.0171-.2355-.0875-1.227-.1872-2.6227-.0612-4.2453l.0367-.47547-.4679.02944c-.2037.01227-.4043.01902-.5964.01902-.3272.00024-.6541-.02025-.9787-.06135.1426-.39017.2386-.87789.1738-1.58584-.1071-1.18034-1.15-2.12019-1.9965-2.45392-.8466-.33374-1.1695-.87728-1.3035-1.50978 0 0-.4282.59814-.4049 1.22205.0281.82575.5572 1.49505.9426 1.79505.3853.29999.1939.91285-.3866 1.46805-.8563-.51164-1.7164-1.20855-2.6302-2.11282l-.2838-.28098-.2838.28098c-.9132.90365-1.7739 1.59996-2.6302 2.11221-.5798-.5552-.7799-1.1607-.3859-1.46744.3939-.30674.9175-.9693.9431-1.79505.0215-.62391-.4049-1.22205-.4049-1.22205-.1345.6325-.4575 1.1785-1.3041 1.50978-.8465.33127-1.8894 1.27113-1.99644 2.45392-.06423.70795.03181 1.19567.17371 1.58523-.32459.04123-.65148.06172-.97867.06135-.19145 0-.39146-.00675-.59454-.01902l-.46731-.02945.0367.47549c.12233 1.6251.02447 3.0195-.06117 4.2495-.00611.0779-.01162.1546-.01651.2319-1.45394.1988-2.14879-.6588-2.00199-1.4239.15292-.7975 1.09183-1.2705 1.6619-1.2594-.37495-.3681-1.49308-.4804-2.14084-.3264-1.06552.2546-1.94571 1.1221-2.03685 2.4343-.13396 1.9325 1.22639 3.0134 3.19596 3.5625.46216.1212.91126.2878 1.34078.4975.04276.2908.10075.5791.17371.8638-.59026.111-1.15911.4079-1.65762.8085-.72482.5835-1.00497 1.2583-.96521 2.1098.02141.465.1835.7822.37495.9908.178-.7092.45814-1.1528 1.10101-1.4012.83982-.3258 1.80625.7282 2.43076 1.914.86613 1.6466 2.57937 2.0902 4.29577 1.2982l.0923-.0442c.6765.3534 1.3047.7325 1.8271 1.2429l.282.2761.2819-.2761c.523-.511 1.1512-.8901 1.8289-1.2441.0306.0153.0612.0306.0936.0454 1.7127.792 3.429.3484 4.2958-1.2982.6239-1.1858 1.5903-2.2398 2.4307-1.914.6411.2484.9206.692 1.101 1.4012.1939-.2086.3536-.5258.375-.9908.0398-.8527-.2398-1.5263-.9646-2.1098-.4997-.4012-1.0692-.6987-1.6607-.8091.073-.2841.131-.5718.1737-.862.429-.2098.8774-.3769 1.339-.4987z" fill="#f54910"/><path d="m8.04619 10.9989c.0783 1.3496-.00611 2.5048-.08135 3.5367-.13212 1.8208-.23671 3.2594.52665 4.9453.80557 1.7791 2.27171 2.4913 3.68901 3.1815.8025.3901 1.6294.7926 2.3194 1.3821.69-.5895 1.5169-.992 2.3194-1.3821 1.4179-.6902 2.8835-1.4031 3.689-3.1815.7634-1.6859.6588-3.1245.5267-4.9453-.0747-1.0319-.1591-2.1895-.0808-3.5367-.0764 0-.1517.0031-.2263.0031-2.254 0-4.13-.8473-6.228-2.82205-2.0974 1.97665-3.9758 2.82205-6.228 2.82205-.07462 0-.14986-.0013-.22571-.0031z" fill="#fff"/><g fill="#f54910"><path d="m13.3524 21.6557c.4001.3012.7432.6717 1.1426 1.1453.3995-.473.742-.8435 1.142-1.1453-.3861-.0843-.7675-.1889-1.1426-.3135-.3749.1243-.7561.2289-1.142.3135z"/><path d="m12.8894 20.5606c-.2723-.1658-.5355-.3462-.7884-.5405-.0022.0061-.0058.0116-.0105.0161-.0046.0045-.0103.0078-.0165.0097-.2368.0792-.4843.1221-.734.127-.1366-.0006-.2729-.0148-.4067-.0424.1639.3442.3596.4497.6172.5049.1553.0319.3136.0475.4722.0467.2928-.0039.584-.0447.8667-.1215z"/><path d="m12.0294 19.9631c-.2644-.2074-.5176-.4287-.7585-.6632-.3984-.0067-.7957-.044-1.1884-.1117.1046.3786.2813.5197.5297.6203.3774.1527.8808.2055 1.4172.1546z"/><path d="m13.0002 20.6275c-.3166.1737-.6711.2664-1.0319.2699-.1155-.0004-.2308-.009-.345-.0258.2447.4718 1.2233.6233 2.4595.2896-.3738-.1503-.7357-.3288-1.0826-.5337z"/><path d="m11.1425 16.4626c.4308-.0288.8569-.1072 1.2698-.2338 0 0-1.2466-.4779-2.75249-2.4662-.45385 1.2626-.6606 2.2147-.3517 4.0674.20307-.1767.71079-.8221.71079-.8221 2.1457 4.2005 6.7944 4.9349 7.3485 3.865-.114.0204-.2298.0291-.3456.0257-.3691-.0228-.7299-.1196-1.0612-.2846-.0094-.0051-.0167-.0134-.0205-.0235-.0038-.01-.0039-.021-.0003-.0311.0038-.0101.0111-.0183.0206-.0232s.0205-.006.0308-.0032c.3176.0955.6471.1459.9787.1497.1583.0009.3164-.0147.4716-.0466.2581-.0552.4532-.1608.6177-.5049-.1338.0275-.2701.0417-.4067.0423-.2509-.0047-.4996-.0475-.7377-.127-.0102-.0033-.0188-.0102-.0241-.0195-.0053-.0094-.007-.0203-.0046-.0308.0015-.0107.0071-.0204.0157-.0269.0086-.0066.0194-.0095.0301-.0081.545.0583 1.0625.0037 1.4479-.1521.2477-.1006.4245-.2417.5297-.6202-3.3324.5797-6.9296-1.3184-7.767-2.7263z"/><path d="m13.6736 14.6319c.2331 0 .3554.0945.3579.3276-.027 1.4987-.468 2.2055-1.0925 2.7269.3377.2921.9879.5264 1.5555.6957.567-.1693 1.2172-.4036 1.5542-.6957-.6245-.5214-1.0655-1.2269-1.0924-2.7269 0-.2331.1223-.3276.3578-.3276.6362 0 1.0117-.2018 1.0117-.7147v-.3202l-1.3726.1693v-.4294c.3866-.111.7202-.3583.9393-.6965.2192-.3381.3091-.7443.2532-1.1437-.0558-.3993-.2537-.765-.5571-1.0296-.3035-.2647-.692-.4104-1.0941-.4104s-.7907.1457-1.0941.4104c-.3034.2646-.5013.6303-.5572 1.0296-.0558.3994.0341.8056.2532 1.1437.2192.3382.5528.5855.9393.6965v.4294l-1.3726-.1693v.3202c-.0012.5141.3744.7147 1.0105.7147zm.8215-3.5379c.126 0 .2491.0375.3538.1077s.1864.1699.2345.2867c.0482.1167.0608.2451.0362.369-.0247.1239-.0854.2377-.1745.327s-.2026.1501-.3262.1746c-.1235.0246-.2516.0119-.3679-.0365-.1163-.0485-.2157-.1304-.2856-.2355s-.1072-.2287-.107-.355c0-.0838.0164-.1669.0484-.2443s.079-.1478.1381-.2071c.0591-.0592.1293-.1062.2066-.1382.0772-.0321.16-.0485.2436-.0484z"/><path d="m19.3284 13.7626c-1.4404 1.9153-2.7525 2.4662-2.7525 2.4662.4129.1266.839.205 1.2698.2337-.4153.6982-1.5089 1.5172-2.9127 2.0945.8315.2834 1.6981.4501 2.5751.495.5872-.6036 1.08-1.2927 1.4619-2.0441 0 0 .5071.6454.7101.8221.3395-1.3711.1022-2.8048-.3517-4.0674z"/></g></svg>