<?xml version="1.0" encoding="utf-8"?>
<!-- Generator: Adobe Illustrator 28.1.0, SVG Export Plug-In . SVG Version: 6.00 Build 0)  -->
<svg version="1.1" id="图层_1" xmlns="http://www.w3.org/2000/svg" xmlns:xlink="http://www.w3.org/1999/xlink" x="0px" y="0px"
	 viewBox="0 0 25 22" style="enable-background:new 0 0 25 22;" xml:space="preserve">
<style type="text/css">
	.st0{fill:#CFF622;}
	.st1{fill:#FFFFFF;}
</style>
<path class="st0" d="M25,0l-2.7,9.9l-1.4-1.4L7.3,22l-1-1l4-4l-0.7-0.7l-4,4l-1-1l4-4l-0.8-0.8l-4,4l-1-1L16.5,4.1L15,2.6L25,0z"/>
<g>
	<polygon class="st1" points="4.1,8.1 2.8,9.4 0.4,0.4 9.5,2.8 8.2,4.1 21.8,17.6 21.1,18.2 17.1,14.3 16.1,15.4 20.1,19.3 19.5,20 
		15.5,16 14.3,17 18.3,21 17.7,21.6 	"/>
	<path class="st0" d="M0.7,0.7L9,2.9L8.2,3.7L7.8,4.1l0.4,0.4l13.2,13.2l-0.3,0.3l-3.6-3.6l-0.4-0.4l-0.4,0.4l-0.7,0.8l-0.3,0.4
		l0.3,0.3l3.6,3.6l-0.3,0.3L15.8,16l-0.3-0.3L15.2,16l-0.8,0.7L14,17l0.4,0.4L18,21l-0.3,0.3L4.4,8.1L4.1,7.8L3.7,8.1L2.9,8.9
		L0.7,0.7 M0,0l2.7,9.9l1.4-1.4L17.7,22l1-1l-4-4l0.8-0.7l4,4l1-1l-4-4l0.7-0.8l4,4l1-1L8.5,4.1L10,2.6L0,0L0,0z"/>
</g>
</svg>
