<svg width="25" height="22" viewBox="0 0 25 22" fill="none" xmlns="http://www.w3.org/2000/svg">
<g clip-path="url(#clip0_8_2)">
<path d="M24.9999 0L22.345 9.89228L20.907 8.4634L7.30074 21.9828L6.30516 20.9936L10.2875 17.0367L9.62375 16.3772L5.64144 20.3341L4.64586 19.3449L8.62817 15.388L7.85384 14.6186L3.87152 18.5755L2.87595 17.5863L16.4822 4.06683L15.0441 2.63794L24.9999 0Z" fill="#19D719"/>
<path d="M2.78455 9.411L0.353386 0.352262L9.47027 2.76792L8.34151 3.88949L8.16303 4.06683L8.34151 4.24417L21.7693 17.5863L21.1284 18.2231L17.3223 14.4413L17.132 14.2522L16.9568 14.4553L16.293 15.2247L16.1408 15.4011L16.3061 15.5653L20.11 19.3449L19.4691 19.9817L15.663 16.1999L15.4998 16.0377L15.3247 16.1869L14.5503 16.8464L14.3435 17.0225L14.5362 17.214L18.34 20.9936L17.6992 21.6304L4.26914 8.28606L4.09293 8.11097L3.91672 8.28606L2.78455 9.411Z" fill="white" stroke="#19D719" stroke-width="0.5"/>
</g>
<defs>
<clipPath id="clip0_8_2">
<rect width="25" height="22" fill="white"/>
</clipPath>
</defs>
</svg>
