<svg fill="none" height="30" viewBox="0 0 30 30" width="30" xmlns="http://www.w3.org/2000/svg"><path d="m23.7937 17.4757c1.9697-.5477 3.3317-1.6262 3.1971-3.5527-.0266-.5717-.2404-1.1189-.6085-1.5572-.368-.4384-.8699-.7437-1.4284-.8689-.6486-.1537-1.7656-.0432-2.1403.3243.5693 0 1.5085.4588 1.6623 1.2563.1537.7975-.5501 1.619-2.0058 1.4196 0-.0768 0-.1561-.0168-.2402-.1299-1.4071-.1508-2.8221-.0625-4.2325l.0361-.48038-.466.02882c-.2042.01201-.406.01922-.5982.01922-.3259-.00049-.6516-.02054-.9752-.06006.1784-.50739.2375-1.04903.173-1.58297-.1057-1.17702-1.1482-2.11384-1.9962-2.44292-.3343-.10786-.6326-.30528-.8626-.57082-.2299-.26553-.3827-.58901-.4417-.93529-.2476.35931-.3876.78179-.4035 1.21786.0244.34724.1207.68562.2828.99368s.3864.57908.6588.79587c.3963.30747.1945.91039-.3868 1.46527-.9564-.5955-1.8385-1.30267-2.6278-2.10662l-.2859-.28105-.2834.28105c-.7887.80396-1.671 1.51041-2.6279 2.10423-.5789-.55248-.7807-1.15541-.3868-1.46288.2732-.21626.4982-.4871.6607-.79524.1626-.30813.2591-.64678.2833-.99431-.0162-.43639-.1571-.859-.4059-1.21786-.0588.346-.2112.66929-.4407.9348-.2295.2655-.5274.46308-.8612.57131-.84798.32908-1.89047 1.2659-1.99856 2.44292-.06284.53334-.00286 1.07398.17534 1.58057-.32584.04152-.65397.06238-.98244.06246-.18977 0-.38913 0-.59331-.01922l-.46602-.02882.03604.48038c.08884 1.412.06715 2.8287-.06486 4.2373l-.0144.2402c-1.44125.1994-2.1619-.6557-2.00336-1.4196s1.09296-1.2659 1.66225-1.2563c-.37472-.3675-1.4917-.4804-2.14026-.3243-.55851.1252-1.0604.4305-1.42844.8689-.36805.4383-.58185.9855-.60853 1.5572-.13452 1.9217 1.22748 3.005 3.19719 3.5527.46192.1207.91085.2864 1.34036.4948.0419.2904.09963.5783.17294.8624-.61032.129-1.17953.4062-1.65745.8071-.32684.2386-.58685.5573-.75511.9253-.16825.3681-.2391.7732-.20572 1.1765.00167.3635.13478.7142.37474.9873.17775-.7062.45879-1.1482 1.10014-1.3956.83833-.3267 1.80637.7206 2.43091 1.9072.86475 1.643 2.57745 2.085 4.29495 1.2947l.0913-.0432c.667.3209 1.283.7386 1.8279 1.2395l.2811.2738.2834-.2738c.5455-.5009 1.1614-.9193 1.828-1.2419l.0937.0456c1.7151.7903 3.4302.3483 4.2949-1.2947.6246-1.1818 1.5926-2.2339 2.4309-1.9072.6414.2402.9201.6894 1.1002 1.3956.24-.2731.3731-.6238.3747-.9873.0334-.4033-.0374-.8084-.2057-1.1765-.1682-.368-.4283-.6867-.7551-.9253-.4785-.4014-1.0486-.6787-1.6598-.8071.0744-.2907.1297-.5765.1729-.86.427-.2104.8735-.3785 1.3332-.502z" fill="#0fdb9b"/><path d="m8.04563 10.9877c.05483 1.1759.02755 2.3541-.08166 3.5262-.13212 1.816-.24022 3.2501.52844 4.9291.8047 1.7752 2.26999 2.4862 3.68719 3.1732.8289.3592 1.6086.8226 2.3204 1.3788.711-.5562 1.49-1.0195 2.3181-1.3788 1.4196-.687 2.8825-1.398 3.6896-3.1732.7638-1.6814.6581-3.1227.526-4.9291-.1071-1.1722-.1336-2.3504-.0793-3.5262h-.2257c-2.2556 0-4.1316-.8432-6.2287-2.81528-2.097 1.96968-3.973 2.81528-6.22859 2.81528z" fill="#fff"/><path d="m14.5336 18.9242s-.6774 1.1218-1.0881 1.7775c-.269 0-1.3572.0361-3.2644 0 .5861-1.0305 1.6262-2.82 2.6687-4.5639-.9609-1.6022-1.8737-3.1804-2.4694-4.2109 1.9529-.0456 3.0411 0 3.3221 0 .2811.4804.8311 1.3812.8311 1.3812s.5045-.8768.8071-1.3812c.2811 0 1.3692-.0456 3.3341 0-.6077 1.0305-1.5205 2.6087-2.4669 4.2109 1.0281 1.7439 2.0586 3.5334 2.6543 4.5639-1.8832.0361-2.9954 0-3.2645 0-.4083-.6437-1.0641-1.7775-1.0641-1.7775z" fill="#0fdb9b"/></svg>