<svg width="25" height="23" viewBox="0 0 25 23" fill="none" xmlns="http://www.w3.org/2000/svg">
<path d="M21.7937 13.4757C23.7634 12.928 25.1254 11.8495 24.9908 9.923C24.9642 9.3513 24.7504 8.8041 24.3823 8.3658C24.0143 7.9274 23.5124 7.6221 22.9539 7.4969C22.3053 7.3432 21.1883 7.4537 20.8136 7.8212C21.3829 7.8212 22.3221 8.28 22.4759 9.0775C22.6296 9.875 21.9258 10.6965 20.4701 10.4971C20.4701 10.4203 20.4701 10.341 20.4533 10.2569C20.3234 8.8498 20.3025 7.4348 20.3908 6.0244L20.4269 5.54402L19.9609 5.57284C19.7567 5.58485 19.5549 5.59206 19.3627 5.59206C19.0368 5.59157 18.7111 5.57152 18.3875 5.532C18.5659 5.02461 18.625 4.48297 18.5605 3.94903C18.4548 2.77201 17.4123 1.83519 16.5643 1.50611C16.23 1.39825 15.9317 1.20083 15.7017 0.93529C15.4718 0.66976 15.319 0.34628 15.26 0C15.0124 0.35931 14.8724 0.78179 14.8565 1.21786C14.8809 1.5651 14.9772 1.90348 15.1393 2.21154C15.3014 2.5196 15.5257 2.79062 15.7981 3.00741C16.1944 3.31488 15.9926 3.9178 15.4113 4.47268C14.4549 3.87718 13.5728 3.17001 12.7835 2.36606L12.4976 2.08501L12.2142 2.36606C11.4255 3.17002 10.5432 3.87647 9.5863 4.47029C9.0074 3.91781 8.8056 3.31488 9.1995 3.00741C9.4727 2.79115 9.6977 2.52031 9.8602 2.21217C10.0228 1.90404 10.1193 1.56539 10.1435 1.21786C10.1273 0.78147 9.9864 0.35886 9.7376 0C9.6788 0.346 9.5264 0.66929 9.2969 0.9348C9.0674 1.2003 8.7695 1.39788 8.4357 1.50611C7.58772 1.83519 6.54523 2.77201 6.43714 3.94903C6.3743 4.48237 6.43428 5.02301 6.61248 5.5296C6.28664 5.57112 5.95851 5.59198 5.63004 5.59206C5.44027 5.59206 5.24091 5.59206 5.03673 5.57284L4.57071 5.54402L4.60675 6.0244C4.69559 7.4364 4.6739 8.8531 4.54189 10.2617L4.52749 10.5019C3.08624 10.7013 2.36559 9.8462 2.52413 9.0823C2.68267 8.3184 3.61709 7.8164 4.18638 7.826C3.81166 7.4585 2.69468 7.3456 2.04612 7.5017C1.48761 7.6269 0.985721 7.9322 0.617681 8.3706C0.249631 8.8089 0.0358312 9.3561 0.00915121 9.9278C-0.125369 11.8495 1.23663 12.9328 3.20634 13.4805C3.66826 13.6012 4.11719 13.7669 4.5467 13.9753C4.5886 14.2657 4.64633 14.5536 4.71964 14.8377C4.10932 14.9667 3.54011 15.2439 3.06219 15.6448C2.73535 15.8834 2.47534 16.2021 2.30708 16.5701C2.13883 16.9382 2.06798 17.3433 2.10136 17.7466C2.10303 18.1101 2.23614 18.4608 2.4761 18.7339C2.65385 18.0277 2.93489 17.5857 3.57624 17.3383C4.41457 17.0116 5.38261 18.0589 6.00715 19.2455C6.8719 20.8885 8.5846 21.3305 10.3021 20.5402L10.3934 20.497C11.0604 20.8179 11.6764 21.2356 12.2213 21.7365L12.5024 22.0103L12.7858 21.7365C13.3313 21.2356 13.9472 20.8172 14.6138 20.4946L14.7075 20.5402C16.4226 21.3305 18.1377 20.8885 19.0024 19.2455C19.627 18.0637 20.595 17.0116 21.4333 17.3383C22.0747 17.5785 22.3534 18.0277 22.5335 18.7339C22.7735 18.4608 22.9066 18.1101 22.9082 17.7466C22.9416 17.3433 22.8708 16.9382 22.7025 16.5701C22.5343 16.2021 22.2742 15.8834 21.9474 15.6448C21.4689 15.2434 20.8988 14.9661 20.2876 14.8377C20.362 14.547 20.4173 14.2612 20.4605 13.9777C20.8875 13.7673 21.334 13.5992 21.7937 13.4757Z" fill="#0FDB9B"/>
<path d="M6.04563 6.9877C6.10046 8.1636 6.07318 9.3418 5.96397 10.5139C5.83185 12.3299 5.72375 13.764 6.49241 15.443C7.29711 17.2182 8.7624 17.9292 10.1796 18.6162C11.0085 18.9754 11.7882 19.4388 12.5 19.995C13.211 19.4388 13.99 18.9755 14.8181 18.6162C16.2377 17.9292 17.7006 17.2182 18.5077 15.443C19.2715 13.7616 19.1658 12.3203 19.0337 10.5139C18.9266 9.3417 18.9001 8.1635 18.9544 6.9877H18.7287C16.4731 6.9877 14.5971 6.1445 12.5 4.17242C10.403 6.1421 8.527 6.9877 6.27141 6.9877H6.04563Z" fill="white"/>
<path d="M12.5336 14.9242C12.5336 14.9242 11.8562 16.046 11.4455 16.7017C11.1765 16.7017 10.0883 16.7378 8.18109 16.7017C8.76719 15.6712 9.80729 13.8817 10.8498 12.1378C9.88889 10.5356 8.97609 8.9574 8.38039 7.9269C10.3333 7.8813 11.4215 7.9269 11.7025 7.9269C11.9836 8.4073 12.5336 9.3081 12.5336 9.3081C12.5336 9.3081 13.0381 8.4313 13.3407 7.9269C13.6218 7.9269 14.7099 7.8813 16.6748 7.9269C16.0671 8.9574 15.1543 10.5356 14.2079 12.1378C15.236 13.8817 16.2665 15.6712 16.8622 16.7017C14.979 16.7378 13.8668 16.7017 13.5977 16.7017C13.1894 16.058 12.5336 14.9242 12.5336 14.9242Z" fill="#0FDB9B"/>
</svg>
