<svg width="33" height="33" viewBox="0 0 33 33" fill="none" xmlns="http://www.w3.org/2000/svg">
<g clip-path="url(#clip0_7_189)">
<path d="M16.5 19.9L3.40002 25.3L16.5 30.6L29.6 25.3L16.5 19.9Z" fill="#00C9A8"/>
<path d="M16.5 31.7C16.4 31.7 16.2 31.7 16.1 31.6L2.99999 26.3C2.59999 26.1 2.29999 25.7 2.29999 25.3C2.29999 24.9 2.59999 24.5 2.99999 24.3L16.1 19C16.4 18.9 16.7 18.9 16.9 19L30 24.3C30.4 24.5 30.7 24.9 30.7 25.3C30.7 25.7 30.4 26.1 30 26.3L16.9 31.6C16.8 31.7 16.6 31.7 16.5 31.7ZM6.29999 25.3L16.5 29.5L26.7 25.3L16.5 21.1L6.29999 25.3Z" fill="#00EACB"/>
<path d="M16.5 22.1C17.6598 22.1 18.6 21.1598 18.6 20C18.6 18.8402 17.6598 17.9 16.5 17.9C15.3402 17.9 14.4 18.8402 14.4 20C14.4 21.1598 15.3402 22.1 16.5 22.1Z" fill="#00EACB"/>
<path d="M3.39999 27.4C4.55979 27.4 5.49999 26.4598 5.49999 25.3C5.49999 24.1402 4.55979 23.2 3.39999 23.2C2.24019 23.2 1.29999 24.1402 1.29999 25.3C1.29999 26.4598 2.24019 27.4 3.39999 27.4Z" fill="#00EACB"/>
<path d="M29.5 27.4C30.6598 27.4 31.6 26.4598 31.6 25.3C31.6 24.1402 30.6598 23.2 29.5 23.2C28.3402 23.2 27.4 24.1402 27.4 25.3C27.4 26.4598 28.3402 27.4 29.5 27.4Z" fill="#00EACB"/>
<mask id="mask0_7_189" style="mask-type:luminance" maskUnits="userSpaceOnUse" x="0" y="18" width="33" height="14">
<path d="M16.5 18.7L0.5 25.2L16.5 31.7L32.5 25.2L16.5 18.7Z" fill="white"/>
</mask>
<g mask="url(#mask0_7_189)">
<path d="M17.5 26.3C16.9 26.5 16 26.5 15.5 26.3L1.60002 20.6C1.00002 20.4 1.00002 20 1.60002 19.8L15.5 14.1C16.1 13.9 17 13.9 17.5 14.1L31.4 19.8C32 20 32 20.4 31.4 20.6L17.5 26.3ZM7.30002 19.8C6.70002 20 6.70002 20.4 7.30002 20.6L15.5 24C16.1 24.2 17 24.2 17.5 24L25.7 20.6C26.3 20.4 26.3 20 25.7 19.8L17.5 16.4C16.9 16.2 16 16.2 15.5 16.4L7.30002 19.8Z" fill="#00B794"/>
</g>
<path d="M17.5 25.2C16.9 25.4 16 25.4 15.5 25.2L1.60002 19.5C1.00002 19.3 1.00002 18.9 1.60002 18.7L15.5 13C16.1 12.8 17 12.8 17.5 13L31.4 18.7C32 18.9 32 19.3 31.4 19.5L17.5 25.2ZM7.30002 18.7C6.70002 18.9 6.70002 19.3 7.30002 19.5L15.5 22.9C16.1 23.1 17 23.1 17.5 22.9L25.7 19.5C26.3 19.3 26.3 18.9 25.7 18.7L17.5 15.3C16.9 15.1 16 15.1 15.5 15.3L7.30002 18.7Z" fill="#00D8B5"/>
<path d="M17.5 19.1C16.9 19.3 16 19.3 15.5 19.1L1.60002 13.4C1.00002 13.2 1.00002 12.8 1.60002 12.6L15.5 6.9C16.1 6.7 17 6.7 17.5 6.9L31.4 12.6C32 12.8 32 13.2 31.4 13.4L17.5 19.1ZM7.30002 12.6C6.70002 12.8 6.70002 13.2 7.30002 13.4L15.5 16.8C16.1 17 17 17 17.5 16.8L25.7 13.4C26.3 13.2 26.3 12.8 25.7 12.6L17.5 9.2C16.9 9 16 9 15.5 9.2L7.30002 12.6Z" fill="#00BAA1"/>
<path d="M17.5 12.9C16.9 13.1 16 13.1 15.5 12.9L1.60002 7.2C1.00002 7 1.00002 6.6 1.60002 6.4L15.5 0.699999C16.1 0.499999 17 0.499999 17.5 0.699999L31.4 6.4C32 6.6 32 7 31.4 7.2L17.5 12.9ZM7.30002 6.4C6.80002 6.6 6.80002 7 7.30002 7.2L15.5 10.6C16.1 10.8 17 10.8 17.5 10.6L25.7 7.2C26.3 7 26.3 6.6 25.7 6.4L17.5 3C16.9 2.8 16 2.8 15.5 3L7.30002 6.4Z" fill="#009BA0"/>
<path d="M16.5 32.7C17.6598 32.7 18.6 31.7598 18.6 30.6C18.6 29.4402 17.6598 28.5 16.5 28.5C15.3402 28.5 14.4 29.4402 14.4 30.6C14.4 31.7598 15.3402 32.7 16.5 32.7Z" fill="#00EACB"/>
<g opacity="0.2">
<path d="M16.5 19.9L3.40002 25.3L16.5 30.6L29.6 25.3L16.5 19.9Z" fill="url(#paint0_linear_7_189)"/>
<path d="M16.5 31.7C16.4 31.7 16.2 31.7 16.1 31.6L2.99999 26.3C2.59999 26.1 2.29999 25.7 2.29999 25.3C2.29999 24.9 2.59999 24.5 2.99999 24.3L16.1 19C16.4 18.9 16.7 18.9 16.9 19L30 24.3C30.4 24.5 30.7 24.9 30.7 25.3C30.7 25.7 30.4 26.1 30 26.3L16.9 31.6C16.8 31.7 16.6 31.7 16.5 31.7ZM6.29999 25.3L16.5 29.5L26.7 25.3L16.5 21.1L6.29999 25.3Z" fill="url(#paint1_linear_7_189)"/>
<path d="M16.5 22.1C17.6598 22.1 18.6 21.1598 18.6 20C18.6 18.8402 17.6598 17.9 16.5 17.9C15.3402 17.9 14.4 18.8402 14.4 20C14.4 21.1598 15.3402 22.1 16.5 22.1Z" fill="url(#paint2_linear_7_189)"/>
<path d="M3.39999 27.4C4.55979 27.4 5.49999 26.4598 5.49999 25.3C5.49999 24.1402 4.55979 23.2 3.39999 23.2C2.24019 23.2 1.29999 24.1402 1.29999 25.3C1.29999 26.4598 2.24019 27.4 3.39999 27.4Z" fill="url(#paint3_linear_7_189)"/>
<path d="M29.5 27.4C30.6598 27.4 31.6 26.4598 31.6 25.3C31.6 24.1402 30.6598 23.2 29.5 23.2C28.3402 23.2 27.4 24.1402 27.4 25.3C27.4 26.4598 28.3402 27.4 29.5 27.4Z" fill="url(#paint4_linear_7_189)"/>
<mask id="mask1_7_189" style="mask-type:luminance" maskUnits="userSpaceOnUse" x="0" y="18" width="33" height="14">
<path d="M16.5 18.7L0.5 25.2L16.5 31.7L32.5 25.2L16.5 18.7Z" fill="white"/>
</mask>
<g mask="url(#mask1_7_189)">
<path d="M17.5 26.3C16.9 26.5 16 26.5 15.5 26.3L1.60002 20.6C1.00002 20.4 1.00002 20 1.60002 19.8L15.5 14.1C16.1 13.9 17 13.9 17.5 14.1L31.4 19.8C32 20 32 20.4 31.4 20.6L17.5 26.3ZM7.30002 19.8C6.70002 20 6.70002 20.4 7.30002 20.6L15.5 24C16.1 24.2 17 24.2 17.5 24L25.7 20.6C26.3 20.4 26.3 20 25.7 19.8L17.5 16.4C16.9 16.2 16 16.2 15.5 16.4L7.30002 19.8Z" fill="url(#paint5_linear_7_189)"/>
<path d="M17.5 26.3C16.9 26.5 16 26.5 15.5 26.3L1.60002 20.6C1.00002 20.4 1.00002 20 1.60002 19.8L15.5 14.1C16.1 13.9 17 13.9 17.5 14.1L31.4 19.8C32 20 32 20.4 31.4 20.6L17.5 26.3ZM7.30002 19.8C6.70002 20 6.70002 20.4 7.30002 20.6L15.5 24C16.1 24.2 17 24.2 17.5 24L25.7 20.6C26.3 20.4 26.3 20 25.7 19.8L17.5 16.4C16.9 16.2 16 16.2 15.5 16.4L7.30002 19.8Z" fill="url(#paint6_linear_7_189)"/>
</g>
<path d="M17.5 25.2C16.9 25.4 16 25.4 15.5 25.2L1.60002 19.5C1.00002 19.3 1.00002 18.9 1.60002 18.7L15.5 13C16.1 12.8 17 12.8 17.5 13L31.4 18.7C32 18.9 32 19.3 31.4 19.5L17.5 25.2ZM7.30002 18.7C6.70002 18.9 6.70002 19.3 7.30002 19.5L15.5 22.9C16.1 23.1 17 23.1 17.5 22.9L25.7 19.5C26.3 19.3 26.3 18.9 25.7 18.7L17.5 15.3C16.9 15.1 16 15.1 15.5 15.3L7.30002 18.7Z" fill="url(#paint7_linear_7_189)"/>
<path d="M17.5 25.2C16.9 25.4 16 25.4 15.5 25.2L1.60002 19.5C1.00002 19.3 1.00002 18.9 1.60002 18.7L15.5 13C16.1 12.8 17 12.8 17.5 13L31.4 18.7C32 18.9 32 19.3 31.4 19.5L17.5 25.2ZM7.30002 18.7C6.70002 18.9 6.70002 19.3 7.30002 19.5L15.5 22.9C16.1 23.1 17 23.1 17.5 22.9L25.7 19.5C26.3 19.3 26.3 18.9 25.7 18.7L17.5 15.3C16.9 15.1 16 15.1 15.5 15.3L7.30002 18.7Z" fill="url(#paint8_linear_7_189)"/>
<path d="M17.5 19.1C16.9 19.3 16 19.3 15.5 19.1L1.60002 13.4C1.00002 13.2 1.00002 12.8 1.60002 12.6L15.5 6.9C16.1 6.7 17 6.7 17.5 6.9L31.4 12.6C32 12.8 32 13.2 31.4 13.4L17.5 19.1ZM7.30002 12.6C6.70002 12.8 6.70002 13.2 7.30002 13.4L15.5 16.8C16.1 17 17 17 17.5 16.8L25.7 13.4C26.3 13.2 26.3 12.8 25.7 12.6L17.5 9.2C16.9 9 16 9 15.5 9.2L7.30002 12.6Z" fill="url(#paint9_linear_7_189)"/>
<path d="M17.5 19.1C16.9 19.3 16 19.3 15.5 19.1L1.60002 13.4C1.00002 13.2 1.00002 12.8 1.60002 12.6L15.5 6.9C16.1 6.7 17 6.7 17.5 6.9L31.4 12.6C32 12.8 32 13.2 31.4 13.4L17.5 19.1ZM7.30002 12.6C6.70002 12.8 6.70002 13.2 7.30002 13.4L15.5 16.8C16.1 17 17 17 17.5 16.8L25.7 13.4C26.3 13.2 26.3 12.8 25.7 12.6L17.5 9.2C16.9 9 16 9 15.5 9.2L7.30002 12.6Z" fill="url(#paint10_linear_7_189)"/>
<path d="M17.5 12.9C16.9 13.1 16 13.1 15.5 12.9L1.60002 7.2C1.00002 7 1.00002 6.6 1.60002 6.4L15.5 0.699999C16.1 0.499999 17 0.499999 17.5 0.699999L31.4 6.4C32 6.6 32 7 31.4 7.2L17.5 12.9ZM7.30002 6.4C6.80002 6.6 6.80002 7 7.30002 7.2L15.5 10.6C16.1 10.8 17 10.8 17.5 10.6L25.7 7.2C26.3 7 26.3 6.6 25.7 6.4L17.5 3C16.9 2.8 16 2.8 15.5 3L7.30002 6.4Z" fill="url(#paint11_linear_7_189)"/>
<path d="M17.5 12.9C16.9 13.1 16 13.1 15.5 12.9L1.60002 7.2C1.00002 7 1.00002 6.6 1.60002 6.4L15.5 0.699999C16.1 0.499999 17 0.499999 17.5 0.699999L31.4 6.4C32 6.6 32 7 31.4 7.2L17.5 12.9ZM7.30002 6.4C6.80002 6.6 6.80002 7 7.30002 7.2L15.5 10.6C16.1 10.8 17 10.8 17.5 10.6L25.7 7.2C26.3 7 26.3 6.6 25.7 6.4L17.5 3C16.9 2.8 16 2.8 15.5 3L7.30002 6.4Z" fill="url(#paint12_linear_7_189)"/>
<path d="M16.5 32.7C17.6598 32.7 18.6 31.7598 18.6 30.6C18.6 29.4402 17.6598 28.5 16.5 28.5C15.3402 28.5 14.4 29.4402 14.4 30.6C14.4 31.7598 15.3402 32.7 16.5 32.7Z" fill="url(#paint13_linear_7_189)"/>
</g>
</g>
<defs>
<linearGradient id="paint0_linear_7_189" x1="-0.416776" y1="22.7464" x2="33.1862" y2="10.5159" gradientUnits="userSpaceOnUse">
<stop stop-color="#00F7FF"/>
<stop offset="1" stop-color="#6FFF00"/>
</linearGradient>
<linearGradient id="paint1_linear_7_189" x1="-0.416813" y1="22.7464" x2="33.1862" y2="10.5159" gradientUnits="userSpaceOnUse">
<stop stop-color="#00F7FF"/>
<stop offset="1" stop-color="#6FFF00"/>
</linearGradient>
<linearGradient id="paint2_linear_7_189" x1="-0.416778" y1="22.7464" x2="33.1862" y2="10.5159" gradientUnits="userSpaceOnUse">
<stop stop-color="#00F7FF"/>
<stop offset="1" stop-color="#6FFF00"/>
</linearGradient>
<linearGradient id="paint3_linear_7_189" x1="-0.416812" y1="22.7464" x2="33.1862" y2="10.5159" gradientUnits="userSpaceOnUse">
<stop stop-color="#00F7FF"/>
<stop offset="1" stop-color="#6FFF00"/>
</linearGradient>
<linearGradient id="paint4_linear_7_189" x1="-0.416768" y1="22.7464" x2="33.1862" y2="10.5159" gradientUnits="userSpaceOnUse">
<stop stop-color="#00F7FF"/>
<stop offset="1" stop-color="#6FFF00"/>
</linearGradient>
<linearGradient id="paint5_linear_7_189" x1="-0.416776" y1="22.7464" x2="33.1862" y2="10.5159" gradientUnits="userSpaceOnUse">
<stop stop-color="#00F7FF"/>
<stop offset="1" stop-color="#6FFF00"/>
</linearGradient>
<linearGradient id="paint6_linear_7_189" x1="-0.416776" y1="22.7464" x2="33.1862" y2="10.5159" gradientUnits="userSpaceOnUse">
<stop stop-color="#00F7FF"/>
<stop offset="1" stop-color="#6FFF00"/>
</linearGradient>
<linearGradient id="paint7_linear_7_189" x1="-0.416776" y1="22.7464" x2="33.1862" y2="10.5159" gradientUnits="userSpaceOnUse">
<stop stop-color="#00F7FF"/>
<stop offset="1" stop-color="#6FFF00"/>
</linearGradient>
<linearGradient id="paint8_linear_7_189" x1="-0.416776" y1="22.7464" x2="33.1862" y2="10.5159" gradientUnits="userSpaceOnUse">
<stop stop-color="#00F7FF"/>
<stop offset="1" stop-color="#6FFF00"/>
</linearGradient>
<linearGradient id="paint9_linear_7_189" x1="-0.416776" y1="22.7464" x2="33.1862" y2="10.5159" gradientUnits="userSpaceOnUse">
<stop stop-color="#00F7FF"/>
<stop offset="1" stop-color="#6FFF00"/>
</linearGradient>
<linearGradient id="paint10_linear_7_189" x1="-0.416776" y1="22.7464" x2="33.1862" y2="10.5159" gradientUnits="userSpaceOnUse">
<stop stop-color="#00F7FF"/>
<stop offset="1" stop-color="#6FFF00"/>
</linearGradient>
<linearGradient id="paint11_linear_7_189" x1="-0.416776" y1="22.7464" x2="33.1862" y2="10.5159" gradientUnits="userSpaceOnUse">
<stop stop-color="#00F7FF"/>
<stop offset="1" stop-color="#6FFF00"/>
</linearGradient>
<linearGradient id="paint12_linear_7_189" x1="-0.416776" y1="22.7464" x2="33.1862" y2="10.5159" gradientUnits="userSpaceOnUse">
<stop stop-color="#00F7FF"/>
<stop offset="1" stop-color="#6FFF00"/>
</linearGradient>
<linearGradient id="paint13_linear_7_189" x1="-0.416778" y1="22.7464" x2="33.1862" y2="10.5159" gradientUnits="userSpaceOnUse">
<stop stop-color="#00F7FF"/>
<stop offset="1" stop-color="#6FFF00"/>
</linearGradient>
<clipPath id="clip0_7_189">
<rect width="32" height="33" fill="white" transform="translate(0.5)"/>
</clipPath>
</defs>
</svg>
