<?xml version="1.0" encoding="UTF-8"?>
<svg height="600" width="800" xmlns="http://www.w3.org/2000/svg" xmlns:xlink="http://www.w3.org/1999/xlink">
    <g id="Notes" font-family="'LucidaGrande', 'Lucida Grande', sans-serif" font-size="13">
        <rect fill="white" height="600.0" width="800.0" x="0.0" y="0.0" />
        <g font-size="13">
            <text x="18.0" y="176.0">Small</text>
            <text x="18.0" y="376.0">Medium</text>
            <text x="18.0" y="576.0">Large</text>
        </g>
        <g font-size="9">
            <text x="250.0" y="30.0">Ultralight</text>
            <text x="450.0" y="30.0">Regular</text>
            <text x="650.0" y="30.0">Black</text>
            <text id="template-version" fill="#505050" text-anchor="end" x="785.0" y="575.0">Template v.3.0</text>
            <a href="https://github.com/swhitty/SwiftDraw">
                <text fill="#505050" text-anchor="end" x="785.0" y="590.0">https://github.com/swhitty/SwiftDraw</text>
            </a>
        </g>
    </g>
    <g id="Guides" stroke="rgb(39, 170, 225)" stroke-width="0.5">
        <path id="Capline-S" d="M18,76 l800,0" />
        <path id="H-reference" d="M85,145.755 L87.685,145.755 L113.369,79.287 L114.052,79.287 L114.052,76 L112.148,76 L85,145.755 Z M95.693,121.536 L130.996,121.536 L130.263,119.313 L96.474,119.313 L95.693,121.536 Z M139.15,145.755 L141.787,145.755 L114.638,76 L113.466,76 L113.466,79.287 L139.15,145.755 Z" stroke="none" />
        <path id="Baseline-S" d="M18,146 l800,0" />
        <path id="left-margin-Ultralight-S" d="M213.519,56 l0,110" />
        <path id="right-margin-Ultralight-S" d="M316.481,56 l0,110" />
        <path id="left-margin-Regular-S" d="M413.519,56 l0,110" />
        <path id="right-margin-Regular-S" d="M516.481,56 l0,110" />
        <path id="left-margin-Black-S" d="M613.519,56 l0,110" />
        <path id="right-margin-Black-S" d="M716.481,56 l0,110" />
        <path id="Capline-M" d="M18,276 l800,0" />
        <path id="Baseline-M" d="M18,346 l800,0" />
        <path id="Capline-L" d="M18,476 l800,0" />
        <path id="Baseline-L" d="M18,546 l800,0" />
    </g>
    <g id="Symbols">
        <g id="Ultralight-S">
            <path d="M304.885,102.358 C302.686,98.573 298.704,98.373 295.805,98.848 C294.753,99.021 294.494,100.406 295.424,100.911 C296.762,101.643 297.996,102.817 297.887,104.652 C297.659,108.495 294.118,108.821 292.401,108.754 C291.862,108.731 291.416,108.331 291.336,107.805 C290.706,103.582 290.973,96.66 291.123,93.797 C291.157,93.131 290.592,92.582 289.915,92.633 C288.354,92.753 286.905,92.701 285.915,92.628 C285.235,92.579 284.761,91.957 284.891,91.301 C285.907,86.217 283.804,81.376 279.698,79.888 C277.131,78.96 275.739,77.638 274.987,76.5 C274.453,75.694 273.19,75.904 272.947,76.837 C271.77,81.33 275.404,83.362 276.177,84.819 C276.931,86.235 275.923,87.466 275.197,88.117 C274.839,88.433 274.318,88.49 273.898,88.265 C270.142,86.263 267.199,83.419 265.835,81.968 C265.374,81.478 264.63,81.478 264.171,81.968 C262.807,83.419 259.865,86.263 256.108,88.265 C255.685,88.49 255.164,88.433 254.809,88.117 C254.081,87.469 253.075,86.235 253.829,84.819 C254.602,83.362 258.239,81.33 257.059,76.837 C256.816,75.906 255.553,75.696 255.019,76.5 C254.267,77.638 252.875,78.96 250.308,79.888 C246.199,81.376 244.097,86.217 245.116,91.301 C245.245,91.957 244.771,92.582 244.091,92.628 C243.099,92.701 241.649,92.753 240.091,92.633 C239.414,92.584 238.849,93.134 238.883,93.797 C239.031,96.66 239.3,103.582 238.67,107.805 C238.59,108.331 238.144,108.731 237.605,108.754 C235.889,108.824 232.347,108.497 232.119,104.652 C232.01,102.817 233.244,101.643 234.582,100.911 C235.513,100.406 235.253,99.019 234.201,98.848 C231.297,98.376 227.315,98.573 225.116,102.358 C221.383,108.78 225.116,113.366 226.983,114.971 C228.943,116.659 235.043,119.065 237.89,119.663 C238.352,119.759 238.699,120.128 238.772,120.581 L238.971,121.857 C239.054,122.375 238.753,122.878 238.253,123.067 C236.438,123.747 232.298,125.603 231.183,128.735 C230.592,130.391 230.522,131.75 230.67,132.808 C230.818,133.863 232.272,134.122 232.793,133.191 C233.462,131.994 234.569,130.798 236.314,130.798 C239.347,130.798 241.525,133.987 244.475,138.822 C248.087,144.739 255.659,142.348 257.713,141.563 C258.055,141.431 258.434,141.467 258.739,141.664 C259.771,142.32 262.19,143.927 264.259,145.724 C264.682,146.092 265.325,146.092 265.747,145.724 C267.813,143.927 270.235,142.32 271.267,141.664 C271.57,141.467 271.951,141.431 272.293,141.563 C274.347,142.348 281.92,144.739 285.528,138.822 C288.481,133.985 290.659,130.798 293.692,130.798 C295.437,130.798 296.544,131.991 297.213,133.191 C297.734,134.125 299.191,133.863 299.336,132.808 C299.484,131.75 299.414,130.391 298.823,128.735 C297.708,125.603 293.571,123.747 291.753,123.067 C291.253,122.878 290.952,122.375 291.035,121.857 L291.235,120.581 C291.307,120.128 291.655,119.759 292.116,119.663 C294.963,119.065 301.063,116.656 303.023,114.971 C304.885,113.366 308.615,108.782 304.885,102.358 Z M259.048,105.262 C259.893,105.415 261.28,105.653 262.592,105.809 C263.012,105.858 263.383,105.534 263.378,105.114 L263.378,105.093 C263.378,105.026 263.388,104.964 263.406,104.901 C260.772,104.204 258.833,101.84 258.833,99.032 C258.833,95.677 261.599,92.955 265.016,92.955 C268.428,92.955 271.197,95.674 271.197,99.032 C271.197,101.853 269.239,104.225 266.587,104.912 C266.603,104.971 266.613,105.031 266.613,105.093 L266.613,105.114 C266.608,105.531 266.979,105.855 267.399,105.809 C268.71,105.653 270.097,105.415 270.94,105.262 C271.389,105.181 271.798,105.531 271.767,105.977 C271.612,108.36 269.338,109.2 267.222,109.462 C266.865,109.506 266.595,109.804 266.6,110.157 C266.603,110.237 266.603,110.315 266.605,110.385 C266.657,112.482 266.859,115.731 269.851,118.25 C270.193,118.538 270.167,119.07 269.799,119.329 C269.084,119.835 267.679,120.822 265.013,121.613 L265.013,121.626 C265.006,121.623 264.998,121.621 264.993,121.621 C264.985,121.623 264.98,121.626 264.975,121.626 L264.975,121.613 C262.309,120.822 260.904,119.832 260.189,119.329 C259.821,119.07 259.795,118.541 260.137,118.25 C263.129,115.731 263.333,112.485 263.383,110.385 C263.385,110.312 263.385,110.237 263.388,110.157 C263.393,109.801 263.123,109.506 262.766,109.462 C260.653,109.2 258.379,108.36 258.218,105.977 C258.192,105.534 258.605,105.181 259.048,105.262 Z M268.34,134.651 C267.469,135.325 266.141,135.942 265.395,136.793 C265.195,137.021 264.837,137.021 264.638,136.793 C263.896,135.942 262.569,135.325 261.692,134.651 C261.368,134.402 261.48,133.894 261.882,133.796 C263.069,133.497 264.378,133.261 264.842,133.093 C264.954,133.051 265.076,133.051 265.187,133.093 C265.651,133.261 266.963,133.497 268.148,133.796 C268.552,133.894 268.664,134.402 268.34,134.651 Z M283.864,118.053 C283.729,118.878 282.682,119.173 282.111,118.556 L282.003,118.44 C281.554,117.952 280.753,118.022 280.395,118.58 C278.697,121.232 276.882,123.392 275.042,125.142 C276.276,125.183 277.569,125.175 278.925,125.105 C279.755,125.064 280.294,125.958 279.838,126.645 C278.466,128.696 275.9,131.947 273.227,132.256 C271.586,132.447 268.573,132.398 265,131.239 C261.431,132.398 258.418,132.447 256.777,132.256 C254.104,131.947 251.537,128.696 250.166,126.645 C249.707,125.961 250.249,125.064 251.078,125.105 C252.434,125.175 253.728,125.183 254.962,125.142 C253.121,123.392 251.307,121.232 249.606,118.58 C249.251,118.022 248.45,117.952 248.001,118.44 L247.892,118.556 C247.322,119.176 246.274,118.878 246.14,118.053 C245.803,116.008 245.611,112.404 246.943,107.683 C247.161,106.905 248.177,106.682 248.701,107.302 C250.078,108.928 252.502,111.551 255.112,113.26 C255.862,113.75 255.644,114.885 254.762,115.067 C254.742,115.072 254.718,115.075 254.698,115.08 C253.93,115.235 253.624,116.151 254.148,116.726 C255.732,118.46 259.17,121.509 264.998,123.43 C270.829,121.509 274.266,118.463 275.85,116.726 C276.374,116.151 276.068,115.235 275.301,115.08 C275.28,115.075 275.257,115.072 275.236,115.067 C274.354,114.885 274.134,113.75 274.886,113.26 C277.497,111.551 279.923,108.928 281.297,107.302 C281.821,106.682 282.837,106.905 283.055,107.683 C284.393,112.407 284.201,116.008 283.864,118.053 Z" />
            <path d="M265.017,101.73 C266.29,101.73 267.322,100.698 267.322,99.425 C267.322,98.155 266.29,97.123 265.017,97.123 C263.747,97.123 262.715,98.155 262.715,99.425 C262.715,100.698 263.747,101.73 265.017,101.73 Z" />
        </g>
        <g id="Regular-S">
            <path d="M504.885,102.358 C502.686,98.573 498.704,98.373 495.805,98.848 C494.753,99.021 494.494,100.406 495.424,100.911 C496.762,101.643 497.996,102.817 497.887,104.652 C497.659,108.495 494.118,108.821 492.401,108.754 C491.862,108.731 491.416,108.331 491.336,107.805 C490.706,103.582 490.973,96.66 491.123,93.797 C491.157,93.131 490.592,92.582 489.915,92.633 C488.354,92.753 486.905,92.701 485.915,92.628 C485.235,92.579 484.761,91.957 484.891,91.301 C485.907,86.217 483.804,81.376 479.698,79.888 C477.131,78.96 475.739,77.638 474.987,76.5 C474.453,75.694 473.19,75.904 472.947,76.837 C471.77,81.33 475.404,83.362 476.177,84.819 C476.931,86.235 475.923,87.466 475.197,88.117 C474.839,88.433 474.318,88.49 473.898,88.265 C470.142,86.263 467.199,83.419 465.835,81.968 C465.374,81.478 464.63,81.478 464.171,81.968 C462.807,83.419 459.865,86.263 456.108,88.265 C455.685,88.49 455.164,88.433 454.809,88.117 C454.081,87.469 453.075,86.235 453.829,84.819 C454.602,83.362 458.239,81.33 457.059,76.837 C456.816,75.906 455.553,75.696 455.019,76.5 C454.267,77.638 452.875,78.96 450.308,79.888 C446.199,81.376 444.097,86.217 445.116,91.301 C445.245,91.957 444.771,92.582 444.091,92.628 C443.099,92.701 441.649,92.753 440.091,92.633 C439.414,92.584 438.849,93.134 438.883,93.797 C439.031,96.66 439.3,103.582 438.67,107.805 C438.59,108.331 438.144,108.731 437.605,108.754 C435.889,108.824 432.347,108.497 432.119,104.652 C432.01,102.817 433.244,101.643 434.582,100.911 C435.513,100.406 435.253,99.019 434.201,98.848 C431.297,98.376 427.315,98.573 425.116,102.358 C421.383,108.78 425.116,113.366 426.983,114.971 C428.943,116.659 435.043,119.065 437.89,119.663 C438.352,119.759 438.699,120.128 438.772,120.581 L438.971,121.857 C439.054,122.375 438.753,122.878 438.253,123.067 C436.438,123.747 432.298,125.603 431.183,128.735 C430.592,130.391 430.522,131.75 430.67,132.808 C430.818,133.863 432.272,134.122 432.793,133.191 C433.462,131.994 434.569,130.798 436.314,130.798 C439.347,130.798 441.525,133.987 444.475,138.822 C448.087,144.739 455.659,142.348 457.713,141.563 C458.055,141.431 458.434,141.467 458.739,141.664 C459.771,142.32 462.19,143.927 464.259,145.724 C464.682,146.092 465.325,146.092 465.747,145.724 C467.813,143.927 470.235,142.32 471.267,141.664 C471.57,141.467 471.951,141.431 472.293,141.563 C474.347,142.348 481.92,144.739 485.528,138.822 C488.481,133.985 490.659,130.798 493.692,130.798 C495.437,130.798 496.544,131.991 497.213,133.191 C497.734,134.125 499.191,133.863 499.336,132.808 C499.484,131.75 499.414,130.391 498.823,128.735 C497.708,125.603 493.571,123.747 491.753,123.067 C491.253,122.878 490.952,122.375 491.035,121.857 L491.235,120.581 C491.307,120.128 491.655,119.759 492.116,119.663 C494.963,119.065 501.063,116.656 503.023,114.971 C504.885,113.366 508.615,108.782 504.885,102.358 Z M459.048,105.262 C459.893,105.415 461.28,105.653 462.592,105.809 C463.012,105.858 463.383,105.534 463.378,105.114 L463.378,105.093 C463.378,105.026 463.388,104.964 463.406,104.901 C460.772,104.204 458.833,101.84 458.833,99.032 C458.833,95.677 461.599,92.955 465.016,92.955 C468.428,92.955 471.197,95.674 471.197,99.032 C471.197,101.853 469.239,104.225 466.587,104.912 C466.603,104.971 466.613,105.031 466.613,105.093 L466.613,105.114 C466.608,105.531 466.979,105.855 467.399,105.809 C468.71,105.653 470.097,105.415 470.94,105.262 C471.389,105.181 471.798,105.531 471.767,105.977 C471.612,108.36 469.338,109.2 467.222,109.462 C466.865,109.506 466.595,109.804 466.6,110.157 C466.603,110.237 466.603,110.315 466.605,110.385 C466.657,112.482 466.859,115.731 469.851,118.25 C470.193,118.538 470.167,119.07 469.799,119.329 C469.084,119.835 467.679,120.822 465.013,121.613 L465.013,121.626 C465.006,121.623 464.998,121.621 464.993,121.621 C464.985,121.623 464.98,121.626 464.975,121.626 L464.975,121.613 C462.309,120.822 460.904,119.832 460.189,119.329 C459.821,119.07 459.795,118.541 460.137,118.25 C463.129,115.731 463.333,112.485 463.383,110.385 C463.385,110.312 463.385,110.237 463.388,110.157 C463.393,109.801 463.123,109.506 462.766,109.462 C460.653,109.2 458.379,108.36 458.218,105.977 C458.192,105.534 458.605,105.181 459.048,105.262 Z M468.34,134.651 C467.469,135.325 466.141,135.942 465.395,136.793 C465.195,137.021 464.837,137.021 464.638,136.793 C463.896,135.942 462.569,135.325 461.692,134.651 C461.368,134.402 461.48,133.894 461.882,133.796 C463.069,133.497 464.378,133.261 464.842,133.093 C464.954,133.051 465.076,133.051 465.187,133.093 C465.651,133.261 466.963,133.497 468.148,133.796 C468.552,133.894 468.664,134.402 468.34,134.651 Z M483.864,118.053 C483.729,118.878 482.682,119.173 482.111,118.556 L482.003,118.44 C481.554,117.952 480.753,118.022 480.395,118.58 C478.697,121.232 476.882,123.392 475.042,125.142 C476.276,125.183 477.569,125.175 478.925,125.105 C479.755,125.064 480.294,125.958 479.838,126.645 C478.466,128.696 475.9,131.947 473.227,132.256 C471.586,132.447 468.573,132.398 465,131.239 C461.431,132.398 458.418,132.447 456.777,132.256 C454.104,131.947 451.537,128.696 450.166,126.645 C449.707,125.961 450.249,125.064 451.078,125.105 C452.434,125.175 453.728,125.183 454.962,125.142 C453.121,123.392 451.307,121.232 449.606,118.58 C449.251,118.022 448.45,117.952 448.001,118.44 L447.892,118.556 C447.322,119.176 446.274,118.878 446.14,118.053 C445.803,116.008 445.611,112.404 446.943,107.683 C447.161,106.905 448.177,106.682 448.701,107.302 C450.078,108.928 452.502,111.551 455.112,113.26 C455.862,113.75 455.644,114.885 454.762,115.067 C454.742,115.072 454.718,115.075 454.698,115.08 C453.93,115.235 453.624,116.151 454.148,116.726 C455.732,118.46 459.17,121.509 464.998,123.43 C470.829,121.509 474.266,118.463 475.85,116.726 C476.374,116.151 476.068,115.235 475.301,115.08 C475.28,115.075 475.257,115.072 475.236,115.067 C474.354,114.885 474.134,113.75 474.886,113.26 C477.497,111.551 479.923,108.928 481.297,107.302 C481.821,106.682 482.837,106.905 483.055,107.683 C484.393,112.407 484.201,116.008 483.864,118.053 Z" />
            <path d="M465.017,101.73 C466.29,101.73 467.322,100.698 467.322,99.425 C467.322,98.155 466.29,97.123 465.017,97.123 C463.747,97.123 462.715,98.155 462.715,99.425 C462.715,100.698 463.747,101.73 465.017,101.73 Z" />
        </g>
        <g id="Black-S">
            <path d="M704.885,102.358 C702.686,98.573 698.704,98.373 695.805,98.848 C694.753,99.021 694.494,100.406 695.424,100.911 C696.762,101.643 697.996,102.817 697.887,104.652 C697.659,108.495 694.118,108.821 692.401,108.754 C691.862,108.731 691.416,108.331 691.336,107.805 C690.706,103.582 690.973,96.66 691.123,93.797 C691.157,93.131 690.592,92.582 689.915,92.633 C688.354,92.753 686.905,92.701 685.915,92.628 C685.235,92.579 684.761,91.957 684.891,91.301 C685.907,86.217 683.804,81.376 679.698,79.888 C677.131,78.96 675.739,77.638 674.987,76.5 C674.453,75.694 673.19,75.904 672.947,76.837 C671.77,81.33 675.404,83.362 676.177,84.819 C676.931,86.235 675.923,87.466 675.197,88.117 C674.839,88.433 674.318,88.49 673.898,88.265 C670.142,86.263 667.199,83.419 665.835,81.968 C665.374,81.478 664.63,81.478 664.171,81.968 C662.807,83.419 659.865,86.263 656.108,88.265 C655.685,88.49 655.164,88.433 654.809,88.117 C654.081,87.469 653.075,86.235 653.829,84.819 C654.602,83.362 658.239,81.33 657.059,76.837 C656.816,75.906 655.553,75.696 655.019,76.5 C654.267,77.638 652.875,78.96 650.308,79.888 C646.199,81.376 644.097,86.217 645.116,91.301 C645.245,91.957 644.771,92.582 644.091,92.628 C643.099,92.701 641.649,92.753 640.091,92.633 C639.414,92.584 638.849,93.134 638.883,93.797 C639.031,96.66 639.3,103.582 638.67,107.805 C638.59,108.331 638.144,108.731 637.605,108.754 C635.889,108.824 632.347,108.497 632.119,104.652 C632.01,102.817 633.244,101.643 634.582,100.911 C635.513,100.406 635.253,99.019 634.201,98.848 C631.297,98.376 627.315,98.573 625.117,102.358 C621.383,108.78 625.117,113.366 626.983,114.971 C628.943,116.659 635.043,119.065 637.89,119.663 C638.352,119.759 638.699,120.128 638.772,120.581 L638.971,121.857 C639.054,122.375 638.753,122.878 638.253,123.067 C636.438,123.747 632.298,125.603 631.183,128.735 C630.592,130.391 630.522,131.75 630.67,132.808 C630.818,133.863 632.272,134.122 632.793,133.191 C633.462,131.994 634.569,130.798 636.314,130.798 C639.347,130.798 641.525,133.987 644.475,138.822 C648.087,144.739 655.659,142.348 657.713,141.563 C658.055,141.431 658.434,141.467 658.739,141.664 C659.771,142.32 662.19,143.927 664.259,145.724 C664.682,146.092 665.325,146.092 665.747,145.724 C667.813,143.927 670.235,142.32 671.267,141.664 C671.57,141.467 671.951,141.431 672.293,141.563 C674.347,142.348 681.92,144.739 685.528,138.822 C688.481,133.985 690.659,130.798 693.692,130.798 C695.437,130.798 696.544,131.991 697.213,133.191 C697.734,134.125 699.191,133.863 699.336,132.808 C699.484,131.75 699.414,130.391 698.823,128.735 C697.708,125.603 693.571,123.747 691.753,123.067 C691.253,122.878 690.952,122.375 691.035,121.857 L691.235,120.581 C691.307,120.128 691.655,119.759 692.116,119.663 C694.963,119.065 701.063,116.656 703.023,114.971 C704.885,113.366 708.615,108.782 704.885,102.358 Z M659.048,105.262 C659.893,105.415 661.28,105.653 662.592,105.809 C663.012,105.858 663.383,105.534 663.378,105.114 L663.378,105.093 C663.378,105.026 663.388,104.964 663.406,104.901 C660.772,104.204 658.833,101.84 658.833,99.032 C658.833,95.677 661.599,92.955 665.016,92.955 C668.428,92.955 671.197,95.674 671.197,99.032 C671.197,101.853 669.239,104.225 666.587,104.912 C666.603,104.971 666.613,105.031 666.613,105.093 L666.613,105.114 C666.608,105.531 666.979,105.855 667.399,105.809 C668.71,105.653 670.097,105.415 670.94,105.262 C671.389,105.181 671.798,105.531 671.767,105.977 C671.612,108.36 669.338,109.2 667.222,109.462 C666.865,109.506 666.595,109.804 666.6,110.157 C666.603,110.237 666.603,110.315 666.605,110.385 C666.657,112.482 666.859,115.731 669.851,118.25 C670.193,118.538 670.167,119.07 669.799,119.329 C669.084,119.835 667.679,120.822 665.013,121.613 L665.013,121.626 C665.006,121.623 664.998,121.621 664.993,121.621 C664.985,121.623 664.98,121.626 664.975,121.626 L664.975,121.613 C662.309,120.822 660.904,119.832 660.189,119.329 C659.821,119.07 659.795,118.541 660.137,118.25 C663.129,115.731 663.333,112.485 663.383,110.385 C663.385,110.312 663.385,110.237 663.388,110.157 C663.393,109.801 663.123,109.506 662.766,109.462 C660.653,109.2 658.379,108.36 658.218,105.977 C658.192,105.534 658.605,105.181 659.048,105.262 Z M668.34,134.651 C667.469,135.325 666.141,135.942 665.395,136.793 C665.195,137.021 664.837,137.021 664.638,136.793 C663.896,135.942 662.569,135.325 661.692,134.651 C661.368,134.402 661.48,133.894 661.882,133.796 C663.069,133.497 664.378,133.261 664.842,133.093 C664.954,133.051 665.076,133.051 665.187,133.093 C665.651,133.261 666.963,133.497 668.148,133.796 C668.552,133.894 668.664,134.402 668.34,134.651 Z M683.864,118.053 C683.729,118.878 682.682,119.173 682.111,118.556 L682.003,118.44 C681.554,117.952 680.753,118.022 680.395,118.58 C678.697,121.232 676.882,123.392 675.042,125.142 C676.276,125.183 677.569,125.175 678.925,125.105 C679.755,125.064 680.294,125.958 679.838,126.645 C678.466,128.696 675.9,131.947 673.227,132.256 C671.586,132.447 668.573,132.398 665,131.239 C661.431,132.398 658.418,132.447 656.777,132.256 C654.104,131.947 651.537,128.696 650.166,126.645 C649.707,125.961 650.249,125.064 651.078,125.105 C652.434,125.175 653.728,125.183 654.962,125.142 C653.121,123.392 651.307,121.232 649.606,118.58 C649.251,118.022 648.45,117.952 648.001,118.44 L647.892,118.556 C647.322,119.176 646.274,118.878 646.14,118.053 C645.803,116.008 645.611,112.404 646.943,107.683 C647.161,106.905 648.177,106.682 648.701,107.302 C650.078,108.928 652.502,111.551 655.112,113.26 C655.862,113.75 655.644,114.885 654.762,115.067 C654.742,115.072 654.718,115.075 654.698,115.08 C653.93,115.235 653.624,116.151 654.148,116.726 C655.732,118.46 659.17,121.509 664.998,123.43 C670.829,121.509 674.266,118.463 675.85,116.726 C676.374,116.151 676.068,115.235 675.301,115.08 C675.28,115.075 675.257,115.072 675.236,115.067 C674.354,114.885 674.134,113.75 674.886,113.26 C677.497,111.551 679.923,108.928 681.297,107.302 C681.821,106.682 682.837,106.905 683.055,107.683 C684.393,112.407 684.201,116.008 683.864,118.053 Z" />
            <path d="M665.017,101.73 C666.29,101.73 667.322,100.698 667.322,99.425 C667.322,98.155 666.29,97.123 665.017,97.123 C663.747,97.123 662.715,98.155 662.715,99.425 C662.715,100.698 663.747,101.73 665.017,101.73 Z" />
        </g>
    </g>
</svg>