<?xml version="1.0" encoding="UTF-8" standalone="no"?>
<!DOCTYPE svg PUBLIC "-//W3C//DTD SVG 1.1//EN" "http://www.w3.org/Graphics/SVG/1.1/DTD/svg11.dtd">
<svg width="100%" height="100%" viewBox="0 0 26 22" version="1.1" xmlns="http://www.w3.org/2000/svg" xmlns:xlink="http://www.w3.org/1999/xlink" xml:space="preserve" xmlns:serif="http://www.serif.com/" style="fill-rule:evenodd;clip-rule:evenodd;stroke-linejoin:round;stroke-miterlimit:2;">
    <path d="M7.693,17.659C7.678,17.648 7.662,17.637 7.646,17.626C6.331,17.401 2.968,14.478 1.94,13.91C0.611,13.174 -0.332,12.299 0.11,11.254C0.553,10.209 0.977,10.522 1.12,10.753C1.468,11.314 1.172,11.66 1.863,12.121L2.153,10.165L3.417,11.135L2.594,12.499C3.604,12.966 3.35,12.816 4.895,13.141C6.038,13.381 7.021,14.078 7.021,14.078C7.021,14.078 7.229,12.84 7.134,11.671C7.109,11.362 7.083,11.047 7.05,10.731L6.43,11.078L6.006,9.966L6.937,9.87C6.862,9.413 6.757,8.964 6.602,8.535L5.799,9.401L5.062,8.448L6.243,7.755C6.14,7.576 6.024,7.404 5.893,7.238C5.745,7.051 5.597,6.866 5.448,6.699L4.774,7.966L3.776,7.228L4.963,6.242C4.655,6.021 4.347,5.956 4.039,6.193C3.515,6.595 3.059,5.783 3.097,5.243C3.147,4.553 4.332,3.905 4.657,3.659C5.27,3.196 6.266,3.512 7.338,4.348C8.094,4.939 8.664,5.529 9.068,5.937C9.135,6.003 9.233,6.026 9.321,5.993C10.796,5.431 10.909,1.691 9.848,0C11.796,0.808 12.498,2.888 11.931,5C11.931,5 13.311,4.204 12.466,1.465C12.466,1.465 14.681,2.743 15.371,5.438C15.606,7.078 14.394,7.46 14.123,7.703C14.893,7.706 15.623,7.488 15.89,6.506C15.89,6.506 16.589,8.083 15.032,9.141C14.849,9.265 14.693,9.368 14.558,9.452C14.432,9.532 14.422,9.712 14.538,9.804C14.81,10.021 15.131,10.306 15.462,10.621C15.924,10.259 16.379,9.857 16.516,9.55C16.516,9.55 17.336,10.945 17.585,12.708C17.611,12.892 17.652,13.075 17.704,13.251C17.709,13.262 17.713,13.273 17.717,13.283C18.239,14.71 19.43,14.339 19.882,13.754C20.439,13.032 19.701,10.909 21.171,9.548C21.843,8.928 22.67,8.442 22.538,9.95C22.44,11.076 22.347,12.299 22.37,12.782C22.45,14.496 23.395,15.231 24.035,15.604L24.038,15.604C25.241,16.304 25.093,16.669 24.778,16.892C24.506,17.084 23.361,17.428 22.603,16.973C21.332,16.211 21.243,16.239 20.694,16.393C19.585,16.703 19.981,17.871 18.525,18.733C19.066,18.888 19.739,19.169 19.86,19.516C20.033,20.012 19.11,21.199 18.764,21.393C18.418,21.586 18.101,21.945 17.871,21.586C17.642,21.227 16.986,20.158 15.458,20.047C13.33,20.911 11.897,21.294 10.445,20.275C9.909,19.899 9.518,19.571 9.216,19.281C8.729,19.713 7.532,20.463 6.615,20.204C6.138,20.068 5.215,18.238 5.438,17.795C5.557,17.557 5.854,17.534 6.321,17.73C6.836,17.947 7.347,17.649 7.527,17.613C7.563,17.606 7.62,17.623 7.693,17.659ZM8.99,16.201C11.688,18.703 15.451,16.072 13.264,12.782L13.193,12.81C14.468,15.355 10.981,17.428 9.015,16.128L8.99,16.201ZM9.668,12.589L9.668,12.587C10.753,12.873 12.003,12.486 12.454,11.64C12.905,10.793 13.334,8.759 11.342,7.903C9.444,7.088 7.992,8.333 7.787,9.945C7.629,11.185 8.448,12.266 9.668,12.589Z"/>
    <path d="M10.299,9.077L10.3,9.077C10.835,9.116 11.481,9.551 11.481,10.269C11.481,11.023 10.768,11.544 10.039,11.307C9.166,11.023 8.93,10.198 9.266,9.637C9.495,9.256 9.844,9.046 10.299,9.077ZM10.579,9.943C10.476,9.826 10.341,9.793 10.193,9.831C9.975,9.885 9.832,10.142 9.975,10.419C10.093,10.651 10.392,10.697 10.575,10.515C10.758,10.333 10.7,10.081 10.579,9.943Z"/>
</svg>
