<?xml version="1.0" encoding="UTF-8" standalone="no"?>
<!DOCTYPE svg PUBLIC "-//W3C//DTD SVG 1.1//EN" "http://www.w3.org/Graphics/SVG/1.1/DTD/svg11.dtd">
<svg width="100%" height="100%" viewBox="0 0 21 21" version="1.1" xmlns="http://www.w3.org/2000/svg" xmlns:xlink="http://www.w3.org/1999/xlink" xml:space="preserve" xmlns:serif="http://www.serif.com/" style="fill-rule:evenodd;clip-rule:evenodd;stroke-linejoin:round;stroke-miterlimit:2;">
    <g transform="matrix(1,0,0,1,-0.758972,0)">
        <path d="M10.709,3.95C10.206,5.891 8.879,9.128 5.5,10.29L7.134,20L3.802,20L0.759,10.29C7.053,9.128 9.525,5.891 10.461,3.95L10.628,3.376L10.628,0L11.372,0L15.846,1.635L11.372,3.376L11.537,3.95C12.474,5.893 14.947,9.13 21.239,10.29L18.197,20L14.863,20L16.497,10.29C13.117,9.13 11.791,5.891 11.288,3.95L10.709,3.95Z"/>
        <path d="M12.901,17.401C12.326,17.389 11.66,17.242 11,16.951C10.342,17.242 9.674,17.389 9.099,17.401L9.292,20.002L12.705,20.002L12.897,17.401L12.901,17.401Z" style="fill-rule:nonzero;"/>
        <g transform="matrix(1.17239,0,0,1.17239,-12.4497,-8.4304)">
            <path d="M21.927,21.383C21.535,21.336 20.78,21.131 20.001,20.546C19.222,21.131 18.467,21.336 18.075,21.383C17.29,21.478 16.242,20.334 16.239,20.331C17.371,20.163 18.255,19.844 18.942,19.47C18.545,18.933 18.187,18.253 17.923,17.392L17.353,17.767C17.352,17.759 17.217,16.609 18.216,15.084C18.216,15.084 18.877,16.647 19.735,17.222L18.832,17.191C18.847,17.231 19.123,17.972 20.001,18.738C20.879,17.972 21.154,17.23 21.168,17.191L20.267,17.222C21.125,16.647 21.786,15.084 21.786,15.084C22.785,16.61 22.65,17.759 22.649,17.767L22.078,17.392C21.815,18.253 21.457,18.934 21.06,19.47C21.747,19.843 22.631,20.163 23.763,20.331C23.76,20.335 22.711,21.478 21.927,21.383Z"/>
        </g>
    </g>
</svg>
