<?xml version="1.0" encoding="UTF-8" standalone="no"?>
<!DOCTYPE svg PUBLIC "-//W3C//DTD SVG 1.1//EN" "http://www.w3.org/Graphics/SVG/1.1/DTD/svg11.dtd">
<svg width="100%" height="100%" viewBox="0 0 21 20" version="1.1" xmlns="http://www.w3.org/2000/svg" xmlns:xlink="http://www.w3.org/1999/xlink" xml:space="preserve" xmlns:serif="http://www.serif.com/" style="fill-rule:evenodd;clip-rule:evenodd;stroke-linejoin:round;stroke-miterlimit:2;">
    <g transform="matrix(1,0,0,1,-0.26,-0.5)">
        <g transform="matrix(1,0,0,1,-0.758972,0)">
            <g transform="matrix(1,0,0,1,0.259972,0.5)">
                <path d="M11.372,3.376L11.537,3.95C12.474,5.893 14.947,9.13 21.239,10.29L18.197,20L3.802,20L0.759,10.29C7.053,9.128 9.525,5.891 10.461,3.95L10.628,3.376L11.372,3.376ZM11.372,0L15.846,1.635L11.372,3.376L11.372,0ZM13.57,17.922C14.617,18.049 16.017,16.523 16.021,16.518C14.51,16.294 13.33,15.867 12.413,15.369C12.943,14.653 13.421,13.744 13.772,12.595L14.534,13.096C14.535,13.085 14.715,11.551 13.382,9.514C13.382,9.514 12.5,11.601 11.354,12.368L12.557,12.327C12.538,12.379 12.171,13.369 10.999,14.392C9.827,13.369 9.459,12.38 9.439,12.327L10.644,12.368C9.499,11.601 8.617,9.514 8.617,9.514C7.283,11.55 7.463,13.085 7.465,13.096L8.226,12.595C8.578,13.744 9.056,14.652 9.586,15.369C8.669,15.868 7.489,16.294 5.978,16.518C5.982,16.522 7.381,18.049 8.428,17.922C8.952,17.86 9.959,17.586 10.999,16.805C12.039,17.586 13.047,17.86 13.57,17.922Z"/>
            </g>
        </g>
    </g>
</svg>
