<?xml version="1.0" encoding="UTF-8" standalone="no"?>
<!DOCTYPE svg PUBLIC "-//W3C//DTD SVG 1.1//EN" "http://www.w3.org/Graphics/SVG/1.1/DTD/svg11.dtd">
<svg width="100%" height="100%" viewBox="0 0 18 14" version="1.1" xmlns="http://www.w3.org/2000/svg" xmlns:xlink="http://www.w3.org/1999/xlink" xml:space="preserve" xmlns:serif="http://www.serif.com/" style="fill-rule:evenodd;clip-rule:evenodd;stroke-linejoin:round;stroke-miterlimit:2;">
    <g transform="matrix(1,0,0,1,-2.44434,-4.05078)">
        <g transform="matrix(1,0,0,1,2.44434,3.93549)">
            <path d="M2.473,4.182C3.316,3.247 4.333,2.432 5.494,1.761C6.656,1.091 7.869,0.618 9.1,0.356C10.202,0.121 11.293,0.058 12.343,0.168C13.297,0.269 14.194,0.516 14.937,0.883C15.73,1.275 16.328,1.793 16.668,2.38C17.007,2.968 17.156,3.745 17.099,4.628C17.046,5.455 16.811,6.356 16.421,7.232C15.992,8.197 15.392,9.11 14.638,9.946C13.795,10.881 12.779,11.696 11.617,12.367C10.455,13.037 9.242,13.51 8.011,13.772C6.909,14.007 5.818,14.07 4.768,13.96C3.814,13.859 2.917,13.612 2.174,13.245C1.381,12.853 0.783,12.335 0.443,11.748C0.104,11.16 -0.045,10.383 0.012,9.5C0.065,8.673 0.3,7.772 0.69,6.896C1.119,5.931 1.719,5.018 2.473,4.182ZM10.873,1.312C11.681,2.266 12.423,3.316 13.081,4.456C13.737,5.592 14.275,6.758 14.696,7.931C15.996,5.922 16.183,3.91 15.641,2.973C15.1,2.035 13.264,1.191 10.873,1.312ZM6.302,12.812C5.489,11.854 4.742,10.798 4.08,9.652C3.417,8.504 2.875,7.326 2.452,6.14C1.119,8.168 0.923,10.209 1.47,11.155C2.016,12.101 3.88,12.952 6.302,12.812ZM5.741,3.865C5.891,3.799 6.067,3.867 6.132,4.018C6.188,4.145 6.247,4.275 6.309,4.406C6.486,4.283 6.667,4.168 6.853,4.062C7.038,3.954 7.228,3.854 7.423,3.763C7.341,3.644 7.258,3.528 7.175,3.416C7.078,3.283 7.106,3.097 7.239,3C7.371,2.902 7.557,2.931 7.655,3.063C7.764,3.211 7.874,3.367 7.982,3.525C8.414,3.361 8.865,3.228 9.331,3.12C9.231,3.003 9.128,2.888 9.022,2.778C8.909,2.659 8.913,2.47 9.032,2.357C9.151,2.244 9.34,2.248 9.453,2.367C9.64,2.563 9.82,2.77 9.99,2.984C10.376,2.914 10.771,2.858 11.171,2.811C11.571,2.765 11.766,2.988 11.428,3.123C11.089,3.26 10.748,3.402 10.406,3.55C10.511,3.707 10.61,3.865 10.701,4.024C10.782,4.166 10.733,4.348 10.59,4.43C10.448,4.511 10.266,4.462 10.184,4.319C10.084,4.144 9.973,3.969 9.853,3.796C9.423,3.992 8.991,4.199 8.559,4.421C8.639,4.554 8.717,4.686 8.792,4.815C8.875,4.958 8.826,5.14 8.683,5.222C8.541,5.304 8.359,5.255 8.277,5.113C8.198,4.977 8.116,4.838 8.032,4.7C7.828,4.81 7.624,4.924 7.42,5.042C7.215,5.16 7.014,5.28 6.816,5.401C6.894,5.544 6.973,5.684 7.052,5.82C7.134,5.963 7.085,6.145 6.943,6.227C6.8,6.309 6.619,6.26 6.536,6.118C6.461,5.988 6.386,5.855 6.312,5.719C5.903,5.982 5.508,6.252 5.124,6.526C5.213,6.717 5.31,6.901 5.411,7.075C5.494,7.217 5.446,7.399 5.304,7.482C5.162,7.565 4.979,7.516 4.897,7.374C4.805,7.216 4.717,7.052 4.634,6.882C4.335,7.104 4.042,7.329 3.753,7.554C3.467,7.779 3.371,7.499 3.611,7.176C3.852,6.852 4.098,6.539 4.352,6.239C4.252,5.985 4.163,5.726 4.086,5.466C4.04,5.308 4.13,5.143 4.288,5.096C4.445,5.05 4.611,5.14 4.657,5.298C4.7,5.445 4.748,5.591 4.799,5.736C5.125,5.387 5.466,5.063 5.824,4.771C5.741,4.598 5.661,4.425 5.587,4.257C5.522,4.106 5.59,3.931 5.741,3.865Z"/>
        </g>
    </g>
</svg>
