<?xml version="1.0" encoding="UTF-8" standalone="no"?>
<!DOCTYPE svg PUBLIC "-//W3C//DTD SVG 1.1//EN" "http://www.w3.org/Graphics/SVG/1.1/DTD/svg11.dtd">
<svg width="100%" height="100%" viewBox="0 0 31 23" version="1.1" xmlns="http://www.w3.org/2000/svg" xmlns:xlink="http://www.w3.org/1999/xlink" xml:space="preserve" xmlns:serif="http://www.serif.com/" style="fill-rule:evenodd;clip-rule:evenodd;stroke-linejoin:round;stroke-miterlimit:2;">
    <g transform="matrix(1,0,0,1,-0.00359335,0)">
        <path d="M0.067,11.769C0.288,10.045 1.063,8.485 1.997,7.318C9.308,11.27 16.041,16.155 22.037,21.813C19.883,22.303 17.623,22.4 15.46,22.4C15.293,22.4 15.126,22.399 14.958,22.398C10.344,18.418 5.361,14.856 0.067,11.769ZM4.698,20.173C4.29,19.926 3.893,19.651 3.508,19.347C3.907,19.62 4.304,19.895 4.698,20.173ZM5.671,4.126C7.203,3.031 8.785,2.1 10.077,1.536C17.341,5.631 24.012,10.658 29.926,16.452C29.503,17.213 28.924,17.968 28.16,18.7C27.678,19.155 27.171,19.555 26.643,19.906C20.401,13.769 13.352,8.451 5.671,4.126ZM16.654,0.145C17.909,0.368 19.249,0.82 20.76,1.5C22.86,2.4 25.86,4.3 27.96,6.3C29.057,7.31 30.155,8.936 30.635,10.832C26.308,6.875 21.631,3.295 16.654,0.145Z"/>
        <path d="M27.96,6.3C30.46,8.6 32.96,14.1 28.16,18.7C24.66,22 19.86,22.4 15.46,22.4C11.06,22.4 6.26,22 2.76,18.7C-2.04,14.1 0.36,8.6 2.96,6.3C5.16,4.3 8.06,2.4 10.16,1.5C12.16,0.6 13.86,0 15.46,0C17.06,0.1 18.76,0.6 20.76,1.5C22.86,2.4 25.86,4.3 27.96,6.3ZM26.581,7.748C24.653,5.912 21.9,4.165 19.972,3.338C19.961,3.334 19.95,3.329 19.939,3.324C18.226,2.553 16.772,2.097 15.387,2.001C14.052,2.02 12.646,2.574 10.981,3.324C10.97,3.329 10.959,3.334 10.948,3.338C9.009,4.169 6.337,5.933 4.305,7.78C4.299,7.786 4.292,7.792 4.285,7.798C2.303,9.551 0.485,13.743 4.138,17.251C7.249,20.179 11.551,20.4 15.46,20.4C19.369,20.4 23.671,20.179 26.782,17.251C30.446,13.733 28.517,9.53 26.606,7.772C26.597,7.764 26.589,7.756 26.581,7.748Z"/>
    </g>
</svg>
