<?xml version="1.0" encoding="UTF-8" standalone="no"?>
<!DOCTYPE svg PUBLIC "-//W3C//DTD SVG 1.1//EN" "http://www.w3.org/Graphics/SVG/1.1/DTD/svg11.dtd">
<svg width="100%" height="100%" viewBox="0 0 34 35" version="1.1" xmlns="http://www.w3.org/2000/svg" xmlns:xlink="http://www.w3.org/1999/xlink" xml:space="preserve" xmlns:serif="http://www.serif.com/" style="fill-rule:evenodd;clip-rule:evenodd;stroke-linejoin:round;stroke-miterlimit:2;">
    <g transform="matrix(1,0,0,1,0.000176593,0)">
        <g transform="matrix(1,0,0,1,1.40735e-07,-0.5)">
            <path d="M12.412,7.339L6.673,0.5L9.766,0.5L15.021,6.766C14.123,6.877 13.251,7.071 12.412,7.339ZM18.606,6.766L23.86,0.5L26.953,0.5L21.215,7.339C20.376,7.071 19.504,6.877 18.606,6.766Z"/>
        </g>
        <g transform="matrix(1,0,0,1,1.40735e-07,-0.5)">
            <path d="M10.123,8.298L3.58,0.5L6.673,0.5L12.412,7.339C11.616,7.594 10.851,7.916 10.123,8.298ZM15.021,6.766L9.766,0.5L12.86,0.5L16.813,5.214L20.767,0.5L23.86,0.5L18.606,6.766C18.018,6.693 17.42,6.655 16.813,6.655C16.206,6.655 15.608,6.693 15.021,6.766ZM21.215,7.339L26.953,0.5L30.047,0.5L26.147,5.147L23.504,8.298C22.775,7.915 22.01,7.594 21.215,7.339Z"/>
        </g>
        <g transform="matrix(1,0,0,1,1.40735e-07,-0.5)">
            <path d="M2.96,25.103C2.923,24.998 2.888,24.895 2.855,24.806L0.342,24.648C-0.018,23.36 -0.122,22.068 0.166,20.763L2.397,21.499C2.393,21.359 2.391,21.218 2.391,21.078C2.391,13.112 8.848,6.655 16.813,6.655C24.779,6.655 31.235,13.112 31.235,21.078C31.235,21.218 31.233,21.359 31.229,21.499L33.46,20.763C33.748,22.068 33.645,23.36 33.284,24.648L30.772,24.806C30.738,24.895 30.703,24.998 30.666,25.104C30.631,25.224 30.595,25.344 30.557,25.463L33.05,25.432C32.749,26.278 32.339,27.089 31.87,27.832L29.56,27.832C29.447,28.044 29.329,28.253 29.206,28.459L31.371,28.566C30.06,30.353 28.426,31.605 27.192,31.749C26.908,31.783 26.782,31.792 26.585,31.685C24.015,34.054 20.583,35.5 16.813,35.5C13.043,35.5 9.611,34.054 7.041,31.685C6.844,31.792 6.719,31.783 6.434,31.749C5.201,31.605 3.566,30.353 2.256,28.566L4.42,28.459C4.298,28.253 4.18,28.044 4.067,27.832L1.756,27.832C1.288,27.089 0.878,26.278 0.576,25.432L3.07,25.463C3.032,25.344 2.995,25.224 2.96,25.103ZM28.445,22.947C28.542,22.339 28.593,21.716 28.593,21.082C28.593,14.586 23.307,9.303 16.813,9.303C10.317,9.303 5.034,14.586 5.034,21.082C5.034,21.716 5.084,22.339 5.181,22.947C5.555,25.287 6.62,27.4 8.161,29.068C10.314,31.4 13.396,32.862 16.813,32.862C20.231,32.862 23.312,31.4 25.466,29.068C27.006,27.4 28.072,25.287 28.445,22.947Z"/>
        </g>
        <g transform="matrix(1,0,0,1,1.40735e-07,-0.5)">
            <g transform="matrix(1.58378,0,0,1.58378,-20.6395,-11.0015)">
                <path d="M23.648,12.516C27.92,12.516 31.389,15.985 31.389,20.258C31.389,24.531 27.92,28 23.648,28C19.375,28 15.906,24.531 15.906,20.258C15.906,15.985 19.375,12.516 23.648,12.516ZM21.243,23.245C21.092,23.477 20.859,23.736 20.529,23.851C20.142,23.985 20.554,24.656 21.74,24.497C22.272,24.424 22.469,23.891 22.374,23.351C22.727,23.464 23.089,23.609 23.435,23.666C24.122,23.78 24.444,23.601 24.947,23.343C25.524,23.046 26.03,22.921 26.272,22.876C26.357,22.859 26.442,22.907 26.471,22.99C26.559,23.235 26.718,23.641 27.014,23.712C27.341,23.791 27.949,23.644 28.327,23.433C28.418,23.382 28.447,23.266 28.387,23.18C28.341,23.115 28.265,23.044 28.129,22.987C27.505,22.714 27.386,22.435 27.329,22.228C27.315,22.179 27.324,22.128 27.352,22.085C27.452,21.935 27.707,21.591 27.978,21.628C28.322,21.674 28.248,22.029 28.728,22.327C29.038,22.52 29.331,22.529 29.516,22.455C29.618,22.416 29.655,22.293 29.598,22.2C29.499,22.037 29.334,21.714 29.243,21.213C29.132,20.605 29.382,19.826 29.635,19.41C29.871,19.024 30.099,18.805 30.261,18.688L30.261,18.683C30.38,18.594 30.343,18.404 30.198,18.37C30.042,18.333 29.809,18.327 29.476,18.415C28.68,18.62 28.327,19.973 27.819,20.28C27.552,20.439 27.033,20.299 26.551,20.097C26.404,19.938 26.262,19.694 26.19,19.427C25.979,18.649 25.396,18.191 25.396,18.191C25.319,18.447 24.9,18.818 24.73,18.991C24.571,18.873 24.425,18.766 24.324,18.691C24.251,18.634 24.23,18.532 24.285,18.452C24.498,18.131 24.646,17.77 24.708,17.597C24.731,17.534 24.716,17.463 24.671,17.414C24.512,17.247 24.108,16.849 23.662,16.604C23.224,16.362 22.579,16.118 22.05,16.064C21.049,15.965 20.355,16.152 20.034,16.271C19.926,16.311 19.886,16.439 19.949,16.534C20.372,17.176 20.668,17.832 20.799,18.145C20.842,18.25 20.776,18.367 20.665,18.387C20.259,18.461 19.775,18.418 19.295,18.415C18.613,18.415 18.448,18.424 17.907,18.646C17.527,18.802 17.356,19.422 17.376,19.942C17.387,20.227 17.669,20.411 17.936,20.323L17.945,20.323C18.303,20.21 18.607,20.278 18.945,20.451C19.329,20.647 19.969,21.062 20.187,21.417C20.407,21.773 20.421,21.731 19.881,21.833C19.286,21.943 18.723,22.285 18.439,22.248C18.22,22.219 18.055,22.123 17.945,22.029C17.848,21.947 17.697,21.998 17.663,22.12C17.586,22.412 17.572,22.711 17.979,22.882C18.473,23.089 18.806,23.158 19.386,23.22C19.977,23.286 20.518,23.3 21.012,23.263C21.094,23.257 21.171,23.25 21.243,23.245Z"/>
            </g>
        </g>
        <g transform="matrix(1,0,0,1,1.40735e-07,-0.5)">
            <g transform="matrix(1.58378,0,0,1.58378,-20.6395,-11.0015)">
                <path d="M20.773,20.982C20.273,20.852 19.935,20.408 20,19.896C20.083,19.231 20.674,18.717 21.453,19.05C22.272,19.399 22.098,20.238 21.914,20.588C21.731,20.937 21.217,21.099 20.773,20.982ZM21.027,19.533C20.838,19.521 20.696,19.607 20.603,19.766C20.467,19.996 20.563,20.337 20.921,20.454C21.22,20.55 21.513,20.335 21.51,20.025C21.51,19.729 21.243,19.55 21.023,19.535L21.027,19.533Z"/>
            </g>
        </g>
        <g transform="matrix(1,0,0,1,1.40735e-07,-0.5)">
            <g transform="matrix(1.58378,0,0,1.58378,-20.6395,-11.0015)">
                <path d="M21.143,19.891L21.143,19.894C21.194,19.951 21.22,20.055 21.143,20.13C21.066,20.204 20.944,20.187 20.896,20.09C20.836,19.973 20.896,19.868 20.984,19.845C21.046,19.828 21.1,19.843 21.143,19.891Z"/>
            </g>
        </g>
    </g>
</svg>
