<?xml version="1.0" encoding="UTF-8" standalone="no"?>
<!DOCTYPE svg PUBLIC "-//W3C//DTD SVG 1.1//EN" "http://www.w3.org/Graphics/SVG/1.1/DTD/svg11.dtd">
<svg width="100%" height="100%" viewBox="0 0 34 35" version="1.1" xmlns="http://www.w3.org/2000/svg" xmlns:xlink="http://www.w3.org/1999/xlink" xml:space="preserve" xmlns:serif="http://www.serif.com/" style="fill-rule:evenodd;clip-rule:evenodd;stroke-linejoin:round;stroke-miterlimit:2;">
    <g transform="matrix(1,0,0,1,1.40735e-07,-0.5)">
        <path d="M12.412,7.339L6.673,0.5L9.766,0.5L15.021,6.766C14.123,6.877 13.251,7.071 12.412,7.339ZM18.606,6.766L23.86,0.5L26.953,0.5L21.215,7.339C20.376,7.071 19.504,6.877 18.606,6.766Z"/>
        <path d="M10.123,8.298L3.58,0.5L6.673,0.5L12.412,7.339C11.616,7.594 10.851,7.916 10.123,8.298ZM15.021,6.766L9.766,0.5L12.86,0.5L16.813,5.214L20.767,0.5L23.86,0.5L18.606,6.766C18.018,6.693 17.42,6.655 16.813,6.655C16.206,6.655 15.608,6.693 15.021,6.766ZM21.215,7.339L26.953,0.5L30.047,0.5L26.147,5.147L23.504,8.298C22.775,7.915 22.01,7.594 21.215,7.339Z"/>
        <path d="M2.96,25.103C2.923,24.998 2.888,24.895 2.855,24.806L0.342,24.648C-0.018,23.36 -0.122,22.068 0.166,20.763L2.397,21.499C2.393,21.359 2.391,21.218 2.391,21.078C2.391,13.112 8.848,6.655 16.813,6.655C24.779,6.655 31.235,13.112 31.235,21.078C31.235,21.218 31.233,21.359 31.229,21.499L33.46,20.763C33.748,22.068 33.645,23.36 33.284,24.648L30.772,24.806C30.738,24.895 30.703,24.998 30.666,25.104C30.631,25.224 30.595,25.344 30.557,25.463L33.05,25.432C32.749,26.278 32.339,27.089 31.87,27.832L29.56,27.832C29.447,28.044 29.329,28.253 29.206,28.459L31.371,28.566C30.06,30.353 28.426,31.605 27.192,31.749C26.908,31.783 26.782,31.792 26.585,31.685C24.015,34.054 20.583,35.5 16.813,35.5C13.043,35.5 9.611,34.054 7.041,31.685C6.844,31.792 6.719,31.783 6.434,31.749C5.201,31.605 3.566,30.353 2.256,28.566L4.42,28.459C4.298,28.253 4.18,28.044 4.067,27.832L1.756,27.832C1.288,27.089 0.878,26.278 0.576,25.432L3.07,25.463C3.032,25.344 2.995,25.224 2.96,25.103ZM28.445,22.947C28.542,22.339 28.593,21.716 28.593,21.082C28.593,14.586 23.307,9.303 16.813,9.303C10.317,9.303 5.034,14.586 5.034,21.082C5.034,21.716 5.084,22.339 5.181,22.947C5.555,25.287 6.62,27.4 8.161,29.068C10.314,31.4 13.396,32.862 16.813,32.862C20.231,32.862 23.312,31.4 25.466,29.068C27.006,27.4 28.072,25.287 28.445,22.947Z"/>
        <path d="M13.005,25.813C12.89,25.822 12.769,25.832 12.639,25.842C11.856,25.9 11,25.878 10.064,25.774C9.145,25.675 8.618,25.567 7.835,25.238C7.191,24.968 7.213,24.495 7.335,24.031C7.389,23.838 7.628,23.757 7.781,23.887C7.956,24.036 8.217,24.189 8.564,24.234C9.014,24.293 9.906,23.752 10.847,23.577C11.703,23.415 11.68,23.482 11.333,22.919C10.987,22.356 9.974,21.699 9.366,21.388C8.83,21.114 8.348,21.006 7.781,21.186L7.767,21.186C7.344,21.325 6.898,21.033 6.88,20.582C6.849,19.758 7.119,18.777 7.722,18.529C8.578,18.178 8.839,18.164 9.919,18.164C10.68,18.169 11.446,18.236 12.09,18.119C12.265,18.088 12.369,17.903 12.301,17.737C12.094,17.241 11.626,16.201 10.955,15.184C10.856,15.035 10.919,14.832 11.09,14.769C11.599,14.58 12.698,14.283 14.283,14.441C15.12,14.526 16.142,14.913 16.836,15.296C17.543,15.683 18.182,16.314 18.434,16.579C18.506,16.656 18.529,16.769 18.493,16.868C18.394,17.142 18.16,17.714 17.822,18.223C17.736,18.349 17.768,18.511 17.885,18.601C18.044,18.719 18.275,18.89 18.528,19.076C18.797,18.802 19.46,18.214 19.582,17.809C19.582,17.809 20.505,18.534 20.839,19.767C20.953,20.19 21.178,20.576 21.412,20.827C22.175,21.147 22.997,21.37 23.419,21.118C24.225,20.632 24.783,18.488 26.044,18.164C26.571,18.025 26.94,18.034 27.188,18.092C27.417,18.146 27.476,18.448 27.287,18.588L27.287,18.597C27.03,18.781 26.67,19.128 26.296,19.74C25.895,20.398 25.499,21.632 25.675,22.595C25.819,23.388 26.08,23.901 26.238,24.158C26.328,24.306 26.269,24.5 26.107,24.563C25.814,24.68 25.35,24.666 24.86,24.36C24.099,23.887 24.216,23.325 23.671,23.253C23.243,23.194 22.838,23.739 22.68,23.977C22.635,24.045 22.622,24.126 22.644,24.203C22.734,24.531 22.923,24.973 23.91,25.405C24.126,25.495 24.247,25.607 24.319,25.711C24.414,25.846 24.369,26.031 24.225,26.112C23.626,26.445 22.662,26.679 22.145,26.553C21.676,26.44 21.424,25.797 21.284,25.409C21.239,25.279 21.104,25.202 20.969,25.229C20.587,25.301 19.785,25.499 18.871,25.968C18.074,26.377 17.565,26.661 16.476,26.481C15.929,26.39 15.355,26.16 14.796,25.981C14.947,26.836 14.634,27.681 13.792,27.796C11.914,28.048 11.261,26.985 11.874,26.774C12.396,26.591 12.765,26.181 13.005,25.813ZM12.261,22.23C12.963,22.415 13.778,22.158 14.067,21.605C14.359,21.051 14.634,19.722 13.337,19.169C12.103,18.642 11.167,19.457 11.036,20.51C10.933,21.321 11.468,22.023 12.261,22.23Z"/>
        <path d="M12.662,19.934L12.657,19.938C13.004,19.961 13.427,20.245 13.427,20.713C13.432,21.204 12.968,21.546 12.495,21.393C11.928,21.208 11.775,20.668 11.991,20.303C12.139,20.051 12.364,19.916 12.662,19.934ZM12.846,20.501C12.779,20.425 12.693,20.402 12.594,20.429C12.455,20.465 12.36,20.632 12.455,20.817C12.531,20.97 12.725,20.997 12.846,20.88C12.968,20.762 12.927,20.596 12.846,20.506L12.846,20.501Z"/>
    </g>
</svg>
