<?xml version="1.0" encoding="UTF-8" standalone="no"?>
<!DOCTYPE svg PUBLIC "-//W3C//DTD SVG 1.1//EN" "http://www.w3.org/Graphics/SVG/1.1/DTD/svg11.dtd">
<svg width="100%" height="100%" viewBox="0 0 32 28" version="1.1" xmlns="http://www.w3.org/2000/svg" xmlns:xlink="http://www.w3.org/1999/xlink" xml:space="preserve" xmlns:serif="http://www.serif.com/" style="fill-rule:evenodd;clip-rule:evenodd;stroke-linejoin:round;stroke-miterlimit:2;">
    <g transform="matrix(1,0,0,1,-0.00277706,-2.00203)">
        <g transform="matrix(1,0,0,1,0.002777,1.82941)">
            <path d="M31.382,10.394C30.474,8.839 28.777,8.861 27.649,9.089C27.312,9.157 27.255,9.608 27.566,9.755C28.141,10.025 28.731,10.494 28.683,11.274C28.591,12.802 27.13,12.882 26.5,12.844C26.33,12.834 26.191,12.708 26.166,12.543C25.904,10.886 26.021,8.079 26.079,7.025C26.09,6.811 25.907,6.636 25.689,6.655C25.009,6.712 24.375,6.684 23.977,6.653C23.762,6.636 23.608,6.437 23.653,6.23C24.084,4.249 23.273,2.348 21.666,1.769C20.587,1.379 20.046,0.813 19.776,0.352C19.62,0.086 19.212,0.122 19.117,0.416C18.51,2.268 20,3.083 20.31,3.662C20.616,4.236 20.164,4.733 19.883,4.969C19.769,5.064 19.608,5.078 19.477,5.008C17.953,4.213 16.771,3.052 16.267,2.51C16.119,2.351 15.879,2.351 15.731,2.51C15.225,3.052 14.043,4.213 12.521,5.008C12.39,5.078 12.227,5.064 12.115,4.969C11.833,4.733 11.381,4.236 11.688,3.662C11.998,3.084 13.486,2.268 12.881,0.416C12.786,0.123 12.377,0.086 12.221,0.352C11.951,0.813 11.411,1.38 10.331,1.769C8.725,2.348 7.913,4.249 8.344,6.23C8.389,6.438 8.235,6.637 8.019,6.654C7.637,6.684 7.038,6.711 6.389,6.663C6.128,6.644 5.91,6.854 5.923,7.109C5.982,8.222 6.087,10.936 5.831,12.55C5.805,12.713 5.666,12.836 5.497,12.846C4.867,12.884 3.405,12.803 3.314,11.276C3.267,10.495 3.857,10.027 4.431,9.757C4.742,9.61 4.686,9.159 4.348,9.091C3.22,8.863 1.524,8.841 0.616,10.396C-0.824,12.861 0.616,14.621 1.336,15.238C2.103,15.894 4.514,16.837 5.591,17.049C5.738,17.078 5.851,17.196 5.874,17.342L5.967,17.938C5.993,18.104 5.897,18.265 5.736,18.325C5.069,18.568 3.396,19.285 2.954,20.52C2.676,21.297 2.696,21.903 2.805,22.337C2.886,22.658 3.342,22.702 3.485,22.402C3.731,21.892 4.176,21.312 4.933,21.312C6.103,21.312 6.943,22.537 8.082,24.393C9.496,26.7 12.488,25.716 13.224,25.43C13.331,25.388 13.452,25.4 13.55,25.462C13.933,25.705 14.93,26.357 15.761,27.084C15.896,27.203 16.1,27.203 16.236,27.084C17.067,26.357 18.064,25.705 18.447,25.462C18.544,25.401 18.665,25.388 18.773,25.43C19.508,25.716 22.501,26.7 23.915,24.393C25.054,22.536 25.894,21.312 27.063,21.312C27.821,21.312 28.266,21.892 28.511,22.402C28.655,22.702 29.11,22.658 29.191,22.337C29.3,21.903 29.321,21.297 29.043,20.52C28.601,19.285 26.927,18.568 26.26,18.325C26.099,18.266 26.004,18.105 26.029,17.938L26.123,17.342C26.145,17.195 26.258,17.078 26.406,17.049C27.483,16.837 29.894,15.894 30.66,15.238C31.382,14.619 32.821,12.86 31.382,10.394ZM13.92,21.556C13.528,21.509 12.773,21.304 11.995,20.719C11.216,21.304 10.461,21.509 10.069,21.556C9.284,21.651 8.235,20.507 8.232,20.504C9.365,20.336 10.248,20.017 10.936,19.643C10.539,19.106 10.181,18.426 9.917,17.565L9.347,17.94C9.346,17.932 9.21,16.782 10.209,15.257C10.209,15.257 10.87,16.82 11.729,17.395L10.827,17.364L10.826,17.364C10.84,17.404 11.116,18.145 11.995,18.911C12.873,18.145 13.149,17.403 13.163,17.364L13.162,17.364L12.26,17.395C13.119,16.82 13.78,15.257 13.78,15.257C14.779,16.783 14.643,17.932 14.642,17.94L14.072,17.565C13.808,18.426 13.45,19.107 13.053,19.643C13.741,20.016 14.625,20.336 15.757,20.504C15.754,20.508 14.705,21.651 13.92,21.556ZM13.92,14.514C13.528,14.467 12.773,14.262 11.995,13.677C11.216,14.262 10.461,14.467 10.069,14.514C9.284,14.609 8.235,13.465 8.232,13.462C9.365,13.294 10.248,12.975 10.936,12.601C10.539,12.063 10.181,11.384 9.917,10.523L9.347,10.898C9.346,10.89 9.21,9.739 10.209,8.215C10.209,8.215 10.87,9.778 11.729,10.353L10.827,10.322L10.826,10.322C10.84,10.362 11.116,11.103 11.995,11.869C12.873,11.103 13.149,10.361 13.163,10.322L13.162,10.322L12.26,10.353C13.119,9.778 13.78,8.215 13.78,8.215C14.779,9.741 14.643,10.89 14.642,10.898L14.072,10.523C13.808,11.384 13.45,12.064 13.053,12.601C13.741,12.974 14.625,13.294 15.757,13.462C15.754,13.465 14.705,14.609 13.92,14.514ZM21.927,21.556C21.535,21.509 20.78,21.304 20.001,20.719C19.222,21.304 18.467,21.509 18.075,21.556C17.29,21.651 16.242,20.507 16.239,20.504C17.371,20.336 18.255,20.017 18.942,19.643C18.545,19.106 18.187,18.426 17.923,17.565L17.353,17.94C17.352,17.932 17.217,16.782 18.216,15.257C18.216,15.257 18.877,16.82 19.735,17.395L18.833,17.364L18.832,17.364C18.847,17.404 19.123,18.145 20.001,18.911C20.879,18.145 21.155,17.403 21.169,17.364L21.168,17.364L20.267,17.395C21.125,16.82 21.786,15.257 21.786,15.257C22.785,16.783 22.65,17.932 22.649,17.94L22.078,17.565C21.815,18.426 21.457,19.107 21.06,19.643C21.747,20.016 22.631,20.336 23.763,20.504C23.76,20.508 22.711,21.651 21.927,21.556ZM21.927,14.514C21.535,14.467 20.78,14.262 20.001,13.677C19.222,14.262 18.467,14.467 18.075,14.514C17.29,14.609 16.242,13.465 16.239,13.462C17.371,13.294 18.255,12.975 18.942,12.601C18.545,12.063 18.186,11.384 17.923,10.522L17.353,10.898C17.353,10.898 17.213,9.746 18.216,8.214C18.216,8.214 18.877,9.777 19.735,10.352L18.833,10.321C18.847,10.358 19.123,11.101 20.002,11.868C20.88,11.102 21.156,10.361 21.171,10.321L21.169,10.321L20.268,10.352C21.126,9.777 21.787,8.214 21.787,8.214C22.786,9.739 22.651,10.889 22.65,10.897L22.079,10.522C21.816,11.383 21.458,12.063 21.061,12.6C21.748,12.973 22.632,13.293 23.764,13.461C23.763,13.462 22.712,14.609 21.927,14.514Z" style="fill-rule:nonzero;"/>
        </g>
    </g>
</svg>
