<?xml version="1.0" encoding="UTF-8" standalone="no"?>
<!DOCTYPE svg PUBLIC "-//W3C//DTD SVG 1.1//EN" "http://www.w3.org/Graphics/SVG/1.1/DTD/svg11.dtd">
<svg width="100%" height="100%" viewBox="0 0 20 15" version="1.1" xmlns="http://www.w3.org/2000/svg" xmlns:xlink="http://www.w3.org/1999/xlink" xml:space="preserve" xmlns:serif="http://www.serif.com/" style="fill-rule:evenodd;clip-rule:evenodd;stroke-linejoin:round;stroke-miterlimit:2;">
    <g transform="matrix(1,0,0,1,-1.22217,-3.29981)">
        <g transform="matrix(1,0,0,1,1.22217,2.22759)">
            <path d="M19.454,7.713C19.509,7.818 19.451,7.945 19.336,7.977L13.608,9.547C12.995,14.244 7.372,17.133 3.093,15.052C2.824,14.922 2.628,14.682 2.524,14.402L2.503,14.344C2.458,14.222 2.546,14.092 2.676,14.087L3.046,14.074L3.227,13.043C3.258,12.868 3.51,12.868 3.541,13.043L3.718,14.049L4.481,14.021L4.672,12.935C4.703,12.76 4.955,12.76 4.986,12.935L5.172,13.995L6.25,13.956C6.368,13.952 6.454,13.842 6.43,13.726L6.118,12.238C6.056,11.941 6.037,11.638 6.06,11.336L6.156,10.115C6.166,9.992 6.103,9.874 5.996,9.813L5.547,9.557C5.467,9.511 5.373,9.497 5.283,9.518L4.75,11.626C4.71,11.786 4.482,11.786 4.441,11.626L3.984,9.817L3.797,9.861C3.627,9.9 3.453,9.916 3.279,9.908L2.856,9.889L2.342,11.923C2.302,12.084 2.074,12.084 2.033,11.923L1.511,9.857C1.279,9.905 0.782,10.006 0.718,10.006C-0.037,10.025 -0.144,8.88 0.591,8.755C-0.856,7.909 0.655,5.859 1.914,6.972L1.96,6.511L5.046,4.057L5.122,5.395L3.917,6.288L6.203,5.955C6.378,5.93 6.555,5.979 6.692,6.09L7.305,6.585L8.693,6.46C8.858,6.446 9.017,6.523 9.107,6.661L9.578,7.383C9.664,7.514 9.835,7.566 9.969,7.484C10.651,7.069 11.11,6.301 11.144,5.489C11.158,5.132 10.928,4.818 10.598,4.682C9.788,4.349 8.824,4.259 7.96,4.463C7.853,4.489 7.742,4.425 7.728,4.315C7.489,2.48 9.887,1.232 11.276,2.584C11.71,0.741 14.467,0.536 15.218,2.228C15.263,2.328 15.201,2.441 15.096,2.475C14.273,2.74 13.519,3.292 13.005,3.971C12.74,4.321 12.779,4.792 12.97,5.186C13.196,5.65 13.373,6.141 13.497,6.653L14.204,4.891C14.251,4.773 14.364,4.693 14.491,4.695C16.609,4.719 18.528,5.956 19.454,7.713ZM2.076,7.696C2.077,7.686 2.077,7.677 2.078,7.668L4.331,6.843C4.564,7.078 4.708,7.399 4.708,7.753C4.708,8.472 4.118,9.055 3.39,9.055C2.663,9.055 2.073,8.472 2.073,7.753C2.073,7.734 2.075,7.715 2.076,7.696Z"/>
        </g>
    </g>
</svg>
