<?xml version="1.0" encoding="UTF-8" standalone="no"?>
<!DOCTYPE svg PUBLIC "-//W3C//DTD SVG 1.1//EN" "http://www.w3.org/Graphics/SVG/1.1/DTD/svg11.dtd">
<svg width="100%" height="100%" viewBox="0 0 32 28" version="1.1" xmlns="http://www.w3.org/2000/svg" xmlns:xlink="http://www.w3.org/1999/xlink" xml:space="preserve" xmlns:serif="http://www.serif.com/" style="fill-rule:evenodd;clip-rule:evenodd;stroke-linejoin:round;stroke-miterlimit:2;">
    <g transform="matrix(1,0,0,1,7.38498e-08,-2)">
        <g transform="matrix(1,0,0,1,0,1.76274)">
            <path d="M31.384,10.404C30.536,8.944 29,8.867 27.882,9.05C27.476,9.117 27.376,9.651 27.735,9.846C28.251,10.128 28.727,10.581 28.685,11.289C28.597,12.771 27.231,12.897 26.569,12.871C26.361,12.862 26.189,12.708 26.158,12.505C25.915,10.876 26.018,8.206 26.076,7.102C26.089,6.845 25.871,6.633 25.61,6.653C25.008,6.699 24.449,6.679 24.067,6.651C23.805,6.632 23.622,6.392 23.672,6.139C24.064,4.178 23.253,2.311 21.669,1.737C20.679,1.379 20.142,0.869 19.852,0.43C19.646,0.119 19.159,0.2 19.065,0.56C18.611,2.293 20.013,3.077 20.311,3.639C20.602,4.185 20.213,4.66 19.933,4.911C19.795,5.033 19.594,5.055 19.432,4.968C17.983,4.196 16.848,3.099 16.322,2.539C16.144,2.35 15.857,2.35 15.68,2.539C15.154,3.099 14.019,4.196 12.57,4.968C12.407,5.055 12.206,5.033 12.069,4.911C11.788,4.661 11.4,4.185 11.691,3.639C11.989,3.077 13.392,2.293 12.937,0.56C12.843,0.201 12.356,0.12 12.15,0.43C11.86,0.869 11.323,1.379 10.333,1.737C8.748,2.311 7.937,4.178 8.33,6.139C8.38,6.392 8.197,6.633 7.935,6.651C7.552,6.679 6.993,6.699 6.392,6.653C6.131,6.634 5.913,6.846 5.926,7.102C5.983,8.206 6.087,10.876 5.844,12.505C5.813,12.708 5.641,12.862 5.433,12.871C4.771,12.898 3.405,12.772 3.317,11.289C3.275,10.581 3.751,10.128 4.267,9.846C4.626,9.651 4.526,9.116 4.12,9.05C3,8.868 1.464,8.944 0.616,10.404C-0.824,12.881 0.616,14.65 1.336,15.269C2.092,15.92 4.445,16.848 5.543,17.079C5.721,17.116 5.855,17.258 5.883,17.433L5.96,17.925C5.992,18.125 5.876,18.319 5.683,18.392C4.983,18.654 3.386,19.37 2.956,20.578C2.728,21.217 2.701,21.741 2.758,22.149C2.815,22.556 3.376,22.656 3.577,22.297C3.835,21.835 4.262,21.374 4.935,21.374C6.105,21.374 6.945,22.604 8.083,24.469C9.476,26.751 12.397,25.829 13.189,25.526C13.321,25.475 13.467,25.489 13.585,25.565C13.983,25.818 14.916,26.438 15.714,27.131C15.877,27.273 16.125,27.273 16.288,27.131C17.085,26.438 18.019,25.818 18.417,25.565C18.534,25.489 18.681,25.475 18.813,25.526C19.605,25.829 22.526,26.751 23.918,24.469C25.057,22.603 25.897,21.374 27.067,21.374C27.74,21.374 28.167,21.834 28.425,22.297C28.626,22.657 29.188,22.556 29.244,22.149C29.301,21.741 29.274,21.217 29.046,20.578C28.616,19.37 27.02,18.654 26.319,18.392C26.126,18.319 26.01,18.125 26.042,17.925L26.119,17.433C26.147,17.258 26.281,17.116 26.459,17.079C27.557,16.848 29.91,15.919 30.666,15.269C31.384,14.65 32.823,12.882 31.384,10.404ZM13.704,11.524C14.03,11.583 14.565,11.675 15.071,11.735C15.233,11.754 15.376,11.629 15.374,11.467L15.374,11.459C15.374,11.433 15.378,11.409 15.385,11.385C14.369,11.116 13.621,10.204 13.621,9.121C13.621,7.827 14.688,6.777 16.006,6.777C17.322,6.777 18.39,7.826 18.39,9.121C18.39,10.209 17.635,11.124 16.612,11.389C16.618,11.412 16.622,11.435 16.622,11.459L16.622,11.467C16.62,11.628 16.763,11.753 16.925,11.735C17.431,11.675 17.966,11.583 18.291,11.524C18.464,11.493 18.622,11.628 18.61,11.8C18.55,12.719 17.673,13.043 16.857,13.144C16.719,13.161 16.615,13.276 16.617,13.412C16.618,13.443 16.618,13.473 16.619,13.5C16.639,14.309 16.717,15.562 17.871,16.534C18.003,16.645 17.993,16.85 17.851,16.95C17.575,17.145 17.033,17.526 16.005,17.831L16.005,17.836C16.002,17.835 15.999,17.834 15.997,17.834C15.994,17.835 15.992,17.836 15.99,17.836L15.99,17.831C14.962,17.526 14.42,17.144 14.144,16.95C14.002,16.85 13.992,16.646 14.124,16.534C15.278,15.562 15.357,14.31 15.376,13.5C15.377,13.472 15.377,13.443 15.378,13.412C15.38,13.275 15.276,13.161 15.138,13.144C14.323,13.043 13.446,12.719 13.384,11.8C13.374,11.629 13.533,11.493 13.704,11.524ZM17.288,22.86C16.952,23.12 16.44,23.358 16.152,23.686C16.075,23.774 15.937,23.774 15.86,23.686C15.574,23.358 15.062,23.12 14.724,22.86C14.599,22.764 14.642,22.568 14.797,22.53C15.255,22.415 15.76,22.324 15.939,22.259C15.982,22.243 16.029,22.243 16.072,22.259C16.251,22.324 16.757,22.415 17.214,22.53C17.37,22.568 17.413,22.764 17.288,22.86ZM23.276,16.458C23.224,16.776 22.82,16.89 22.6,16.652L22.558,16.607C22.385,16.419 22.076,16.446 21.938,16.661C21.283,17.684 20.583,18.517 19.873,19.192C20.349,19.208 20.848,19.205 21.371,19.178C21.691,19.162 21.899,19.507 21.723,19.772C21.194,20.563 20.204,21.817 19.173,21.936C18.54,22.01 17.378,21.991 16,21.544C14.623,21.991 13.461,22.01 12.828,21.936C11.797,21.817 10.807,20.563 10.278,19.772C10.101,19.508 10.31,19.162 10.63,19.178C11.153,19.205 11.652,19.208 12.128,19.192C11.418,18.517 10.718,17.684 10.062,16.661C9.925,16.446 9.616,16.419 9.443,16.607L9.401,16.652C9.181,16.891 8.777,16.776 8.725,16.458C8.595,15.669 8.521,14.279 9.035,12.458C9.119,12.158 9.511,12.072 9.713,12.311C10.244,12.938 11.179,13.95 12.186,14.609C12.475,14.798 12.391,15.236 12.051,15.306C12.043,15.308 12.034,15.309 12.026,15.311C11.73,15.371 11.612,15.724 11.814,15.946C12.425,16.615 13.751,17.791 15.999,18.532C18.248,17.791 19.574,16.616 20.185,15.946C20.387,15.724 20.269,15.371 19.973,15.311C19.965,15.309 19.956,15.308 19.948,15.306C19.608,15.236 19.523,14.798 19.813,14.609C20.82,13.95 21.756,12.938 22.286,12.311C22.488,12.072 22.88,12.158 22.964,12.458C23.48,14.28 23.406,15.669 23.276,16.458Z" style="fill-rule:nonzero;"/>
        </g>
        <g transform="matrix(1,0,0,1,15.1185,10.1474)">
            <path d="M0.888,1.777C1.379,1.777 1.777,1.379 1.777,0.888C1.777,0.398 1.379,0 0.888,0C0.398,0 0,0.398 0,0.888C0,1.379 0.398,1.777 0.888,1.777Z" style="fill-rule:nonzero;"/>
        </g>
    </g>
</svg>
