<?xml version="1.0" encoding="UTF-8" standalone="no"?>
<!DOCTYPE svg PUBLIC "-//W3C//DTD SVG 1.1//EN" "http://www.w3.org/Graphics/SVG/1.1/DTD/svg11.dtd">
<svg width="100%" height="100%" viewBox="0 0 18 16" version="1.1" xmlns="http://www.w3.org/2000/svg" xmlns:xlink="http://www.w3.org/1999/xlink" xml:space="preserve" xmlns:serif="http://www.serif.com/" style="fill-rule:evenodd;clip-rule:evenodd;stroke-linejoin:round;stroke-miterlimit:2;">
    <g transform="matrix(1,0,0,1,-2.40723,-3.5459)">
        <g transform="matrix(1,0,0,1,2.40723,3.4423)">
            <path d="M6.201,2.364C6.466,2.098 6.342,1.645 5.979,1.549L0.689,0.158C0.283,0.052 -0.087,0.421 0.018,0.826L1.398,6.159C1.493,6.525 1.95,6.648 2.217,6.38L2.6,5.994L11.835,15.301C12.074,15.541 12.462,15.541 12.701,15.301L13.021,14.978L10.277,12.212L10.743,11.742L13.488,14.508L14.241,13.749L11.496,10.983L11.963,10.513L14.707,13.279L15.034,12.949C15.27,12.711 15.27,12.328 15.034,12.09L5.792,2.776L6.201,2.364Z" style="fill-rule:nonzero;"/>
        </g>
        <g transform="matrix(1,0,0,1,2.40723,21.8343)">
            <path d="M2.129,-6.356C1.893,-6.118 1.893,-5.735 2.129,-5.497L2.456,-5.168L5.201,-7.933L5.667,-7.463L2.922,-4.697L3.676,-3.938L6.42,-6.704L6.887,-6.234L4.142,-3.468L4.463,-3.145C4.701,-2.905 5.09,-2.905 5.329,-3.145L8.088,-5.927L4.896,-9.144L2.129,-6.356Z" style="fill-rule:nonzero;"/>
        </g>
        <g transform="matrix(1,0,0,1,2.40723,3.37006)">
            <path d="M11.202,1.585C10.839,1.681 10.715,2.134 10.98,2.4L11.371,2.795L9.021,5.163L12.214,8.38L14.564,6.012L14.964,6.416C15.231,6.684 15.688,6.561 15.783,6.195L17.163,0.863C17.268,0.457 16.898,0.088 16.492,0.194L11.202,1.585Z" style="fill-rule:nonzero;"/>
        </g>
    </g>
</svg>
