<?xml version="1.0" encoding="UTF-8" standalone="no"?>
<!DOCTYPE svg PUBLIC "-//W3C//DTD SVG 1.1//EN" "http://www.w3.org/Graphics/SVG/1.1/DTD/svg11.dtd">
<svg width="100%" height="100%" viewBox="0 0 25 16" version="1.1" xmlns="http://www.w3.org/2000/svg" xmlns:xlink="http://www.w3.org/1999/xlink" xml:space="preserve" xmlns:serif="http://www.serif.com/" style="fill-rule:evenodd;clip-rule:evenodd;stroke-linejoin:round;stroke-miterlimit:2;">
    <g transform="matrix(1,0,0,1,-9.41181e-08,-3)">
        <g transform="matrix(1,0,0,1,0,2.29897)">
            <path d="M22.067,5.259C21.47,5.62 20.574,6.598 19.988,7.871C19.366,9.229 16.975,8.915 16.455,7.453C15.968,6.083 15.417,5.155 14.897,4.737C14.897,4.737 14.066,5.991 13.755,6.095C13.443,6.199 13.236,6.095 13.132,5.991C13.028,5.887 12.509,5.364 12.716,5.155C12.924,4.945 13.444,3.693 13.444,3.693C13.444,3.693 13.548,3.379 13.444,3.275C13.341,3.171 12.197,1.395 9.392,0.873C6.586,0.351 4.923,1.186 4.923,1.186C4.82,1.186 4.611,1.291 4.716,1.5C4.82,1.708 6.379,4.53 6.379,4.53C6.379,4.53 6.483,4.971 6.276,5.052C6.068,5.133 2.742,5.052 2.12,5.156C1.495,5.259 0.352,5.573 0.144,6.617C-0.063,7.661 -0.063,8.182 0.248,8.496C0.559,8.809 1.279,8.494 1.646,8.496C2.015,8.497 3.223,8.851 3.78,9.332C4.508,9.958 5.131,10.585 5.338,10.898C5.545,11.212 5.441,11.212 5.234,11.316C5.027,11.42 3.344,11.692 2.429,12.152C1.806,12.465 1.314,11.901 0.975,11.734C0.849,11.671 0.559,11.63 0.455,11.942C0.357,12.24 0.455,12.986 0.662,13.09C0.87,13.194 2.325,13.926 3.571,14.03C4.817,14.134 6.175,14.134 6.951,14.03C7.727,13.926 6.377,14.97 6.064,15.075C5.752,15.179 5.441,15.388 5.649,15.701C5.856,16.013 6.896,16.641 7.831,16.432C8.766,16.224 9.285,15.91 9.182,14.343C9.396,14.094 11.071,14.947 11.571,14.969C12.091,14.992 13.026,14.761 13.754,14.343C14.482,13.925 16.04,13.299 16.663,13.403C16.663,13.403 17.285,14.761 17.494,14.865C17.701,14.969 18.326,15.073 18.948,14.969C19.571,14.865 20.196,14.551 20.299,14.343C20.403,14.134 20.299,13.925 19.571,13.507C18.844,13.089 18.117,12.359 18.324,12.045C18.531,11.731 19.052,11.209 19.259,11.105C19.466,11.001 19.882,11.105 20.091,11.419C20.298,11.732 20.819,12.567 21.338,12.672C21.857,12.777 22.35,12.739 22.48,12.672C22.687,12.568 22.687,12.226 22.48,11.874C22.273,11.523 21.752,10.583 21.857,9.434C21.964,8.259 22.585,6.718 23.728,5.778C24.754,4.94 22.587,4.947 22.067,5.259ZM6.69,10.065C5.6,10.065 4.716,9.176 4.716,8.08C4.716,6.985 5.6,6.096 6.69,6.096C7.78,6.096 8.664,6.983 8.664,8.08C8.664,9.177 7.78,10.065 6.69,10.065Z" style="fill-rule:nonzero;"/>
        </g>
        <g transform="matrix(1,0,0,1,5.85791,9.44287)">
            <path d="M0.935,1.88C1.452,1.88 1.87,1.459 1.87,0.94C1.87,0.421 1.452,0 0.935,0C0.419,0 0,0.421 0,0.94C0,1.459 0.419,1.88 0.935,1.88Z" style="fill-rule:nonzero;"/>
        </g>
    </g>
</svg>
