<?xml version="1.0" encoding="UTF-8" standalone="no"?>
<!DOCTYPE svg PUBLIC "-//W3C//DTD SVG 1.1//EN" "http://www.w3.org/Graphics/SVG/1.1/DTD/svg11.dtd">
<svg width="100%" height="100%" viewBox="0 0 40 27" version="1.1" xmlns="http://www.w3.org/2000/svg" xmlns:xlink="http://www.w3.org/1999/xlink" xml:space="preserve" xmlns:serif="http://www.serif.com/" style="fill-rule:evenodd;clip-rule:evenodd;stroke-linejoin:round;stroke-miterlimit:2;">
    <g transform="matrix(1,0,0,1,1.7195e-07,-7)">
        <path d="M28.686,17.808C28.944,17.792 29.202,17.851 29.428,17.976C29.654,18.102 29.839,18.29 29.961,18.517C30.069,18.715 30.129,18.935 30.136,19.16C30.143,19.385 30.097,19.608 30.002,19.813C29.906,20.017 29.764,20.196 29.586,20.336C29.409,20.476 29.201,20.573 28.979,20.618C28.774,20.688 28.555,20.709 28.34,20.679C28.125,20.649 27.921,20.569 27.743,20.445C27.565,20.322 27.42,20.159 27.317,19.969C27.215,19.779 27.16,19.568 27.156,19.352C27.165,18.95 27.328,18.566 27.613,18.279C27.897,17.992 28.281,17.824 28.686,17.808ZM28.341,19.618C28.392,19.673 28.456,19.715 28.527,19.739C28.598,19.764 28.674,19.771 28.748,19.76C28.822,19.749 28.892,19.719 28.953,19.675C29.013,19.63 29.061,19.572 29.094,19.504C29.137,19.439 29.164,19.365 29.172,19.288C29.181,19.211 29.172,19.133 29.144,19.06C29.117,18.987 29.073,18.922 29.015,18.869C28.958,18.817 28.888,18.778 28.813,18.757C28.727,18.733 28.636,18.733 28.55,18.757C28.465,18.782 28.388,18.83 28.328,18.897C28.249,18.994 28.207,19.116 28.209,19.241C28.212,19.366 28.259,19.524 28.341,19.618Z" style="fill-rule:nonzero;"/>
        <path d="M24.573,29.451C23.509,29.797 22.419,30.226 21.38,30.417C19.756,30.704 18.083,30.354 16.713,29.442C15.42,28.786 14.043,28.309 12.62,28.024C12.494,27.999 12.362,28.019 12.25,28.082C12.137,28.144 12.052,28.245 12.008,28.366C11.74,29.126 11.256,30.366 10.338,30.594C8.932,30.727 7.519,30.436 6.283,29.759C6.218,29.722 6.16,29.673 6.115,29.613C6.069,29.554 6.037,29.486 6.019,29.414C6.001,29.341 5.998,29.266 6.011,29.193C6.023,29.119 6.051,29.049 6.092,28.986C6.296,28.717 6.569,28.508 6.882,28.379C8.808,27.543 9.165,26.682 9.343,26.049C9.363,25.976 9.366,25.9 9.353,25.826C9.34,25.751 9.31,25.681 9.267,25.619C8.961,25.163 8.17,24.1 7.341,24.214C6.283,24.366 6.5,25.48 5.034,26.379C4.685,26.624 4.284,26.787 3.862,26.855C3.44,26.923 3.007,26.894 2.598,26.771C2.526,26.742 2.461,26.698 2.408,26.641C2.355,26.585 2.314,26.517 2.29,26.444C2.266,26.37 2.258,26.292 2.267,26.215C2.276,26.139 2.302,26.065 2.343,25.999C2.893,25.067 3.261,24.04 3.427,22.973C3.608,21.045 3.162,19.11 2.152,17.453C1.654,16.603 0.996,15.855 0.214,15.251C0.135,15.19 0.074,15.109 0.037,15.017C0.001,14.925 -0.009,14.824 0.008,14.726C0.025,14.629 0.069,14.537 0.134,14.462C0.2,14.387 0.285,14.332 0.38,14.301C1.12,14.169 1.881,14.216 2.598,14.44C5.059,15.061 6.156,19.201 7.698,20.125C8.551,20.635 10.138,20.195 11.61,19.565C11.793,19.398 11.959,19.213 12.107,19.013C12.438,18.564 12.665,18.049 12.773,17.504C13.199,16.028 14.05,14.708 15.221,13.706C15.454,14.475 16.701,15.573 17.248,16.112C17.726,15.76 18.16,15.437 18.46,15.213C18.573,15.134 18.65,15.013 18.674,14.878C18.697,14.743 18.666,14.604 18.587,14.491C18.064,13.668 17.636,12.789 17.312,11.871C17.275,11.778 17.264,11.676 17.282,11.577C17.3,11.479 17.346,11.387 17.414,11.314C18.326,10.329 19.374,9.476 20.525,8.782C22.065,7.926 23.751,7.359 25.498,7.111C27.588,6.846 29.712,7.058 31.707,7.731C31.784,7.758 31.854,7.802 31.912,7.86C31.969,7.917 32.012,7.987 32.038,8.064C32.064,8.141 32.072,8.223 32.061,8.304C32.05,8.384 32.02,8.461 31.975,8.528C30.976,10.098 30.122,11.755 29.425,13.478C29.393,13.553 29.378,13.633 29.383,13.714C29.387,13.795 29.409,13.874 29.448,13.944C29.488,14.015 29.543,14.076 29.61,14.123C29.676,14.169 29.753,14.2 29.833,14.213C31.239,14.361 32.656,14.386 34.066,14.289C35.526,14.153 36.997,14.393 38.338,14.985C39.511,15.453 40.059,17.352 39.995,18.947C39.994,19.151 39.943,19.351 39.847,19.531C39.751,19.711 39.612,19.866 39.443,19.981C39.274,20.097 39.08,20.17 38.876,20.195C38.673,20.22 38.466,20.196 38.274,20.125C37.76,19.974 37.219,19.932 36.688,20.002C36.156,20.071 35.645,20.251 35.188,20.53C33.714,21.233 32.409,22.244 31.363,23.492C30.7,24.594 30.649,24.454 32.319,24.758C33.99,25.062 35.902,26.125 36.769,26.024C37.334,25.943 37.864,25.706 38.299,25.34C38.369,25.282 38.452,25.242 38.542,25.224C38.632,25.206 38.724,25.212 38.811,25.24C38.898,25.267 38.976,25.317 39.038,25.383C39.1,25.45 39.145,25.531 39.166,25.619C39.408,26.505 39.46,27.417 38.21,27.948C36.834,28.535 35.369,28.89 33.875,28.999C32.209,29.203 30.527,29.254 28.851,29.151C28.569,29.109 28.285,29.077 28.001,29.057C28.146,29.273 28.307,29.479 28.483,29.673C28.982,30.226 29.589,30.672 30.267,30.987C31.465,31.392 30.203,33.519 26.543,32.974C24.894,32.761 24.276,31.117 24.573,29.451ZM25.957,21.011C26.339,21.556 26.887,21.965 27.52,22.179C28.153,22.393 28.838,22.401 29.476,22.201C30.217,22.032 30.87,21.597 31.31,20.981C31.749,20.365 31.945,19.609 31.86,18.859C31.826,18.351 31.665,17.859 31.392,17.428C31.119,16.998 30.742,16.641 30.296,16.39C29.85,16.139 29.349,16.002 28.836,15.991C28.323,15.98 27.816,16.095 27.359,16.327C26.938,16.522 26.563,16.804 26.259,17.154C25.956,17.503 25.73,17.913 25.598,18.356C25.465,18.798 25.428,19.264 25.49,19.722C25.552,20.179 25.711,20.619 25.957,21.011Z"/>
    </g>
</svg>
