<?xml version="1.0" encoding="UTF-8" standalone="no"?>
<!DOCTYPE svg PUBLIC "-//W3C//DTD SVG 1.1//EN" "http://www.w3.org/Graphics/SVG/1.1/DTD/svg11.dtd">
<svg width="100%" height="100%" viewBox="0 0 600 690" version="1.1" xmlns="http://www.w3.org/2000/svg" xmlns:xlink="http://www.w3.org/1999/xlink" xml:space="preserve" xmlns:serif="http://www.serif.com/" style="fill-rule:evenodd;clip-rule:evenodd;stroke-linejoin:round;stroke-miterlimit:2;">
    <g transform="matrix(1,0,0,1,-628.365,-14.4258)">
        <g transform="matrix(1,0,0,1,-31.3712,22.3898)">
            <path d="M994.371,191.11C995.7,174.592 981.295,162.749 961.441,169.52C916.608,184.81 872.434,224.831 872.371,225.11C832.101,193.56 807.841,147.35 806.371,97.11C870.164,41.224 946.169,-5.278 1032.37,-7.89C1037.87,-8.057 1056.37,-7.89 1056.37,-7.89C1099.38,-2.03 1144.83,26.5 1159.37,70.11C1180.47,124.13 1151.2,180.36 1113.37,219.11C1115.79,219.311 1129.32,217.456 1153.37,222.11C1291.87,248.904 1315.03,433.521 1094.07,557.81C1090.65,559.733 1043.03,584.413 1007.39,597.13C966.56,611.701 966.261,609.985 909.371,625.11C919.599,646.377 907.009,674.717 887.042,680.695C866.833,686.745 807.674,665.765 801.061,663.42C777.131,654.92 753.601,647.68 731.051,638.43C677.83,616.632 615.743,596.428 704.121,522.86C716.42,512.622 728.719,502.381 741.251,492.43C763.6,474.685 775.389,465.962 786.371,458.11C792.986,453.381 801.02,448.4 807.143,445.318C822.439,437.62 836.393,432.253 849.344,450.754C849.872,451.508 853.094,456.111 854.371,461.11C855.291,467.98 857.688,479.235 859.528,485.845C865.534,485.203 909.313,477.499 933.371,470.11C965.832,460.141 1019.36,448.537 1054.29,426.03C1060.08,422.303 1116.52,385.93 1104.37,356.11C1091.93,318.322 996.402,357.787 987.026,356.857C972.266,355.393 931.312,287.687 930.628,267.942C929.755,242.749 938.652,246.238 959.666,232.45C963.277,230.081 991.782,211.379 994.371,191.11Z"/>
        </g>
    </g>
</svg>
