<?xml version="1.0" encoding="UTF-8" standalone="no"?>
<!DOCTYPE svg PUBLIC "-//W3C//DTD SVG 1.1//EN" "http://www.w3.org/Graphics/SVG/1.1/DTD/svg11.dtd">
<svg width="100%" height="100%" viewBox="0 0 36 36" version="1.1" xmlns="http://www.w3.org/2000/svg" xmlns:xlink="http://www.w3.org/1999/xlink" xml:space="preserve" xmlns:serif="http://www.serif.com/" style="fill-rule:evenodd;clip-rule:evenodd;stroke-linejoin:round;stroke-miterlimit:2;">
    <path d="M18,0C27.934,0 36,8.066 36,18C36,27.934 27.934,36 18,36C8.066,36 0,27.934 0,18C0,8.066 8.066,0 18,0ZM20.84,23.48C20.78,23.32 20.74,23.16 20.7,22.99C20.49,22.03 20.48,20.73 20.48,20.38L20.44,20.38C19.94,21.21 19.01,21.86 19.01,21.86L19.01,21.85L18.96,21.45C19.31,21.28 19.76,20.69 19.76,20.69L19.39,17.63L19.28,17.63C18.74,18.93 17.62,19.96 17.62,19.96L17.62,21.81L17.6,24.63C19.32,24.68 20.82,23.5 20.84,23.48ZM23.69,27.54C24.77,28.37 27.28,29.29 30.16,26.23C32.85,23.38 32.31,20.37 32.23,19.97L32.23,19.94C29.8,18.23 26.46,19.68 26.46,19.68L26.46,19.85C26.87,19.8 27.77,20 27.88,20.57L27.88,20.64C27.97,21.58 26.86,22.55 26.09,22.41C25.54,22.31 24.76,22.13 24.12,19.27C23.8,17.86 23.91,16.93 24.1,16.34C24.31,15.67 24.82,15.2 24.94,15.69C24.98,15.82 24.98,16.03 24.94,16.33C24.86,16.94 24.54,17.44 24.21,17.73C24.14,17.95 24.21,18.42 24.31,18.87C24.44,19.46 24.62,20.03 24.62,20.03C26.93,17.35 27.43,15.05 27.19,13.83C27.13,13.53 27.02,13.29 26.88,13.13C26.23,12.41 24.89,12.46 23.32,13.93C23.2,14.04 23.08,14.16 22.96,14.28C22.27,15.01 21.75,15.74 21.39,16.64C20.94,17.75 20.75,19.11 20.83,21.01C20.86,21.65 20.94,22.25 21.06,22.81C21.58,25.24 22.84,26.88 23.68,27.52L23.69,27.54ZM14.71,18.06L17.55,19.27L17.6,19.17C16.75,18.06 16.41,16.57 16.41,16.57L15.06,15.78L12.37,14.21C11.46,15.69 11.74,17.59 11.74,17.59C12.73,17.76 14.26,18.63 14.61,18.84L14.64,18.81C14.16,17.95 14.06,16.82 14.06,16.82L14.43,16.97C14.4,17.36 14.69,18.04 14.69,18.04L14.71,18.06ZM17.59,24.91L17.31,24.91L17.33,21.43C16.59,20.52 15.52,19.69 13.88,18.83C12.17,17.93 10.53,17.64 9.2,17.63C8.17,17.63 7.33,17.81 6.81,18.03C5.55,18.55 3.5,20.26 4.71,24.29C5.91,28.29 9.09,29.21 9.14,29.22C11.83,27.97 12.25,24.36 12.25,24.36L12.1,24.26C11.95,24.6 11.46,25.16 10.98,25.17C10.89,25.17 10.79,25.15 10.71,25.11C9.86,24.72 9.57,23.27 10.07,22.68C10.3,22.41 10.59,22.09 11.47,22.09C11.99,22.09 12.73,22.22 13.78,22.54C15.15,22.97 15.9,23.52 16.31,23.98C16.74,24.45 16.91,25.06 16.56,25.06C16.42,25.06 16.21,24.96 15.9,24.72C15.41,24.34 15.14,23.82 15.05,23.39C14.7,23 12.88,22.6 12.84,22.59C14.21,26.52 16.38,28.02 17.49,28.01C17.56,28.01 17.63,28.01 17.7,27.99C18.62,27.79 19.23,26.69 18.84,24.75C18.44,24.85 18.02,24.9 17.61,24.89L17.59,24.91ZM19.71,15.15L17.24,17.01L17.3,17.1C18.69,16.92 20.14,17.37 20.14,17.37L21.02,16.87C21.4,15.74 22,14.9 22.76,14.1C22.88,13.98 22.99,13.86 23.11,13.75C22.35,13.12 21.59,12.82 21.59,12.82C20.95,13.59 19.43,14.49 19.07,14.69L19.07,14.73C20.06,14.74 21.09,15.22 21.09,15.22L20.77,15.46C20.45,15.24 19.71,15.15 19.71,15.15ZM11.62,15.28C11.73,14.85 11.9,14.44 12.13,14.07L12.27,13.84L15.51,15.73C16.66,15.54 17.89,15.03 19.44,14.05C22.34,12.21 23.5,9.61 23.67,8.32C23.84,6.97 23.39,4.34 19.3,3.37C15.21,2.4 12.81,4.74 12.81,4.74C12.55,7.69 15.47,9.86 15.47,9.86L15.63,9.78C15.37,9.43 15.07,8.5 15.58,8.14C16.35,7.6 17.74,8.07 18.01,8.8C18.2,9.33 18.43,10.09 16.28,12.07C15.23,13.04 14.37,13.41 13.76,13.54C12.89,13.73 12.04,13.35 13.32,12.82C13.89,12.59 14.48,12.61 14.89,12.75C15.41,12.64 16.69,11.24 16.69,11.24C12.33,10.41 9.91,11.75 9.58,12.75C9.3,13.6 9.89,14.64 11.6,15.28L11.62,15.28Z"/>
</svg>
