<?xml version="1.0" encoding="UTF-8" standalone="no"?>
<!DOCTYPE svg PUBLIC "-//W3C//DTD SVG 1.1//EN" "http://www.w3.org/Graphics/SVG/1.1/DTD/svg11.dtd">
<svg width="100%" height="100%" viewBox="0 0 1147 1061" version="1.1" xmlns="http://www.w3.org/2000/svg" xmlns:xlink="http://www.w3.org/1999/xlink" xml:space="preserve" xmlns:serif="http://www.serif.com/" style="fill-rule:evenodd;clip-rule:evenodd;stroke-linejoin:round;stroke-miterlimit:2;">
    <g transform="matrix(1,0,0,1,-0.00314829,-3.77093e-05)">
        <g transform="matrix(1,0,0,1,-1442.9,-12.7469)">
            <path d="M2478.1,632.6C2596.1,667.8 2620.2,704.7 2551.8,791.2C2529.9,818.4 2472.8,877.2 2308.8,1028.9C2294.4,1041.7 2261.2,1066.3 2237.2,1072.1C2213.2,1077.4 2193.9,1068.4 2181.1,1053.9C2174.2,1045.9 2162.4,1033.1 2157.6,992.5C2156,978.6 2154.9,961 2154.9,953C1933.3,945.5 1679.1,1016.6 1515.6,1063C1461.1,1018.1 1432.8,915.6 1446.2,825.9C1446.2,825.9 1506,774.1 1533.2,750.6C1567.9,720.7 1603.59,689.873 1637.6,658.2C1677.37,621.163 1710.87,594.509 1771.81,528.376C1823.61,472.155 1846.65,440.529 1861,411C1869.72,393.047 1866.7,366.1 1857.9,351.2C1842.4,326.6 1804,316.5 1768.7,316C1721.7,315.5 1652.8,332.6 1557.8,403C1491,350.1 1446.2,220.4 1458.5,107.7C1758.6,-53 1969.1,31.3 2029.4,66C2111.6,113 2208.8,207 2187.5,360.3C2177.9,430.8 2157.1,479.4 2066.8,580.3C2023.5,628.9 1991.5,653.5 1937,698.9C2002.7,682.9 2088.1,665.8 2126.6,658.8C2120.2,623 2119.1,597.4 2121.3,585.1C2125,564.8 2151.2,553.1 2199.3,563.7C2312,587.7 2400.6,609.1 2478.1,632.6ZM2237.21,984.435C2244.28,979.303 2250.8,973.431 2255.03,969.657C2412.37,824.113 2467.94,767.691 2489.28,741.291C2492.95,736.616 2496.6,731.257 2499.79,726.27C2487.7,720.869 2471.04,713.977 2455.23,709.262C2455.12,709.227 2455,709.193 2454.89,709.158C2384.58,687.839 2304.91,668.347 2205.71,646.896C2212.14,689.502 2183.57,729.754 2140.91,737.51C2103.35,744.339 2020.03,761.018 1955.93,776.628C1919.77,785.435 1882.3,768.137 1865.56,734.897C1848.81,701.656 1857.2,661.256 1885.8,637.433C1936.62,595.095 1966.69,572.404 2007.07,527.082C2007.11,527.038 2007.15,526.994 2007.19,526.95C2080.67,444.843 2100.42,406.875 2108.23,349.506C2108.24,349.434 2108.25,349.362 2108.26,349.29C2123.85,237.089 2049.85,169.849 1989.69,135.449C1989.63,135.412 1989.56,135.376 1989.5,135.339C1940.08,106.899 1774.49,46.061 1536.42,158.03C1537.81,208.225 1550.76,259.281 1572.27,297.254C1657.47,246.802 1722.85,235.508 1769.55,236.005C1769.64,236.006 1769.74,236.007 1769.83,236.008C1833.08,236.904 1897.81,264.476 1925.59,308.553C1925.99,309.202 1926.39,309.857 1926.78,310.517L1940.31,342.563L1945.82,374.325L1943.23,415.445L1932.96,445.952L1932.95,445.967C1916.34,480.155 1890.62,517.492 1830.64,582.584L1830.64,582.588C1767.71,650.885 1733.19,678.495 1692.12,716.744C1657.37,749.106 1620.92,780.617 1585.46,811.168C1569.53,824.937 1542.43,848.394 1522.73,865.456C1521.2,903.784 1527.96,943.146 1543.42,972.061C1712.27,925.071 1948.95,865.984 2157.61,873.046C2200.71,874.505 2234.9,909.871 2234.9,953C2234.9,959.125 2235.84,972.565 2237.07,983.258C2237.11,983.659 2237.16,984.051 2237.21,984.435Z"/>
        </g>
    </g>
</svg>
