<?xml version="1.0" encoding="UTF-8" standalone="no"?>
<!DOCTYPE svg PUBLIC "-//W3C//DTD SVG 1.1//EN" "http://www.w3.org/Graphics/SVG/1.1/DTD/svg11.dtd">
<svg width="100%" height="100%" viewBox="0 0 600 690" version="1.1" xmlns="http://www.w3.org/2000/svg" xmlns:xlink="http://www.w3.org/1999/xlink" xml:space="preserve" xmlns:serif="http://www.serif.com/" style="fill-rule:evenodd;clip-rule:evenodd;stroke-linejoin:round;stroke-miterlimit:2;">
    <g transform="matrix(1,0,0,1,0.000266336,0.000222222)">
        <g transform="matrix(1,0,0,1,-659.736,7.964)">
            <path d="M994.371,191.11C995.7,174.592 981.295,162.749 961.441,169.52C916.608,184.81 872.434,224.831 872.371,225.11C832.101,193.56 807.841,147.35 806.371,97.11C870.164,41.224 946.169,-5.278 1032.37,-7.89C1037.87,-8.057 1056.37,-7.89 1056.37,-7.89C1099.38,-2.03 1144.83,26.5 1159.37,70.11C1180.47,124.13 1151.2,180.36 1113.37,219.11C1115.79,219.311 1129.32,217.456 1153.37,222.11C1291.87,248.904 1315.03,433.521 1094.07,557.81C1090.65,559.733 1043.03,584.413 1007.39,597.13C966.56,611.701 966.261,609.985 909.371,625.11C919.599,646.377 907.009,674.717 887.042,680.695C866.833,686.745 807.674,665.765 801.061,663.42C777.131,654.92 753.601,647.68 731.051,638.43C677.83,616.632 615.743,596.428 704.121,522.86C716.42,512.622 728.719,502.381 741.251,492.43C763.6,474.685 775.389,465.962 786.371,458.11C792.986,453.381 801.02,448.4 807.143,445.318C822.439,437.62 836.393,432.253 849.344,450.754C849.872,451.508 853.094,456.111 854.371,461.11C855.291,467.98 857.688,479.235 859.528,485.845C865.534,485.203 909.313,477.499 933.371,470.11C965.832,460.141 1019.36,448.537 1054.29,426.03C1060.08,422.303 1116.52,385.93 1104.37,356.11C1091.93,318.322 996.402,357.787 987.026,356.857C972.266,355.393 931.312,287.687 930.628,267.942C929.755,242.749 938.652,246.238 959.666,232.45C963.277,230.081 991.782,211.379 994.371,191.11ZM718.998,577.979C728.541,582.591 741.111,588.519 750.002,592.161L750.027,592.171C771.849,601.122 794.638,608.078 817.772,616.295C820.587,617.294 842.805,622.956 859.413,627.148C859.094,619.342 860.605,611.475 863.951,604.206C870.18,590.67 882.123,580.617 896.524,576.789C951.101,562.279 951.415,564.017 990.585,550.039L990.587,550.038C1023.06,538.453 1066.44,515.982 1069.56,514.228C1234.28,421.57 1247.12,291.175 1143.87,271.2L1143.87,271.199C1123.06,267.172 1111.33,269.112 1109.23,268.938C1089.93,267.336 1073.3,254.736 1066.53,236.596C1059.76,218.456 1064.07,198.037 1077.59,184.182C1102.37,158.801 1126.62,123.684 1112.8,88.301C1112.49,87.516 1112.2,86.724 1111.94,85.925C1103.65,61.063 1077.1,46.228 1052.41,42.077C1047.16,42.035 1037.49,41.978 1033.89,42.087L1033.88,42.087C968.127,44.08 909.903,77.036 859.223,117.952C862.56,132.391 868.674,146.001 877.142,158.224C896.401,144.986 920.802,130.552 945.302,122.196L962.292,118.227L980.173,117.967L998.086,122.054L1014.7,130.741L1028.5,143.608L1038.29,159.566L1043.51,177.19L1044.21,195.12C1044.15,195.897 1044.07,196.672 1043.97,197.445L1038.66,217.298L1026.35,238.624C1012.8,256.603 992.284,270.808 987.536,273.964L1003.73,301.12C1025.25,295.71 1056.87,288.943 1077.46,289.829C1087.45,290.259 1096.66,291.885 1104.75,294.531L1125.25,304.666L1141.21,320.033L1151.21,339.223L1155.34,354.475L1155.81,371.254L1152.29,388.843L1142.79,409.527C1125.38,438.322 1086.9,464.499 1081.36,468.068C1042.73,492.955 983.945,506.883 948.051,517.906C920.947,526.231 871.609,534.838 864.842,535.562C841.242,538.084 819.23,523.68 811.971,501.284C802.376,508.214 791.365,516.484 772.343,531.587C760.113,541.299 748.113,551.297 736.11,561.288C729.882,566.472 723.806,572.693 718.998,577.979Z"/>
        </g>
    </g>
</svg>
