<?xml version="1.0" encoding="UTF-8" standalone="no"?>
<!DOCTYPE svg PUBLIC "-//W3C//DTD SVG 1.1//EN" "http://www.w3.org/Graphics/SVG/1.1/DTD/svg11.dtd">
<svg width="100%" height="100%" viewBox="0 0 18 15" version="1.1" xmlns="http://www.w3.org/2000/svg" xmlns:xlink="http://www.w3.org/1999/xlink" xml:space="preserve" xmlns:serif="http://www.serif.com/" style="fill-rule:evenodd;clip-rule:evenodd;stroke-linejoin:round;stroke-miterlimit:2;">
    <g transform="matrix(1,0,0,1,-2.44434,-3.61816)">
        <g transform="matrix(1,0,0,1,2.44434,9.48638)">
            <path d="M4.292,0.921C4.811,0.403 5.809,0.121 6.523,0.292L7.154,0.444C7.273,0.472 7.299,0.566 7.213,0.652L6.586,1.278C6.5,1.364 6.334,1.411 6.215,1.383L5.799,1.283C5.68,1.254 5.513,1.301 5.427,1.388L5.224,1.59C5.138,1.677 4.971,1.724 4.853,1.695L3.992,1.489C3.873,1.46 3.847,1.367 3.933,1.28L4.292,0.921ZM7.959,0.831C8.045,0.745 8.212,0.698 8.33,0.726L10.884,1.339C11.003,1.368 11.029,1.461 10.943,1.548L10.317,2.174C10.231,2.26 10.064,2.307 9.945,2.278L7.391,1.665C7.272,1.637 7.246,1.544 7.333,1.457L7.959,0.831ZM11.689,1.727C11.776,1.64 11.942,1.593 12.061,1.622L14.615,2.235C14.734,2.264 14.76,2.357 14.674,2.443L14.048,3.069C13.961,3.156 13.795,3.203 13.676,3.174L11.122,2.561C11.003,2.532 10.977,2.439 11.063,2.353L11.689,1.727ZM15.42,2.622C15.506,2.536 15.673,2.489 15.791,2.518L16.423,2.669C17.136,2.84 17.294,3.4 16.775,3.918L16.416,4.277C16.329,4.364 16.163,4.411 16.044,4.382L15.183,4.175C15.064,4.147 15.038,4.054 15.125,3.967L15.327,3.765C15.414,3.678 15.387,3.585 15.268,3.556L14.852,3.457C14.733,3.428 14.707,3.335 14.794,3.248L15.42,2.622ZM1.529,3.951C1.41,3.923 1.384,3.83 1.47,3.743L3.127,2.086C3.214,2 3.38,1.953 3.499,1.981L4.36,2.188C4.479,2.216 4.505,2.31 4.419,2.396L2.761,4.053C2.675,4.14 2.509,4.187 2.39,4.158L1.529,3.951ZM15.552,4.875C15.67,4.903 15.697,4.996 15.61,5.083L13.953,6.74C13.867,6.827 13.7,6.874 13.581,6.845L12.72,6.638C12.602,6.61 12.575,6.517 12.662,6.43L14.319,4.773C14.405,4.686 14.572,4.639 14.691,4.668L15.552,4.875ZM0.665,4.549C0.751,4.462 0.917,4.415 1.036,4.444L1.897,4.651C2.016,4.679 2.042,4.772 1.956,4.859L1.753,5.061C1.667,5.148 1.693,5.241 1.812,5.27L2.228,5.37C2.347,5.398 2.373,5.491 2.287,5.578L1.661,6.204C1.574,6.29 1.408,6.337 1.289,6.309L0.658,6.157C-0.055,5.986 -0.213,5.427 0.305,4.908L0.665,4.549ZM13.089,7.338C13.208,7.366 13.234,7.459 13.147,7.546L12.788,7.905C12.27,8.423 11.271,8.705 10.558,8.534L9.927,8.382C9.808,8.354 9.781,8.261 9.868,8.174L10.494,7.548C10.58,7.462 10.747,7.415 10.866,7.443L11.282,7.543C11.401,7.572 11.567,7.525 11.653,7.438L11.856,7.236C11.943,7.149 12.109,7.102 12.228,7.131L13.089,7.338ZM5.391,7.099C5.305,7.186 5.138,7.233 5.02,7.204L2.466,6.591C2.347,6.563 2.32,6.469 2.407,6.383L3.033,5.757C3.119,5.67 3.286,5.623 3.405,5.652L5.959,6.265C6.077,6.294 6.104,6.387 6.017,6.473L5.391,7.099ZM9.122,7.995C9.035,8.081 8.869,8.128 8.75,8.1L6.196,7.487C6.077,7.458 6.051,7.365 6.137,7.279L6.763,6.652C6.85,6.566 7.016,6.519 7.135,6.548L9.689,7.161C9.808,7.189 9.834,7.283 9.748,7.369L9.122,7.995Z"/>
        </g>
        <g transform="matrix(1,0,0,1,2.44434,6.42876)">
            <path d="M4.292,0.921C4.811,0.403 5.809,0.121 6.523,0.292L16.423,2.669C17.136,2.84 17.294,3.4 16.775,3.918L12.788,7.905C12.27,8.423 11.271,8.705 10.558,8.534L0.658,6.157C-0.055,5.986 -0.213,5.427 0.305,4.908L4.292,0.921ZM5.799,1.283C5.68,1.254 5.513,1.301 5.427,1.388L1.753,5.061C1.667,5.148 1.693,5.241 1.812,5.27L11.282,7.543C11.401,7.572 11.567,7.525 11.653,7.438L15.327,3.765C15.414,3.678 15.387,3.585 15.268,3.556L5.799,1.283Z"/>
        </g>
        <g transform="matrix(1,0,0,1,2.44434,3.37602)">
            <path d="M4.292,0.921C4.811,0.403 5.809,0.121 6.523,0.292L16.423,2.669C17.136,2.84 17.294,3.4 16.775,3.918L12.788,7.905C12.27,8.423 11.271,8.705 10.558,8.534L0.658,6.157C-0.055,5.986 -0.213,5.427 0.305,4.908L4.292,0.921ZM5.799,1.283C5.68,1.254 5.513,1.301 5.427,1.388L1.753,5.061C1.667,5.148 1.693,5.241 1.812,5.27L11.282,7.543C11.401,7.572 11.567,7.525 11.653,7.438L15.327,3.765C15.414,3.678 15.387,3.585 15.268,3.556L5.799,1.283Z"/>
        </g>
    </g>
</svg>
