<?xml version="1.0" encoding="UTF-8" standalone="no"?>
<!DOCTYPE svg PUBLIC "-//W3C//DTD SVG 1.1//EN" "http://www.w3.org/Graphics/SVG/1.1/DTD/svg11.dtd">
<svg width="100%" height="100%" viewBox="0 0 1147 1061" version="1.1" xmlns="http://www.w3.org/2000/svg" xmlns:xlink="http://www.w3.org/1999/xlink" xml:space="preserve" xmlns:serif="http://www.serif.com/" style="fill-rule:evenodd;clip-rule:evenodd;stroke-linejoin:round;stroke-miterlimit:2;">
    <g transform="matrix(1,0,0,1,-1442.9,-12.7469)">
        <path d="M2478.1,632.6C2400.6,609.1 2312,587.7 2199.3,563.7C2151.2,553.1 2125,564.8 2121.3,585.1C2119.1,597.4 2120.2,623 2126.6,658.8C2088.1,665.8 2002.7,682.9 1937,698.9C1991.5,653.5 2023.5,628.9 2066.8,580.3C2157.1,479.4 2177.9,430.8 2187.5,360.3C2208.8,207 2111.6,113 2029.4,66C1969.1,31.3 1758.6,-53 1458.5,107.7C1446.2,220.4 1491,350.1 1557.8,403C1652.8,332.6 1721.7,315.5 1768.7,316C1804,316.5 1842.4,326.6 1857.9,351.2C1866.7,366.1 1869.72,393.047 1861,411C1846.65,440.529 1823.61,472.155 1771.81,528.376C1710.87,594.509 1677.37,621.163 1637.6,658.2C1603.59,689.873 1567.9,720.7 1533.2,750.6C1506,774.1 1446.2,825.9 1446.2,825.9C1432.8,915.6 1461.1,1018.1 1515.6,1063C1679.1,1016.6 1933.3,945.5 2154.9,953C2154.9,961 2156,978.6 2157.6,992.5C2162.4,1033.1 2174.2,1045.9 2181.1,1053.9C2193.9,1068.4 2213.2,1077.4 2237.2,1072.1C2261.2,1066.3 2294.4,1041.7 2308.8,1028.9C2472.8,877.2 2529.9,818.4 2551.8,791.2C2620.2,704.7 2596.1,667.8 2478.1,632.6Z" style="fill-rule:nonzero;"/>
    </g>
</svg>
