<?xml version="1.0" encoding="UTF-8" standalone="no"?>
<!DOCTYPE svg PUBLIC "-//W3C//DTD SVG 1.1//EN" "http://www.w3.org/Graphics/SVG/1.1/DTD/svg11.dtd">
<svg width="100%" height="100%" viewBox="0 0 19 20" version="1.1" xmlns="http://www.w3.org/2000/svg" xmlns:xlink="http://www.w3.org/1999/xlink" xml:space="preserve" xmlns:serif="http://www.serif.com/" style="fill-rule:evenodd;clip-rule:evenodd;stroke-linejoin:round;stroke-miterlimit:2;">
    <g transform="matrix(1,0,0,1,-1.8457,-0.611329)">
        <g transform="matrix(1,0,0,1,1.8457,0.540873)">
            <path d="M10.734,2.079C10.734,1.891 10.667,1.708 10.546,1.564L9.378,0.177C9.258,0.035 9.039,0.035 8.919,0.177L7.751,1.564C7.629,1.708 7.562,1.891 7.562,2.079L7.562,7.291L10.734,7.291L10.734,2.079ZM17.796,9.411C18.072,9.411 18.296,9.187 18.296,8.911L18.296,8.691C18.296,8.415 18.072,8.191 17.796,8.191L0.5,8.191C0.224,8.191 0,8.415 0,8.691L0,8.911C0,9.187 0.224,9.411 0.5,9.411L0.683,9.411L3.964,12.692L3.964,18.96C3.964,19.237 4.188,19.46 4.464,19.46L13.832,19.46C14.108,19.46 14.332,19.237 14.332,18.96L14.332,12.692L17.613,9.411L17.796,9.411ZM2.037,9.411L3.964,9.411L3.964,11.338L2.037,9.411ZM14.332,11.338L14.332,9.411L16.259,9.411L14.332,11.338ZM12.143,13.545C12.124,13.619 12.03,13.645 11.976,13.59L11.675,13.288L10.484,14.48L11.948,15.944C12.007,16.003 12.007,16.098 11.948,16.157L10.809,17.295C10.751,17.353 10.656,17.353 10.597,17.295L9.133,15.83L7.691,17.272C7.632,17.331 7.537,17.331 7.479,17.272L6.341,16.133C6.282,16.075 6.282,15.98 6.341,15.921L7.783,14.48L6.614,13.311L6.32,13.605C6.266,13.66 6.172,13.635 6.153,13.56L5.466,10.927C5.447,10.853 5.514,10.786 5.588,10.805L8.221,11.492C8.295,11.511 8.321,11.604 8.266,11.659L7.964,11.961L9.133,13.129L10.324,11.938L10.03,11.644C9.975,11.589 10.001,11.496 10.075,11.476L12.708,10.79C12.782,10.77 12.849,10.838 12.83,10.912L12.143,13.545Z"/>
        </g>
    </g>
</svg>
