<?xml version="1.0" encoding="UTF-8" standalone="no"?>
<!DOCTYPE svg PUBLIC "-//W3C//DTD SVG 1.1//EN" "http://www.w3.org/Graphics/SVG/1.1/DTD/svg11.dtd">
<svg width="100%" height="100%" viewBox="0 0 231 234" version="1.1" xmlns="http://www.w3.org/2000/svg" xmlns:xlink="http://www.w3.org/1999/xlink" xml:space="preserve" xmlns:serif="http://www.serif.com/" style="fill-rule:evenodd;clip-rule:evenodd;stroke-linejoin:round;stroke-miterlimit:2;">
    <g transform="matrix(1,0,0,1,-15.6676,-10.7085)">
        <path d="M66.618,161.904C64.67,155.144 59.233,149.329 52,150C41.54,150.97 36.97,160.13 26,160C15.03,159.87 14.17,142.54 25.03,141.03C35.88,139.51 48.96,145.11 56.75,135.75C64.54,126.4 53.79,116.36 43,118C32.21,119.64 28.82,102.8 38.08,99.08C47.33,95.35 57.61,110.87 64.3,99.3C71,87.73 49.96,88.17 49.23,78.77C48.5,69.37 61.19,64.57 68.08,73.92C74.97,83.27 88.96,65.72 84.07,59.93C79.19,54.14 67.61,42.59 81.08,39.08C94.54,35.57 87.78,55.67 97.7,59.3C107.62,62.93 115.86,50.92 111.22,41.78C106.58,32.63 99.72,25.06 105.77,14.77C111.82,4.48 125.75,15.92 124,25C122.25,34.08 117.94,49.86 128,54C130.26,58.21 123.5,60.57 121.78,64.78C120.06,68.98 120.06,75.32 125.78,76.22C131.5,77.12 135.33,77.18 139.25,73.25C143.17,69.32 146.59,66.86 151.99,67.01C157.4,67.15 161.33,72.58 159.77,77.77C158.21,82.96 152.79,83.56 148,84C143.21,84.44 136.37,82.68 132.75,87.75C129.14,92.83 126.17,92.26 129.7,100.3C133.22,108.35 144.7,113.62 153,114C161.3,114.38 161.42,115.53 166.25,119.75C171.07,123.98 168.88,128.12 165.75,131.75C162.62,135.38 156.26,136.16 152.23,132.77C148.2,129.38 146.51,127.41 141.22,124.78C135.94,122.15 131.95,126.74 128,128C117.83,130.84 111.58,117.61 115.22,109.22C118.86,100.83 109.77,90.88 101.75,96.75C93.73,102.62 97.667,111.992 102.75,118.25C107.837,124.512 110.888,132.448 103.07,139.07C95.258,145.688 88.68,128.38 80.25,136.25C71.82,144.12 81.78,147.66 86.22,154.78C90.66,161.9 73.408,167.194 66.618,161.904Z" style="fill:rgb(179,249,95);fill-opacity:0.98;"/>
        <path d="M28,62C14.59,59.76 10.02,79.56 25,83C39.98,86.44 42.09,64.36 28,62Z" style="fill:rgb(179,249,95);fill-opacity:0.93;fill-rule:nonzero;"/>
        <path d="M35,170C24.09,166.56 16.75,181.64 26.33,186.67C35.91,191.69 44.38,172.96 35,170Z" style="fill:rgb(179,249,95);fill-opacity:0.93;fill-rule:nonzero;"/>
        <path d="M128,54C130.26,58.21 123.5,60.57 121.78,64.78C120.06,68.98 120.06,75.32 125.78,76.22C131.5,77.12 135.33,77.18 139.25,73.25C143.17,69.32 146.59,66.86 151.99,67.01C157.4,67.15 161.33,72.58 159.77,77.77C158.21,82.96 152.79,83.56 148,84C143.21,84.44 136.37,82.68 132.75,87.75C129.14,92.83 126.17,92.26 129.7,100.3C133.22,108.35 144.7,113.62 153,114C161.3,114.38 161.42,115.53 166.25,119.75C171.07,123.98 168.88,128.12 165.75,131.75C162.62,135.38 156.26,136.16 152.23,132.77C148.2,129.38 146.51,127.41 141.22,124.78C135.94,122.15 131.95,126.74 128,128C137.87,131.6 130.56,141.7 124.92,143.92C119.29,146.15 110.42,153.96 113.98,161.02C117.53,168.09 127.89,162.98 131.3,157.3C134.71,151.63 137.07,140.87 146.01,142.01C154.95,143.15 151.91,155.4 145.75,159.75C139.59,164.1 134.44,169.61 135,178C135.56,186.39 146.34,188.27 152.25,181.25C158.15,174.23 153.16,165.95 158.93,158.93C164.69,151.91 169.67,162.45 172.75,169.25C175.84,176.04 187.14,168.01 190,164C189.64,154 197.68,154.5 205.33,157.67C212.97,160.84 213.38,145.45 204.23,146.77C195.08,148.09 197.83,131.5 203.33,132.33C208.83,133.16 221.47,133.75 219.92,124.08C218.38,114.4 207.35,120.89 202.75,115.25C198.16,109.6 199.59,101.7 205.92,97.92C212.25,94.15 219.8,94.23 226.78,92.78C233.75,91.32 239.57,87.09 239.33,79.67C239.09,72.25 230.27,67.61 223.7,70.7C217.12,73.79 215.74,78.6 210.25,83.25C204.75,87.9 198.29,90.9 191.08,88.92C183.86,86.95 182.72,77.55 186.03,72.03C189.33,66.51 192.06,61.64 197.77,57.77C203.48,53.9 208.64,51.66 210.22,44.22C211.8,36.79 206.4,30.2 199.01,32.01C191.62,33.82 189.38,39.27 186.93,45.93C184.47,52.58 182.76,57.27 176.69,61.69C170.63,66.12 161.63,64.03 159.33,56.67C157.03,49.31 165.97,41.28 158.07,35.93C150.17,30.57 145.95,40.58 144.75,46.75C143.56,52.93 132.99,56.05 128,54Z" style="fill:rgb(0,66,240);fill-opacity:0.98;fill-rule:nonzero;"/>
        <path d="M240,134C225.78,129.68 218.82,144.5 230.99,151.01C243.17,157.52 252.25,137.72 240,134Z" style="fill:rgb(0,66,240);fill-opacity:0.93;fill-rule:nonzero;"/>
        <path d="M66.77,171.77C62.52,182.83 53.03,177.43 46.92,186.92C40.81,196.41 53.53,204.59 61.25,197.25C68.97,189.91 69,182.22 80,180C91,177.79 90.6,196.47 87.2,202.75C83.79,209.04 80.9,218.12 74.75,223.75C68.61,229.39 68.42,247.55 79.3,244.3C90.19,241.06 88.66,229.69 92.01,221.01C95.36,212.33 96.11,203.97 104.25,197.25C112.39,190.53 124.23,197.24 120,210C115.77,222.76 140.59,223.44 137,211C133.41,198.56 142.1,190.51 152.77,193.23C163.44,195.95 154.64,215.03 166.97,214.97C179.31,214.92 165.52,196.29 165,192C164.43,187.32 166.39,182.01 171,180C183.29,174.63 190.04,185.29 198.25,193.75C206.46,202.21 222.05,193.61 214.25,182.75C206.44,171.9 190.54,178.96 190,164C187.14,168.01 175.84,176.04 172.75,169.25C169.67,162.45 164.69,151.91 158.93,158.93C153.16,165.95 158.15,174.23 152.25,181.25C146.34,188.27 135.56,186.39 135,178C134.44,169.61 139.59,164.1 145.75,159.75C151.91,155.4 154.95,143.15 146.01,142.01C137.07,140.87 134.71,151.63 131.3,157.3C127.89,162.98 117.53,168.09 113.98,161.02C110.42,153.96 119.29,146.15 124.92,143.92C130.56,141.7 137.87,131.6 128,128C117.83,130.84 111.58,117.61 115.22,109.22C118.86,100.83 109.77,90.88 101.75,96.75C93.73,102.62 97.67,111.99 102.75,118.25C107.84,124.51 110.89,132.45 103.07,139.07C95.26,145.69 88.68,128.38 80.25,136.25C71.82,144.12 81.78,147.66 86.22,154.78C90.66,161.9 73.409,167.194 66.619,161.904C67.129,164.454 67.73,169.08 67,171L66.77,171.77Z" style="fill:rgb(244,113,64);fill-opacity:0.99;fill-rule:nonzero;"/>
        <path d="M194,203C184.31,200.54 181.84,213.34 190.93,216.07C200.02,218.8 202.1,205.05 194,203Z" style="fill:rgb(244,113,64);fill-opacity:0.91;fill-rule:nonzero;"/>
    </g>
</svg>
