<?xml version="1.0" encoding="UTF-8" standalone="no"?>
<!DOCTYPE svg PUBLIC "-//W3C//DTD SVG 1.1//EN" "http://www.w3.org/Graphics/SVG/1.1/DTD/svg11.dtd">
<svg width="100%" height="100%" viewBox="0 0 32 28" version="1.1" xmlns="http://www.w3.org/2000/svg" xmlns:xlink="http://www.w3.org/1999/xlink" xml:space="preserve" xmlns:serif="http://www.serif.com/" style="fill-rule:evenodd;clip-rule:evenodd;stroke-linejoin:round;stroke-miterlimit:2;">
    <g transform="matrix(1,0,0,1,0.000143715,0.000290213)">
        <g transform="matrix(1,0,0,1,-0.00277706,-2.00203)">
            <g transform="matrix(1,0,0,1,0.002777,1.82941)">
                <path d="M31.382,10.394C32.821,12.86 31.382,14.619 30.66,15.238C29.894,15.894 27.483,16.837 26.406,17.049C26.258,17.078 26.145,17.195 26.123,17.342L26.029,17.938C26.004,18.105 26.099,18.266 26.26,18.325C26.927,18.568 28.601,19.285 29.043,20.52C29.321,21.297 29.3,21.903 29.191,22.337C29.11,22.658 28.655,22.702 28.511,22.402C28.266,21.892 27.821,21.312 27.063,21.312C25.894,21.312 25.054,22.536 23.915,24.393C22.501,26.7 19.508,25.716 18.773,25.43C18.665,25.388 18.544,25.401 18.447,25.462C18.064,25.705 17.067,26.357 16.236,27.084C16.1,27.203 15.896,27.203 15.761,27.084C14.93,26.357 13.933,25.705 13.55,25.462C13.452,25.4 13.331,25.388 13.224,25.43C12.488,25.716 9.496,26.7 8.082,24.393C6.943,22.537 6.103,21.312 4.933,21.312C4.176,21.312 3.731,21.892 3.485,22.402C3.342,22.702 2.886,22.658 2.805,22.337C2.696,21.903 2.676,21.297 2.954,20.52C3.396,19.285 5.069,18.568 5.736,18.325C5.897,18.265 5.993,18.104 5.967,17.938L5.874,17.342C5.851,17.196 5.738,17.078 5.591,17.049C4.514,16.837 2.103,15.894 1.336,15.238C0.616,14.621 -0.824,12.861 0.616,10.396C1.524,8.841 3.22,8.863 4.348,9.091C4.686,9.159 4.742,9.61 4.431,9.757C3.857,10.027 3.267,10.495 3.314,11.276C3.405,12.803 4.867,12.884 5.497,12.846C5.666,12.836 5.805,12.713 5.831,12.55C6.087,10.936 5.982,8.222 5.923,7.109C5.91,6.854 6.128,6.644 6.389,6.663C7.038,6.711 7.637,6.684 8.019,6.654C8.235,6.637 8.389,6.438 8.344,6.23C7.913,4.249 8.725,2.348 10.331,1.769C11.411,1.38 11.951,0.813 12.221,0.352C12.377,0.086 12.786,0.123 12.881,0.416C13.486,2.268 11.998,3.084 11.688,3.662C11.381,4.236 11.833,4.733 12.115,4.969C12.227,5.064 12.39,5.078 12.521,5.008C14.043,4.213 15.225,3.052 15.731,2.51C15.879,2.351 16.119,2.351 16.267,2.51C16.771,3.052 17.953,4.213 19.477,5.008C19.608,5.078 19.769,5.064 19.883,4.969C20.164,4.733 20.616,4.236 20.31,3.662C20,3.083 18.51,2.268 19.117,0.416C19.212,0.122 19.62,0.086 19.776,0.352C20.046,0.813 20.587,1.379 21.666,1.769C23.273,2.348 24.084,4.249 23.653,6.23C23.608,6.437 23.762,6.636 23.977,6.653C24.375,6.684 25.009,6.712 25.689,6.655C25.907,6.636 26.09,6.811 26.079,7.025C26.021,8.079 25.904,10.886 26.166,12.543C26.191,12.708 26.33,12.834 26.5,12.844C27.13,12.882 28.591,12.802 28.683,11.274C28.731,10.494 28.141,10.025 27.566,9.755C27.255,9.608 27.312,9.157 27.649,9.089C28.777,8.861 30.474,8.839 31.382,10.394ZM16.015,18.288C16.015,18.288 16.844,19.721 17.36,20.535C17.7,20.535 19.106,20.58 21.487,20.535C20.734,19.232 19.431,16.97 18.132,14.766C19.328,12.74 20.482,10.745 21.25,9.443C18.766,9.385 17.391,9.443 17.035,9.443C16.653,10.08 16.015,11.189 16.015,11.189C16.015,11.189 15.32,10.05 14.965,9.443C14.609,9.443 13.234,9.385 10.765,9.443C11.518,10.745 12.672,12.74 13.887,14.766C12.569,16.97 11.254,19.232 10.513,20.535C12.924,20.58 14.3,20.535 14.64,20.535C15.159,19.706 16.015,18.288 16.015,18.288Z"/>
            </g>
        </g>
    </g>
</svg>
