<svg viewBox="0 0 69.11 37.09">
	<g>
		<path class="bg2" d="M33.59 10.77c-2.69-.92-5.44 1.17-8.48 2.13-1.94.61-2.35-.63-1.45-1.75 1.41-1.76 4.47-2.85 5.94-4.56C32 3.82 31.25.26 26.59 0c-2-.11-4.76.9-5.85 2.59-2.16 3.34-1 4.53-2.25 7.28-.44 1-1.48 2.22-2.83 1.51-.73-.39-.73-1.26-.11-1.94C17.69 7.12 19 2.91 14 2.84a7.07 7.07 0 0 0-5.92 4.09 11.21 11.21 0 0 0-.16 5.84c.63 3.42 1.58 6.47-4.93 9-4.49 1.73-3.51 3.37.23 2.17 5.71-1.76 8.45.21 9.82 2.89s1.52 5.27 4.46 7.06a5.81 5.81 0 0 0 5.74.13c2.94-1.33 2.42-4 1.07-5.32s-5-2.8-4-3.83c.76-1 3.41-1 5.72.71 1.32 1 4.06 2.12 6.15.86a3.5 3.5 0 0 0 1.1-5.5c-1.07-1.37-3.52-2.06-5.73-1.65-1.66.31-3.76.72-3.84-.6 0-.72 1-1.27 1.89-1.43 2.8-.51 5.83 1.33 8.19.06 3.21-1.76 2.52-5.62-.2-6.55z"></path>
		<path class="white" d="M51.12 22.52l-10.45-.69a2.32 2.32 0 0 1-.25.24c-.71.6-4.7 1.72-2.64 6.48a6.12 6.12 0 0 0 4.79-2.4c-.2.26-2.76 3.64-1 6.06 0 0 2.27.93 5-3-2.7 4-1 5.72-1 5.72 2.88.72 5.11-2.89 5.27-3.17a6.1 6.1 0 0 0-.5 5.33c5.18.18 4.78-3.93 5.07-4.82 0-.11.12-.24.18-.36z"></path>
		<path class="white" d="M65.25 1.77C62.82.1 40.34 5.13 38.76 9.59c-.72 2.05 4.34 6 4.34 6s-.09.53-.27 1.29l5.82.38-2.71-5.79 3.92-3.7 4.61 9.87 10.87.72-2 5-6.38-.42 2.43 5.21c.62-.43 1.07-.69 1.07-.69s5.48 3.3 7.13 1.88c3.56-3.14.09-25.91-2.34-27.57z"></path>
	</g>
</svg>