<?xml version="1.0" encoding="utf-8"?>
<!-- Generator: Adobe Illustrator 28.3.0, SVG Export Plug-In . SVG Version: 6.00 Build 0)  -->
<svg version="1.1" xmlns="http://www.w3.org/2000/svg" xmlns:xlink="http://www.w3.org/1999/xlink" x="0px" y="0px"
	 viewBox="0 0 30 30" style="enable-background:new 0 0 30 30;" xml:space="preserve">
<style type="text/css">
	.st0{fill:#F54910;}
	.st1{fill:#FFFFFF;}
	.st2{display:none;opacity:0.42;}
</style>
<g id="图层_1">
	<path class="st0" d="M23.8,17.5c2-0.5,3.3-1.6,3.2-3.6c-0.1-1.3-1-2.2-2-2.4c-0.6-0.2-1.8,0-2.1,0.3c0.6,0,1.5,0.5,1.7,1.3
		c0.1,0.8-0.6,1.6-2,1.4c0-0.1,0-0.2,0-0.2c-0.1-1.2-0.2-2.6-0.1-4.2l0-0.5l-0.5,0c-0.2,0-0.4,0-0.6,0c-0.3,0-0.7,0-1-0.1
		c0.1-0.4,0.2-0.9,0.2-1.6c-0.1-1.2-1.1-2.1-2-2.5c-0.8-0.3-1.2-0.9-1.3-1.5c0,0-0.4,0.6-0.4,1.2c0,0.8,0.6,1.5,0.9,1.8
		c0.4,0.3,0.2,0.9-0.4,1.5c-0.9-0.5-1.7-1.2-2.6-2.1l-0.3-0.3l-0.3,0.3c-0.9,0.9-1.8,1.6-2.6,2.1C11,7.9,10.8,7.3,11.2,7
		c0.4-0.3,0.9-1,0.9-1.8c0-0.6-0.4-1.2-0.4-1.2c-0.1,0.6-0.5,1.2-1.3,1.5C9.6,5.8,8.5,6.8,8.4,8c-0.1,0.7,0,1.2,0.2,1.6
		c-0.3,0-0.7,0.1-1,0.1c-0.2,0-0.4,0-0.6,0l-0.5,0l0,0.5c0.1,1.6,0,3-0.1,4.2c0,0.1,0,0.2,0,0.2c-1.5,0.2-2.1-0.7-2-1.4
		c0.2-0.8,1.1-1.3,1.7-1.3c-0.4-0.4-1.5-0.5-2.1-0.3c-1.1,0.3-1.9,1.1-2,2.4c-0.1,1.9,1.2,3,3.2,3.6c0.5,0.1,0.9,0.3,1.3,0.5
		c0,0.3,0.1,0.6,0.2,0.9c-0.6,0.1-1.2,0.4-1.7,0.8c-0.7,0.6-1,1.3-1,2.1c0,0.5,0.2,0.8,0.4,1c0.2-0.7,0.5-1.2,1.1-1.4
		C6.4,21,7.4,22.1,8,23.3c0.9,1.6,2.6,2.1,4.3,1.3l0.1,0c0.7,0.4,1.3,0.7,1.8,1.2l0.3,0.3l0.3-0.3c0.5-0.5,1.2-0.9,1.8-1.2
		c0,0,0.1,0,0.1,0c1.7,0.8,3.4,0.3,4.3-1.3c0.6-1.2,1.6-2.2,2.4-1.9c0.6,0.2,0.9,0.7,1.1,1.4c0.2-0.2,0.4-0.5,0.4-1
		c0-0.9-0.2-1.5-1-2.1c-0.5-0.4-1.1-0.7-1.7-0.8c0.1-0.3,0.1-0.6,0.2-0.9C22.9,17.8,23.3,17.6,23.8,17.5z"/>
	<path class="st1" d="M8,11c0.1,1.3,0,2.5-0.1,3.5c-0.1,1.8-0.2,3.3,0.5,4.9c0.8,1.8,2.3,2.5,3.7,3.2c0.8,0.4,1.6,0.8,2.3,1.4
		c0.7-0.6,1.5-1,2.3-1.4c1.4-0.7,2.9-1.4,3.7-3.2c0.8-1.7,0.7-3.1,0.5-4.9c-0.1-1-0.2-2.2-0.1-3.5c-0.1,0-0.2,0-0.2,0
		c-2.3,0-4.1-0.8-6.2-2.8c-2.1,2-4,2.8-6.2,2.8C8.2,11,8.1,11,8,11z"/>
	<path class="st0" d="M12.9,14.4c0.1-0.2,0.2-0.5,0.3-0.8c0,0,0.3,0.5,0.5,0.6c0.2-1.4,0.1-2.1-0.2-3.1c-1,1.5-1.8,1.9-1.8,1.9
		c0.4,0.1,0.8,0.2,0.8,0.2c-0.2,0.2-0.5,0.6-0.9,0.8c-0.5-0.2-0.8-0.6-0.9-0.8c0,0,0.4,0,0.8-0.2c0,0-0.8-0.4-1.8-1.9
		c-0.3,1-0.4,1.7-0.2,3.1c0.1-0.1,0.5-0.6,0.5-0.6c0.1,0.3,0.1,0.6,0.3,0.8c-0.4,0-0.9,0-1.5-0.1c0.1,0.3,0.2,0.4,0.3,0.5
		c0.2,0.1,0.6,0.2,0.9,0.1c0,0,0,0,0,0c0,0,0,0,0,0c-0.1,0-0.3,0.1-0.5,0.1c-0.1,0-0.2,0-0.3,0c0.1,0.3,0.2,0.3,0.4,0.4
		c0.1,0,0.2,0,0.3,0c0.2,0,0.4,0,0.6-0.1c0,0,0,0,0,0c0,0,0,0,0,0c-0.2,0.1-0.4,0.2-0.7,0.2c-0.1,0-0.1,0-0.2,0
		c0.2,0.4,1,0.5,1.9,0.1c0.8,0.4,1.7,0.3,1.9-0.1c-0.1,0-0.2,0-0.2,0c-0.3,0-0.5-0.1-0.7-0.2c0,0,0,0,0,0c0,0,0,0,0,0
		c0.2,0.1,0.4,0.1,0.6,0.1c0.1,0,0.2,0,0.3,0c0.2,0,0.3-0.1,0.4-0.4c-0.1,0-0.2,0-0.3,0c-0.2,0-0.3,0-0.5-0.1c0,0,0,0,0,0
		c0,0,0,0,0,0c0.4,0,0.7,0,0.9-0.1c0.2-0.1,0.3-0.2,0.3-0.5C13.8,14.4,13.3,14.5,12.9,14.4L12.9,14.4z"/>
	<path class="st0" d="M18.9,14.4c0.1-0.2,0.2-0.5,0.3-0.8c0,0,0.3,0.5,0.5,0.6c0.2-1.4,0.1-2.1-0.2-3.1c-1,1.5-1.8,1.9-1.8,1.9
		c0.4,0.1,0.8,0.2,0.8,0.2c-0.2,0.2-0.5,0.6-0.9,0.8c-0.5-0.2-0.8-0.6-0.9-0.8c0,0,0.4,0,0.8-0.2c0,0-0.8-0.4-1.8-1.9
		c-0.3,1-0.4,1.7-0.2,3.1c0.1-0.1,0.5-0.6,0.5-0.6c0.1,0.3,0.1,0.6,0.3,0.8c-0.4,0-0.9,0-1.5-0.1c0.1,0.3,0.2,0.4,0.3,0.5
		c0.2,0.1,0.6,0.2,0.9,0.1c0,0,0,0,0,0c0,0,0,0,0,0c-0.1,0-0.3,0.1-0.5,0.1c-0.1,0-0.2,0-0.3,0c0.1,0.3,0.2,0.3,0.4,0.4
		c0.1,0,0.2,0,0.3,0c0.2,0,0.4,0,0.6-0.1c0,0,0,0,0,0c0,0,0,0,0,0c-0.2,0.1-0.4,0.2-0.7,0.2c-0.1,0-0.1,0-0.2,0
		c0.2,0.4,1,0.5,1.9,0.1c0.8,0.4,1.7,0.3,1.9-0.1c-0.1,0-0.2,0-0.2,0c-0.3,0-0.5-0.1-0.7-0.2c0,0,0,0,0,0c0,0,0,0,0,0
		c0.2,0.1,0.4,0.1,0.6,0.1c0.1,0,0.2,0,0.3,0c0.2,0,0.3-0.1,0.4-0.4c-0.1,0-0.2,0-0.3,0c-0.2,0-0.3,0-0.5-0.1c0,0,0,0,0,0
		c0,0,0,0,0,0c0.4,0,0.7,0,0.9-0.1c0.2-0.1,0.3-0.2,0.3-0.5C19.8,14.4,19.3,14.5,18.9,14.4L18.9,14.4z"/>
	<path class="st0" d="M12.9,19.4c0.1-0.2,0.2-0.5,0.3-0.8c0,0,0.3,0.5,0.5,0.6c0.2-1.4,0.1-2.1-0.2-3.1c-1,1.5-1.8,1.9-1.8,1.9
		c0.4,0.1,0.8,0.2,0.8,0.2c-0.2,0.2-0.5,0.6-0.9,0.8c-0.5-0.2-0.8-0.6-0.9-0.8c0,0,0.4,0,0.8-0.2c0,0-0.8-0.4-1.8-1.9
		c-0.3,1-0.4,1.7-0.2,3.1c0.1-0.1,0.5-0.6,0.5-0.6c0.1,0.3,0.1,0.6,0.3,0.8c-0.4,0-0.9,0-1.5-0.1c0.1,0.3,0.2,0.4,0.3,0.5
		c0.2,0.1,0.6,0.2,0.9,0.1c0,0,0,0,0,0c0,0,0,0,0,0C9.8,20,9.6,20,9.5,20c-0.1,0-0.2,0-0.3,0c0.1,0.3,0.2,0.3,0.4,0.4
		c0.1,0,0.2,0,0.3,0c0.2,0,0.4,0,0.6-0.1c0,0,0,0,0,0c0,0,0,0,0,0c-0.2,0.1-0.4,0.2-0.7,0.2c-0.1,0-0.1,0-0.2,0
		c0.2,0.4,1,0.5,1.9,0.1c0.8,0.4,1.7,0.3,1.9-0.1c-0.1,0-0.2,0-0.2,0c-0.3,0-0.5-0.1-0.7-0.2c0,0,0,0,0,0c0,0,0,0,0,0
		c0.2,0.1,0.4,0.1,0.6,0.1c0.1,0,0.2,0,0.3,0c0.2,0,0.3-0.1,0.4-0.4c-0.1,0-0.2,0-0.3,0c-0.2,0-0.3,0-0.5-0.1c0,0,0,0,0,0
		c0,0,0,0,0,0c0.4,0,0.7,0,0.9-0.1c0.2-0.1,0.3-0.2,0.3-0.5C13.8,19.4,13.3,19.4,12.9,19.4L12.9,19.4z"/>
	<path class="st0" d="M18.9,19.4c0.1-0.2,0.2-0.5,0.3-0.8c0,0,0.3,0.5,0.5,0.6c0.2-1.4,0.1-2.1-0.2-3.1c-1,1.5-1.8,1.9-1.8,1.9
		c0.4,0.1,0.8,0.2,0.8,0.2c-0.2,0.2-0.5,0.6-0.9,0.8c-0.5-0.2-0.8-0.6-0.9-0.8c0,0,0.4,0,0.8-0.2c0,0-0.8-0.4-1.8-1.9
		c-0.3,1-0.4,1.7-0.2,3.1c0.1-0.1,0.5-0.6,0.5-0.6c0.1,0.3,0.1,0.6,0.3,0.8c-0.4,0-0.9,0-1.5-0.1c0.1,0.3,0.2,0.4,0.3,0.5
		c0.2,0.1,0.6,0.2,0.9,0.1c0,0,0,0,0,0c0,0,0,0,0,0c-0.1,0-0.3,0.1-0.5,0.1c-0.1,0-0.2,0-0.3,0c0.1,0.3,0.2,0.3,0.4,0.4
		c0.1,0,0.2,0,0.3,0c0.2,0,0.4,0,0.6-0.1c0,0,0,0,0,0c0,0,0,0,0,0c-0.2,0.1-0.4,0.2-0.7,0.2c-0.1,0-0.1,0-0.2,0
		c0.2,0.4,1,0.5,1.9,0.1c0.8,0.4,1.7,0.3,1.9-0.1c-0.1,0-0.2,0-0.2,0c-0.3,0-0.5-0.1-0.7-0.2c0,0,0,0,0,0c0,0,0,0,0,0
		c0.2,0.1,0.4,0.1,0.6,0.1c0.1,0,0.2,0,0.3,0c0.2,0,0.3-0.1,0.4-0.4c-0.1,0-0.2,0-0.3,0c-0.2,0-0.3,0-0.5-0.1c0,0,0,0,0,0
		c0,0,0,0,0,0c0.4,0,0.7,0,0.9-0.1c0.2-0.1,0.3-0.2,0.3-0.5C19.8,19.4,19.3,19.4,18.9,19.4L18.9,19.4z"/>
</g>
</svg>
