<svg width="25" height="24" viewBox="0 0 25 24" fill="none" xmlns="http://www.w3.org/2000/svg">
<path d="M21.8 14.5C23.8 14 25.1 12.9 25 10.9C24.9 9.6 24 8.7 23 8.5C22.4 8.3 21.2 8.5 20.9 8.8C21.5 8.8 22.4 9.3 22.6 10.1C22.7 10.9 22 11.7 20.6 11.5C20.6 11.4 20.6 11.3 20.6 11.3C20.5 10.1 20.4 8.7 20.5 7.1V6.6H20C19.8 6.6 19.6 6.6 19.4 6.6C19.1 6.6 18.7 6.6 18.4 6.5C18.5 6.1 18.6 5.6 18.6 4.9C18.5 3.7 17.5 2.8 16.6 2.4C15.8 2.1 15.4 1.5 15.3 0.900002C15.3 0.900002 14.9 1.5 14.9 2.1C14.9 2.9 15.5 3.6 15.8 3.9C16.2 4.2 16 4.8 15.4 5.4C14.5 4.9 13.7 4.2 12.8 3.3L12.5 3L12.2 3.3C11.3 4.2 10.4 4.9 9.60002 5.4C9.00002 4.9 8.80002 4.3 9.20002 4C9.60002 3.7 10.1 3 10.1 2.2C10.1 1.6 9.70002 1 9.70002 1C9.60002 1.6 9.20002 2.2 8.40002 2.5C7.60002 2.8 6.50002 3.8 6.40002 5C6.30002 5.7 6.40002 6.2 6.60002 6.6C6.30002 6.6 5.90002 6.7 5.60002 6.7C5.40002 6.7 5.20002 6.7 5.00002 6.7H4.50002V7.2C4.60002 8.8 4.50002 10.2 4.40002 11.4C4.40002 11.5 4.40002 11.6 4.40002 11.6C2.90002 11.8 2.30002 10.9 2.40002 10.2C2.60002 9.4 3.50002 8.9 4.10002 8.9C3.70002 8.5 2.60002 8.4 2.00002 8.6C0.900018 8.9 0.100018 9.7 1.83727e-05 11C-0.0999816 12.9 1.20002 14 3.20002 14.6C3.70002 14.7 4.10002 14.9 4.50002 15.1C4.50002 15.4 4.60002 15.7 4.70002 16C4.10002 16.1 3.50002 16.4 3.00002 16.8C2.30002 17.4 2.00002 18.1 2.00002 18.9C2.00002 19.4 2.20002 19.7 2.40002 19.9C2.60002 19.2 2.90002 18.7 3.50002 18.5C4.40002 18 5.40002 19.1 6.00002 20.3C6.90002 21.9 8.60002 22.4 10.3 21.6H10.4C11.1 22 11.7 22.3 12.2 22.8L12.5 23.1L12.8 22.8C13.3 22.3 14 21.9 14.6 21.6H14.7C16.4 22.4 18.1 21.9 19 20.3C19.6 19.1 20.6 18.1 21.4 18.4C22 18.6 22.3 19.1 22.5 19.8C22.7 19.6 22.9 19.3 22.9 18.8C22.9 17.9 22.7 17.3 21.9 16.7C21.4 16.3 20.8 16 20.2 15.9C20.3 15.6 20.3 15.3 20.4 15C20.9 14.8 21.3 14.6 21.8 14.5Z" fill="#F54910"/>
<path d="M6 8C6.1 9.3 6 10.5 5.9 11.5C5.8 13.3 5.7 14.8 6.4 16.4C7.2 18.2 8.7 18.9 10.1 19.6C10.9 20 11.7 20.4 12.4 21C13.1 20.4 13.9 20 14.7 19.6C16.1 18.9 17.6 18.2 18.4 16.4C19.2 14.7 19.1 13.3 18.9 11.5C18.8 10.5 18.7 9.3 18.8 8C18.7 8 18.6 8 18.6 8C16.3 8 14.5 7.2 12.4 5.2C10.3 7.2 8.4 8 6.2 8C6.2 8 6.1 8 6 8Z" fill="white"/>
<path d="M10.9 11.4C11 11.2 11.1 10.9 11.2 10.6C11.2 10.6 11.5 11.1 11.7 11.2C11.9 9.8 11.8 9.1 11.5 8.1C10.5 9.6 9.70005 10 9.70005 10C10.1 10.1 10.5 10.2 10.5 10.2C10.3 10.4 10 10.8 9.60005 11C9.10005 10.8 8.80005 10.4 8.70005 10.2C8.70005 10.2 9.10005 10.2 9.50005 10C9.50005 10 8.70005 9.6 7.70005 8.1C7.40005 9.1 7.30005 9.8 7.50005 11.2C7.60005 11.1 8.00005 10.6 8.00005 10.6C8.10005 10.9 8.10005 11.2 8.30005 11.4C7.90005 11.4 7.40005 11.4 6.80005 11.3C6.90005 11.6 7.00005 11.7 7.10005 11.8C7.30005 11.9 7.70005 12 8.00005 11.9C7.90005 11.9 7.70005 12 7.50005 12C7.40005 12 7.30005 12 7.20005 12C7.30005 12.3 7.40005 12.3 7.60005 12.4C7.70005 12.4 7.80005 12.4 7.90005 12.4C8.10005 12.4 8.30005 12.4 8.50005 12.3C8.30005 12.4 8.10005 12.5 7.80005 12.5C7.70005 12.5 7.70005 12.5 7.60005 12.5C7.80005 12.9 8.60005 13 9.50005 12.6C10.3 13 11.2 12.9 11.4 12.5C11.3 12.5 11.2 12.5 11.2 12.5C10.9 12.5 10.7 12.4 10.5 12.3C10.7 12.4 10.9 12.4 11.1 12.4C11.2 12.4 11.3 12.4 11.4 12.4C11.6 12.4 11.7 12.3 11.8 12C11.7 12 11.6 12 11.5 12C11.3 12 11.2 12 11 11.9C11.4 11.9 11.7 11.9 11.9 11.8C12.1 11.7 12.2 11.6 12.2 11.3C11.8 11.4 11.3 11.5 10.9 11.4Z" fill="#F54910"/>
<path d="M16.9 11.4C17 11.2 17.1 10.9 17.2 10.6C17.2 10.6 17.5 11.1 17.7 11.2C17.9 9.8 17.8 9.1 17.5 8.1C16.5 9.6 15.7 10 15.7 10C16.1 10.1 16.5 10.2 16.5 10.2C16.3 10.4 16 10.8 15.6 11C15.1 10.8 14.8 10.4 14.7 10.2C14.7 10.2 15.1 10.2 15.5 10C15.5 10 14.7 9.6 13.7 8.1C13.4 9.1 13.3 9.8 13.5 11.2C13.6 11.1 14 10.6 14 10.6C14.1 10.9 14.1 11.2 14.3 11.4C13.9 11.4 13.4 11.4 12.8 11.3C12.9 11.6 13 11.7 13.1 11.8C13.3 11.9 13.7 12 14 11.9C13.9 11.9 13.7 12 13.5 12C13.4 12 13.3 12 13.2 12C13.3 12.3 13.4 12.3 13.6 12.4C13.7 12.4 13.8 12.4 13.9 12.4C14.1 12.4 14.3 12.4 14.5 12.3C14.3 12.4 14.1 12.5 13.8 12.5C13.7 12.5 13.7 12.5 13.6 12.5C13.8 12.9 14.6 13 15.5 12.6C16.3 13 17.2 12.9 17.4 12.5C17.3 12.5 17.2 12.5 17.2 12.5C16.9 12.5 16.7 12.4 16.5 12.3C16.7 12.4 16.9 12.4 17.1 12.4C17.2 12.4 17.3 12.4 17.4 12.4C17.6 12.4 17.7 12.3 17.8 12C17.7 12 17.6 12 17.5 12C17.3 12 17.2 12 17 11.9C17.4 11.9 17.7 11.9 17.9 11.8C18.1 11.7 18.2 11.6 18.2 11.3C17.8 11.4 17.3 11.5 16.9 11.4Z" fill="#F54910"/>
<path d="M10.9 16.4C11 16.2 11.1 15.9 11.2 15.6C11.2 15.6 11.5 16.1 11.7 16.2C11.9 14.8 11.8 14.1 11.5 13.1C10.5 14.6 9.70005 15 9.70005 15C10.1 15.1 10.5 15.2 10.5 15.2C10.3 15.4 10 15.8 9.60005 16C9.10005 15.8 8.80005 15.4 8.70005 15.2C8.70005 15.2 9.10005 15.2 9.50005 15C9.50005 15 8.70005 14.6 7.70005 13.1C7.40005 14.1 7.30005 14.8 7.50005 16.2C7.60005 16.1 8.00005 15.6 8.00005 15.6C8.10005 15.9 8.10005 16.2 8.30005 16.4C7.90005 16.4 7.40005 16.4 6.80005 16.3C6.90005 16.6 7.00005 16.7 7.10005 16.8C7.30005 16.9 7.70005 17 8.00005 16.9C7.80005 17 7.60005 17 7.50005 17C7.40005 17 7.30005 17 7.20005 17C7.30005 17.3 7.40005 17.3 7.60005 17.4C7.70005 17.4 7.80005 17.4 7.90005 17.4C8.10005 17.4 8.30005 17.4 8.50005 17.3C8.30005 17.4 8.10005 17.5 7.80005 17.5C7.70005 17.5 7.70005 17.5 7.60005 17.5C7.80005 17.9 8.60005 18 9.50005 17.6C10.3 18 11.2 17.9 11.4 17.5C11.3 17.5 11.2 17.5 11.2 17.5C10.9 17.5 10.7 17.4 10.5 17.3C10.7 17.4 10.9 17.4 11.1 17.4C11.2 17.4 11.3 17.4 11.4 17.4C11.6 17.4 11.7 17.3 11.8 17C11.7 17 11.6 17 11.5 17C11.3 17 11.2 17 11 16.9C11.4 16.9 11.7 16.9 11.9 16.8C12.1 16.7 12.2 16.6 12.2 16.3C11.8 16.4 11.3 16.4 10.9 16.4Z" fill="#F54910"/>
<path d="M16.9 16.4C17 16.2 17.1 15.9 17.2 15.6C17.2 15.6 17.5 16.1 17.7 16.2C17.9 14.8 17.8 14.1 17.5 13.1C16.5 14.6 15.7 15 15.7 15C16.1 15.1 16.5 15.2 16.5 15.2C16.3 15.4 16 15.8 15.6 16C15.1 15.8 14.8 15.4 14.7 15.2C14.7 15.2 15.1 15.2 15.5 15C15.5 15 14.7 14.6 13.7 13.1C13.4 14.1 13.3 14.8 13.5 16.2C13.6 16.1 14 15.6 14 15.6C14.1 15.9 14.1 16.2 14.3 16.4C13.9 16.4 13.4 16.4 12.8 16.3C12.9 16.6 13 16.7 13.1 16.8C13.3 16.9 13.7 17 14 16.9C13.9 16.9 13.7 17 13.5 17C13.4 17 13.3 17 13.2 17C13.3 17.3 13.4 17.3 13.6 17.4C13.7 17.4 13.8 17.4 13.9 17.4C14.1 17.4 14.3 17.4 14.5 17.3C14.3 17.4 14.1 17.5 13.8 17.5C13.7 17.5 13.7 17.5 13.6 17.5C13.8 17.9 14.6 18 15.5 17.6C16.3 18 17.2 17.9 17.4 17.5C17.3 17.5 17.2 17.5 17.2 17.5C16.9 17.5 16.7 17.4 16.5 17.3C16.7 17.4 16.9 17.4 17.1 17.4C17.2 17.4 17.3 17.4 17.4 17.4C17.6 17.4 17.7 17.3 17.8 17C17.7 17 17.6 17 17.5 17C17.3 17 17.2 17 17 16.9C17.4 16.9 17.7 16.9 17.9 16.8C18.1 16.7 18.2 16.6 18.2 16.3C17.8 16.4 17.3 16.4 16.9 16.4Z" fill="#F54910"/>
</svg>
