<?xml version="1.0" encoding="UTF-8"?>
<svg id="_图层_2" data-name="图层 2" xmlns="http://www.w3.org/2000/svg" viewBox="0 0 36 36">
  <defs>
    <style>
      .cls-1 {
        fill: #999;
      }

      .cls-1, .cls-2, .cls-3 {
        stroke-width: 0px;
      }

      .cls-2 {
        fill: #ff0;
      }

      .cls-3 {
        fill: #03f;
      }
    </style>
  </defs>
  <g id="Layer_1" data-name="Layer 1">
    <path class="cls-3" d="m18,36C8.06,36,0,27.94,0,18S8.06,0,18,0s18,8.06,18,18-8.06,18-18,18Zm14.72-18c0-8.13-6.59-14.72-14.72-14.72S3.28,9.87,3.28,18s6.59,14.72,14.72,14.72,14.72-6.59,14.72-14.72Z"/>
    <path class="cls-3" d="m14.71,18.06l2.84,1.21.05-.1c-.85-1.11-1.19-2.6-1.19-2.6l-1.35-.79-2.69-1.57c-.91,1.48-.63,3.38-.63,3.38.99.17,2.52,1.04,2.87,1.25l.03-.03c-.48-.86-.58-1.99-.58-1.99l.37.15c-.03.39.26,1.07.26,1.07h0Zm2.88,6.85h-.28s.02-3.48.02-3.48c-.74-.91-1.81-1.74-3.45-2.6-1.71-.9-3.35-1.19-4.68-1.2-1.03,0-1.87.18-2.39.4-1.26.52-3.31,2.23-2.1,6.26,1.2,4,4.38,4.92,4.43,4.93,2.69-1.25,3.11-4.86,3.11-4.86l-.15-.1c-.15.34-.64.9-1.12.91-.09,0-.19-.02-.27-.06-.85-.39-1.14-1.84-.64-2.43.23-.27.52-.59,1.4-.59.52,0,1.26.13,2.31.45,1.37.43,2.12.98,2.53,1.44.43.47.6,1.08.25,1.08-.14,0-.35-.1-.66-.34-.49-.38-.76-.9-.85-1.33-.35-.39-2.17-.79-2.21-.8,1.37,3.93,3.54,5.43,4.65,5.42.07,0,.14,0,.21-.02.92-.2,1.53-1.3,1.14-3.24-.4.1-.82.15-1.23.14h0Z"/>
    <path class="cls-2" d="m19.71,15.15l-2.47,1.86.06.09c1.39-.18,2.84.27,2.84.27l.88-.5c.38-1.13.98-1.97,1.74-2.77.12-.12.23-.24.35-.35-.76-.63-1.52-.93-1.52-.93-.64.77-2.16,1.67-2.52,1.87v.04c.99.01,2.02.49,2.02.49l-.32.24c-.32-.22-1.06-.31-1.06-.31h0Zm-8.09.13c.11-.43.28-.84.51-1.21l.14-.23,3.24,1.89c1.15-.19,2.38-.7,3.93-1.68,2.9-1.84,4.06-4.44,4.23-5.73.17-1.35-.28-3.98-4.37-4.95-4.09-.97-6.49,1.37-6.49,1.37-.26,2.95,2.66,5.12,2.66,5.12l.16-.08c-.26-.35-.56-1.28-.05-1.64.77-.54,2.16-.07,2.43.66.19.53.42,1.29-1.73,3.27-1.05.97-1.91,1.34-2.52,1.47-.87.19-1.72-.19-.44-.72.57-.23,1.16-.21,1.57-.07.52-.11,1.8-1.51,1.8-1.51-4.36-.83-6.78.51-7.11,1.51-.28.85.31,1.89,2.02,2.53h0Z"/>
    <path class="cls-2" d="m18,0C11.12,0,5.15,3.86,2.12,9.52l2.46,2.42C6.89,6.84,12.03,3.28,18,3.28c4.91,0,9.26,2.41,11.94,6.11l3.35-.89C30.11,3.4,24.45,0,18,0Z"/>
    <path class="cls-1" d="m20.84,23.48c-.06-.16-.1-.32-.14-.49-.21-.96-.22-2.26-.22-2.61h-.04c-.5.83-1.43,1.48-1.43,1.48h0s0-.01,0-.01l-.05-.4c.35-.17.8-.76.8-.76l-.37-3.06h-.11c-.54,1.3-1.66,2.33-1.66,2.33v1.85s0,0,0,0l-.02,2.82c1.72.05,3.22-1.13,3.24-1.15h0Zm2.85,4.06c1.08.83,3.59,1.75,6.47-1.31,2.69-2.85,2.15-5.86,2.07-6.26,0-.02,0-.03,0-.03-2.43-1.71-5.77-.26-5.77-.26v.17c.41-.05,1.31.15,1.42.72,0,.02,0,.04,0,.07.09.94-1.02,1.91-1.79,1.77-.55-.1-1.33-.28-1.97-3.14h0c-.32-1.41-.21-2.34-.02-2.93.21-.67.72-1.14.84-.65.04.13.04.34,0,.64-.08.61-.4,1.11-.73,1.4-.07.22,0,.69.1,1.14.13.59.31,1.16.31,1.16,2.31-2.68,2.81-4.98,2.57-6.2-.06-.3-.17-.54-.31-.7-.65-.72-1.99-.67-3.56.8h0c-.12.11-.24.23-.36.35-.69.73-1.21,1.46-1.57,2.36h0c-.45,1.11-.64,2.47-.56,4.37.03.64.11,1.24.23,1.8.52,2.43,1.78,4.07,2.62,4.71h0Z"/>
    <path class="cls-1" d="m33.29,8.5l-3.35.89c1.81,2.5,2.79,5.52,2.78,8.61,0,7.63-5.8,13.9-13.23,14.65l-.88,3.34h0c9.66-.32,17.39-8.25,17.39-17.99,0-3.49-.99-6.74-2.71-9.5h0Z"/>
  </g>
</svg>