<?xml version="1.0" encoding="UTF-8"?>
<svg height="600" width="800" xmlns="http://www.w3.org/2000/svg" xmlns:xlink="http://www.w3.org/1999/xlink">
    <g id="Notes" font-family="'LucidaGrande', 'Lucida Grande', sans-serif" font-size="13">
        <rect fill="white" height="600.0" width="800.0" x="0.0" y="0.0" />
        <g font-size="13">
            <text x="18.0" y="176.0">Small</text>
            <text x="18.0" y="376.0">Medium</text>
            <text x="18.0" y="576.0">Large</text>
        </g>
        <g font-size="9">
            <text x="250.0" y="30.0">Ultralight</text>
            <text x="450.0" y="30.0">Regular</text>
            <text x="650.0" y="30.0">Black</text>
            <text id="template-version" fill="#505050" text-anchor="end" x="785.0" y="575.0">Template v.3.0</text>
            <a href="https://github.com/swhitty/SwiftDraw">
                <text fill="#505050" text-anchor="end" x="785.0" y="590.0">https://github.com/swhitty/SwiftDraw</text>
            </a>
        </g>
    </g>
    <g id="Guides" stroke="rgb(39, 170, 225)" stroke-width="0.5">
        <path id="Capline-S" d="M18,76 l800,0" />
        <path id="H-reference" d="M85,145.755 L87.685,145.755 L113.369,79.287 L114.052,79.287 L114.052,76 L112.148,76 L85,145.755 Z M95.693,121.536 L130.996,121.536 L130.263,119.313 L96.474,119.313 L95.693,121.536 Z M139.15,145.755 L141.787,145.755 L114.638,76 L113.466,76 L113.466,79.287 L139.15,145.755 Z" stroke="none" />
        <path id="Baseline-S" d="M18,146 l800,0" />
        <path id="left-margin-Ultralight-S" d="M213.523,56 l0,110" />
        <path id="right-margin-Ultralight-S" d="M316.477,56 l0,110" />
        <path id="left-margin-Regular-S" d="M413.523,56 l0,110" />
        <path id="right-margin-Regular-S" d="M516.477,56 l0,110" />
        <path id="left-margin-Black-S" d="M613.523,56 l0,110" />
        <path id="right-margin-Black-S" d="M716.477,56 l0,110" />
        <path id="Capline-M" d="M18,276 l800,0" />
        <path id="Baseline-M" d="M18,346 l800,0" />
        <path id="Capline-L" d="M18,476 l800,0" />
        <path id="Baseline-L" d="M18,546 l800,0" />
    </g>
    <g id="Symbols">
        <g id="Ultralight-S">
            <path d="M304.881,102.5 C302.527,98.468 298.128,98.525 295.203,99.117 C294.33,99.293 294.182,100.462 294.988,100.843 C296.479,101.543 298.008,102.759 297.884,104.781 C297.645,108.742 293.858,108.95 292.225,108.851 C291.784,108.825 291.423,108.499 291.359,108.071 C290.679,103.775 290.983,96.498 291.133,93.766 C291.162,93.211 290.687,92.757 290.122,92.806 C288.359,92.954 286.715,92.882 285.684,92.801 C285.126,92.757 284.727,92.241 284.844,91.705 C285.961,86.569 283.859,81.64 279.692,80.139 C276.895,79.128 275.493,77.661 274.793,76.466 C274.388,75.776 273.33,75.87 273.084,76.632 C271.51,81.433 275.373,83.546 276.177,85.047 C276.97,86.535 275.798,87.824 275.07,88.435 C274.774,88.682 274.357,88.718 274.017,88.536 C270.066,86.475 267.002,83.466 265.695,82.06 C265.312,81.648 264.69,81.648 264.306,82.06 C262.994,83.466 259.93,86.475 255.984,88.536 C255.644,88.718 255.222,88.682 254.931,88.435 C254.2,87.824 253.028,86.535 253.824,85.047 C254.628,83.549 258.486,81.433 256.917,76.632 C256.671,75.872 255.611,75.776 255.206,76.466 C254.506,77.661 253.106,79.131 250.306,80.139 C246.143,81.64 244.038,86.569 245.155,91.705 C245.272,92.244 244.872,92.76 244.312,92.804 C243.322,92.882 241.769,92.952 240.087,92.827 C239.41,92.778 238.845,93.322 238.879,93.983 C239.032,96.869 239.304,103.905 238.64,108.089 C238.573,108.512 238.212,108.831 237.774,108.857 C236.141,108.955 232.351,108.745 232.115,104.786 C231.993,102.762 233.522,101.548 235.011,100.848 C235.817,100.467 235.672,99.298 234.795,99.122 C231.871,98.531 227.474,98.474 225.12,102.505 C221.387,108.895 225.12,113.458 226.987,115.058 C228.975,116.758 235.226,119.203 238.018,119.753 C238.399,119.828 238.692,120.134 238.752,120.512 L238.993,122.058 C239.06,122.488 238.811,122.905 238.394,123.061 C236.665,123.691 232.327,125.55 231.181,128.751 C230.461,130.766 230.513,132.337 230.795,133.462 C231.005,134.294 232.187,134.408 232.558,133.631 C233.196,132.308 234.349,130.805 236.312,130.805 C239.345,130.805 241.523,133.98 244.476,138.792 C248.142,144.773 255.898,142.222 257.806,141.481 C258.084,141.372 258.398,141.403 258.652,141.564 C259.645,142.194 262.229,143.884 264.384,145.769 C264.734,146.077 265.263,146.077 265.615,145.769 C267.769,143.884 270.354,142.194 271.347,141.564 C271.599,141.405 271.912,141.372 272.192,141.481 C274.098,142.222 281.857,144.773 285.523,138.792 C288.476,133.978 290.654,130.805 293.684,130.805 C295.649,130.805 296.803,132.308 297.438,133.631 C297.811,134.408 298.991,134.294 299.201,133.462 C299.484,132.337 299.538,130.766 298.817,128.751 C297.671,125.55 293.332,123.691 291.602,123.061 C291.185,122.908 290.939,122.491 291.003,122.058 L291.247,120.512 C291.304,120.131 291.597,119.828 291.981,119.753 C294.773,119.203 301.023,116.758 303.009,115.058 C304.881,113.453 308.612,108.893 304.881,102.5 Z M259.611,131.437 C258.595,131.315 256.637,130.784 254.62,129.267 C252.601,130.784 250.643,131.315 249.627,131.437 C247.592,131.684 244.872,128.718 244.865,128.71 C247.802,128.274 250.091,127.447 251.875,126.478 C250.846,125.086 249.917,123.323 249.233,121.091 L247.755,122.063 C247.753,122.042 247.4,119.061 249.99,115.107 C249.99,115.107 251.704,119.159 253.931,120.65 L251.592,120.569 L251.59,120.569 C251.626,120.673 252.341,122.594 254.62,124.58 C256.896,122.594 257.612,120.671 257.648,120.569 L257.646,120.569 L255.307,120.65 C257.534,119.159 259.248,115.107 259.248,115.107 C261.838,119.063 261.485,122.042 261.483,122.063 L260.005,121.091 C259.32,123.323 258.392,125.088 257.363,126.478 C259.147,127.445 261.439,128.274 264.373,128.71 C264.365,128.72 261.646,131.684 259.611,131.437 Z M259.611,113.181 C258.595,113.059 256.637,112.528 254.62,111.011 C252.601,112.528 250.643,113.059 249.627,113.181 C247.592,113.427 244.872,110.461 244.865,110.454 C247.802,110.018 250.091,109.191 251.875,108.221 C250.846,106.827 249.917,105.066 249.233,102.834 L247.755,103.806 C247.753,103.786 247.4,100.802 249.99,96.851 C249.99,96.851 251.704,100.903 253.931,102.393 L251.592,102.313 L251.59,102.313 C251.626,102.417 252.341,104.338 254.62,106.324 C256.896,104.338 257.612,102.414 257.648,102.313 L257.646,102.313 L255.307,102.393 C257.534,100.903 259.248,96.851 259.248,96.851 C261.838,100.807 261.485,103.786 261.483,103.806 L260.005,102.834 C259.32,105.066 258.392,106.829 257.363,108.221 C259.147,109.188 261.439,110.018 264.373,110.454 C264.365,110.461 261.646,113.427 259.611,113.181 Z M280.369,131.437 C279.353,131.315 277.395,130.784 275.376,129.267 C273.356,130.784 271.399,131.315 270.383,131.437 C268.348,131.684 265.631,128.718 265.623,128.71 C268.558,128.274 270.849,127.447 272.63,126.478 C271.601,125.086 270.673,123.323 269.989,121.091 L268.511,122.063 C268.508,122.042 268.158,119.061 270.748,115.107 C270.748,115.107 272.462,119.159 274.686,120.65 L272.348,120.569 L272.345,120.569 C272.384,120.673 273.1,122.594 275.376,124.58 C277.652,122.594 278.368,120.671 278.404,120.569 L278.401,120.569 L276.065,120.65 C278.29,119.159 280.003,115.107 280.003,115.107 C282.593,119.063 282.243,122.042 282.241,122.063 L280.76,121.091 C280.079,123.323 279.151,125.088 278.121,126.478 C279.902,127.445 282.194,128.274 285.129,128.71 C285.121,128.72 282.402,131.684 280.369,131.437 Z M280.369,113.181 C279.353,113.059 277.395,112.528 275.376,111.011 C273.356,112.528 271.399,113.059 270.383,113.181 C268.348,113.427 265.631,110.461 265.623,110.454 C268.558,110.018 270.849,109.191 272.63,108.221 C271.601,106.827 270.67,105.066 269.989,102.832 L268.511,103.806 C268.511,103.806 268.148,100.82 270.748,96.848 C270.748,96.848 272.462,100.9 274.686,102.391 L272.348,102.31 C272.384,102.406 273.1,104.333 275.378,106.321 C277.655,104.335 278.37,102.414 278.409,102.31 L278.404,102.31 L276.068,102.391 C278.292,100.9 280.006,96.848 280.006,96.848 C282.596,100.802 282.246,103.783 282.243,103.804 L280.763,102.832 C280.081,105.064 279.153,106.827 278.124,108.219 C279.905,109.186 282.197,110.015 285.131,110.451 C285.129,110.454 282.404,113.427 280.369,113.181 Z" />
        </g>
        <g id="Regular-S">
            <path d="M504.881,102.5 C502.527,98.468 498.128,98.525 495.203,99.117 C494.33,99.293 494.182,100.462 494.988,100.843 C496.479,101.543 498.008,102.759 497.884,104.781 C497.645,108.742 493.858,108.95 492.225,108.851 C491.784,108.825 491.423,108.499 491.359,108.071 C490.679,103.775 490.983,96.498 491.133,93.766 C491.162,93.211 490.687,92.757 490.122,92.806 C488.359,92.954 486.715,92.882 485.684,92.801 C485.126,92.757 484.727,92.241 484.844,91.705 C485.961,86.569 483.859,81.64 479.692,80.139 C476.895,79.128 475.492,77.661 474.793,76.466 C474.388,75.776 473.33,75.87 473.084,76.632 C471.51,81.433 475.373,83.546 476.177,85.047 C476.97,86.535 475.798,87.824 475.07,88.435 C474.774,88.682 474.357,88.718 474.017,88.536 C470.066,86.475 467.002,83.466 465.695,82.06 C465.312,81.648 464.69,81.648 464.306,82.06 C462.994,83.466 459.93,86.475 455.984,88.536 C455.644,88.718 455.222,88.682 454.931,88.435 C454.2,87.824 453.028,86.535 453.824,85.047 C454.628,83.549 458.486,81.433 456.917,76.632 C456.671,75.872 455.611,75.776 455.206,76.466 C454.506,77.661 453.106,79.131 450.306,80.139 C446.143,81.64 444.038,86.569 445.155,91.705 C445.272,92.244 444.872,92.76 444.312,92.804 C443.322,92.882 441.769,92.952 440.087,92.827 C439.41,92.778 438.845,93.322 438.879,93.983 C439.032,96.869 439.304,103.905 438.64,108.089 C438.573,108.512 438.212,108.831 437.774,108.857 C436.141,108.955 432.351,108.745 432.115,104.786 C431.993,102.762 433.522,101.548 435.011,100.848 C435.817,100.467 435.672,99.298 434.795,99.122 C431.871,98.531 427.474,98.474 425.12,102.505 C421.387,108.895 425.12,113.458 426.987,115.058 C428.975,116.758 435.226,119.203 438.018,119.753 C438.399,119.828 438.692,120.134 438.752,120.512 L438.993,122.058 C439.06,122.488 438.811,122.905 438.394,123.061 C436.665,123.691 432.327,125.55 431.181,128.751 C430.461,130.766 430.513,132.337 430.795,133.462 C431.005,134.294 432.187,134.408 432.558,133.631 C433.196,132.308 434.349,130.805 436.312,130.805 C439.345,130.805 441.523,133.98 444.476,138.792 C448.142,144.773 455.898,142.222 457.806,141.481 C458.084,141.372 458.398,141.403 458.652,141.564 C459.645,142.194 462.229,143.884 464.384,145.769 C464.734,146.077 465.262,146.077 465.615,145.769 C467.769,143.884 470.354,142.194 471.347,141.564 C471.599,141.405 471.912,141.372 472.192,141.481 C474.098,142.222 481.857,144.773 485.523,138.792 C488.476,133.978 490.653,130.805 493.684,130.805 C495.649,130.805 496.803,132.308 497.438,133.631 C497.811,134.408 498.991,134.294 499.201,133.462 C499.484,132.337 499.538,130.766 498.817,128.751 C497.671,125.55 493.332,123.691 491.602,123.061 C491.185,122.908 490.939,122.491 491.003,122.058 L491.247,120.512 C491.304,120.131 491.597,119.828 491.981,119.753 C494.773,119.203 501.023,116.758 503.009,115.058 C504.881,113.453 508.612,108.893 504.881,102.5 Z M459.611,131.437 C458.595,131.315 456.637,130.784 454.62,129.267 C452.601,130.784 450.643,131.315 449.627,131.437 C447.592,131.684 444.872,128.718 444.865,128.71 C447.802,128.274 450.091,127.447 451.875,126.478 C450.846,125.086 449.917,123.323 449.233,121.091 L447.755,122.063 C447.753,122.042 447.4,119.061 449.99,115.107 C449.99,115.107 451.704,119.159 453.931,120.65 L451.592,120.569 L451.59,120.569 C451.626,120.673 452.341,122.594 454.62,124.58 C456.896,122.594 457.612,120.671 457.648,120.569 L457.646,120.569 L455.307,120.65 C457.534,119.159 459.248,115.107 459.248,115.107 C461.838,119.063 461.485,122.042 461.483,122.063 L460.005,121.091 C459.32,123.323 458.392,125.088 457.363,126.478 C459.147,127.445 461.439,128.274 464.373,128.71 C464.365,128.72 461.646,131.684 459.611,131.437 Z M459.611,113.181 C458.595,113.059 456.637,112.528 454.62,111.011 C452.601,112.528 450.643,113.059 449.627,113.181 C447.592,113.427 444.872,110.461 444.865,110.454 C447.802,110.018 450.091,109.191 451.875,108.221 C450.846,106.827 449.917,105.066 449.233,102.834 L447.755,103.806 C447.753,103.786 447.4,100.802 449.99,96.851 C449.99,96.851 451.704,100.903 453.931,102.393 L451.592,102.313 L451.59,102.313 C451.626,102.417 452.341,104.338 454.62,106.324 C456.896,104.338 457.612,102.414 457.648,102.313 L457.646,102.313 L455.307,102.393 C457.534,100.903 459.248,96.851 459.248,96.851 C461.838,100.807 461.485,103.786 461.483,103.806 L460.005,102.834 C459.32,105.066 458.392,106.829 457.363,108.221 C459.147,109.188 461.439,110.018 464.373,110.454 C464.365,110.461 461.646,113.427 459.611,113.181 Z M480.369,131.437 C479.353,131.315 477.395,130.784 475.376,129.267 C473.356,130.784 471.399,131.315 470.383,131.437 C468.348,131.684 465.631,128.718 465.623,128.71 C468.558,128.274 470.849,127.447 472.63,126.478 C471.601,125.086 470.673,123.323 469.989,121.091 L468.511,122.063 C468.508,122.042 468.158,119.061 470.748,115.107 C470.748,115.107 472.462,119.159 474.686,120.65 L472.348,120.569 L472.345,120.569 C472.384,120.673 473.1,122.594 475.376,124.58 C477.652,122.594 478.368,120.671 478.404,120.569 L478.401,120.569 L476.065,120.65 C478.29,119.159 480.003,115.107 480.003,115.107 C482.593,119.063 482.243,122.042 482.241,122.063 L480.76,121.091 C480.079,123.323 479.151,125.088 478.121,126.478 C479.902,127.445 482.194,128.274 485.129,128.71 C485.121,128.72 482.402,131.684 480.369,131.437 Z M480.369,113.181 C479.353,113.059 477.395,112.528 475.376,111.011 C473.356,112.528 471.399,113.059 470.383,113.181 C468.348,113.427 465.631,110.461 465.623,110.454 C468.558,110.018 470.849,109.191 472.63,108.221 C471.601,106.827 470.67,105.066 469.989,102.832 L468.511,103.806 C468.511,103.806 468.148,100.82 470.748,96.848 C470.748,96.848 472.462,100.9 474.686,102.391 L472.348,102.31 C472.384,102.406 473.1,104.333 475.378,106.321 C477.655,104.335 478.37,102.414 478.409,102.31 L478.404,102.31 L476.068,102.391 C478.292,100.9 480.006,96.848 480.006,96.848 C482.596,100.802 482.246,103.783 482.243,103.804 L480.763,102.832 C480.081,105.064 479.153,106.827 478.124,108.219 C479.905,109.186 482.197,110.015 485.131,110.451 C485.129,110.454 482.404,113.427 480.369,113.181 Z" />
        </g>
        <g id="Black-S">
            <path d="M704.881,102.5 C702.527,98.468 698.128,98.525 695.203,99.117 C694.33,99.293 694.182,100.462 694.988,100.843 C696.479,101.543 698.008,102.759 697.884,104.781 C697.646,108.742 693.858,108.95 692.225,108.851 C691.784,108.825 691.423,108.499 691.359,108.071 C690.679,103.775 690.983,96.498 691.133,93.766 C691.162,93.211 690.687,92.757 690.122,92.806 C688.359,92.954 686.716,92.882 685.684,92.801 C685.126,92.757 684.727,92.241 684.844,91.705 C685.961,86.569 683.859,81.64 679.692,80.139 C676.895,79.128 675.493,77.661 674.793,76.466 C674.388,75.776 673.33,75.87 673.084,76.632 C671.51,81.433 675.373,83.546 676.177,85.047 C676.97,86.535 675.798,87.824 675.07,88.435 C674.774,88.682 674.357,88.718 674.017,88.536 C670.066,86.475 667.002,83.466 665.695,82.06 C665.312,81.648 664.69,81.648 664.306,82.06 C662.994,83.466 659.93,86.475 655.984,88.536 C655.644,88.718 655.222,88.682 654.931,88.435 C654.2,87.824 653.029,86.535 653.824,85.047 C654.628,83.549 658.486,81.433 656.917,76.632 C656.671,75.872 655.611,75.776 655.206,76.466 C654.506,77.661 653.106,79.131 650.306,80.139 C646.143,81.64 644.038,86.569 645.155,91.705 C645.272,92.244 644.872,92.76 644.312,92.804 C643.322,92.882 641.769,92.952 640.087,92.827 C639.41,92.778 638.845,93.322 638.879,93.983 C639.032,96.869 639.304,103.905 638.64,108.089 C638.573,108.512 638.212,108.831 637.774,108.857 C636.141,108.955 632.351,108.745 632.115,104.786 C631.993,102.762 633.522,101.548 635.011,100.848 C635.817,100.467 635.672,99.298 634.795,99.122 C631.871,98.531 627.474,98.474 625.12,102.505 C621.387,108.895 625.12,113.458 626.987,115.058 C628.975,116.758 635.226,119.203 638.018,119.753 C638.399,119.828 638.692,120.134 638.752,120.512 L638.993,122.058 C639.06,122.488 638.811,122.905 638.394,123.061 C636.665,123.691 632.327,125.55 631.181,128.751 C630.461,130.766 630.513,132.337 630.795,133.462 C631.005,134.294 632.187,134.408 632.558,133.631 C633.196,132.308 634.349,130.805 636.312,130.805 C639.345,130.805 641.523,133.98 644.476,138.792 C648.142,144.773 655.898,142.222 657.806,141.481 C658.084,141.372 658.398,141.403 658.652,141.564 C659.645,142.194 662.229,143.884 664.384,145.769 C664.734,146.077 665.263,146.077 665.615,145.769 C667.769,143.884 670.354,142.194 671.347,141.564 C671.599,141.405 671.912,141.372 672.192,141.481 C674.098,142.222 681.857,144.773 685.523,138.792 C688.476,133.978 690.654,130.805 693.684,130.805 C695.649,130.805 696.803,132.308 697.438,133.631 C697.811,134.408 698.991,134.294 699.201,133.462 C699.484,132.337 699.538,130.766 698.817,128.751 C697.671,125.55 693.332,123.691 691.602,123.061 C691.185,122.908 690.939,122.491 691.003,122.058 L691.247,120.512 C691.304,120.131 691.597,119.828 691.981,119.753 C694.773,119.203 701.023,116.758 703.009,115.058 C704.881,113.453 708.612,108.893 704.881,102.5 Z M659.611,131.437 C658.595,131.315 656.637,130.784 654.62,129.267 C652.601,130.784 650.643,131.315 649.627,131.437 C647.592,131.684 644.872,128.718 644.865,128.71 C647.802,128.274 650.091,127.447 651.875,126.478 C650.846,125.086 649.917,123.323 649.233,121.091 L647.755,122.063 C647.753,122.042 647.4,119.061 649.99,115.107 C649.99,115.107 651.704,119.159 653.931,120.65 L651.592,120.569 L651.59,120.569 C651.626,120.673 652.341,122.594 654.62,124.58 C656.896,122.594 657.612,120.671 657.648,120.569 L657.646,120.569 L655.307,120.65 C657.534,119.159 659.248,115.107 659.248,115.107 C661.838,119.063 661.485,122.042 661.483,122.063 L660.005,121.091 C659.32,123.323 658.392,125.088 657.363,126.478 C659.147,127.445 661.439,128.274 664.373,128.71 C664.365,128.72 661.646,131.684 659.611,131.437 Z M659.611,113.181 C658.595,113.059 656.637,112.528 654.62,111.011 C652.601,112.528 650.643,113.059 649.627,113.181 C647.592,113.427 644.872,110.461 644.865,110.454 C647.802,110.018 650.091,109.191 651.875,108.221 C650.846,106.827 649.917,105.066 649.233,102.834 L647.755,103.806 C647.753,103.786 647.4,100.802 649.99,96.851 C649.99,96.851 651.704,100.903 653.931,102.393 L651.592,102.313 L651.59,102.313 C651.626,102.417 652.341,104.338 654.62,106.324 C656.896,104.338 657.612,102.414 657.648,102.313 L657.646,102.313 L655.307,102.393 C657.534,100.903 659.248,96.851 659.248,96.851 C661.838,100.807 661.485,103.786 661.483,103.806 L660.005,102.834 C659.32,105.066 658.392,106.829 657.363,108.221 C659.147,109.188 661.439,110.018 664.373,110.454 C664.365,110.461 661.646,113.427 659.611,113.181 Z M680.369,131.437 C679.353,131.315 677.395,130.784 675.376,129.267 C673.356,130.784 671.399,131.315 670.383,131.437 C668.348,131.684 665.631,128.718 665.623,128.71 C668.558,128.274 670.849,127.447 672.63,126.478 C671.601,125.086 670.673,123.323 669.989,121.091 L668.511,122.063 C668.508,122.042 668.158,119.061 670.748,115.107 C670.748,115.107 672.462,119.159 674.686,120.65 L672.348,120.569 L672.345,120.569 C672.384,120.673 673.1,122.594 675.376,124.58 C677.652,122.594 678.368,120.671 678.404,120.569 L678.401,120.569 L676.065,120.65 C678.29,119.159 680.003,115.107 680.003,115.107 C682.593,119.063 682.243,122.042 682.241,122.063 L680.76,121.091 C680.079,123.323 679.151,125.088 678.121,126.478 C679.902,127.445 682.194,128.274 685.129,128.71 C685.121,128.72 682.402,131.684 680.369,131.437 Z M680.369,113.181 C679.353,113.059 677.395,112.528 675.376,111.011 C673.356,112.528 671.399,113.059 670.383,113.181 C668.348,113.427 665.631,110.461 665.623,110.454 C668.558,110.018 670.849,109.191 672.63,108.221 C671.601,106.827 670.67,105.066 669.989,102.832 L668.511,103.806 C668.511,103.806 668.148,100.82 670.748,96.848 C670.748,96.848 672.462,100.9 674.686,102.391 L672.348,102.31 C672.384,102.406 673.1,104.333 675.378,106.321 C677.655,104.335 678.37,102.414 678.409,102.31 L678.404,102.31 L676.068,102.391 C678.292,100.9 680.006,96.848 680.006,96.848 C682.596,100.802 682.246,103.783 682.243,103.804 L680.763,102.832 C680.081,105.064 679.153,106.827 678.124,108.219 C679.905,109.186 682.197,110.015 685.131,110.451 C685.129,110.454 682.404,113.427 680.369,113.181 Z" />
        </g>
    </g>
</svg>