<?xml version="1.0" encoding="UTF-8"?>
<svg height="600" width="800" xmlns="http://www.w3.org/2000/svg" xmlns:xlink="http://www.w3.org/1999/xlink">
    <style>
        .multicolor-0:green { fill:#00EACB; opacity:1.0 }
        .multicolor-1:green { fill:#00D8B5; opacity:1.0 }
        .multicolor-2:green { fill:#00BAA1; opacity:1.0 }
    </style>
    <g id="Notes" font-family="'LucidaGrande', 'Lucida Grande', sans-serif" font-size="13">
        <rect fill="white" height="600.0" width="800.0" x="0.0" y="0.0" />
        <g font-size="13">
            <text x="18.0" y="176.0">Small</text>
            <text x="18.0" y="376.0">Medium</text>
            <text x="18.0" y="576.0">Large</text>
        </g>
        <g font-size="9">
            <text x="250.0" y="30.0">Ultralight</text>
            <text x="450.0" y="30.0">Regular</text>
            <text x="650.0" y="30.0">Black</text>
            <text id="template-version" fill="#505050" text-anchor="end" x="785.0" y="575.0">Template v.3.0</text>
            <a href="https://github.com/swhitty/SwiftDraw">
                <text fill="#505050" text-anchor="end" x="785.0" y="590.0">https://github.com/swhitty/SwiftDraw</text>
            </a>
        </g>
    </g>
    <g id="Guides" stroke="rgb(39, 170, 225)" stroke-width="0.5">
        <path id="Capline-S" d="M18,76 l800,0" />
        <path id="H-reference" d="M85,145.755 L87.685,145.755 L113.369,79.287 L114.052,79.287 L114.052,76 L112.148,76 L85,145.755 Z M95.693,121.536 L130.996,121.536 L130.263,119.313 L96.474,119.313 L95.693,121.536 Z M139.15,145.755 L141.787,145.755 L114.638,76 L113.466,76 L113.466,79.287 L139.15,145.755 Z" stroke="none" />
        <path id="Baseline-S" d="M18,146 l800,0" />
        <path id="left-margin-Ultralight-S" d="M213.635,56 l0,110" />
        <path id="right-margin-Ultralight-S" d="M316.365,56 l0,110" />
        <path id="left-margin-Regular-S" d="M413.635,56 l0,110" />
        <path id="right-margin-Regular-S" d="M516.365,56 l0,110" />
        <path id="left-margin-Black-S" d="M613.635,56 l0,110" />
        <path id="right-margin-Black-S" d="M716.365,56 l0,110" />
        <path id="Capline-M" d="M18,276 l800,0" />
        <path id="Baseline-M" d="M18,346 l800,0" />
        <path id="Capline-L" d="M18,476 l800,0" />
        <path id="Baseline-L" d="M18,546 l800,0" />
    </g>
    <g id="Symbols">
        <g id="Ultralight-S">
            <path class="multicolor-0:green" d="M244.423,108.884 C246.937,106.375 251.77,105.009 255.229,105.838 L258.285,106.574 C258.861,106.71 258.987,107.165 258.571,107.581 L255.534,110.613 C255.117,111.03 254.313,111.258 253.737,111.122 L251.722,110.638 C251.146,110.497 250.337,110.725 249.92,111.146 L248.937,112.125 C248.52,112.546 247.712,112.774 247.14,112.633 L242.97,111.635 C242.393,111.495 242.268,111.044 242.684,110.623 L244.423,108.884 Z M262.184,108.448 C262.601,108.032 263.409,107.804 263.981,107.94 L276.351,110.909 C276.928,111.049 277.054,111.5 276.637,111.921 L273.605,114.953 C273.188,115.37 272.38,115.597 271.803,115.457 L259.433,112.488 C258.857,112.352 258.731,111.902 259.152,111.48 L262.184,108.448 Z M280.25,112.788 C280.672,112.367 281.476,112.139 282.052,112.28 L294.422,115.249 C294.999,115.389 295.125,115.84 294.708,116.256 L291.676,119.288 C291.255,119.71 290.451,119.937 289.874,119.797 L277.504,116.828 C276.928,116.687 276.802,116.237 277.218,115.82 L280.25,112.788 Z M298.321,117.123 C298.738,116.707 299.547,116.479 300.118,116.619 L303.18,117.351 C306.633,118.179 307.398,120.891 304.884,123.4 L303.146,125.139 C302.724,125.56 301.92,125.788 301.344,125.648 L297.174,124.645 C296.597,124.509 296.471,124.059 296.893,123.638 L297.871,122.659 C298.292,122.238 298.162,121.787 297.585,121.647 L295.57,121.167 C294.994,121.027 294.868,120.576 295.289,120.155 L298.321,117.123 Z M231.04,123.56 C230.464,123.424 230.338,122.974 230.754,122.553 L238.78,114.527 C239.202,114.11 240.006,113.883 240.582,114.018 L244.752,115.021 C245.329,115.157 245.455,115.612 245.038,116.028 L237.007,124.054 C236.591,124.476 235.787,124.703 235.211,124.563 L231.04,123.56 Z M298.961,128.036 C299.532,128.171 299.663,128.622 299.242,129.043 L291.216,137.069 C290.799,137.49 289.991,137.718 289.414,137.577 L285.244,136.575 C284.672,136.439 284.542,135.989 284.963,135.567 L292.989,127.541 C293.405,127.12 294.214,126.892 294.791,127.033 L298.961,128.036 Z M226.855,126.457 C227.272,126.035 228.076,125.807 228.652,125.948 L232.823,126.951 C233.399,127.086 233.525,127.537 233.108,127.958 L232.125,128.936 C231.709,129.358 231.835,129.808 232.411,129.949 L234.426,130.433 C235.002,130.569 235.128,131.019 234.712,131.44 L231.68,134.473 C231.258,134.889 230.454,135.117 229.878,134.981 L226.822,134.245 C223.368,133.417 222.603,130.709 225.112,128.195 L226.855,126.457 Z M287.031,139.965 C287.608,140.101 287.734,140.551 287.312,140.973 L285.573,142.711 C283.064,145.22 278.226,146.586 274.772,145.758 L271.716,145.022 C271.14,144.886 271.009,144.436 271.43,144.014 L274.462,140.982 C274.879,140.566 275.688,140.338 276.264,140.474 L278.279,140.958 C278.855,141.098 279.659,140.871 280.076,140.449 L281.059,139.471 C281.481,139.05 282.285,138.822 282.861,138.962 L287.031,139.965 Z M249.746,138.807 C249.329,139.229 248.52,139.457 247.949,139.316 L235.579,136.347 C235.002,136.211 234.871,135.756 235.293,135.34 L238.325,132.307 C238.741,131.886 239.55,131.658 240.127,131.799 L252.497,134.768 C253.069,134.908 253.199,135.359 252.778,135.775 L249.746,138.807 Z M267.817,143.147 C267.396,143.564 266.592,143.791 266.015,143.656 L253.645,140.687 C253.069,140.546 252.943,140.096 253.359,139.679 L256.391,136.642 C256.813,136.226 257.617,135.998 258.193,136.139 L270.563,139.108 C271.14,139.243 271.266,139.699 270.849,140.115 L267.817,143.147 Z" />
            <path class="multicolor-1:green" d="M244.423,94.075 C246.937,91.566 251.77,90.2 255.229,91.028 L303.18,102.541 C306.633,103.369 307.398,106.082 304.884,108.591 L285.573,127.902 C283.064,130.411 278.226,131.777 274.772,130.948 L226.822,119.435 C223.368,118.607 222.603,115.9 225.112,113.386 L244.423,94.075 Z M251.722,95.828 C251.146,95.688 250.337,95.915 249.92,96.337 L232.125,114.127 C231.709,114.548 231.835,114.999 232.411,115.139 L278.279,126.148 C278.855,126.289 279.659,126.061 280.076,125.64 L297.871,107.85 C298.292,107.428 298.162,106.978 297.585,106.837 L251.722,95.828 Z" />
            <path class="multicolor-2:green" d="M244.423,79.289 C246.937,76.78 251.77,75.414 255.229,76.242 L303.18,87.755 C306.633,88.583 307.398,91.296 304.884,93.805 L285.573,113.116 C283.064,115.625 278.226,116.991 274.772,116.162 L226.822,104.649 C223.368,103.821 222.603,101.114 225.112,98.6 L244.423,79.289 Z M251.722,81.042 C251.146,80.902 250.337,81.129 249.92,81.551 L232.125,99.341 C231.709,99.762 231.835,100.213 232.411,100.353 L278.279,111.362 C278.855,111.503 279.659,111.275 280.076,110.854 L297.871,93.064 C298.292,92.642 298.162,92.192 297.585,92.051 L251.722,81.042 Z" />
        </g>
        <g id="Regular-S">
            <path class="multicolor-0:green" d="M444.423,108.884 C446.937,106.375 451.77,105.009 455.229,105.838 L458.285,106.574 C458.861,106.71 458.987,107.165 458.571,107.581 L455.534,110.613 C455.117,111.03 454.313,111.258 453.737,111.122 L451.722,110.638 C451.146,110.497 450.337,110.725 449.92,111.146 L448.937,112.125 C448.52,112.546 447.712,112.774 447.14,112.633 L442.97,111.635 C442.393,111.495 442.267,111.044 442.684,110.623 L444.423,108.884 Z M462.184,108.448 C462.601,108.032 463.409,107.804 463.981,107.94 L476.351,110.909 C476.928,111.049 477.054,111.5 476.637,111.921 L473.605,114.953 C473.188,115.37 472.38,115.597 471.803,115.457 L459.433,112.488 C458.857,112.352 458.731,111.902 459.152,111.48 L462.184,108.448 Z M480.25,112.788 C480.672,112.367 481.476,112.139 482.052,112.28 L494.422,115.249 C494.999,115.389 495.125,115.84 494.708,116.256 L491.676,119.288 C491.255,119.71 490.451,119.937 489.874,119.797 L477.504,116.828 C476.928,116.687 476.802,116.237 477.218,115.82 L480.25,112.788 Z M498.321,117.123 C498.738,116.707 499.547,116.479 500.118,116.619 L503.18,117.351 C506.633,118.179 507.398,120.891 504.884,123.4 L503.146,125.139 C502.724,125.56 501.92,125.788 501.344,125.648 L497.174,124.645 C496.597,124.509 496.471,124.059 496.893,123.638 L497.871,122.659 C498.292,122.238 498.162,121.787 497.585,121.647 L495.57,121.167 C494.994,121.027 494.868,120.576 495.289,120.155 L498.321,117.123 Z M431.04,123.56 C430.464,123.424 430.338,122.974 430.754,122.553 L438.78,114.527 C439.202,114.11 440.006,113.883 440.582,114.018 L444.752,115.021 C445.329,115.157 445.455,115.612 445.038,116.028 L437.007,124.054 C436.591,124.476 435.787,124.703 435.21,124.563 L431.04,123.56 Z M498.961,128.036 C499.532,128.171 499.663,128.622 499.242,129.043 L491.216,137.069 C490.799,137.49 489.991,137.718 489.414,137.577 L485.244,136.575 C484.672,136.439 484.542,135.989 484.963,135.567 L492.989,127.541 C493.405,127.12 494.214,126.892 494.791,127.033 L498.961,128.036 Z M426.855,126.457 C427.272,126.035 428.076,125.807 428.652,125.948 L432.823,126.951 C433.399,127.086 433.525,127.537 433.108,127.958 L432.125,128.936 C431.709,129.358 431.835,129.808 432.411,129.949 L434.426,130.433 C435.002,130.569 435.128,131.019 434.712,131.44 L431.68,134.473 C431.258,134.889 430.454,135.117 429.878,134.981 L426.822,134.245 C423.368,133.417 422.603,130.709 425.112,128.195 L426.855,126.457 Z M487.031,139.965 C487.608,140.101 487.734,140.551 487.312,140.973 L485.573,142.711 C483.064,145.22 478.226,146.586 474.772,145.758 L471.716,145.022 C471.14,144.886 471.009,144.436 471.43,144.014 L474.462,140.982 C474.879,140.566 475.688,140.338 476.264,140.474 L478.279,140.958 C478.855,141.098 479.659,140.871 480.076,140.449 L481.059,139.471 C481.481,139.05 482.285,138.822 482.861,138.962 L487.031,139.965 Z M449.746,138.807 C449.329,139.229 448.52,139.457 447.949,139.316 L435.579,136.347 C435.002,136.211 434.871,135.756 435.293,135.34 L438.325,132.307 C438.741,131.886 439.55,131.658 440.127,131.799 L452.497,134.768 C453.069,134.908 453.199,135.359 452.778,135.775 L449.746,138.807 Z M467.817,143.147 C467.396,143.564 466.592,143.791 466.015,143.656 L453.645,140.687 C453.069,140.546 452.943,140.096 453.359,139.679 L456.391,136.642 C456.813,136.226 457.617,135.998 458.193,136.139 L470.563,139.108 C471.14,139.243 471.266,139.699 470.849,140.115 L467.817,143.147 Z" />
            <path class="multicolor-1:green" d="M444.423,94.075 C446.937,91.566 451.77,90.2 455.229,91.028 L503.18,102.541 C506.633,103.369 507.398,106.082 504.884,108.591 L485.573,127.902 C483.064,130.411 478.226,131.777 474.772,130.948 L426.822,119.435 C423.368,118.607 422.603,115.9 425.112,113.386 L444.423,94.075 Z M451.722,95.828 C451.146,95.688 450.337,95.915 449.92,96.337 L432.125,114.127 C431.709,114.548 431.835,114.999 432.411,115.139 L478.279,126.148 C478.855,126.289 479.659,126.061 480.076,125.64 L497.871,107.85 C498.292,107.428 498.162,106.978 497.585,106.837 L451.722,95.828 Z" />
            <path class="multicolor-2:green" d="M444.423,79.289 C446.937,76.78 451.77,75.414 455.229,76.242 L503.18,87.755 C506.633,88.583 507.398,91.296 504.884,93.805 L485.573,113.116 C483.064,115.625 478.226,116.991 474.772,116.162 L426.822,104.649 C423.368,103.821 422.603,101.114 425.112,98.6 L444.423,79.289 Z M451.722,81.042 C451.146,80.902 450.337,81.129 449.92,81.551 L432.125,99.341 C431.709,99.762 431.835,100.213 432.411,100.353 L478.279,111.362 C478.855,111.503 479.659,111.275 480.076,110.854 L497.871,93.064 C498.292,92.642 498.162,92.192 497.585,92.051 L451.722,81.042 Z" />
        </g>
        <g id="Black-S">
            <path class="multicolor-0:green" d="M644.423,108.884 C646.937,106.375 651.771,105.009 655.229,105.838 L658.285,106.574 C658.861,106.71 658.987,107.165 658.571,107.581 L655.534,110.613 C655.117,111.03 654.313,111.258 653.737,111.122 L651.722,110.638 C651.146,110.497 650.337,110.725 649.92,111.146 L648.937,112.125 C648.521,112.546 647.712,112.774 647.14,112.633 L642.97,111.635 C642.393,111.495 642.268,111.044 642.684,110.623 L644.423,108.884 Z M662.184,108.448 C662.601,108.032 663.409,107.804 663.981,107.94 L676.351,110.909 C676.928,111.049 677.054,111.5 676.637,111.921 L673.605,114.953 C673.188,115.37 672.38,115.597 671.803,115.457 L659.433,112.488 C658.857,112.352 658.731,111.902 659.152,111.48 L662.184,108.448 Z M680.25,112.788 C680.672,112.367 681.476,112.139 682.052,112.28 L694.422,115.249 C694.999,115.389 695.125,115.84 694.708,116.256 L691.676,119.288 C691.255,119.71 690.451,119.937 689.874,119.797 L677.504,116.828 C676.928,116.687 676.802,116.237 677.218,115.82 L680.25,112.788 Z M698.321,117.123 C698.738,116.707 699.547,116.479 700.118,116.619 L703.18,117.351 C706.633,118.179 707.398,120.891 704.884,123.4 L703.146,125.139 C702.724,125.56 701.92,125.788 701.344,125.648 L697.174,124.645 C696.597,124.509 696.471,124.059 696.893,123.638 L697.871,122.659 C698.292,122.238 698.162,121.787 697.585,121.647 L695.57,121.167 C694.994,121.027 694.868,120.576 695.289,120.155 L698.321,117.123 Z M631.04,123.56 C630.464,123.424 630.338,122.974 630.754,122.553 L638.78,114.527 C639.202,114.11 640.006,113.883 640.582,114.018 L644.752,115.021 C645.329,115.157 645.455,115.612 645.038,116.028 L637.007,124.054 C636.591,124.476 635.787,124.703 635.211,124.563 L631.04,123.56 Z M698.961,128.036 C699.532,128.171 699.663,128.622 699.242,129.043 L691.216,137.069 C690.799,137.49 689.991,137.718 689.414,137.577 L685.244,136.575 C684.672,136.439 684.542,135.989 684.963,135.567 L692.989,127.541 C693.405,127.12 694.214,126.892 694.791,127.033 L698.961,128.036 Z M626.855,126.457 C627.272,126.035 628.076,125.807 628.652,125.948 L632.823,126.951 C633.399,127.086 633.525,127.537 633.108,127.958 L632.125,128.936 C631.709,129.358 631.835,129.808 632.411,129.949 L634.426,130.433 C635.002,130.569 635.128,131.019 634.712,131.44 L631.68,134.473 C631.258,134.889 630.454,135.117 629.878,134.981 L626.822,134.245 C623.368,133.417 622.603,130.709 625.112,128.195 L626.855,126.457 Z M687.031,139.965 C687.608,140.101 687.734,140.551 687.312,140.973 L685.573,142.711 C683.064,145.22 678.226,146.586 674.772,145.758 L671.716,145.022 C671.14,144.886 671.009,144.436 671.43,144.014 L674.462,140.982 C674.879,140.566 675.688,140.338 676.264,140.474 L678.279,140.958 C678.855,141.098 679.659,140.871 680.076,140.449 L681.059,139.471 C681.481,139.05 682.285,138.822 682.861,138.962 L687.031,139.965 Z M649.746,138.807 C649.329,139.229 648.521,139.457 647.949,139.316 L635.579,136.347 C635.002,136.211 634.871,135.756 635.293,135.34 L638.325,132.307 C638.741,131.886 639.55,131.658 640.127,131.799 L652.497,134.768 C653.069,134.908 653.199,135.359 652.778,135.775 L649.746,138.807 Z M667.817,143.147 C667.396,143.564 666.592,143.791 666.015,143.656 L653.645,140.687 C653.069,140.546 652.943,140.096 653.359,139.679 L656.391,136.642 C656.813,136.226 657.617,135.998 658.193,136.139 L670.563,139.108 C671.14,139.243 671.266,139.699 670.849,140.115 L667.817,143.147 Z" />
            <path class="multicolor-1:green" d="M644.423,94.075 C646.937,91.566 651.771,90.2 655.229,91.028 L703.18,102.541 C706.633,103.369 707.398,106.082 704.884,108.591 L685.573,127.902 C683.064,130.411 678.226,131.777 674.772,130.948 L626.822,119.435 C623.368,118.607 622.603,115.9 625.112,113.386 L644.423,94.075 Z M651.722,95.828 C651.146,95.688 650.337,95.915 649.92,96.337 L632.125,114.127 C631.709,114.548 631.835,114.999 632.411,115.139 L678.279,126.148 C678.855,126.289 679.659,126.061 680.076,125.64 L697.871,107.85 C698.292,107.428 698.162,106.978 697.585,106.837 L651.722,95.828 Z" />
            <path class="multicolor-2:green" d="M644.423,79.289 C646.937,76.78 651.771,75.414 655.229,76.242 L703.18,87.755 C706.633,88.583 707.398,91.296 704.884,93.805 L685.573,113.116 C683.064,115.625 678.226,116.991 674.772,116.162 L626.822,104.649 C623.368,103.821 622.603,101.114 625.112,98.6 L644.423,79.289 Z M651.722,81.042 C651.146,80.902 650.337,81.129 649.92,81.551 L632.125,99.341 C631.709,99.762 631.835,100.213 632.411,100.353 L678.279,111.362 C678.855,111.503 679.659,111.275 680.076,110.854 L697.871,93.064 C698.292,92.642 698.162,92.192 697.585,92.051 L651.722,81.042 Z" />
        </g>
    </g>
</svg>