<svg width="34" height="36" viewBox="0 0 34 36" fill="none" xmlns="http://www.w3.org/2000/svg">
<g clip-path="url(#clip0_7_138)">
<path d="M28.7545 22.3159L33.4599 20.7625C33.7481 22.0683 33.6445 23.3605 33.2843 24.6483L30.7717 24.8059C30.6997 24.9996 30.6187 25.2562 30.5286 25.4633L33.0501 25.4318C32.7485 26.2783 32.3387 27.0888 31.8704 27.8318H29.2543C29.1057 28.0479 28.9571 28.2506 28.804 28.4397L31.3706 28.5657C30.0603 30.3533 28.4258 31.6051 27.192 31.7492C26.8498 31.7897 26.7373 31.7942 26.4536 31.6051L24.675 30.6911L25.463 29.0746L28.7455 22.3294L28.7545 22.3159Z" fill="#FDD400"/>
<path d="M4.87184 22.3159L0.166451 20.7625C-0.121729 22.0683 -0.0181587 23.3605 0.342061 24.6483L2.8546 24.8059C2.92665 24.9996 3.0077 25.2562 3.09775 25.4633L0.576201 25.4318C0.877891 26.2783 1.28764 27.0888 1.75593 27.8318H4.37203C4.52063 28.0479 4.66922 28.2506 4.82231 28.4397L2.25573 28.5657C3.56604 30.3533 5.20054 31.6051 6.4343 31.7492C6.77651 31.7897 6.88908 31.7942 7.1728 31.6051L8.9513 30.6911L8.1634 29.0746L4.88085 22.3294L4.87184 22.3159Z" fill="#FDD400"/>
<path d="M18.97 10.0143H22.0634L26.1474 5.14685L30.0468 0.5H26.9534L18.97 10.0143Z" fill="#FF4B1F"/>
<path d="M26.9534 0.5H23.86L18.3621 7.05603L19.7535 8.7175L17.5156 9.7397L9.76627 0.5H6.67291L14.6563 10.0143H18.97L26.9534 0.5Z" fill="#5997C2"/>
<path d="M6.67293 0.5H3.57953L11.5629 10.0143H14.6563L6.67293 0.5Z" fill="#FF4B1F"/>
<path d="M17.5156 9.7397L19.7535 8.7175L18.3621 7.05603L23.86 0.5H20.7666L16.8132 5.2144L12.8597 0.5H9.7663L17.5156 9.7397Z" fill="#FF4B1F"/>
<path d="M16.8132 34.1807C9.59073 34.1807 3.71466 28.3046 3.71466 21.0821C3.71466 13.8597 9.59073 7.98358 16.8132 7.98358C24.0356 7.98358 29.9117 13.8597 29.9117 21.0821C29.9117 28.3046 24.0356 34.1807 16.8132 34.1807Z" fill="#E5A500"/>
<path d="M16.8132 9.3029C23.3062 9.3029 28.5924 14.5846 28.5924 21.0821C28.5924 27.5796 23.3107 32.8614 16.8132 32.8614C10.3157 32.8614 5.03393 27.5796 5.03393 21.0821C5.03393 14.5846 10.3157 9.3029 16.8132 9.3029ZM16.8132 6.65527C8.84779 6.65527 2.39081 13.1122 2.39081 21.0776C2.39081 29.043 8.84779 35.5 16.8132 35.5C24.7786 35.5 31.2355 29.043 31.2355 21.0776C31.2355 13.1122 24.7786 6.65527 16.8132 6.65527Z" fill="#FDD400"/>
<path d="M27.2866 18.5876C27.4757 18.448 27.4172 18.1463 27.1876 18.0923C26.9399 18.0338 26.5707 18.0248 26.0438 18.1643C24.7831 18.4885 24.2247 20.6319 23.4187 21.1182C22.6578 21.5729 20.6 20.4833 19.9201 20.06C19.5058 19.8033 18.3666 18.9568 17.8848 18.6011C17.7678 18.5111 17.7362 18.349 17.8218 18.2229C18.1595 17.7141 18.3936 17.1422 18.4927 16.8675C18.5287 16.7685 18.5062 16.6559 18.4342 16.5794C18.182 16.3137 17.5426 15.6833 16.8357 15.2961C16.1423 14.9133 15.1201 14.5261 14.2826 14.4406C12.6976 14.283 11.599 14.5801 11.0902 14.7693C10.9191 14.8323 10.856 15.0349 10.9551 15.1835C11.626 16.2011 12.0943 17.2413 12.3014 17.7366C12.3689 17.9032 12.2654 18.0878 12.0898 18.1193C11.4459 18.2364 10.6804 18.1688 9.91942 18.1643C8.83882 18.1643 8.57762 18.1778 7.72212 18.5291C7.11872 18.7767 6.84858 19.7583 6.88009 20.5823C6.89811 21.0326 7.34392 21.3253 7.76712 21.1857C7.76712 21.1857 7.77612 21.1857 7.78062 21.1857C8.34802 21.0056 8.82982 21.1137 9.36562 21.3883C9.97352 21.699 10.9866 22.3564 11.3333 22.9193C11.68 23.4821 11.7025 23.4146 10.847 23.5767C9.90592 23.7523 9.01442 24.2926 8.56412 24.2341C8.21742 24.189 7.95622 24.0359 7.78062 23.8874C7.62752 23.7568 7.38892 23.8378 7.33492 24.0314C7.21332 24.4952 7.19082 24.968 7.83472 25.2382C8.61812 25.5669 9.14502 25.675 10.0635 25.774C11.0001 25.8776 11.8556 25.9001 12.6391 25.8416C13.4001 25.783 13.8819 25.7335 14.3096 25.8416C15.0166 26.0127 15.7685 26.3639 16.4755 26.4809C17.5651 26.6611 18.074 26.3774 18.8709 25.9676C19.785 25.4993 20.5865 25.3012 20.9692 25.2292C21.1043 25.2022 21.2394 25.2787 21.2844 25.4093C21.424 25.7965 21.6762 26.4404 22.1445 26.553C22.6623 26.6791 23.6259 26.4449 24.2247 26.1117C24.3688 26.0307 24.4138 25.8461 24.3193 25.711C24.2472 25.6074 24.1257 25.4948 23.9095 25.4048C22.9234 24.9725 22.7343 24.5313 22.6443 24.2025C22.6217 24.126 22.6353 24.045 22.6803 23.9774C22.8379 23.7388 23.2431 23.1939 23.6709 23.2525C24.2157 23.3245 24.0987 23.8874 24.8596 24.3601C25.3504 24.6663 25.8142 24.6798 26.1069 24.5628C26.269 24.4997 26.3275 24.3061 26.2375 24.1575C26.0799 23.9009 25.8187 23.3875 25.6746 22.5951C25.499 21.6315 25.8953 20.3977 26.296 19.7403C26.6697 19.1279 27.03 18.7812 27.2866 18.5966V18.5876Z" fill="#FDD400"/>
<path d="M12.2609 22.2304C11.4684 22.0232 10.9326 21.3208 11.0361 20.5103C11.1667 19.4566 12.1033 18.6416 13.337 19.1685C14.6338 19.7223 14.3592 21.0506 14.0665 21.6045C13.7783 22.1583 12.9633 22.415 12.2609 22.2304Z" fill="white"/>
<path d="M12.6616 19.9339C12.3644 19.9159 12.1393 20.051 11.9907 20.3031C11.7746 20.6679 11.9277 21.2082 12.495 21.3928C12.9678 21.5459 13.4316 21.2037 13.4271 20.7129C13.4271 20.2446 13.0038 19.9609 12.6571 19.9384L12.6616 19.9339Z" fill="#E5A500"/>
<path d="M13.3596 25.1031C13.3596 25.1031 12.9318 26.4044 11.8736 26.7736C11.2613 26.9853 11.9142 28.0479 13.7918 27.7958C14.7464 27.6652 15.0211 26.598 14.7104 25.6389C14.3952 24.6799 13.8774 24.3602 13.3596 25.1076V25.1031Z" fill="#FDD400"/>
<path d="M12.8462 20.5013C12.7787 20.4247 12.6931 20.4022 12.5941 20.4292C12.4545 20.4653 12.3599 20.6319 12.4545 20.8165C12.531 20.9696 12.7247 20.9966 12.8462 20.8795C12.9678 20.7624 12.9273 20.5958 12.8462 20.5058V20.5013Z" fill="#040000"/>
<path d="M18.4162 19.2225C18.3711 19.1549 19.4248 18.3309 19.5824 17.8086C19.5824 17.8086 20.5054 18.5335 20.8386 19.7673C21.0233 20.4472 21.4916 21.0326 21.8248 21.1091C21.8248 21.1091 19.9246 21.3388 18.4117 19.2225H18.4162Z" fill="#FDD400"/>
</g>
<defs>
<clipPath id="clip0_7_138">
<rect width="34" height="36" fill="white"/>
</clipPath>
</defs>
</svg>
