<?xml version="1.0" encoding="UTF-8"?>
<svg height="600" width="800" xmlns="http://www.w3.org/2000/svg" xmlns:xlink="http://www.w3.org/1999/xlink">
    <style>
        .multicolor-0:orange { fill:#FC5620; opacity:1.0 }
    </style>
    <g id="Notes" font-family="'LucidaGrande', 'Lucida Grande', sans-serif" font-size="13">
        <rect fill="white" height="600.0" width="800.0" x="0.0" y="0.0" />
        <g font-size="13">
            <text x="18.0" y="176.0">Small</text>
            <text x="18.0" y="376.0">Medium</text>
            <text x="18.0" y="576.0">Large</text>
        </g>
        <g font-size="9">
            <text x="250.0" y="30.0">Ultralight</text>
            <text x="450.0" y="30.0">Regular</text>
            <text x="650.0" y="30.0">Black</text>
            <text id="template-version" fill="#505050" text-anchor="end" x="785.0" y="575.0">Template v.3.0</text>
            <a href="https://github.com/swhitty/SwiftDraw">
                <text fill="#505050" text-anchor="end" x="785.0" y="590.0">https://github.com/swhitty/SwiftDraw</text>
            </a>
        </g>
    </g>
    <g id="Guides" stroke="rgb(39, 170, 225)" stroke-width="0.5">
        <path id="Capline-S" d="M18,76 l800,0" />
        <path id="H-reference" d="M85,145.755 L87.685,145.755 L113.369,79.287 L114.052,79.287 L114.052,76 L112.148,76 L85,145.755 Z M95.693,121.536 L130.996,121.536 L130.263,119.313 L96.474,119.313 L95.693,121.536 Z M139.15,145.755 L141.787,145.755 L114.638,76 L113.466,76 L113.466,79.287 L139.15,145.755 Z" stroke="none" />
        <path id="Baseline-S" d="M18,146 l800,0" />
        <path id="left-margin-Ultralight-S" d="M211,56 l0,110" />
        <path id="right-margin-Ultralight-S" d="M319,56 l0,110" />
        <path id="left-margin-Regular-S" d="M411,56 l0,110" />
        <path id="right-margin-Regular-S" d="M519,56 l0,110" />
        <path id="left-margin-Black-S" d="M611,56 l0,110" />
        <path id="right-margin-Black-S" d="M719,56 l0,110" />
        <path id="Capline-M" d="M18,276 l800,0" />
        <path id="Baseline-M" d="M18,346 l800,0" />
        <path id="Capline-L" d="M18,476 l800,0" />
        <path id="Baseline-L" d="M18,546 l800,0" />
    </g>
    <g id="Symbols">
        <g id="Ultralight-S">
            <path class="multicolor-0:orange" d="M301.911,98.796 C299.723,100.119 296.437,103.705 294.289,108.373 C292.008,113.352 283.241,112.201 281.335,106.84 C279.549,101.817 277.529,98.414 275.622,96.882 C275.622,96.882 272.575,101.48 271.435,101.861 C270.291,102.242 269.532,101.861 269.151,101.48 C268.769,101.098 266.866,99.181 267.625,98.414 C268.388,97.644 270.294,93.054 270.294,93.054 C270.294,93.054 270.676,91.902 270.294,91.521 C269.917,91.14 265.722,84.628 255.437,82.714 C245.149,80.8 239.051,83.862 239.051,83.862 C238.674,83.862 237.907,84.247 238.292,85.013 C238.674,85.776 244.39,96.123 244.39,96.123 C244.39,96.123 244.771,97.74 244.012,98.037 C243.25,98.334 231.055,98.037 228.774,98.418 C226.482,98.796 222.291,99.947 221.529,103.775 C220.77,107.603 220.77,109.513 221.91,110.664 C223.05,111.812 225.69,110.657 227.036,110.664 C228.389,110.668 232.818,111.966 234.861,113.73 C237.53,116.025 239.814,118.324 240.573,119.472 C241.332,120.623 240.951,120.623 240.192,121.004 C239.433,121.385 233.262,122.383 229.907,124.069 C227.623,125.217 225.819,123.149 224.576,122.537 C224.114,122.306 223.05,122.155 222.669,123.299 C222.31,124.392 222.669,127.127 223.428,127.509 C224.191,127.89 229.526,130.574 234.094,130.955 C238.663,131.337 243.642,131.337 246.487,130.955 C249.333,130.574 244.383,134.402 243.235,134.787 C242.091,135.168 240.951,135.935 241.713,137.082 C242.472,138.226 246.286,140.529 249.714,139.762 C253.142,139 255.045,137.848 254.667,132.103 C255.452,131.19 261.594,134.318 263.427,134.398 C265.334,134.483 268.762,133.636 271.431,132.103 C274.1,130.57 279.813,128.275 282.097,128.656 C282.097,128.656 284.378,133.636 285.144,134.017 C285.903,134.398 288.195,134.78 290.475,134.398 C292.76,134.017 295.051,132.866 295.429,132.103 C295.81,131.337 295.429,130.57 292.76,129.038 C290.094,127.505 287.428,124.828 288.187,123.677 C288.946,122.526 290.857,120.612 291.616,120.23 C292.375,119.849 293.9,120.23 294.666,121.382 C295.425,122.529 297.336,125.591 299.239,125.976 C301.142,126.361 302.949,126.222 303.426,125.976 C304.185,125.595 304.185,124.341 303.426,123.05 C302.667,121.763 300.757,118.317 301.142,114.104 C301.534,109.795 303.811,104.145 308.002,100.699 C311.764,97.626 303.818,97.652 301.911,98.796 Z M245.53,116.417 C241.534,116.417 238.292,113.158 238.292,109.139 C238.292,105.124 241.534,101.865 245.53,101.865 C249.527,101.865 252.768,105.117 252.768,109.139 C252.768,113.161 249.527,116.417 245.53,116.417 Z" />
            <path class="multicolor-0:orange" d="M245.908,112.6 C247.803,112.6 249.336,111.056 249.336,109.153 C249.336,107.25 247.803,105.707 245.908,105.707 C244.016,105.707 242.479,107.25 242.479,109.153 C242.479,111.056 244.016,112.6 245.908,112.6 Z" />
        </g>
        <g id="Regular-S">
            <path class="multicolor-0:orange" d="M501.911,98.796 C499.723,100.119 496.437,103.705 494.289,108.373 C492.008,113.352 483.241,112.201 481.335,106.84 C479.549,101.817 477.529,98.414 475.622,96.882 C475.622,96.882 472.575,101.48 471.435,101.861 C470.291,102.242 469.532,101.861 469.151,101.48 C468.769,101.098 466.866,99.181 467.625,98.414 C468.388,97.644 470.294,93.054 470.294,93.054 C470.294,93.054 470.676,91.902 470.294,91.521 C469.917,91.14 465.722,84.628 455.437,82.714 C445.149,80.8 439.051,83.862 439.051,83.862 C438.674,83.862 437.907,84.247 438.292,85.013 C438.674,85.776 444.39,96.123 444.39,96.123 C444.39,96.123 444.771,97.74 444.012,98.037 C443.25,98.334 431.055,98.037 428.774,98.418 C426.482,98.796 422.291,99.947 421.529,103.775 C420.77,107.603 420.77,109.513 421.91,110.664 C423.05,111.812 425.69,110.657 427.036,110.664 C428.389,110.668 432.818,111.966 434.861,113.73 C437.53,116.025 439.814,118.324 440.573,119.472 C441.332,120.623 440.951,120.623 440.192,121.004 C439.433,121.385 433.262,122.383 429.907,124.069 C427.623,125.217 425.819,123.149 424.576,122.537 C424.114,122.306 423.05,122.155 422.669,123.299 C422.31,124.392 422.669,127.127 423.428,127.509 C424.191,127.89 429.526,130.574 434.094,130.955 C438.663,131.337 443.642,131.337 446.487,130.955 C449.333,130.574 444.383,134.402 443.235,134.787 C442.091,135.168 440.951,135.935 441.713,137.082 C442.472,138.226 446.286,140.529 449.714,139.762 C453.142,139 455.045,137.848 454.667,132.103 C455.452,131.19 461.594,134.318 463.427,134.398 C465.334,134.483 468.762,133.636 471.431,132.103 C474.1,130.57 479.813,128.275 482.097,128.656 C482.097,128.656 484.378,133.636 485.144,134.017 C485.903,134.398 488.195,134.78 490.475,134.398 C492.76,134.017 495.051,132.866 495.429,132.103 C495.81,131.337 495.429,130.57 492.76,129.038 C490.094,127.505 487.428,124.828 488.187,123.677 C488.946,122.526 490.857,120.612 491.616,120.23 C492.375,119.849 493.9,120.23 494.666,121.382 C495.425,122.529 497.336,125.591 499.239,125.976 C501.142,126.361 502.949,126.222 503.426,125.976 C504.185,125.595 504.185,124.341 503.426,123.05 C502.667,121.763 500.757,118.317 501.142,114.104 C501.534,109.795 503.811,104.145 508.002,100.699 C511.764,97.626 503.818,97.652 501.911,98.796 Z M445.53,116.417 C441.534,116.417 438.292,113.158 438.292,109.139 C438.292,105.124 441.534,101.865 445.53,101.865 C449.527,101.865 452.768,105.117 452.768,109.139 C452.768,113.161 449.527,116.417 445.53,116.417 Z" />
            <path class="multicolor-0:orange" d="M445.908,112.6 C447.803,112.6 449.336,111.056 449.336,109.153 C449.336,107.25 447.803,105.707 445.908,105.707 C444.016,105.707 442.479,107.25 442.479,109.153 C442.479,111.056 444.016,112.6 445.908,112.6 Z" />
        </g>
        <g id="Black-S">
            <path class="multicolor-0:orange" d="M701.911,98.796 C699.723,100.119 696.437,103.705 694.289,108.373 C692.008,113.352 683.241,112.201 681.335,106.84 C679.549,101.817 677.529,98.414 675.622,96.882 C675.622,96.882 672.575,101.48 671.435,101.861 C670.291,102.242 669.532,101.861 669.151,101.48 C668.769,101.098 666.866,99.181 667.625,98.414 C668.388,97.644 670.294,93.054 670.294,93.054 C670.294,93.054 670.676,91.902 670.294,91.521 C669.917,91.14 665.722,84.628 655.437,82.714 C645.149,80.8 639.051,83.862 639.051,83.862 C638.674,83.862 637.907,84.247 638.292,85.013 C638.674,85.776 644.39,96.123 644.39,96.123 C644.39,96.123 644.771,97.74 644.012,98.037 C643.25,98.334 631.055,98.037 628.774,98.418 C626.482,98.796 622.291,99.947 621.529,103.775 C620.77,107.603 620.77,109.513 621.91,110.664 C623.05,111.812 625.69,110.657 627.036,110.664 C628.389,110.668 632.818,111.966 634.861,113.73 C637.53,116.025 639.814,118.324 640.573,119.472 C641.332,120.623 640.951,120.623 640.192,121.004 C639.433,121.385 633.262,122.383 629.907,124.069 C627.623,125.217 625.819,123.149 624.576,122.537 C624.114,122.306 623.05,122.155 622.669,123.299 C622.31,124.392 622.669,127.127 623.428,127.509 C624.191,127.89 629.526,130.574 634.094,130.955 C638.663,131.337 643.642,131.337 646.487,130.955 C649.333,130.574 644.383,134.402 643.235,134.787 C642.091,135.168 640.951,135.935 641.713,137.082 C642.472,138.226 646.286,140.529 649.714,139.762 C653.142,139 655.045,137.848 654.667,132.103 C655.452,131.19 661.594,134.318 663.427,134.398 C665.334,134.483 668.762,133.636 671.431,132.103 C674.1,130.57 679.813,128.275 682.097,128.656 C682.097,128.656 684.378,133.636 685.144,134.017 C685.903,134.398 688.195,134.78 690.475,134.398 C692.76,134.017 695.051,132.866 695.429,132.103 C695.81,131.337 695.429,130.57 692.76,129.038 C690.094,127.505 687.428,124.828 688.187,123.677 C688.946,122.526 690.857,120.612 691.616,120.23 C692.375,119.849 693.9,120.23 694.666,121.382 C695.425,122.529 697.336,125.591 699.239,125.976 C701.141,126.361 702.949,126.222 703.426,125.976 C704.185,125.595 704.185,124.341 703.426,123.05 C702.667,121.763 700.757,118.317 701.141,114.104 C701.534,109.795 703.811,104.145 708.002,100.699 C711.764,97.626 703.818,97.652 701.911,98.796 Z M645.53,116.417 C641.534,116.417 638.292,113.158 638.292,109.139 C638.292,105.124 641.534,101.865 645.53,101.865 C649.527,101.865 652.768,105.117 652.768,109.139 C652.768,113.161 649.527,116.417 645.53,116.417 Z" />
            <path class="multicolor-0:orange" d="M645.908,112.6 C647.803,112.6 649.336,111.056 649.336,109.153 C649.336,107.25 647.803,105.707 645.908,105.707 C644.016,105.707 642.479,107.25 642.479,109.153 C642.479,111.056 644.016,112.6 645.908,112.6 Z" />
        </g>
    </g>
</svg>