<?xml version="1.0" encoding="UTF-8"?>
<svg height="600" width="800" xmlns="http://www.w3.org/2000/svg" xmlns:xlink="http://www.w3.org/1999/xlink">
    <g id="Notes" font-family="'LucidaGrande', 'Lucida Grande', sans-serif" font-size="13">
        <rect fill="white" height="600.0" width="800.0" x="0.0" y="0.0" />
        <g font-size="13">
            <text x="18.0" y="176.0">Small</text>
            <text x="18.0" y="376.0">Medium</text>
            <text x="18.0" y="576.0">Large</text>
        </g>
        <g font-size="9">
            <text x="250.0" y="30.0">Ultralight</text>
            <text x="450.0" y="30.0">Regular</text>
            <text x="650.0" y="30.0">Black</text>
            <text id="template-version" fill="#505050" text-anchor="end" x="785.0" y="575.0">Template v.3.0</text>
            <a href="https://github.com/swhitty/SwiftDraw">
                <text fill="#505050" text-anchor="end" x="785.0" y="590.0">https://github.com/swhitty/SwiftDraw</text>
            </a>
        </g>
    </g>
    <g id="Guides" stroke="rgb(39, 170, 225)" stroke-width="0.5">
        <path id="Capline-S" d="M18,76 l800,0" />
        <path id="H-reference" d="M85,145.755 L87.685,145.755 L113.369,79.287 L114.052,79.287 L114.052,76 L112.148,76 L85,145.755 Z M95.693,121.536 L130.996,121.536 L130.263,119.313 L96.474,119.313 L95.693,121.536 Z M139.15,145.755 L141.787,145.755 L114.638,76 L113.466,76 L113.466,79.287 L139.15,145.755 Z" stroke="none" />
        <path id="Baseline-S" d="M18,146 l800,0" />
        <path id="left-margin-Ultralight-S" d="M215.895,56 l0,110" />
        <path id="right-margin-Ultralight-S" d="M314.105,56 l0,110" />
        <path id="left-margin-Regular-S" d="M415.895,56 l0,110" />
        <path id="right-margin-Regular-S" d="M514.105,56 l0,110" />
        <path id="left-margin-Black-S" d="M615.895,56 l0,110" />
        <path id="right-margin-Black-S" d="M714.105,56 l0,110" />
        <path id="Capline-M" d="M18,276 l800,0" />
        <path id="Baseline-M" d="M18,346 l800,0" />
        <path id="Capline-L" d="M18,476 l800,0" />
        <path id="Baseline-L" d="M18,546 l800,0" />
    </g>
    <g id="Symbols">
        <g id="Ultralight-S">
            <path d="M254.123,86.291 C255.329,85.08 254.765,83.018 253.112,82.581 L229.032,76.249 C227.184,75.766 225.499,77.446 225.977,79.29 L232.259,103.566 C232.692,105.232 234.772,105.792 235.987,104.572 L237.731,102.815 L279.769,145.181 C280.857,146.273 282.623,146.273 283.711,145.181 L285.168,143.71 L272.677,131.119 L274.798,128.98 L287.294,141.571 L290.721,138.116 L278.226,125.525 L280.352,123.385 L292.843,135.976 L294.331,134.474 C295.406,133.391 295.406,131.647 294.331,130.564 L252.261,88.166 L254.123,86.291 Z" />
            <path d="M235.587,130.318 C234.513,131.402 234.513,133.145 235.587,134.228 L237.075,135.726 L249.571,123.14 L251.692,125.279 L239.197,137.87 L242.629,141.325 L255.12,128.734 L257.246,130.873 L244.75,143.464 L246.211,144.935 C247.295,146.027 249.066,146.027 250.153,144.935 L262.713,132.271 L248.182,117.627 L235.587,130.318 Z" />
            <path d="M276.888,82.416 C275.235,82.853 274.671,84.915 275.877,86.126 L277.657,87.924 L266.96,98.703 L281.494,113.347 L292.192,102.568 L294.013,104.407 C295.228,105.627 297.308,105.067 297.741,103.401 L304.023,79.129 C304.501,77.281 302.816,75.601 300.968,76.084 L276.888,82.416 Z" />
        </g>
        <g id="Regular-S">
            <path d="M454.123,86.291 C455.329,85.08 454.765,83.018 453.112,82.581 L429.032,76.249 C427.184,75.766 425.499,77.446 425.977,79.29 L432.259,103.566 C432.692,105.232 434.772,105.792 435.987,104.572 L437.731,102.815 L479.769,145.181 C480.857,146.273 482.623,146.273 483.711,145.181 L485.168,143.71 L472.677,131.119 L474.798,128.98 L487.294,141.571 L490.721,138.116 L478.226,125.525 L480.352,123.385 L492.843,135.976 L494.331,134.474 C495.406,133.391 495.406,131.647 494.331,130.564 L452.261,88.166 L454.123,86.291 Z" />
            <path d="M435.587,130.318 C434.513,131.402 434.513,133.145 435.587,134.228 L437.075,135.726 L449.571,123.14 L451.692,125.279 L439.197,137.87 L442.629,141.325 L455.12,128.734 L457.246,130.873 L444.75,143.464 L446.211,144.935 C447.295,146.027 449.066,146.027 450.153,144.935 L462.713,132.271 L448.182,117.627 L435.587,130.318 Z" />
            <path d="M476.888,82.416 C475.235,82.853 474.671,84.915 475.877,86.126 L477.657,87.924 L466.96,98.703 L481.494,113.347 L492.192,102.568 L494.013,104.407 C495.228,105.627 497.308,105.067 497.741,103.401 L504.023,79.129 C504.501,77.281 502.816,75.601 500.968,76.084 L476.888,82.416 Z" />
        </g>
        <g id="Black-S">
            <path d="M654.123,86.291 C655.329,85.08 654.765,83.018 653.112,82.581 L629.032,76.249 C627.184,75.766 625.499,77.446 625.977,79.29 L632.259,103.566 C632.692,105.232 634.772,105.792 635.987,104.572 L637.731,102.815 L679.769,145.181 C680.857,146.273 682.623,146.273 683.711,145.181 L685.168,143.71 L672.677,131.119 L674.798,128.98 L687.294,141.571 L690.721,138.116 L678.226,125.525 L680.352,123.385 L692.843,135.976 L694.331,134.474 C695.406,133.391 695.406,131.647 694.331,130.564 L652.261,88.166 L654.123,86.291 Z" />
            <path d="M635.587,130.318 C634.513,131.402 634.513,133.145 635.587,134.228 L637.075,135.726 L649.571,123.14 L651.692,125.279 L639.197,137.87 L642.629,141.325 L655.12,128.734 L657.246,130.873 L644.75,143.464 L646.211,144.935 C647.295,146.027 649.065,146.027 650.153,144.935 L662.713,132.271 L648.182,117.627 L635.587,130.318 Z" />
            <path d="M676.888,82.416 C675.235,82.853 674.671,84.915 675.877,86.126 L677.657,87.924 L666.96,98.703 L681.494,113.347 L692.192,102.568 L694.013,104.407 C695.228,105.627 697.308,105.067 697.741,103.401 L704.023,79.129 C704.501,77.281 702.816,75.601 700.968,76.084 L676.888,82.416 Z" />
        </g>
    </g>
</svg>