<?xml version="1.0" encoding="UTF-8"?>
<svg height="600" width="800" xmlns="http://www.w3.org/2000/svg" xmlns:xlink="http://www.w3.org/1999/xlink">
    <g id="Notes" font-family="'LucidaGrande', 'Lucida Grande', sans-serif" font-size="13">
        <rect fill="white" height="600.0" width="800.0" x="0.0" y="0.0" />
        <g font-size="13">
            <text x="18.0" y="176.0">Small</text>
            <text x="18.0" y="376.0">Medium</text>
            <text x="18.0" y="576.0">Large</text>
        </g>
        <g font-size="9">
            <text x="250.0" y="30.0">Ultralight</text>
            <text x="450.0" y="30.0">Regular</text>
            <text x="650.0" y="30.0">Black</text>
            <text id="template-version" fill="#505050" text-anchor="end" x="785.0" y="575.0">Template v.3.0</text>
            <a href="https://github.com/swhitty/SwiftDraw">
                <text fill="#505050" text-anchor="end" x="785.0" y="590.0">https://github.com/swhitty/SwiftDraw</text>
            </a>
        </g>
    </g>
    <g id="Guides" stroke="rgb(39, 170, 225)" stroke-width="0.5">
        <path id="Capline-S" d="M18,76 l800,0" />
        <path id="H-reference" d="M85,145.755 L87.685,145.755 L113.369,79.287 L114.052,79.287 L114.052,76 L112.148,76 L85,145.755 Z M95.693,121.536 L130.996,121.536 L130.263,119.313 L96.474,119.313 L95.693,121.536 Z M139.15,145.755 L141.787,145.755 L114.638,76 L113.466,76 L113.466,79.287 L139.15,145.755 Z" stroke="none" />
        <path id="Baseline-S" d="M18,146 l800,0" />
        <path id="left-margin-Ultralight-S" d="M213.523,56 l0,110" />
        <path id="right-margin-Ultralight-S" d="M316.477,56 l0,110" />
        <path id="left-margin-Regular-S" d="M413.523,56 l0,110" />
        <path id="right-margin-Regular-S" d="M516.477,56 l0,110" />
        <path id="left-margin-Black-S" d="M613.523,56 l0,110" />
        <path id="right-margin-Black-S" d="M716.477,56 l0,110" />
        <path id="Capline-M" d="M18,276 l800,0" />
        <path id="Baseline-M" d="M18,346 l800,0" />
        <path id="Capline-L" d="M18,476 l800,0" />
        <path id="Baseline-L" d="M18,546 l800,0" />
    </g>
    <g id="Symbols">
        <g id="Ultralight-S">
            <path d="M304.881,102.5 C308.612,108.893 304.881,113.453 303.009,115.058 C301.023,116.758 294.773,119.203 291.981,119.753 C291.597,119.828 291.304,120.131 291.247,120.512 L291.003,122.058 C290.939,122.491 291.185,122.908 291.602,123.061 C293.332,123.691 297.671,125.55 298.817,128.751 C299.538,130.766 299.484,132.337 299.201,133.462 C298.991,134.294 297.811,134.408 297.438,133.631 C296.803,132.308 295.649,130.805 293.684,130.805 C290.653,130.805 288.476,133.978 285.523,138.792 C281.857,144.773 274.098,142.222 272.192,141.481 C271.912,141.372 271.599,141.405 271.347,141.564 C270.354,142.194 267.769,143.884 265.615,145.769 C265.262,146.077 264.734,146.077 264.384,145.769 C262.229,143.884 259.645,142.194 258.652,141.564 C258.398,141.403 258.084,141.372 257.806,141.481 C255.898,142.222 248.142,144.773 244.476,138.792 C241.523,133.98 239.345,130.805 236.312,130.805 C234.349,130.805 233.196,132.308 232.558,133.631 C232.187,134.408 231.005,134.294 230.795,133.462 C230.513,132.337 230.461,130.766 231.181,128.751 C232.327,125.55 236.665,123.691 238.394,123.061 C238.811,122.905 239.06,122.488 238.993,122.058 L238.752,120.512 C238.692,120.134 238.399,119.828 238.018,119.753 C235.226,119.203 228.975,116.758 226.987,115.058 C225.12,113.458 221.387,108.895 225.12,102.505 C227.474,98.474 231.871,98.531 234.795,99.122 C235.672,99.298 235.817,100.467 235.011,100.848 C233.522,101.548 231.993,102.762 232.115,104.786 C232.351,108.745 236.141,108.955 237.774,108.857 C238.212,108.831 238.573,108.512 238.64,108.089 C239.304,103.905 239.032,96.869 238.879,93.983 C238.845,93.322 239.41,92.778 240.087,92.827 C241.769,92.952 243.322,92.882 244.312,92.804 C244.872,92.76 245.272,92.244 245.155,91.705 C244.038,86.569 246.143,81.64 250.306,80.139 C253.106,79.131 254.506,77.661 255.206,76.466 C255.611,75.776 256.671,75.872 256.917,76.632 C258.486,81.433 254.628,83.549 253.824,85.047 C253.028,86.535 254.2,87.824 254.931,88.435 C255.222,88.682 255.644,88.718 255.984,88.536 C259.93,86.475 262.994,83.466 264.306,82.06 C264.69,81.648 265.312,81.648 265.695,82.06 C267.002,83.466 270.066,86.475 274.017,88.536 C274.357,88.718 274.774,88.682 275.07,88.435 C275.798,87.824 276.97,86.535 276.177,85.047 C275.373,83.546 271.51,81.433 273.084,76.632 C273.33,75.87 274.388,75.776 274.793,76.466 C275.492,77.661 276.895,79.128 279.692,80.139 C283.859,81.64 285.961,86.569 284.844,91.705 C284.727,92.241 285.126,92.757 285.684,92.801 C286.715,92.882 288.359,92.954 290.122,92.806 C290.687,92.757 291.162,93.211 291.133,93.766 C290.983,96.498 290.679,103.775 291.359,108.071 C291.423,108.499 291.784,108.825 292.225,108.851 C293.858,108.95 297.645,108.742 297.884,104.781 C298.008,102.759 296.479,101.543 294.988,100.843 C294.182,100.462 294.33,99.293 295.203,99.117 C298.128,98.525 302.527,98.468 304.881,102.5 Z M265.042,122.965 C265.042,122.965 267.191,126.68 268.529,128.79 C269.41,128.79 273.056,128.907 279.228,128.79 C277.276,125.412 273.898,119.548 270.53,113.834 C273.631,108.582 276.623,103.41 278.614,100.034 C272.174,99.884 268.609,100.034 267.686,100.034 C266.696,101.686 265.042,104.561 265.042,104.561 C265.042,104.561 263.24,101.608 262.32,100.034 C261.397,100.034 257.832,99.884 251.431,100.034 C253.384,103.41 256.375,108.582 259.525,113.834 C256.108,119.548 252.699,125.412 250.778,128.79 C257.029,128.907 260.596,128.79 261.477,128.79 C262.823,126.641 265.042,122.965 265.042,122.965 Z" />
        </g>
        <g id="Regular-S">
            <path d="M504.881,102.5 C508.612,108.893 504.881,113.453 503.009,115.058 C501.023,116.758 494.773,119.203 491.981,119.753 C491.597,119.828 491.304,120.131 491.247,120.512 L491.003,122.058 C490.939,122.491 491.185,122.908 491.602,123.061 C493.332,123.691 497.671,125.55 498.817,128.751 C499.538,130.766 499.484,132.337 499.201,133.462 C498.991,134.294 497.811,134.408 497.438,133.631 C496.803,132.308 495.649,130.805 493.684,130.805 C490.653,130.805 488.476,133.978 485.523,138.792 C481.857,144.773 474.098,142.222 472.192,141.481 C471.912,141.372 471.599,141.405 471.347,141.564 C470.354,142.194 467.769,143.884 465.615,145.769 C465.262,146.077 464.734,146.077 464.384,145.769 C462.229,143.884 459.645,142.194 458.652,141.564 C458.398,141.403 458.084,141.372 457.806,141.481 C455.898,142.222 448.142,144.773 444.476,138.792 C441.523,133.98 439.345,130.805 436.312,130.805 C434.349,130.805 433.196,132.308 432.558,133.631 C432.187,134.408 431.005,134.294 430.795,133.462 C430.513,132.337 430.461,130.766 431.181,128.751 C432.327,125.55 436.665,123.691 438.394,123.061 C438.811,122.905 439.06,122.488 438.993,122.058 L438.752,120.512 C438.692,120.134 438.399,119.828 438.018,119.753 C435.226,119.203 428.975,116.758 426.987,115.058 C425.12,113.458 421.387,108.895 425.12,102.505 C427.474,98.474 431.871,98.531 434.795,99.122 C435.672,99.298 435.817,100.467 435.011,100.848 C433.522,101.548 431.993,102.762 432.115,104.786 C432.351,108.745 436.141,108.955 437.774,108.857 C438.212,108.831 438.573,108.512 438.64,108.089 C439.304,103.905 439.032,96.869 438.879,93.983 C438.845,93.322 439.41,92.778 440.087,92.827 C441.769,92.952 443.322,92.882 444.312,92.804 C444.872,92.76 445.272,92.244 445.155,91.705 C444.038,86.569 446.143,81.64 450.306,80.139 C453.106,79.131 454.506,77.661 455.206,76.466 C455.611,75.776 456.671,75.872 456.917,76.632 C458.486,81.433 454.628,83.549 453.824,85.047 C453.028,86.535 454.2,87.824 454.931,88.435 C455.222,88.682 455.644,88.718 455.984,88.536 C459.93,86.475 462.994,83.466 464.306,82.06 C464.69,81.648 465.312,81.648 465.695,82.06 C467.002,83.466 470.066,86.475 474.017,88.536 C474.357,88.718 474.774,88.682 475.07,88.435 C475.798,87.824 476.97,86.535 476.177,85.047 C475.373,83.546 471.51,81.433 473.084,76.632 C473.33,75.87 474.388,75.776 474.793,76.466 C475.492,77.661 476.895,79.128 479.692,80.139 C483.859,81.64 485.961,86.569 484.844,91.705 C484.727,92.241 485.126,92.757 485.684,92.801 C486.715,92.882 488.359,92.954 490.122,92.806 C490.687,92.757 491.162,93.211 491.133,93.766 C490.983,96.498 490.679,103.775 491.359,108.071 C491.423,108.499 491.784,108.825 492.225,108.851 C493.858,108.95 497.645,108.742 497.884,104.781 C498.008,102.759 496.479,101.543 494.988,100.843 C494.182,100.462 494.33,99.293 495.203,99.117 C498.128,98.525 502.527,98.468 504.881,102.5 Z M465.042,122.965 C465.042,122.965 467.191,126.68 468.529,128.79 C469.41,128.79 473.056,128.907 479.228,128.79 C477.276,125.412 473.898,119.548 470.53,113.834 C473.631,108.582 476.623,103.41 478.614,100.034 C472.174,99.884 468.609,100.034 467.686,100.034 C466.696,101.686 465.042,104.561 465.042,104.561 C465.042,104.561 463.24,101.608 462.32,100.034 C461.397,100.034 457.832,99.884 451.431,100.034 C453.384,103.41 456.375,108.582 459.525,113.834 C456.108,119.548 452.699,125.412 450.778,128.79 C457.029,128.907 460.596,128.79 461.477,128.79 C462.823,126.641 465.042,122.965 465.042,122.965 Z" />
        </g>
        <g id="Black-S">
            <path d="M704.881,102.5 C708.612,108.893 704.881,113.453 703.009,115.058 C701.023,116.758 694.773,119.203 691.981,119.753 C691.597,119.828 691.304,120.131 691.247,120.512 L691.003,122.058 C690.939,122.491 691.185,122.908 691.602,123.061 C693.332,123.691 697.671,125.55 698.817,128.751 C699.538,130.766 699.484,132.337 699.201,133.462 C698.991,134.294 697.811,134.408 697.438,133.631 C696.803,132.308 695.649,130.805 693.684,130.805 C690.654,130.805 688.476,133.978 685.523,138.792 C681.857,144.773 674.098,142.222 672.192,141.481 C671.912,141.372 671.599,141.405 671.347,141.564 C670.354,142.194 667.769,143.884 665.615,145.769 C665.263,146.077 664.734,146.077 664.384,145.769 C662.229,143.884 659.645,142.194 658.652,141.564 C658.398,141.403 658.084,141.372 657.806,141.481 C655.898,142.222 648.142,144.773 644.476,138.792 C641.523,133.98 639.345,130.805 636.312,130.805 C634.349,130.805 633.196,132.308 632.558,133.631 C632.187,134.408 631.005,134.294 630.795,133.462 C630.513,132.337 630.461,130.766 631.181,128.751 C632.327,125.55 636.665,123.691 638.394,123.061 C638.811,122.905 639.06,122.488 638.993,122.058 L638.752,120.512 C638.692,120.134 638.399,119.828 638.018,119.753 C635.226,119.203 628.975,116.758 626.987,115.058 C625.12,113.458 621.387,108.895 625.12,102.505 C627.474,98.474 631.871,98.531 634.795,99.122 C635.672,99.298 635.817,100.467 635.011,100.848 C633.522,101.548 631.993,102.762 632.115,104.786 C632.351,108.745 636.141,108.955 637.774,108.857 C638.212,108.831 638.573,108.512 638.64,108.089 C639.304,103.905 639.032,96.869 638.879,93.983 C638.845,93.322 639.41,92.778 640.087,92.827 C641.769,92.952 643.322,92.882 644.312,92.804 C644.872,92.76 645.272,92.244 645.155,91.705 C644.038,86.569 646.143,81.64 650.306,80.139 C653.106,79.131 654.506,77.661 655.206,76.466 C655.611,75.776 656.671,75.872 656.917,76.632 C658.486,81.433 654.628,83.549 653.824,85.047 C653.029,86.535 654.2,87.824 654.931,88.435 C655.222,88.682 655.644,88.718 655.984,88.536 C659.93,86.475 662.994,83.466 664.306,82.06 C664.69,81.648 665.312,81.648 665.695,82.06 C667.002,83.466 670.066,86.475 674.017,88.536 C674.357,88.718 674.774,88.682 675.07,88.435 C675.798,87.824 676.97,86.535 676.177,85.047 C675.373,83.546 671.51,81.433 673.084,76.632 C673.33,75.87 674.388,75.776 674.793,76.466 C675.493,77.661 676.895,79.128 679.692,80.139 C683.859,81.64 685.961,86.569 684.844,91.705 C684.727,92.241 685.126,92.757 685.684,92.801 C686.716,92.882 688.359,92.954 690.122,92.806 C690.687,92.757 691.162,93.211 691.133,93.766 C690.983,96.498 690.679,103.775 691.359,108.071 C691.423,108.499 691.784,108.825 692.225,108.851 C693.858,108.95 697.646,108.742 697.884,104.781 C698.008,102.759 696.479,101.543 694.988,100.843 C694.182,100.462 694.33,99.293 695.203,99.117 C698.128,98.525 702.527,98.468 704.881,102.5 Z M665.042,122.965 C665.042,122.965 667.191,126.68 668.529,128.79 C669.411,128.79 673.056,128.907 679.228,128.79 C677.276,125.412 673.898,119.548 670.531,113.834 C673.631,108.582 676.623,103.41 678.614,100.034 C672.174,99.884 668.609,100.034 667.687,100.034 C666.696,101.686 665.042,104.561 665.042,104.561 C665.042,104.561 663.24,101.608 662.32,100.034 C661.397,100.034 657.832,99.884 651.432,100.034 C653.384,103.41 656.375,108.582 659.525,113.834 C656.108,119.548 652.699,125.412 650.778,128.79 C657.029,128.907 660.596,128.79 661.477,128.79 C662.823,126.641 665.042,122.965 665.042,122.965 Z" />
        </g>
    </g>
</svg>