<?xml version="1.0" encoding="UTF-8"?>
<svg height="600" width="800" xmlns="http://www.w3.org/2000/svg" xmlns:xlink="http://www.w3.org/1999/xlink">
    <g id="Notes" font-family="'LucidaGrande', 'Lucida Grande', sans-serif" font-size="13">
        <rect fill="white" height="600.0" width="800.0" x="0.0" y="0.0" />
        <g font-size="13">
            <text x="18.0" y="176.0">Small</text>
            <text x="18.0" y="376.0">Medium</text>
            <text x="18.0" y="576.0">Large</text>
        </g>
        <g font-size="9">
            <text x="250.0" y="30.0">Ultralight</text>
            <text x="450.0" y="30.0">Regular</text>
            <text x="650.0" y="30.0">Black</text>
            <text id="template-version" fill="#505050" text-anchor="end" x="785.0" y="575.0">Template v.3.0</text>
            <a href="https://github.com/swhitty/SwiftDraw">
                <text fill="#505050" text-anchor="end" x="785.0" y="590.0">https://github.com/swhitty/SwiftDraw</text>
            </a>
        </g>
    </g>
    <g id="Guides" stroke="rgb(39, 170, 225)" stroke-width="0.5">
        <path id="Capline-S" d="M18,76 l800,0" />
        <path id="H-reference" d="M85,145.755 L87.685,145.755 L113.369,79.287 L114.052,79.287 L114.052,76 L112.148,76 L85,145.755 Z M95.693,121.536 L130.996,121.536 L130.263,119.313 L96.474,119.313 L95.693,121.536 Z M139.15,145.755 L141.787,145.755 L114.638,76 L113.466,76 L113.466,79.287 L139.15,145.755 Z" stroke="none" />
        <path id="Baseline-S" d="M18,146 l800,0" />
        <path id="left-margin-Ultralight-S" d="M219.16,56 l0,110" />
        <path id="right-margin-Ultralight-S" d="M310.84,56 l0,110" />
        <path id="left-margin-Regular-S" d="M419.16,56 l0,110" />
        <path id="right-margin-Regular-S" d="M510.84,56 l0,110" />
        <path id="left-margin-Black-S" d="M619.16,56 l0,110" />
        <path id="right-margin-Black-S" d="M710.84,56 l0,110" />
        <path id="Capline-M" d="M18,276 l800,0" />
        <path id="Baseline-M" d="M18,346 l800,0" />
        <path id="Capline-L" d="M18,476 l800,0" />
        <path id="Baseline-L" d="M18,546 l800,0" />
    </g>
    <g id="Symbols">
        <g id="Ultralight-S">
            <path d="M266.306,87.816 L266.883,89.825 C270.163,96.626 278.818,107.955 300.84,112.015 L290.193,146 L239.811,146 L229.16,112.015 C251.189,107.948 259.841,96.618 263.117,89.825 L263.702,87.816 L266.306,87.816 Z M266.306,76 L266.306,87.816 L281.965,81.723 L266.306,76 Z M273.999,138.727 C277.663,139.172 282.563,133.831 282.577,133.813 C277.289,133.029 273.159,131.535 269.949,129.792 C271.804,127.285 273.477,124.104 274.706,120.083 L277.372,121.836 C277.376,121.798 278.006,116.428 273.341,109.299 C273.341,109.299 270.254,116.604 266.242,119.288 L270.453,119.145 C270.387,119.326 269.102,122.792 265,126.372 C260.898,122.792 259.61,119.33 259.54,119.145 L263.758,119.288 C259.75,116.604 256.663,109.299 256.663,109.299 C251.994,116.425 252.624,121.798 252.631,121.836 L255.295,120.083 C256.526,124.104 258.199,127.282 260.055,129.792 C256.845,131.538 252.715,133.029 247.426,133.813 C247.441,133.827 252.337,139.172 256.001,138.727 C257.836,138.51 261.36,137.551 265,134.818 C268.64,137.551 272.168,138.51 273.999,138.727 Z" />
        </g>
        <g id="Regular-S">
            <path d="M466.306,87.816 L466.883,89.825 C470.163,96.626 478.818,107.955 500.84,112.015 L490.193,146 L439.811,146 L429.16,112.015 C451.189,107.948 459.841,96.618 463.117,89.825 L463.702,87.816 L466.306,87.816 Z M466.306,76 L466.306,87.816 L481.965,81.723 L466.306,76 Z M473.999,138.727 C477.663,139.172 482.563,133.831 482.577,133.813 C477.289,133.029 473.159,131.535 469.949,129.792 C471.804,127.285 473.477,124.104 474.706,120.083 L477.372,121.836 C477.376,121.798 478.006,116.428 473.341,109.299 C473.341,109.299 470.254,116.604 466.242,119.288 L470.453,119.145 C470.387,119.326 469.102,122.792 465,126.372 C460.898,122.792 459.61,119.33 459.54,119.145 L463.758,119.288 C459.75,116.604 456.663,109.299 456.663,109.299 C451.994,116.425 452.624,121.798 452.631,121.836 L455.294,120.083 C456.526,124.104 458.199,127.282 460.055,129.792 C456.845,131.538 452.715,133.029 447.427,133.813 C447.44,133.827 452.337,139.172 456.001,138.727 C457.836,138.51 461.36,137.551 465,134.818 C468.64,137.551 472.168,138.51 473.999,138.727 Z" />
        </g>
        <g id="Black-S">
            <path d="M666.305,87.816 L666.883,89.825 C670.162,96.626 678.818,107.955 700.84,112.015 L690.193,146 L639.81,146 L629.16,112.015 C651.189,107.948 659.841,96.618 663.117,89.825 L663.701,87.816 L666.305,87.816 Z M666.305,76 L666.305,87.816 L681.964,81.723 L666.305,76 Z M673.998,138.727 C677.663,139.172 682.563,133.831 682.577,133.813 C677.288,133.029 673.158,131.535 669.949,129.792 C671.804,127.285 673.477,124.104 674.705,120.083 L677.372,121.836 C677.376,121.798 678.006,116.428 673.34,109.299 C673.34,109.299 670.253,116.604 666.242,119.288 L670.453,119.145 C670.386,119.326 669.102,122.792 665,126.372 C660.898,122.792 659.61,119.33 659.54,119.145 L663.757,119.288 C659.75,116.604 656.663,109.299 656.663,109.299 C651.994,116.425 652.624,121.798 652.631,121.836 L655.294,120.083 C656.526,124.104 658.199,127.282 660.055,129.792 C656.845,131.538 652.715,133.029 647.426,133.813 C647.44,133.827 652.337,139.172 656.001,138.727 C657.835,138.51 661.36,137.551 665,134.818 C668.64,137.551 672.168,138.51 673.998,138.727 Z" />
        </g>
    </g>
</svg>