<?xml version="1.0" encoding="UTF-8"?>
<svg height="600" width="800" xmlns="http://www.w3.org/2000/svg" xmlns:xlink="http://www.w3.org/1999/xlink">
    <g id="Notes" font-family="'LucidaGrande', 'Lucida Grande', sans-serif" font-size="13">
        <rect fill="white" height="600.0" width="800.0" x="0.0" y="0.0" />
        <g font-size="13">
            <text x="18.0" y="176.0">Small</text>
            <text x="18.0" y="376.0">Medium</text>
            <text x="18.0" y="576.0">Large</text>
        </g>
        <g font-size="9">
            <text x="250.0" y="30.0">Ultralight</text>
            <text x="450.0" y="30.0">Regular</text>
            <text x="650.0" y="30.0">Black</text>
            <text id="template-version" fill="#505050" text-anchor="end" x="785.0" y="575.0">Template v.3.0</text>
            <a href="https://github.com/swhitty/SwiftDraw">
                <text fill="#505050" text-anchor="end" x="785.0" y="590.0">https://github.com/swhitty/SwiftDraw</text>
            </a>
        </g>
    </g>
    <g id="Guides" stroke="rgb(39, 170, 225)" stroke-width="0.5">
        <path id="Capline-S" d="M18,76 l800,0" />
        <path id="H-reference" d="M85,145.755 L87.685,145.755 L113.369,79.287 L114.052,79.287 L114.052,76 L112.148,76 L85,145.755 Z M95.693,121.536 L130.996,121.536 L130.263,119.313 L96.474,119.313 L95.693,121.536 Z M139.15,145.755 L141.787,145.755 L114.638,76 L113.466,76 L113.466,79.287 L139.15,145.755 Z" stroke="none" />
        <path id="Baseline-S" d="M18,146 l800,0" />
        <path id="left-margin-Ultralight-S" d="M220,56 l0,110" />
        <path id="right-margin-Ultralight-S" d="M310,56 l0,110" />
        <path id="left-margin-Regular-S" d="M420,56 l0,110" />
        <path id="right-margin-Regular-S" d="M510,56 l0,110" />
        <path id="left-margin-Black-S" d="M620,56 l0,110" />
        <path id="right-margin-Black-S" d="M710,56 l0,110" />
        <path id="Capline-M" d="M18,276 l800,0" />
        <path id="Baseline-M" d="M18,346 l800,0" />
        <path id="Capline-L" d="M18,476 l800,0" />
        <path id="Baseline-L" d="M18,546 l800,0" />
    </g>
    <g id="Symbols">
        <g id="Ultralight-S">
            <path d="M265,76 C284.316,76 300,91.684 300,111 C300,130.316 284.316,146 265,146 C245.684,146 230,130.316 230,111 C230,91.684 245.684,76 265,76 Z M270.522,121.656 C270.406,121.344 270.328,121.033 270.25,120.703 C269.842,118.836 269.822,116.308 269.822,115.628 L269.744,115.628 C268.772,117.242 266.964,118.506 266.964,118.506 L266.964,118.486 L266.867,117.708 C267.547,117.378 268.422,116.231 268.422,116.231 L267.703,110.281 L267.489,110.281 C266.439,112.808 264.261,114.811 264.261,114.811 L264.261,118.408 L264.222,123.892 C267.567,123.989 270.483,121.694 270.522,121.656 Z M276.064,129.55 C278.164,131.164 283.044,132.953 288.644,127.003 C293.875,121.461 292.825,115.608 292.669,114.831 L292.669,114.772 C287.944,111.447 281.45,114.267 281.45,114.267 L281.45,114.597 C282.247,114.5 283.997,114.889 284.211,115.997 L284.211,116.133 C284.386,117.961 282.228,119.847 280.731,119.575 C279.661,119.381 278.144,119.031 276.9,113.469 C276.278,110.728 276.492,108.919 276.861,107.772 C277.269,106.469 278.261,105.556 278.494,106.508 C278.572,106.761 278.572,107.169 278.494,107.753 C278.339,108.939 277.717,109.911 277.075,110.475 C276.939,110.903 277.075,111.817 277.269,112.692 C277.522,113.839 277.872,114.947 277.872,114.947 C282.364,109.736 283.336,105.264 282.869,102.892 C282.753,102.308 282.539,101.842 282.267,101.531 C281.003,100.131 278.397,100.228 275.344,103.086 C275.111,103.3 274.878,103.533 274.644,103.767 C273.303,105.186 272.292,106.606 271.592,108.356 C270.717,110.514 270.347,113.158 270.503,116.853 C270.561,118.097 270.717,119.264 270.95,120.353 C271.961,125.078 274.411,128.267 276.044,129.511 L276.064,129.55 Z M258.603,111.117 L264.125,113.469 L264.222,113.275 C262.569,111.117 261.908,108.219 261.908,108.219 L259.283,106.683 L254.053,103.631 C252.283,106.508 252.828,110.203 252.828,110.203 C254.753,110.533 257.728,112.225 258.408,112.633 L258.467,112.575 C257.533,110.903 257.339,108.706 257.339,108.706 L258.058,108.997 C258,109.756 258.564,111.078 258.564,111.078 L258.603,111.117 Z M264.203,124.436 L263.658,124.436 L263.697,117.669 C262.258,115.9 260.178,114.286 256.989,112.614 C253.664,110.864 250.475,110.3 247.889,110.281 C245.886,110.281 244.253,110.631 243.242,111.058 C240.792,112.069 236.806,115.394 239.158,123.231 C241.492,131.008 247.675,132.797 247.772,132.817 C253.003,130.386 253.819,123.367 253.819,123.367 L253.528,123.172 C253.236,123.833 252.283,124.922 251.35,124.942 C251.175,124.942 250.981,124.903 250.825,124.825 C249.172,124.067 248.608,121.247 249.581,120.1 C250.028,119.575 250.592,118.953 252.303,118.953 C253.314,118.953 254.753,119.206 256.794,119.828 C259.458,120.664 260.917,121.733 261.714,122.628 C262.55,123.542 262.881,124.728 262.2,124.728 C261.928,124.728 261.519,124.533 260.917,124.067 C259.964,123.328 259.439,122.317 259.264,121.481 C258.583,120.722 255.044,119.944 254.967,119.925 C257.631,127.567 261.85,130.483 264.008,130.464 C264.144,130.464 264.281,130.464 264.417,130.425 C266.206,130.036 267.392,127.897 266.633,124.125 C265.856,124.319 265.039,124.417 264.242,124.397 L264.203,124.436 Z M268.325,105.458 L263.522,109.075 L263.639,109.25 C266.342,108.9 269.161,109.775 269.161,109.775 L270.872,108.803 C271.611,106.606 272.778,104.972 274.256,103.417 C274.489,103.183 274.703,102.95 274.936,102.736 C273.458,101.511 271.981,100.928 271.981,100.928 C270.736,102.425 267.781,104.175 267.081,104.564 L267.081,104.642 C269.006,104.661 271.008,105.594 271.008,105.594 L270.386,106.061 C269.764,105.633 268.325,105.458 268.325,105.458 Z M252.594,105.711 C252.808,104.875 253.139,104.078 253.586,103.358 L253.858,102.911 L260.158,106.586 C262.394,106.217 264.786,105.225 267.8,103.319 C273.439,99.742 275.694,94.686 276.025,92.178 C276.356,89.553 275.481,84.439 267.528,82.553 C259.575,80.667 254.908,85.217 254.908,85.217 C254.403,90.953 260.081,95.172 260.081,95.172 L260.392,95.017 C259.886,94.336 259.303,92.528 260.294,91.828 C261.792,90.778 264.494,91.692 265.019,93.111 C265.389,94.142 265.836,95.619 261.656,99.469 C259.614,101.356 257.942,102.075 256.756,102.328 C255.064,102.697 253.411,101.958 255.9,100.928 C257.008,100.481 258.156,100.519 258.953,100.792 C259.964,100.578 262.453,97.856 262.453,97.856 C253.975,96.242 249.269,98.847 248.628,100.792 C248.083,102.444 249.231,104.467 252.556,105.711 L252.594,105.711 Z" />
        </g>
        <g id="Regular-S">
            <path d="M465,76 C484.316,76 500,91.684 500,111 C500,130.316 484.316,146 465,146 C445.684,146 430,130.316 430,111 C430,91.684 445.684,76 465,76 Z M470.522,121.656 C470.406,121.344 470.328,121.033 470.25,120.703 C469.842,118.836 469.822,116.308 469.822,115.628 L469.744,115.628 C468.772,117.242 466.964,118.506 466.964,118.506 L466.964,118.486 L466.867,117.708 C467.547,117.378 468.422,116.231 468.422,116.231 L467.703,110.281 L467.489,110.281 C466.439,112.808 464.261,114.811 464.261,114.811 L464.261,118.408 L464.222,123.892 C467.567,123.989 470.483,121.694 470.522,121.656 Z M476.064,129.55 C478.164,131.164 483.044,132.953 488.644,127.003 C493.875,121.461 492.825,115.608 492.669,114.831 L492.669,114.772 C487.944,111.447 481.45,114.267 481.45,114.267 L481.45,114.597 C482.247,114.5 483.997,114.889 484.211,115.997 L484.211,116.133 C484.386,117.961 482.228,119.847 480.731,119.575 C479.661,119.381 478.144,119.031 476.9,113.469 C476.278,110.728 476.492,108.919 476.861,107.772 C477.269,106.469 478.261,105.556 478.494,106.508 C478.572,106.761 478.572,107.169 478.494,107.753 C478.339,108.939 477.717,109.911 477.075,110.475 C476.939,110.903 477.075,111.817 477.269,112.692 C477.522,113.839 477.872,114.947 477.872,114.947 C482.364,109.736 483.336,105.264 482.869,102.892 C482.753,102.308 482.539,101.842 482.267,101.531 C481.003,100.131 478.397,100.228 475.344,103.086 C475.111,103.3 474.878,103.533 474.644,103.767 C473.303,105.186 472.292,106.606 471.592,108.356 C470.717,110.514 470.347,113.158 470.503,116.853 C470.561,118.097 470.717,119.264 470.95,120.353 C471.961,125.078 474.411,128.267 476.044,129.511 L476.064,129.55 Z M458.603,111.117 L464.125,113.469 L464.222,113.275 C462.569,111.117 461.908,108.219 461.908,108.219 L459.283,106.683 L454.053,103.631 C452.283,106.508 452.828,110.203 452.828,110.203 C454.753,110.533 457.728,112.225 458.408,112.633 L458.467,112.575 C457.533,110.903 457.339,108.706 457.339,108.706 L458.058,108.997 C458,109.756 458.564,111.078 458.564,111.078 L458.603,111.117 Z M464.203,124.436 L463.658,124.436 L463.697,117.669 C462.258,115.9 460.178,114.286 456.989,112.614 C453.664,110.864 450.475,110.3 447.889,110.281 C445.886,110.281 444.253,110.631 443.242,111.058 C440.792,112.069 436.806,115.394 439.158,123.231 C441.492,131.008 447.675,132.797 447.772,132.817 C453.003,130.386 453.819,123.367 453.819,123.367 L453.528,123.172 C453.236,123.833 452.283,124.922 451.35,124.942 C451.175,124.942 450.981,124.903 450.825,124.825 C449.172,124.067 448.608,121.247 449.581,120.1 C450.028,119.575 450.592,118.953 452.303,118.953 C453.314,118.953 454.753,119.206 456.794,119.828 C459.458,120.664 460.917,121.733 461.714,122.628 C462.55,123.542 462.881,124.728 462.2,124.728 C461.928,124.728 461.519,124.533 460.917,124.067 C459.964,123.328 459.439,122.317 459.264,121.481 C458.583,120.722 455.044,119.944 454.967,119.925 C457.631,127.567 461.85,130.483 464.008,130.464 C464.144,130.464 464.281,130.464 464.417,130.425 C466.206,130.036 467.392,127.897 466.633,124.125 C465.856,124.319 465.039,124.417 464.242,124.397 L464.203,124.436 Z M468.325,105.458 L463.522,109.075 L463.639,109.25 C466.342,108.9 469.161,109.775 469.161,109.775 L470.872,108.803 C471.611,106.606 472.778,104.972 474.256,103.417 C474.489,103.183 474.703,102.95 474.936,102.736 C473.458,101.511 471.981,100.928 471.981,100.928 C470.736,102.425 467.781,104.175 467.081,104.564 L467.081,104.642 C469.006,104.661 471.008,105.594 471.008,105.594 L470.386,106.061 C469.764,105.633 468.325,105.458 468.325,105.458 Z M452.594,105.711 C452.808,104.875 453.139,104.078 453.586,103.358 L453.858,102.911 L460.158,106.586 C462.394,106.217 464.786,105.225 467.8,103.319 C473.439,99.742 475.694,94.686 476.025,92.178 C476.356,89.553 475.481,84.439 467.528,82.553 C459.575,80.667 454.908,85.217 454.908,85.217 C454.403,90.953 460.081,95.172 460.081,95.172 L460.392,95.017 C459.886,94.336 459.303,92.528 460.294,91.828 C461.792,90.778 464.494,91.692 465.019,93.111 C465.389,94.142 465.836,95.619 461.656,99.469 C459.614,101.356 457.942,102.075 456.756,102.328 C455.064,102.697 453.411,101.958 455.9,100.928 C457.008,100.481 458.156,100.519 458.953,100.792 C459.964,100.578 462.453,97.856 462.453,97.856 C453.975,96.242 449.269,98.847 448.628,100.792 C448.083,102.444 449.231,104.467 452.556,105.711 L452.594,105.711 Z" />
        </g>
        <g id="Black-S">
            <path d="M665,76 C684.316,76 700,91.684 700,111 C700,130.316 684.316,146 665,146 C645.684,146 630,130.316 630,111 C630,91.684 645.684,76 665,76 Z M670.522,121.656 C670.406,121.344 670.328,121.033 670.25,120.703 C669.842,118.836 669.822,116.308 669.822,115.628 L669.744,115.628 C668.772,117.242 666.964,118.506 666.964,118.506 L666.964,118.486 L666.867,117.708 C667.547,117.378 668.422,116.231 668.422,116.231 L667.703,110.281 L667.489,110.281 C666.439,112.808 664.261,114.811 664.261,114.811 L664.261,118.408 L664.222,123.892 C667.567,123.989 670.483,121.694 670.522,121.656 Z M676.064,129.55 C678.164,131.164 683.044,132.953 688.644,127.003 C693.875,121.461 692.825,115.608 692.669,114.831 L692.669,114.772 C687.944,111.447 681.45,114.267 681.45,114.267 L681.45,114.597 C682.247,114.5 683.997,114.889 684.211,115.997 L684.211,116.133 C684.386,117.961 682.228,119.847 680.731,119.575 C679.661,119.381 678.144,119.031 676.9,113.469 C676.278,110.728 676.492,108.919 676.861,107.772 C677.269,106.469 678.261,105.556 678.494,106.508 C678.572,106.761 678.572,107.169 678.494,107.753 C678.339,108.939 677.717,109.911 677.075,110.475 C676.939,110.903 677.075,111.817 677.269,112.692 C677.522,113.839 677.872,114.947 677.872,114.947 C682.364,109.736 683.336,105.264 682.869,102.892 C682.753,102.308 682.539,101.842 682.267,101.531 C681.003,100.131 678.397,100.228 675.344,103.086 C675.111,103.3 674.878,103.533 674.644,103.767 C673.303,105.186 672.292,106.606 671.592,108.356 C670.717,110.514 670.347,113.158 670.503,116.853 C670.561,118.097 670.717,119.264 670.95,120.353 C671.961,125.078 674.411,128.267 676.044,129.511 L676.064,129.55 Z M658.603,111.117 L664.125,113.469 L664.222,113.275 C662.569,111.117 661.908,108.219 661.908,108.219 L659.283,106.683 L654.053,103.631 C652.283,106.508 652.828,110.203 652.828,110.203 C654.753,110.533 657.728,112.225 658.408,112.633 L658.467,112.575 C657.533,110.903 657.339,108.706 657.339,108.706 L658.058,108.997 C658,109.756 658.564,111.078 658.564,111.078 L658.603,111.117 Z M664.203,124.436 L663.658,124.436 L663.697,117.669 C662.258,115.9 660.178,114.286 656.989,112.614 C653.664,110.864 650.475,110.3 647.889,110.281 C645.886,110.281 644.253,110.631 643.242,111.058 C640.792,112.069 636.806,115.394 639.158,123.231 C641.492,131.008 647.675,132.797 647.772,132.817 C653.003,130.386 653.819,123.367 653.819,123.367 L653.528,123.172 C653.236,123.833 652.283,124.922 651.35,124.942 C651.175,124.942 650.981,124.903 650.825,124.825 C649.172,124.067 648.608,121.247 649.581,120.1 C650.028,119.575 650.592,118.953 652.303,118.953 C653.314,118.953 654.753,119.206 656.794,119.828 C659.458,120.664 660.917,121.733 661.714,122.628 C662.55,123.542 662.881,124.728 662.2,124.728 C661.928,124.728 661.519,124.533 660.917,124.067 C659.964,123.328 659.439,122.317 659.264,121.481 C658.583,120.722 655.044,119.944 654.967,119.925 C657.631,127.567 661.85,130.483 664.008,130.464 C664.144,130.464 664.281,130.464 664.417,130.425 C666.206,130.036 667.392,127.897 666.633,124.125 C665.856,124.319 665.039,124.417 664.242,124.397 L664.203,124.436 Z M668.325,105.458 L663.522,109.075 L663.639,109.25 C666.342,108.9 669.161,109.775 669.161,109.775 L670.872,108.803 C671.611,106.606 672.778,104.972 674.256,103.417 C674.489,103.183 674.703,102.95 674.936,102.736 C673.458,101.511 671.981,100.928 671.981,100.928 C670.736,102.425 667.781,104.175 667.081,104.564 L667.081,104.642 C669.006,104.661 671.008,105.594 671.008,105.594 L670.386,106.061 C669.764,105.633 668.325,105.458 668.325,105.458 Z M652.594,105.711 C652.808,104.875 653.139,104.078 653.586,103.358 L653.858,102.911 L660.158,106.586 C662.394,106.217 664.786,105.225 667.8,103.319 C673.439,99.742 675.694,94.686 676.025,92.178 C676.356,89.553 675.481,84.439 667.528,82.553 C659.575,80.667 654.908,85.217 654.908,85.217 C654.403,90.953 660.081,95.172 660.081,95.172 L660.392,95.017 C659.886,94.336 659.303,92.528 660.294,91.828 C661.792,90.778 664.494,91.692 665.019,93.111 C665.389,94.142 665.836,95.619 661.656,99.469 C659.614,101.356 657.942,102.075 656.756,102.328 C655.064,102.697 653.411,101.958 655.9,100.928 C657.008,100.481 658.156,100.519 658.953,100.792 C659.964,100.578 662.453,97.856 662.453,97.856 C653.975,96.242 649.269,98.847 648.628,100.792 C648.083,102.444 649.231,104.467 652.556,105.711 L652.594,105.711 Z" />
        </g>
    </g>
</svg>