<?xml version="1.0" encoding="UTF-8"?>
<svg height="600" width="800" xmlns="http://www.w3.org/2000/svg" xmlns:xlink="http://www.w3.org/1999/xlink">
    <style>
        .multicolor-0:orange { fill:#E6A100; opacity:1.0 }
    </style>
    <g id="Notes" font-family="'LucidaGrande', 'Lucida Grande', sans-serif" font-size="13">
        <rect fill="white" height="600.0" width="800.0" x="0.0" y="0.0" />
        <g font-size="13">
            <text x="18.0" y="176.0">Small</text>
            <text x="18.0" y="376.0">Medium</text>
            <text x="18.0" y="576.0">Large</text>
        </g>
        <g font-size="9">
            <text x="250.0" y="30.0">Ultralight</text>
            <text x="450.0" y="30.0">Regular</text>
            <text x="650.0" y="30.0">Black</text>
            <text id="template-version" fill="#505050" text-anchor="end" x="785.0" y="575.0">Template v.3.0</text>
            <a href="https://github.com/swhitty/SwiftDraw">
                <text fill="#505050" text-anchor="end" x="785.0" y="590.0">https://github.com/swhitty/SwiftDraw</text>
            </a>
        </g>
    </g>
    <g id="Guides" stroke="rgb(39, 170, 225)" stroke-width="0.5">
        <path id="Capline-S" d="M18,76 l800,0" />
        <path id="H-reference" d="M85,145.755 L87.685,145.755 L113.369,79.287 L114.052,79.287 L114.052,76 L112.148,76 L85,145.755 Z M95.693,121.536 L130.996,121.536 L130.263,119.313 L96.474,119.313 L95.693,121.536 Z M139.15,145.755 L141.787,145.755 L114.638,76 L113.466,76 L113.466,79.287 L139.15,145.755 Z" stroke="none" />
        <path id="Baseline-S" d="M18,146 l800,0" />
        <path id="left-margin-Ultralight-S" d="M211.906,56 l0,110" />
        <path id="right-margin-Ultralight-S" d="M318.094,56 l0,110" />
        <path id="left-margin-Regular-S" d="M411.906,56 l0,110" />
        <path id="right-margin-Regular-S" d="M518.094,56 l0,110" />
        <path id="left-margin-Black-S" d="M611.906,56 l0,110" />
        <path id="right-margin-Black-S" d="M718.094,56 l0,110" />
        <path id="Capline-M" d="M18,276 l800,0" />
        <path id="Baseline-M" d="M18,346 l800,0" />
        <path id="Capline-L" d="M18,476 l800,0" />
        <path id="Baseline-L" d="M18,546 l800,0" />
    </g>
    <g id="Symbols">
        <g id="Ultralight-S">
            <path class="multicolor-0:orange" d="M234.362,96.483 C238.608,91.774 243.731,87.668 249.579,84.288 C255.432,80.914 261.542,78.531 267.743,77.211 C273.294,76.028 278.789,75.71 284.078,76.264 C288.883,76.773 293.401,78.017 297.144,79.866 C301.138,81.84 304.151,84.45 305.863,87.406 C307.571,90.368 308.321,94.282 308.034,98.73 C307.767,102.895 306.583,107.434 304.619,111.846 C302.458,116.707 299.436,121.306 295.638,125.517 C291.392,130.226 286.274,134.332 280.421,137.712 C274.568,141.086 268.458,143.469 262.257,144.789 C256.706,145.972 251.211,146.29 245.922,145.736 C241.117,145.227 236.598,143.983 232.856,142.134 C228.862,140.16 225.849,137.55 224.137,134.594 C222.429,131.632 221.679,127.718 221.966,123.27 C222.233,119.105 223.416,114.566 225.381,110.154 C227.542,105.293 230.564,100.694 234.362,96.483 Z M276.673,82.027 C280.743,86.832 284.481,92.121 287.795,97.863 C291.1,103.585 293.809,109.459 295.93,115.367 C302.478,105.248 303.42,95.113 300.69,90.393 C297.965,85.669 288.717,81.417 276.673,82.027 Z M253.649,139.953 C249.554,135.128 245.791,129.808 242.457,124.036 C239.117,118.253 236.387,112.32 234.256,106.346 C227.542,116.561 226.555,126.842 229.31,131.607 C232.06,136.372 241.449,140.658 253.649,139.953 Z M250.823,94.886 C250.063,95.219 249.72,96.1 250.047,96.861 C250.42,97.707 250.823,98.579 251.241,99.45 C249.438,100.921 247.72,102.553 246.078,104.311 C245.821,103.58 245.58,102.845 245.363,102.105 C245.131,101.309 244.295,100.855 243.504,101.087 C242.708,101.324 242.255,102.155 242.487,102.951 C242.875,104.26 243.323,105.565 243.827,106.844 C242.547,108.356 241.308,109.932 240.094,111.564 C238.885,113.191 239.369,114.602 240.809,113.468 C242.265,112.335 243.741,111.201 245.247,110.083 C245.665,110.94 246.108,111.766 246.572,112.561 C246.985,113.277 247.907,113.524 248.622,113.105 C249.337,112.687 249.579,111.771 249.161,111.055 C248.652,110.179 248.164,109.252 247.715,108.29 C249.65,106.91 251.639,105.55 253.699,104.225 C254.072,104.91 254.45,105.58 254.828,106.235 C255.246,106.95 256.157,107.197 256.878,106.784 C257.593,106.371 257.84,105.454 257.427,104.734 C257.029,104.049 256.631,103.344 256.238,102.623 C257.235,102.014 258.248,101.409 259.28,100.815 C260.308,100.221 261.336,99.646 262.363,99.092 C262.786,99.787 263.199,100.488 263.597,101.173 C264.01,101.888 264.927,102.135 265.642,101.722 C266.363,101.309 266.609,100.392 266.191,99.672 C265.813,99.022 265.421,98.357 265.018,97.687 C267.194,96.569 269.37,95.526 271.536,94.539 C272.14,95.41 272.699,96.292 273.203,97.173 C273.616,97.894 274.533,98.14 275.248,97.732 C275.968,97.319 276.215,96.403 275.807,95.687 C275.349,94.886 274.85,94.091 274.321,93.3 C276.044,92.554 277.761,91.839 279.469,91.149 C281.171,90.469 280.189,89.346 278.174,89.577 C276.16,89.814 274.17,90.096 272.226,90.449 C271.369,89.371 270.463,88.328 269.521,87.341 C268.952,86.741 268,86.721 267.4,87.291 C266.801,87.86 266.781,88.812 267.35,89.411 C267.884,89.965 268.403,90.544 268.906,91.134 C266.559,91.678 264.287,92.348 262.111,93.174 C261.567,92.378 261.013,91.592 260.464,90.847 C259.97,90.182 259.034,90.036 258.369,90.529 C257.699,91.018 257.558,91.955 258.046,92.625 C258.464,93.189 258.882,93.773 259.296,94.373 C258.313,94.831 257.356,95.335 256.424,95.879 C255.487,96.413 254.576,96.992 253.684,97.611 C253.372,96.952 253.075,96.297 252.793,95.657 C252.465,94.896 251.579,94.554 250.823,94.886 Z" />
        </g>
        <g id="Regular-S">
            <path class="multicolor-0:orange" d="M434.362,96.483 C438.608,91.774 443.731,87.668 449.579,84.288 C455.432,80.914 461.542,78.531 467.743,77.211 C473.294,76.028 478.789,75.71 484.078,76.264 C488.883,76.773 493.401,78.017 497.144,79.866 C501.138,81.84 504.151,84.45 505.863,87.406 C507.571,90.368 508.321,94.282 508.034,98.73 C507.767,102.895 506.583,107.434 504.619,111.846 C502.458,116.707 499.436,121.306 495.638,125.517 C491.392,130.226 486.274,134.332 480.421,137.712 C474.568,141.086 468.458,143.469 462.257,144.789 C456.706,145.972 451.211,146.29 445.922,145.736 C441.117,145.227 436.598,143.983 432.856,142.134 C428.862,140.16 425.849,137.55 424.137,134.594 C422.429,131.632 421.679,127.718 421.966,123.27 C422.233,119.105 423.416,114.566 425.381,110.154 C427.542,105.293 430.564,100.694 434.362,96.483 Z M476.673,82.027 C480.743,86.832 484.481,92.121 487.795,97.863 C491.1,103.585 493.809,109.459 495.93,115.367 C502.478,105.248 503.42,95.113 500.69,90.393 C497.965,85.669 488.717,81.417 476.673,82.027 Z M453.649,139.953 C449.554,135.128 445.791,129.808 442.457,124.036 C439.117,118.253 436.387,112.32 434.256,106.346 C427.542,116.561 426.555,126.842 429.31,131.607 C432.06,136.372 441.449,140.658 453.649,139.953 Z M450.823,94.886 C450.063,95.219 449.72,96.1 450.047,96.861 C450.42,97.707 450.823,98.579 451.241,99.45 C449.438,100.921 447.72,102.553 446.078,104.311 C445.821,103.58 445.58,102.845 445.363,102.105 C445.131,101.309 444.295,100.855 443.504,101.087 C442.708,101.324 442.255,102.155 442.487,102.951 C442.875,104.26 443.323,105.565 443.827,106.844 C442.547,108.356 441.308,109.932 440.094,111.564 C438.885,113.191 439.369,114.602 440.809,113.468 C442.265,112.335 443.741,111.201 445.247,110.083 C445.665,110.94 446.108,111.766 446.572,112.561 C446.985,113.277 447.907,113.524 448.622,113.105 C449.337,112.687 449.579,111.771 449.161,111.055 C448.652,110.179 448.164,109.252 447.715,108.29 C449.65,106.91 451.639,105.55 453.699,104.225 C454.072,104.91 454.45,105.58 454.828,106.235 C455.246,106.95 456.157,107.197 456.878,106.784 C457.593,106.371 457.84,105.454 457.427,104.734 C457.029,104.049 456.631,103.344 456.238,102.623 C457.235,102.014 458.248,101.409 459.28,100.815 C460.308,100.221 461.336,99.646 462.363,99.092 C462.786,99.787 463.199,100.488 463.597,101.173 C464.01,101.888 464.927,102.135 465.642,101.722 C466.363,101.309 466.609,100.392 466.191,99.672 C465.813,99.022 465.421,98.357 465.018,97.687 C467.194,96.569 469.37,95.526 471.536,94.539 C472.14,95.41 472.699,96.292 473.203,97.173 C473.616,97.894 474.533,98.14 475.248,97.732 C475.968,97.319 476.215,96.403 475.807,95.687 C475.349,94.886 474.85,94.091 474.321,93.3 C476.044,92.554 477.761,91.839 479.469,91.149 C481.171,90.469 480.189,89.346 478.174,89.577 C476.16,89.814 474.17,90.096 472.226,90.449 C471.369,89.371 470.463,88.328 469.521,87.341 C468.952,86.741 468,86.721 467.4,87.291 C466.801,87.86 466.781,88.812 467.35,89.411 C467.884,89.965 468.403,90.544 468.906,91.134 C466.559,91.678 464.287,92.348 462.111,93.174 C461.567,92.378 461.013,91.592 460.464,90.847 C459.97,90.182 459.034,90.036 458.369,90.529 C457.699,91.018 457.558,91.955 458.046,92.625 C458.464,93.189 458.882,93.773 459.296,94.373 C458.313,94.831 457.356,95.335 456.424,95.879 C455.487,96.413 454.576,96.992 453.684,97.611 C453.372,96.952 453.075,96.297 452.793,95.657 C452.465,94.896 451.579,94.554 450.823,94.886 Z" />
        </g>
        <g id="Black-S">
            <path class="multicolor-0:orange" d="M634.362,96.483 C638.608,91.774 643.731,87.668 649.579,84.288 C655.432,80.914 661.542,78.531 667.743,77.211 C673.294,76.028 678.789,75.71 684.078,76.264 C688.883,76.773 693.401,78.017 697.144,79.866 C701.138,81.84 704.151,84.45 705.863,87.406 C707.571,90.368 708.321,94.282 708.034,98.73 C707.767,102.895 706.583,107.434 704.619,111.846 C702.458,116.707 699.436,121.306 695.638,125.517 C691.392,130.226 686.274,134.332 680.421,137.712 C674.568,141.086 668.458,143.469 662.257,144.789 C656.706,145.972 651.211,146.29 645.922,145.736 C641.117,145.227 636.599,143.983 632.856,142.134 C628.862,140.16 625.849,137.55 624.137,134.594 C622.429,131.632 621.679,127.718 621.966,123.27 C622.233,119.105 623.417,114.566 625.381,110.154 C627.542,105.293 630.564,100.694 634.362,96.483 Z M676.673,82.027 C680.743,86.832 684.481,92.121 687.795,97.863 C691.1,103.585 693.81,109.459 695.93,115.367 C702.478,105.248 703.42,95.113 700.69,90.393 C697.965,85.669 688.717,81.417 676.673,82.027 Z M653.649,139.953 C649.554,135.128 645.791,129.808 642.457,124.036 C639.117,118.253 636.387,112.32 634.256,106.346 C627.542,116.561 626.555,126.842 629.31,131.607 C632.06,136.372 641.449,140.658 653.649,139.953 Z M650.823,94.886 C650.063,95.219 649.72,96.1 650.047,96.861 C650.42,97.707 650.823,98.579 651.241,99.45 C649.438,100.921 647.72,102.553 646.078,104.311 C645.821,103.58 645.58,102.845 645.363,102.105 C645.131,101.309 644.295,100.855 643.504,101.087 C642.708,101.324 642.255,102.155 642.487,102.951 C642.875,104.26 643.323,105.565 643.827,106.844 C642.547,108.356 641.308,109.932 640.094,111.564 C638.885,113.191 639.369,114.602 640.81,113.468 C642.265,112.335 643.741,111.201 645.247,110.083 C645.665,110.94 646.109,111.766 646.572,112.561 C646.985,113.277 647.907,113.524 648.622,113.105 C649.337,112.687 649.579,111.771 649.161,111.055 C648.652,110.179 648.164,109.252 647.715,108.29 C649.65,106.91 651.639,105.55 653.699,104.225 C654.072,104.91 654.45,105.58 654.828,106.235 C655.246,106.95 656.157,107.197 656.878,106.784 C657.593,106.371 657.84,105.454 657.427,104.734 C657.029,104.049 656.631,103.344 656.238,102.623 C657.235,102.014 658.248,101.409 659.28,100.815 C660.308,100.221 661.336,99.646 662.363,99.092 C662.786,99.787 663.199,100.488 663.597,101.173 C664.01,101.888 664.927,102.135 665.642,101.722 C666.363,101.309 666.609,100.392 666.191,99.672 C665.813,99.022 665.421,98.357 665.018,97.687 C667.194,96.569 669.37,95.526 671.536,94.539 C672.14,95.41 672.699,96.292 673.203,97.173 C673.616,97.894 674.533,98.14 675.248,97.732 C675.968,97.319 676.215,96.403 675.807,95.687 C675.349,94.886 674.85,94.091 674.321,93.3 C676.044,92.554 677.761,91.839 679.469,91.149 C681.172,90.469 680.189,89.346 678.174,89.577 C676.16,89.814 674.17,90.096 672.226,90.449 C671.369,89.371 670.463,88.328 669.521,87.341 C668.952,86.741 668,86.721 667.4,87.291 C666.801,87.86 666.781,88.812 667.35,89.411 C667.884,89.965 668.403,90.544 668.906,91.134 C666.559,91.678 664.287,92.348 662.111,93.174 C661.567,92.378 661.013,91.592 660.464,90.847 C659.971,90.182 659.034,90.036 658.369,90.529 C657.699,91.018 657.558,91.955 658.046,92.625 C658.464,93.189 658.883,93.773 659.296,94.373 C658.313,94.831 657.356,95.335 656.424,95.879 C655.488,96.413 654.576,96.992 653.684,97.611 C653.372,96.952 653.075,96.297 652.793,95.657 C652.465,94.896 651.579,94.554 650.823,94.886 Z" />
        </g>
    </g>
</svg>