<?xml version="1.0" encoding="UTF-8"?>
<svg height="600" width="800" xmlns="http://www.w3.org/2000/svg" xmlns:xlink="http://www.w3.org/1999/xlink">
    <style>
        .multicolor-0:yellow { fill:#F0CC00; opacity:1.0 }
    </style>
    <g id="Notes" font-family="'LucidaGrande', 'Lucida Grande', sans-serif" font-size="13">
        <rect fill="white" height="600.0" width="800.0" x="0.0" y="0.0" />
        <g font-size="13">
            <text x="18.0" y="176.0">Small</text>
            <text x="18.0" y="376.0">Medium</text>
            <text x="18.0" y="576.0">Large</text>
        </g>
        <g font-size="9">
            <text x="250.0" y="30.0">Ultralight</text>
            <text x="450.0" y="30.0">Regular</text>
            <text x="650.0" y="30.0">Black</text>
            <text id="template-version" fill="#505050" text-anchor="end" x="785.0" y="575.0">Template v.3.0</text>
            <a href="https://github.com/swhitty/SwiftDraw">
                <text fill="#505050" text-anchor="end" x="785.0" y="590.0">https://github.com/swhitty/SwiftDraw</text>
            </a>
        </g>
    </g>
    <g id="Guides" stroke="rgb(39, 170, 225)" stroke-width="0.5">
        <path id="Capline-S" d="M18,76 l800,0" />
        <path id="H-reference" d="M85,145.755 L87.685,145.755 L113.369,79.287 L114.052,79.287 L114.052,76 L112.148,76 L85,145.755 Z M95.693,121.536 L130.996,121.536 L130.263,119.313 L96.474,119.313 L95.693,121.536 Z M139.15,145.755 L141.787,145.755 L114.638,76 L113.466,76 L113.466,79.287 L139.15,145.755 Z" stroke="none" />
        <path id="Baseline-S" d="M18,146 l800,0" />
        <path id="left-margin-Ultralight-S" d="M211,56 l0,110" />
        <path id="right-margin-Ultralight-S" d="M319,56 l0,110" />
        <path id="left-margin-Regular-S" d="M411,56 l0,110" />
        <path id="right-margin-Regular-S" d="M519,56 l0,110" />
        <path id="left-margin-Black-S" d="M611,56 l0,110" />
        <path id="right-margin-Black-S" d="M719,56 l0,110" />
        <path id="Capline-M" d="M18,276 l800,0" />
        <path id="Baseline-M" d="M18,346 l800,0" />
        <path id="Capline-L" d="M18,476 l800,0" />
        <path id="Baseline-L" d="M18,546 l800,0" />
    </g>
    <g id="Symbols">
        <g id="Ultralight-S">
            <path class="multicolor-0:yellow" d="M308.905,107.873 C309.154,108.348 308.892,108.922 308.372,109.066 L282.489,116.16 C279.719,137.385 254.311,150.439 234.976,141.036 C233.76,140.448 232.874,139.364 232.405,138.099 L232.31,137.836 C232.106,137.285 232.504,136.698 233.091,136.675 L234.763,136.616 L235.581,131.958 C235.721,131.167 236.86,131.167 237,131.958 L237.8,136.503 L241.248,136.377 L242.111,131.47 C242.251,130.679 243.389,130.679 243.529,131.47 L244.37,136.259 L249.241,136.083 C249.774,136.065 250.163,135.568 250.054,135.044 L248.645,128.32 C248.364,126.978 248.279,125.609 248.382,124.244 L248.816,118.727 C248.861,118.171 248.577,117.638 248.093,117.362 L246.064,116.206 C245.703,115.998 245.278,115.935 244.871,116.029 L242.463,125.555 C242.282,126.278 241.252,126.278 241.067,125.555 L239.002,117.381 L238.157,117.579 C237.389,117.756 236.602,117.828 235.816,117.792 L233.905,117.706 L231.582,126.897 C231.401,127.624 230.371,127.624 230.186,126.897 L227.827,117.561 C226.779,117.778 224.533,118.235 224.244,118.235 C220.832,118.32 220.349,113.147 223.67,112.582 C217.131,108.759 223.959,99.496 229.648,104.525 L229.856,102.442 L243.801,91.353 L244.144,97.399 L238.699,101.434 L249.029,99.929 C249.819,99.817 250.619,100.038 251.238,100.54 L254.008,102.776 L260.28,102.211 C261.026,102.148 261.744,102.496 262.151,103.12 L264.279,106.382 C264.668,106.974 265.44,107.209 266.046,106.839 C269.128,104.963 271.202,101.493 271.355,97.824 C271.419,96.211 270.379,94.792 268.888,94.177 C265.228,92.673 260.872,92.266 256.968,93.188 C256.484,93.305 255.983,93.016 255.92,92.519 C254.84,84.227 265.675,78.588 271.952,84.697 C273.913,76.369 286.371,75.443 289.764,83.088 C289.968,83.54 289.687,84.051 289.213,84.205 C285.494,85.402 282.087,87.896 279.764,90.964 C278.567,92.546 278.743,94.674 279.606,96.455 C280.628,98.551 281.427,100.77 281.988,103.084 L285.182,95.122 C285.395,94.588 285.905,94.227 286.479,94.236 C296.05,94.344 304.721,99.934 308.905,107.873 Z M230.38,107.796 C230.376,107.882 230.367,107.968 230.367,108.054 C230.367,111.303 233.033,113.937 236.318,113.937 C239.607,113.937 242.273,111.303 242.273,108.054 C242.273,106.454 241.623,105.004 240.57,103.942 L230.389,107.67 C230.385,107.711 230.385,107.751 230.38,107.796 Z" />
        </g>
        <g id="Regular-S">
            <path class="multicolor-0:yellow" d="M508.905,107.873 C509.154,108.348 508.892,108.922 508.372,109.066 L482.489,116.16 C479.719,137.385 454.311,150.439 434.976,141.036 C433.76,140.448 432.874,139.364 432.405,138.099 L432.31,137.836 C432.106,137.285 432.504,136.698 433.091,136.675 L434.763,136.616 L435.581,131.958 C435.721,131.167 436.86,131.167 437,131.958 L437.8,136.503 L441.248,136.377 L442.111,131.47 C442.251,130.679 443.389,130.679 443.529,131.47 L444.37,136.259 L449.241,136.083 C449.774,136.065 450.163,135.568 450.054,135.044 L448.645,128.32 C448.364,126.978 448.279,125.609 448.382,124.244 L448.816,118.727 C448.861,118.171 448.577,117.638 448.093,117.362 L446.064,116.206 C445.703,115.998 445.278,115.935 444.871,116.029 L442.463,125.555 C442.282,126.278 441.252,126.278 441.067,125.555 L439.002,117.381 L438.157,117.579 C437.389,117.756 436.602,117.828 435.816,117.792 L433.905,117.706 L431.582,126.897 C431.401,127.624 430.371,127.624 430.186,126.897 L427.827,117.561 C426.779,117.778 424.533,118.235 424.244,118.235 C420.832,118.32 420.349,113.147 423.67,112.582 C417.132,108.759 423.959,99.496 429.648,104.525 L429.856,102.442 L443.801,91.353 L444.144,97.399 L438.699,101.434 L449.029,99.929 C449.819,99.817 450.619,100.038 451.238,100.54 L454.008,102.776 L460.28,102.211 C461.026,102.148 461.744,102.496 462.151,103.12 L464.279,106.382 C464.668,106.974 465.44,107.209 466.046,106.839 C469.128,104.963 471.202,101.493 471.355,97.824 C471.419,96.211 470.379,94.792 468.888,94.177 C465.228,92.673 460.872,92.266 456.968,93.188 C456.484,93.305 455.983,93.016 455.92,92.519 C454.84,84.227 465.675,78.588 471.952,84.697 C473.913,76.369 486.371,75.443 489.764,83.088 C489.968,83.54 489.687,84.051 489.213,84.205 C485.494,85.402 482.087,87.896 479.764,90.964 C478.567,92.546 478.743,94.674 479.606,96.455 C480.628,98.551 481.427,100.77 481.988,103.084 L485.182,95.122 C485.395,94.588 485.905,94.227 486.479,94.236 C496.05,94.344 504.721,99.934 508.905,107.873 Z M430.38,107.796 C430.376,107.882 430.367,107.968 430.367,108.054 C430.367,111.303 433.033,113.937 436.318,113.937 C439.607,113.937 442.273,111.303 442.273,108.054 C442.273,106.454 441.623,105.004 440.57,103.942 L430.389,107.67 C430.385,107.711 430.385,107.751 430.38,107.796 Z" />
        </g>
        <g id="Black-S">
            <path class="multicolor-0:yellow" d="M708.905,107.873 C709.154,108.348 708.892,108.922 708.372,109.066 L682.489,116.16 C679.719,137.385 654.311,150.439 634.976,141.036 C633.76,140.448 632.874,139.364 632.405,138.099 L632.31,137.836 C632.106,137.285 632.504,136.698 633.091,136.675 L634.763,136.616 L635.581,131.958 C635.721,131.167 636.86,131.167 637,131.958 L637.8,136.503 L641.247,136.377 L642.111,131.47 C642.251,130.679 643.389,130.679 643.529,131.47 L644.37,136.259 L649.241,136.083 C649.774,136.065 650.163,135.568 650.054,135.044 L648.645,128.32 C648.364,126.978 648.279,125.609 648.382,124.244 L648.816,118.727 C648.861,118.171 648.577,117.638 648.093,117.362 L646.064,116.206 C645.703,115.998 645.278,115.935 644.871,116.029 L642.463,125.555 C642.282,126.278 641.252,126.278 641.067,125.555 L639.002,117.381 L638.157,117.579 C637.389,117.756 636.602,117.828 635.816,117.792 L633.905,117.706 L631.582,126.897 C631.401,127.624 630.371,127.624 630.186,126.897 L627.827,117.561 C626.779,117.778 624.533,118.235 624.244,118.235 C620.832,118.32 620.349,113.147 623.67,112.582 C617.131,108.759 623.959,99.496 629.648,104.525 L629.856,102.442 L643.801,91.353 L644.144,97.399 L638.699,101.434 L649.029,99.929 C649.819,99.817 650.619,100.038 651.238,100.54 L654.008,102.776 L660.28,102.211 C661.026,102.148 661.744,102.496 662.151,103.12 L664.279,106.382 C664.668,106.974 665.44,107.209 666.046,106.839 C669.128,104.963 671.202,101.493 671.355,97.824 C671.419,96.211 670.379,94.792 668.888,94.177 C665.228,92.673 660.872,92.266 656.968,93.188 C656.484,93.305 655.983,93.016 655.92,92.519 C654.84,84.227 665.675,78.588 671.952,84.697 C673.913,76.369 686.371,75.443 689.764,83.088 C689.968,83.54 689.687,84.051 689.213,84.205 C685.494,85.402 682.087,87.896 679.764,90.964 C678.567,92.546 678.743,94.674 679.606,96.455 C680.628,98.551 681.427,100.77 681.988,103.084 L685.182,95.122 C685.395,94.588 685.905,94.227 686.479,94.236 C696.05,94.344 704.721,99.934 708.905,107.873 Z M630.38,107.796 C630.376,107.882 630.367,107.968 630.367,108.054 C630.367,111.303 633.033,113.937 636.318,113.937 C639.607,113.937 642.273,111.303 642.273,108.054 C642.273,106.454 641.623,105.004 640.57,103.942 L630.389,107.67 C630.385,107.711 630.385,107.751 630.38,107.796 Z" />
        </g>
    </g>
</svg>