<?xml version="1.0" encoding="UTF-8"?>
<svg height="600" width="800" xmlns="http://www.w3.org/2000/svg" xmlns:xlink="http://www.w3.org/1999/xlink">
    <style>
        .multicolor-0:blue { fill:#5997C2; opacity:1.0 }
        .multicolor-1:red { fill:#FF4B1F; opacity:1.0 }
        .multicolor-2:yellow { fill:#FDD400; opacity:1.0 }
    </style>
    <g id="Notes" font-family="'LucidaGrande', 'Lucida Grande', sans-serif" font-size="13">
        <rect fill="white" height="600.0" width="800.0" x="0.0" y="0.0" />
        <g font-size="13">
            <text x="18.0" y="176.0">Small</text>
            <text x="18.0" y="376.0">Medium</text>
            <text x="18.0" y="576.0">Large</text>
        </g>
        <g font-size="9">
            <text x="250.0" y="30.0">Ultralight</text>
            <text x="450.0" y="30.0">Regular</text>
            <text x="650.0" y="30.0">Black</text>
            <text id="template-version" fill="#505050" text-anchor="end" x="785.0" y="575.0">Template v.3.0</text>
            <a href="https://github.com/swhitty/SwiftDraw">
                <text fill="#505050" text-anchor="end" x="785.0" y="590.0">https://github.com/swhitty/SwiftDraw</text>
            </a>
        </g>
    </g>
    <g id="Guides" stroke="rgb(39, 170, 225)" stroke-width="0.5">
        <path id="Capline-S" d="M18,76 l800,0" />
        <path id="H-reference" d="M85,145.755 L87.685,145.755 L113.369,79.287 L114.052,79.287 L114.052,76 L112.148,76 L85,145.755 Z M95.693,121.536 L130.996,121.536 L130.263,119.313 L96.474,119.313 L95.693,121.536 Z M139.15,145.755 L141.787,145.755 L114.638,76 L113.466,76 L113.466,79.287 L139.15,145.755 Z" stroke="none" />
        <path id="Baseline-S" d="M18,146 l800,0" />
        <path id="left-margin-Ultralight-S" d="M221,56 l0,110" />
        <path id="right-margin-Ultralight-S" d="M309,56 l0,110" />
        <path id="left-margin-Regular-S" d="M421,56 l0,110" />
        <path id="right-margin-Regular-S" d="M509,56 l0,110" />
        <path id="left-margin-Black-S" d="M621,56 l0,110" />
        <path id="right-margin-Black-S" d="M709,56 l0,110" />
        <path id="Capline-M" d="M18,276 l800,0" />
        <path id="Baseline-M" d="M18,346 l800,0" />
        <path id="Capline-L" d="M18,476 l800,0" />
        <path id="Baseline-L" d="M18,546 l800,0" />
    </g>
    <g id="Symbols">
        <g id="Ultralight-S">
            <path class="multicolor-0:blue" d="M256.198,89.678 L244.72,76 L250.906,76 L261.416,88.532 C259.62,88.754 257.876,89.142 256.198,89.678 Z M268.586,88.532 L279.094,76 L285.28,76 L273.804,89.678 C272.126,89.142 270.382,88.754 268.586,88.532 Z" />
            <path class="multicolor-1:red" d="M251.62,91.596 L238.534,76 L244.72,76 L256.198,89.678 C254.606,90.188 253.076,90.832 251.62,91.596 Z M261.416,88.532 L250.906,76 L257.094,76 L265,85.428 L272.908,76 L279.094,76 L268.586,88.532 C267.41,88.386 266.214,88.31 265,88.31 C263.786,88.31 262.59,88.386 261.416,88.532 Z M273.804,89.678 L285.28,76 L291.468,76 L283.668,85.294 L278.382,91.596 C276.924,90.83 275.394,90.188 273.804,89.678 Z" />
            <path class="multicolor-2:yellow" d="M237.294,125.206 C237.22,124.996 237.15,124.79 237.084,124.612 L232.058,124.296 C231.338,121.72 231.13,119.136 231.706,116.526 L236.168,117.998 C236.16,117.718 236.156,117.436 236.156,117.156 C236.156,101.224 249.07,88.31 265,88.31 C280.932,88.31 293.844,101.224 293.844,117.156 C293.844,117.436 293.84,117.718 293.832,117.998 L298.294,116.526 C298.87,119.136 298.664,121.72 297.942,124.296 L292.918,124.612 C292.85,124.79 292.78,124.996 292.706,125.208 C292.636,125.448 292.564,125.688 292.488,125.926 L297.474,125.864 C296.872,127.556 296.052,129.178 295.114,130.664 L290.494,130.664 C290.268,131.088 290.032,131.506 289.786,131.918 L294.116,132.132 C291.494,135.706 288.226,138.21 285.758,138.498 C285.19,138.566 284.938,138.584 284.544,138.37 C279.404,143.108 272.54,146 265,146 C257.46,146 250.596,143.108 245.456,138.37 C245.062,138.584 244.812,138.566 244.242,138.498 C241.776,138.21 238.506,135.706 235.886,132.132 L240.214,131.918 C239.97,131.506 239.734,131.088 239.508,130.664 L234.886,130.664 C233.95,129.178 233.13,127.556 232.526,125.864 L237.514,125.926 C237.438,125.688 237.364,125.448 237.294,125.206 Z M288.264,120.894 C288.458,119.678 288.56,118.432 288.56,117.164 C288.56,104.172 277.988,93.606 265,93.606 C252.008,93.606 241.442,104.172 241.442,117.164 C241.442,118.432 241.542,119.678 241.736,120.894 C242.484,125.574 244.614,129.8 247.696,133.136 C252.002,137.8 258.166,140.724 265,140.724 C271.836,140.724 277.998,137.8 282.306,133.136 C285.386,129.8 287.518,125.574 288.264,120.894 Z" />
            <path class="multicolor-2:yellow" d="M257.384,126.626 C257.154,126.644 256.912,126.664 256.652,126.684 C255.086,126.8 253.374,126.756 251.502,126.548 C249.664,126.35 248.61,126.134 247.044,125.476 C245.756,124.936 245.8,123.99 246.044,123.062 C246.152,122.676 246.63,122.514 246.936,122.774 C247.286,123.072 247.808,123.378 248.502,123.468 C249.402,123.586 251.186,122.504 253.068,122.154 C254.78,121.83 254.734,121.964 254.04,120.838 C253.348,119.712 251.322,118.398 250.106,117.776 C249.034,117.228 248.07,117.012 246.936,117.372 L246.908,117.372 C246.062,117.65 245.17,117.066 245.134,116.164 C245.072,114.516 245.612,112.554 246.818,112.058 C248.53,111.356 249.052,111.328 251.212,111.328 C252.734,111.338 254.266,111.472 255.554,111.238 C255.904,111.176 256.112,110.806 255.976,110.474 C255.562,109.482 254.626,107.402 253.284,105.368 C253.086,105.07 253.212,104.664 253.554,104.538 C254.572,104.16 256.77,103.566 259.94,103.882 C261.614,104.052 263.658,104.826 265.046,105.592 C266.46,106.366 267.738,107.628 268.242,108.158 C268.386,108.312 268.432,108.538 268.36,108.736 C268.162,109.284 267.694,110.428 267.018,111.446 C266.846,111.698 266.91,112.022 267.144,112.202 C267.462,112.438 267.924,112.78 268.43,113.152 C268.968,112.604 270.294,111.428 270.538,110.618 C270.538,110.618 272.384,112.068 273.052,114.534 C273.28,115.38 273.73,116.152 274.198,116.654 C275.724,117.294 277.368,117.74 278.212,117.236 C279.824,116.264 280.94,111.976 283.462,111.328 C284.516,111.05 285.254,111.068 285.75,111.184 C286.208,111.292 286.326,111.896 285.948,112.176 L285.948,112.194 C285.434,112.562 284.714,113.256 283.966,114.48 C283.164,115.796 282.372,118.264 282.724,120.19 C283.012,121.776 283.534,122.802 283.85,123.316 C284.03,123.612 283.912,124 283.588,124.126 C283.002,124.36 282.074,124.332 281.094,123.72 C279.572,122.774 279.806,121.65 278.716,121.506 C277.86,121.388 277.05,122.478 276.734,122.954 C276.644,123.09 276.618,123.252 276.662,123.406 C276.842,124.062 277.22,124.946 279.194,125.81 C279.626,125.99 279.868,126.214 280.012,126.422 C280.202,126.692 280.112,127.062 279.824,127.224 C278.626,127.89 276.698,128.358 275.664,128.106 C274.726,127.88 274.222,126.594 273.942,125.818 C273.852,125.558 273.582,125.404 273.312,125.458 C272.548,125.602 270.944,125.998 269.116,126.936 C267.522,127.754 266.504,128.322 264.326,127.962 C263.232,127.78 262.084,127.32 260.966,126.962 C261.268,128.672 260.642,130.362 258.958,130.592 C255.202,131.096 253.896,128.97 255.122,128.548 C256.166,128.182 256.904,127.362 257.384,126.626 Z M255.896,119.46 C257.3,119.83 258.93,119.316 259.508,118.21 C260.092,117.102 260.642,114.444 258.048,113.338 C255.58,112.284 253.708,113.914 253.446,116.02 C253.24,117.642 254.31,119.046 255.896,119.46 Z" />
            <path class="multicolor-2:yellow" d="M256.698,114.868 L256.688,114.876 C257.382,114.922 258.228,115.49 258.228,116.426 C258.238,117.408 257.31,118.092 256.364,117.786 C255.23,117.416 254.924,116.336 255.356,115.606 C255.652,115.102 256.102,114.832 256.698,114.868 Z M257.066,116.002 C256.932,115.85 256.76,115.804 256.562,115.858 C256.284,115.93 256.094,116.264 256.284,116.634 C256.436,116.94 256.824,116.994 257.066,116.76 C257.31,116.524 257.228,116.192 257.066,116.012 L257.066,116.002 Z" />
        </g>
        <g id="Regular-S">
            <path class="multicolor-0:blue" d="M456.198,89.678 L444.72,76 L450.906,76 L461.416,88.532 C459.62,88.754 457.876,89.142 456.198,89.678 Z M468.586,88.532 L479.094,76 L485.28,76 L473.804,89.678 C472.126,89.142 470.382,88.754 468.586,88.532 Z" />
            <path class="multicolor-1:red" d="M451.62,91.596 L438.534,76 L444.72,76 L456.198,89.678 C454.606,90.188 453.076,90.832 451.62,91.596 Z M461.416,88.532 L450.906,76 L457.094,76 L465,85.428 L472.908,76 L479.094,76 L468.586,88.532 C467.41,88.386 466.214,88.31 465,88.31 C463.786,88.31 462.59,88.386 461.416,88.532 Z M473.804,89.678 L485.28,76 L491.468,76 L483.668,85.294 L478.382,91.596 C476.924,90.83 475.394,90.188 473.804,89.678 Z" />
            <path class="multicolor-2:yellow" d="M437.294,125.206 C437.22,124.996 437.15,124.79 437.084,124.612 L432.058,124.296 C431.338,121.72 431.13,119.136 431.706,116.526 L436.168,117.998 C436.16,117.718 436.156,117.436 436.156,117.156 C436.156,101.224 449.07,88.31 465,88.31 C480.932,88.31 493.844,101.224 493.844,117.156 C493.844,117.436 493.84,117.718 493.832,117.998 L498.294,116.526 C498.87,119.136 498.664,121.72 497.942,124.296 L492.918,124.612 C492.85,124.79 492.78,124.996 492.706,125.208 C492.636,125.448 492.564,125.688 492.488,125.926 L497.474,125.864 C496.872,127.556 496.052,129.178 495.114,130.664 L490.494,130.664 C490.268,131.088 490.032,131.506 489.786,131.918 L494.116,132.132 C491.494,135.706 488.226,138.21 485.758,138.498 C485.19,138.566 484.938,138.584 484.544,138.37 C479.404,143.108 472.54,146 465,146 C457.46,146 450.596,143.108 445.456,138.37 C445.062,138.584 444.812,138.566 444.242,138.498 C441.776,138.21 438.506,135.706 435.886,132.132 L440.214,131.918 C439.97,131.506 439.734,131.088 439.508,130.664 L434.886,130.664 C433.95,129.178 433.13,127.556 432.526,125.864 L437.514,125.926 C437.438,125.688 437.364,125.448 437.294,125.206 Z M488.264,120.894 C488.458,119.678 488.56,118.432 488.56,117.164 C488.56,104.172 477.988,93.606 465,93.606 C452.008,93.606 441.442,104.172 441.442,117.164 C441.442,118.432 441.542,119.678 441.736,120.894 C442.484,125.574 444.614,129.8 447.696,133.136 C452.002,137.8 458.166,140.724 465,140.724 C471.836,140.724 477.998,137.8 482.306,133.136 C485.386,129.8 487.518,125.574 488.264,120.894 Z" />
            <path class="multicolor-2:yellow" d="M457.384,126.626 C457.154,126.644 456.912,126.664 456.652,126.684 C455.086,126.8 453.374,126.756 451.502,126.548 C449.664,126.35 448.61,126.134 447.044,125.476 C445.756,124.936 445.8,123.99 446.044,123.062 C446.152,122.676 446.63,122.514 446.936,122.774 C447.286,123.072 447.808,123.378 448.502,123.468 C449.402,123.586 451.186,122.504 453.068,122.154 C454.78,121.83 454.734,121.964 454.04,120.838 C453.348,119.712 451.322,118.398 450.106,117.776 C449.034,117.228 448.07,117.012 446.936,117.372 L446.908,117.372 C446.062,117.65 445.17,117.066 445.134,116.164 C445.072,114.516 445.612,112.554 446.818,112.058 C448.53,111.356 449.052,111.328 451.212,111.328 C452.734,111.338 454.266,111.472 455.554,111.238 C455.904,111.176 456.112,110.806 455.976,110.474 C455.562,109.482 454.626,107.402 453.284,105.368 C453.086,105.07 453.212,104.664 453.554,104.538 C454.572,104.16 456.77,103.566 459.94,103.882 C461.614,104.052 463.658,104.826 465.046,105.592 C466.46,106.366 467.738,107.628 468.242,108.158 C468.386,108.312 468.432,108.538 468.36,108.736 C468.162,109.284 467.694,110.428 467.018,111.446 C466.846,111.698 466.91,112.022 467.144,112.202 C467.462,112.438 467.924,112.78 468.43,113.152 C468.968,112.604 470.294,111.428 470.538,110.618 C470.538,110.618 472.384,112.068 473.052,114.534 C473.28,115.38 473.73,116.152 474.198,116.654 C475.724,117.294 477.368,117.74 478.212,117.236 C479.824,116.264 480.94,111.976 483.462,111.328 C484.516,111.05 485.254,111.068 485.75,111.184 C486.208,111.292 486.326,111.896 485.948,112.176 L485.948,112.194 C485.434,112.562 484.714,113.256 483.966,114.48 C483.164,115.796 482.372,118.264 482.724,120.19 C483.012,121.776 483.534,122.802 483.85,123.316 C484.03,123.612 483.912,124 483.588,124.126 C483.002,124.36 482.074,124.332 481.094,123.72 C479.572,122.774 479.806,121.65 478.716,121.506 C477.86,121.388 477.05,122.478 476.734,122.954 C476.644,123.09 476.618,123.252 476.662,123.406 C476.842,124.062 477.22,124.946 479.194,125.81 C479.626,125.99 479.868,126.214 480.012,126.422 C480.202,126.692 480.112,127.062 479.824,127.224 C478.626,127.89 476.698,128.358 475.664,128.106 C474.726,127.88 474.222,126.594 473.942,125.818 C473.852,125.558 473.582,125.404 473.312,125.458 C472.548,125.602 470.944,125.998 469.116,126.936 C467.522,127.754 466.504,128.322 464.326,127.962 C463.232,127.78 462.084,127.32 460.966,126.962 C461.268,128.672 460.642,130.362 458.958,130.592 C455.202,131.096 453.896,128.97 455.122,128.548 C456.166,128.182 456.904,127.362 457.384,126.626 Z M455.896,119.46 C457.3,119.83 458.93,119.316 459.508,118.21 C460.092,117.102 460.642,114.444 458.048,113.338 C455.58,112.284 453.708,113.914 453.446,116.02 C453.24,117.642 454.31,119.046 455.896,119.46 Z" />
            <path class="multicolor-2:yellow" d="M456.698,114.868 L456.688,114.876 C457.382,114.922 458.228,115.49 458.228,116.426 C458.238,117.408 457.31,118.092 456.364,117.786 C455.23,117.416 454.924,116.336 455.356,115.606 C455.652,115.102 456.102,114.832 456.698,114.868 Z M457.066,116.002 C456.932,115.85 456.76,115.804 456.562,115.858 C456.284,115.93 456.094,116.264 456.284,116.634 C456.436,116.94 456.824,116.994 457.066,116.76 C457.31,116.524 457.228,116.192 457.066,116.012 L457.066,116.002 Z" />
        </g>
        <g id="Black-S">
            <path class="multicolor-0:blue" d="M656.198,89.678 L644.72,76 L650.906,76 L661.416,88.532 C659.62,88.754 657.876,89.142 656.198,89.678 Z M668.586,88.532 L679.094,76 L685.28,76 L673.804,89.678 C672.126,89.142 670.382,88.754 668.586,88.532 Z" />
            <path class="multicolor-1:red" d="M651.62,91.596 L638.534,76 L644.72,76 L656.198,89.678 C654.606,90.188 653.076,90.832 651.62,91.596 Z M661.416,88.532 L650.906,76 L657.094,76 L665,85.428 L672.908,76 L679.094,76 L668.586,88.532 C667.41,88.386 666.214,88.31 665,88.31 C663.786,88.31 662.59,88.386 661.416,88.532 Z M673.804,89.678 L685.28,76 L691.468,76 L683.668,85.294 L678.382,91.596 C676.924,90.83 675.394,90.188 673.804,89.678 Z" />
            <path class="multicolor-2:yellow" d="M637.294,125.206 C637.22,124.996 637.15,124.79 637.084,124.612 L632.058,124.296 C631.338,121.72 631.13,119.136 631.706,116.526 L636.168,117.998 C636.16,117.718 636.156,117.436 636.156,117.156 C636.156,101.224 649.07,88.31 665,88.31 C680.932,88.31 693.844,101.224 693.844,117.156 C693.844,117.436 693.84,117.718 693.832,117.998 L698.294,116.526 C698.87,119.136 698.664,121.72 697.942,124.296 L692.918,124.612 C692.85,124.79 692.78,124.996 692.706,125.208 C692.636,125.448 692.564,125.688 692.488,125.926 L697.474,125.864 C696.872,127.556 696.052,129.178 695.114,130.664 L690.494,130.664 C690.268,131.088 690.032,131.506 689.786,131.918 L694.116,132.132 C691.494,135.706 688.226,138.21 685.758,138.498 C685.19,138.566 684.938,138.584 684.544,138.37 C679.404,143.108 672.54,146 665,146 C657.46,146 650.596,143.108 645.456,138.37 C645.062,138.584 644.812,138.566 644.242,138.498 C641.776,138.21 638.506,135.706 635.886,132.132 L640.214,131.918 C639.97,131.506 639.734,131.088 639.508,130.664 L634.886,130.664 C633.95,129.178 633.13,127.556 632.526,125.864 L637.514,125.926 C637.438,125.688 637.364,125.448 637.294,125.206 Z M688.264,120.894 C688.458,119.678 688.56,118.432 688.56,117.164 C688.56,104.172 677.988,93.606 665,93.606 C652.008,93.606 641.442,104.172 641.442,117.164 C641.442,118.432 641.542,119.678 641.736,120.894 C642.484,125.574 644.614,129.8 647.696,133.136 C652.002,137.8 658.166,140.724 665,140.724 C671.836,140.724 677.998,137.8 682.306,133.136 C685.386,129.8 687.518,125.574 688.264,120.894 Z" />
            <path class="multicolor-2:yellow" d="M657.384,126.626 C657.154,126.644 656.912,126.664 656.652,126.684 C655.086,126.8 653.374,126.756 651.502,126.548 C649.664,126.35 648.61,126.134 647.044,125.476 C645.756,124.936 645.8,123.99 646.044,123.062 C646.152,122.676 646.63,122.514 646.936,122.774 C647.286,123.072 647.808,123.378 648.502,123.468 C649.402,123.586 651.186,122.504 653.068,122.154 C654.78,121.83 654.734,121.964 654.04,120.838 C653.348,119.712 651.322,118.398 650.106,117.776 C649.034,117.228 648.07,117.012 646.936,117.372 L646.908,117.372 C646.062,117.65 645.17,117.066 645.134,116.164 C645.072,114.516 645.612,112.554 646.818,112.058 C648.53,111.356 649.052,111.328 651.212,111.328 C652.734,111.338 654.266,111.472 655.554,111.238 C655.904,111.176 656.112,110.806 655.976,110.474 C655.562,109.482 654.626,107.402 653.284,105.368 C653.086,105.07 653.212,104.664 653.554,104.538 C654.572,104.16 656.77,103.566 659.94,103.882 C661.614,104.052 663.658,104.826 665.046,105.592 C666.46,106.366 667.738,107.628 668.242,108.158 C668.386,108.312 668.432,108.538 668.36,108.736 C668.162,109.284 667.694,110.428 667.018,111.446 C666.846,111.698 666.91,112.022 667.144,112.202 C667.462,112.438 667.924,112.78 668.43,113.152 C668.968,112.604 670.294,111.428 670.538,110.618 C670.538,110.618 672.384,112.068 673.052,114.534 C673.28,115.38 673.73,116.152 674.198,116.654 C675.724,117.294 677.368,117.74 678.212,117.236 C679.824,116.264 680.94,111.976 683.462,111.328 C684.516,111.05 685.254,111.068 685.75,111.184 C686.208,111.292 686.326,111.896 685.948,112.176 L685.948,112.194 C685.434,112.562 684.714,113.256 683.966,114.48 C683.164,115.796 682.372,118.264 682.724,120.19 C683.012,121.776 683.534,122.802 683.85,123.316 C684.03,123.612 683.912,124 683.588,124.126 C683.002,124.36 682.074,124.332 681.094,123.72 C679.572,122.774 679.806,121.65 678.716,121.506 C677.86,121.388 677.05,122.478 676.734,122.954 C676.644,123.09 676.618,123.252 676.662,123.406 C676.842,124.062 677.22,124.946 679.194,125.81 C679.626,125.99 679.868,126.214 680.012,126.422 C680.202,126.692 680.112,127.062 679.824,127.224 C678.626,127.89 676.698,128.358 675.664,128.106 C674.726,127.88 674.222,126.594 673.942,125.818 C673.852,125.558 673.582,125.404 673.312,125.458 C672.548,125.602 670.944,125.998 669.116,126.936 C667.522,127.754 666.504,128.322 664.326,127.962 C663.232,127.78 662.084,127.32 660.966,126.962 C661.268,128.672 660.642,130.362 658.958,130.592 C655.202,131.096 653.896,128.97 655.122,128.548 C656.166,128.182 656.904,127.362 657.384,126.626 Z M655.896,119.46 C657.3,119.83 658.93,119.316 659.508,118.21 C660.092,117.102 660.642,114.444 658.048,113.338 C655.58,112.284 653.708,113.914 653.446,116.02 C653.24,117.642 654.31,119.046 655.896,119.46 Z" />
            <path class="multicolor-2:yellow" d="M656.698,114.868 L656.688,114.876 C657.382,114.922 658.228,115.49 658.228,116.426 C658.238,117.408 657.31,118.092 656.364,117.786 C655.23,117.416 654.924,116.336 655.356,115.606 C655.652,115.102 656.102,114.832 656.698,114.868 Z M657.066,116.002 C656.932,115.85 656.76,115.804 656.562,115.858 C656.284,115.93 656.094,116.264 656.284,116.634 C656.436,116.94 656.824,116.994 657.066,116.76 C657.31,116.524 657.228,116.192 657.066,116.012 L657.066,116.002 Z" />
        </g>
    </g>
</svg>