<?xml version="1.0" encoding="UTF-8"?>
<svg height="600" width="800" xmlns="http://www.w3.org/2000/svg" xmlns:xlink="http://www.w3.org/1999/xlink">
    <style>
        .multicolor-0:blue { fill:#5997C2; opacity:1.0 }
        .multicolor-1:red { fill:#FF4B1F; opacity:1.0 }
        .multicolor-2:yellow { fill:#FDD400; opacity:1.0 }
        .multicolor-3:orange { fill:#E5A500; opacity:1.0 }
    </style>
    <g id="Notes" font-family="'LucidaGrande', 'Lucida Grande', sans-serif" font-size="13">
        <rect fill="white" height="600.0" width="800.0" x="0.0" y="0.0" />
        <g font-size="13">
            <text x="18.0" y="176.0">Small</text>
            <text x="18.0" y="376.0">Medium</text>
            <text x="18.0" y="576.0">Large</text>
        </g>
        <g font-size="9">
            <text x="250.0" y="30.0">Ultralight</text>
            <text x="450.0" y="30.0">Regular</text>
            <text x="650.0" y="30.0">Black</text>
            <text id="template-version" fill="#505050" text-anchor="end" x="785.0" y="575.0">Template v.3.0</text>
            <a href="https://github.com/swhitty/SwiftDraw">
                <text fill="#505050" text-anchor="end" x="785.0" y="590.0">https://github.com/swhitty/SwiftDraw</text>
            </a>
        </g>
    </g>
    <g id="Guides" stroke="rgb(39, 170, 225)" stroke-width="0.5">
        <path id="Capline-S" d="M18,76 l800,0" />
        <path id="H-reference" d="M85,145.755 L87.685,145.755 L113.369,79.287 L114.052,79.287 L114.052,76 L112.148,76 L85,145.755 Z M95.693,121.536 L130.996,121.536 L130.263,119.313 L96.474,119.313 L95.693,121.536 Z M139.15,145.755 L141.787,145.755 L114.638,76 L113.466,76 L113.466,79.287 L139.15,145.755 Z" stroke="none" />
        <path id="Baseline-S" d="M18,146 l800,0" />
        <path id="left-margin-Ultralight-S" d="M221,56 l0,110" />
        <path id="right-margin-Ultralight-S" d="M309,56 l0,110" />
        <path id="left-margin-Regular-S" d="M421,56 l0,110" />
        <path id="right-margin-Regular-S" d="M509,56 l0,110" />
        <path id="left-margin-Black-S" d="M621,56 l0,110" />
        <path id="right-margin-Black-S" d="M709,56 l0,110" />
        <path id="Capline-M" d="M18,276 l800,0" />
        <path id="Baseline-M" d="M18,346 l800,0" />
        <path id="Capline-L" d="M18,476 l800,0" />
        <path id="Baseline-L" d="M18,546 l800,0" />
    </g>
    <g id="Symbols">
        <g id="Ultralight-S">
            <path class="multicolor-0:blue" d="M256.198,89.678 L244.72,76 L250.906,76 L261.416,88.532 C259.62,88.754 257.876,89.142 256.198,89.678 Z M268.586,88.532 L279.094,76 L285.28,76 L273.804,89.678 C272.126,89.142 270.382,88.754 268.586,88.532 Z" />
            <path class="multicolor-1:red" d="M251.62,91.596 L238.534,76 L244.72,76 L256.198,89.678 C254.606,90.188 253.076,90.832 251.62,91.596 Z M261.416,88.532 L250.906,76 L257.094,76 L265,85.428 L272.908,76 L279.094,76 L268.586,88.532 C267.41,88.386 266.214,88.31 265,88.31 C263.786,88.31 262.59,88.386 261.416,88.532 Z M273.804,89.678 L285.28,76 L291.468,76 L283.668,85.294 L278.382,91.596 C276.924,90.83 275.394,90.188 273.804,89.678 Z" />
            <path class="multicolor-2:yellow" d="M237.294,125.206 C237.22,124.996 237.15,124.79 237.084,124.612 L232.058,124.296 C231.338,121.72 231.13,119.136 231.706,116.526 L236.168,117.998 C236.16,117.718 236.156,117.436 236.156,117.156 C236.156,101.224 249.07,88.31 265,88.31 C280.932,88.31 293.844,101.224 293.844,117.156 C293.844,117.436 293.84,117.718 293.832,117.998 L298.294,116.526 C298.87,119.136 298.664,121.72 297.942,124.296 L292.918,124.612 C292.85,124.79 292.78,124.996 292.706,125.208 C292.636,125.448 292.564,125.688 292.488,125.926 L297.474,125.864 C296.872,127.556 296.052,129.178 295.114,130.664 L290.494,130.664 C290.268,131.088 290.032,131.506 289.786,131.918 L294.116,132.132 C291.494,135.706 288.226,138.21 285.758,138.498 C285.19,138.566 284.938,138.584 284.544,138.37 C279.404,143.108 272.54,146 265,146 C257.46,146 250.596,143.108 245.456,138.37 C245.062,138.584 244.812,138.566 244.242,138.498 C241.776,138.21 238.506,135.706 235.886,132.132 L240.214,131.918 C239.97,131.506 239.734,131.088 239.508,130.664 L234.886,130.664 C233.95,129.178 233.13,127.556 232.526,125.864 L237.514,125.926 C237.438,125.688 237.364,125.448 237.294,125.206 Z M288.264,120.894 C288.458,119.678 288.56,118.432 288.56,117.164 C288.56,104.172 277.988,93.606 265,93.606 C252.008,93.606 241.442,104.172 241.442,117.164 C241.442,118.432 241.542,119.678 241.736,120.894 C242.484,125.574 244.614,129.8 247.696,133.136 C252.002,137.8 258.166,140.724 265,140.724 C271.836,140.724 277.998,137.8 282.306,133.136 C285.386,129.8 287.518,125.574 288.264,120.894 Z" />
            <path class="multicolor-3:orange" d="M265.001,92.058 C278.533,92.058 289.521,103.047 289.521,116.582 C289.521,130.117 278.533,141.105 265.001,141.105 C251.466,141.105 240.478,130.117 240.478,116.582 C240.478,103.047 251.466,92.058 265.001,92.058 Z M257.383,126.043 C256.905,126.778 256.167,127.598 255.122,127.963 C253.896,128.387 255.201,130.513 258.958,130.009 C260.643,129.778 261.267,128.089 260.966,126.379 C262.084,126.737 263.231,127.196 264.327,127.377 C266.503,127.738 267.523,127.171 269.116,126.354 C270.944,125.413 272.547,125.017 273.313,124.874 C273.582,124.82 273.852,124.973 273.943,125.235 C274.222,126.011 274.726,127.298 275.663,127.522 C276.699,127.773 278.625,127.307 279.822,126.639 C280.111,126.477 280.203,126.11 280.012,125.837 C279.867,125.631 279.626,125.406 279.195,125.226 C277.219,124.361 276.842,123.477 276.661,122.822 C276.617,122.667 276.645,122.505 276.734,122.369 C277.051,121.894 277.859,120.804 278.717,120.921 C279.807,121.067 279.572,122.191 281.093,123.135 C282.075,123.747 283.003,123.775 283.589,123.541 C283.912,123.417 284.029,123.028 283.848,122.733 C283.535,122.217 283.012,121.194 282.724,119.607 C282.372,117.681 283.164,115.213 283.966,113.896 C284.713,112.673 285.435,111.979 285.948,111.609 L285.948,111.593 C286.325,111.311 286.208,110.709 285.749,110.601 C285.255,110.484 284.517,110.465 283.462,110.744 C280.941,111.393 279.822,115.679 278.213,116.651 C277.368,117.155 275.724,116.712 274.197,116.072 C273.731,115.568 273.281,114.795 273.053,113.949 C272.385,111.485 270.538,110.034 270.538,110.034 C270.294,110.845 268.967,112.02 268.429,112.568 C267.925,112.195 267.463,111.856 267.143,111.618 C266.911,111.438 266.845,111.114 267.019,110.861 C267.694,109.844 268.163,108.701 268.359,108.153 C268.432,107.953 268.384,107.728 268.242,107.573 C267.738,107.044 266.458,105.783 265.046,105.007 C263.658,104.241 261.615,103.468 259.94,103.297 C256.769,102.983 254.571,103.576 253.554,103.953 C253.212,104.079 253.085,104.485 253.285,104.786 C254.624,106.819 255.562,108.897 255.977,109.889 C256.113,110.221 255.904,110.592 255.553,110.655 C254.267,110.89 252.733,110.753 251.213,110.744 C249.053,110.744 248.53,110.772 246.816,111.476 C245.613,111.97 245.071,113.934 245.134,115.581 C245.169,116.483 246.063,117.066 246.908,116.788 L246.937,116.788 C248.071,116.43 249.034,116.645 250.104,117.193 C251.321,117.814 253.348,119.128 254.038,120.253 C254.735,121.381 254.78,121.247 253.069,121.571 C251.184,121.919 249.401,123.002 248.502,122.885 C247.808,122.793 247.285,122.489 246.937,122.191 C246.63,121.932 246.151,122.093 246.044,122.48 C245.8,123.405 245.755,124.352 247.044,124.893 C248.609,125.549 249.664,125.768 251.501,125.964 C253.373,126.173 255.087,126.217 256.652,126.1 C256.911,126.081 257.155,126.059 257.383,126.043 Z" />
            <path class="multicolor-3:orange" d="M255.895,118.875 C254.311,118.463 253.24,117.057 253.446,115.435 C253.709,113.329 255.581,111.7 258.049,112.755 C260.643,113.861 260.092,116.518 259.509,117.627 C258.929,118.732 257.301,119.246 255.895,118.875 Z M256.699,114.285 C256.101,114.247 255.651,114.52 255.356,115.023 C254.925,115.752 255.229,116.832 256.363,117.202 C257.311,117.507 258.239,116.826 258.229,115.844 C258.229,114.906 257.383,114.339 256.687,114.292 L256.699,114.285 Z" />
            <path class="multicolor-3:orange" d="M257.067,115.419 L257.067,115.429 C257.228,115.609 257.311,115.939 257.067,116.176 C256.823,116.411 256.436,116.357 256.284,116.049 C256.094,115.679 256.284,115.346 256.563,115.273 C256.759,115.22 256.93,115.267 257.067,115.419 Z" />
        </g>
        <g id="Regular-S">
            <path class="multicolor-0:blue" d="M456.198,89.678 L444.72,76 L450.906,76 L461.416,88.532 C459.62,88.754 457.876,89.142 456.198,89.678 Z M468.586,88.532 L479.094,76 L485.28,76 L473.804,89.678 C472.126,89.142 470.382,88.754 468.586,88.532 Z" />
            <path class="multicolor-1:red" d="M451.62,91.596 L438.534,76 L444.72,76 L456.198,89.678 C454.606,90.188 453.076,90.832 451.62,91.596 Z M461.416,88.532 L450.906,76 L457.094,76 L465,85.428 L472.908,76 L479.094,76 L468.586,88.532 C467.41,88.386 466.214,88.31 465,88.31 C463.786,88.31 462.59,88.386 461.416,88.532 Z M473.804,89.678 L485.28,76 L491.468,76 L483.668,85.294 L478.382,91.596 C476.924,90.83 475.394,90.188 473.804,89.678 Z" />
            <path class="multicolor-2:yellow" d="M437.294,125.206 C437.22,124.996 437.15,124.79 437.084,124.612 L432.058,124.296 C431.338,121.72 431.13,119.136 431.706,116.526 L436.168,117.998 C436.16,117.718 436.156,117.436 436.156,117.156 C436.156,101.224 449.07,88.31 465,88.31 C480.932,88.31 493.844,101.224 493.844,117.156 C493.844,117.436 493.84,117.718 493.832,117.998 L498.294,116.526 C498.87,119.136 498.664,121.72 497.942,124.296 L492.918,124.612 C492.85,124.79 492.78,124.996 492.706,125.208 C492.636,125.448 492.564,125.688 492.488,125.926 L497.474,125.864 C496.872,127.556 496.052,129.178 495.114,130.664 L490.494,130.664 C490.268,131.088 490.032,131.506 489.786,131.918 L494.116,132.132 C491.494,135.706 488.226,138.21 485.758,138.498 C485.19,138.566 484.938,138.584 484.544,138.37 C479.404,143.108 472.54,146 465,146 C457.46,146 450.596,143.108 445.456,138.37 C445.062,138.584 444.812,138.566 444.242,138.498 C441.776,138.21 438.506,135.706 435.886,132.132 L440.214,131.918 C439.97,131.506 439.734,131.088 439.508,130.664 L434.886,130.664 C433.95,129.178 433.13,127.556 432.526,125.864 L437.514,125.926 C437.438,125.688 437.364,125.448 437.294,125.206 Z M488.264,120.894 C488.458,119.678 488.56,118.432 488.56,117.164 C488.56,104.172 477.988,93.606 465,93.606 C452.008,93.606 441.442,104.172 441.442,117.164 C441.442,118.432 441.542,119.678 441.736,120.894 C442.484,125.574 444.614,129.8 447.696,133.136 C452.002,137.8 458.166,140.724 465,140.724 C471.836,140.724 477.998,137.8 482.306,133.136 C485.386,129.8 487.518,125.574 488.264,120.894 Z" />
            <path class="multicolor-3:orange" d="M465.001,92.058 C478.533,92.058 489.521,103.047 489.521,116.582 C489.521,130.117 478.533,141.105 465.001,141.105 C451.466,141.105 440.478,130.117 440.478,116.582 C440.478,103.047 451.466,92.058 465.001,92.058 Z M457.383,126.043 C456.905,126.778 456.167,127.598 455.122,127.963 C453.896,128.387 455.201,130.513 458.958,130.009 C460.643,129.778 461.267,128.089 460.966,126.379 C462.084,126.737 463.231,127.196 464.327,127.377 C466.503,127.738 467.523,127.171 469.116,126.354 C470.944,125.413 472.547,125.017 473.313,124.874 C473.582,124.82 473.852,124.973 473.943,125.235 C474.222,126.011 474.726,127.298 475.663,127.522 C476.699,127.773 478.625,127.307 479.822,126.639 C480.111,126.477 480.202,126.11 480.012,125.837 C479.867,125.631 479.626,125.406 479.195,125.226 C477.219,124.361 476.842,123.477 476.661,122.822 C476.617,122.667 476.645,122.505 476.734,122.369 C477.051,121.894 477.858,120.804 478.717,120.921 C479.807,121.067 479.572,122.191 481.093,123.135 C482.075,123.747 483.003,123.775 483.589,123.541 C483.912,123.417 484.029,123.028 483.848,122.733 C483.535,122.217 483.012,121.194 482.724,119.607 C482.372,117.681 483.164,115.213 483.966,113.896 C484.713,112.673 485.435,111.979 485.948,111.609 L485.948,111.593 C486.325,111.311 486.208,110.709 485.749,110.601 C485.255,110.484 484.517,110.465 483.462,110.744 C480.941,111.393 479.822,115.679 478.213,116.651 C477.368,117.155 475.724,116.712 474.197,116.072 C473.731,115.568 473.281,114.795 473.053,113.949 C472.385,111.485 470.538,110.034 470.538,110.034 C470.294,110.845 468.967,112.02 468.429,112.568 C467.925,112.195 467.463,111.856 467.143,111.618 C466.911,111.438 466.845,111.114 467.019,110.861 C467.694,109.844 468.163,108.701 468.359,108.153 C468.432,107.953 468.384,107.728 468.242,107.573 C467.738,107.044 466.458,105.783 465.046,105.007 C463.658,104.241 461.615,103.468 459.94,103.297 C456.769,102.983 454.571,103.576 453.554,103.953 C453.212,104.079 453.085,104.485 453.285,104.786 C454.624,106.819 455.562,108.897 455.977,109.889 C456.113,110.221 455.904,110.592 455.553,110.655 C454.267,110.89 452.733,110.753 451.213,110.744 C449.053,110.744 448.53,110.772 446.816,111.476 C445.613,111.97 445.071,113.934 445.134,115.581 C445.169,116.483 446.063,117.066 446.908,116.788 L446.937,116.788 C448.071,116.43 449.034,116.645 450.104,117.193 C451.321,117.814 453.348,119.128 454.038,120.253 C454.735,121.381 454.78,121.247 453.069,121.571 C451.184,121.919 449.401,123.002 448.502,122.885 C447.808,122.793 447.285,122.489 446.937,122.191 C446.63,121.932 446.151,122.093 446.044,122.48 C445.8,123.405 445.755,124.352 447.044,124.893 C448.609,125.549 449.664,125.768 451.501,125.964 C453.373,126.173 455.087,126.217 456.652,126.1 C456.911,126.081 457.155,126.059 457.383,126.043 Z" />
            <path class="multicolor-3:orange" d="M455.895,118.875 C454.311,118.463 453.24,117.057 453.446,115.435 C453.709,113.329 455.581,111.7 458.049,112.755 C460.643,113.861 460.092,116.518 459.509,117.627 C458.929,118.732 457.301,119.246 455.895,118.875 Z M456.699,114.285 C456.101,114.247 455.651,114.52 455.356,115.023 C454.925,115.752 455.229,116.832 456.363,117.202 C457.311,117.507 458.239,116.826 458.229,115.844 C458.229,114.906 457.383,114.339 456.687,114.292 L456.699,114.285 Z" />
            <path class="multicolor-3:orange" d="M457.067,115.419 L457.067,115.429 C457.228,115.609 457.311,115.939 457.067,116.176 C456.823,116.411 456.436,116.357 456.284,116.049 C456.094,115.679 456.284,115.346 456.563,115.273 C456.759,115.22 456.93,115.267 457.067,115.419 Z" />
        </g>
        <g id="Black-S">
            <path class="multicolor-0:blue" d="M656.198,89.678 L644.72,76 L650.906,76 L661.416,88.532 C659.62,88.754 657.876,89.142 656.198,89.678 Z M668.586,88.532 L679.094,76 L685.28,76 L673.804,89.678 C672.126,89.142 670.382,88.754 668.586,88.532 Z" />
            <path class="multicolor-1:red" d="M651.62,91.596 L638.534,76 L644.72,76 L656.198,89.678 C654.606,90.188 653.076,90.832 651.62,91.596 Z M661.416,88.532 L650.906,76 L657.094,76 L665,85.428 L672.908,76 L679.094,76 L668.586,88.532 C667.41,88.386 666.214,88.31 665,88.31 C663.786,88.31 662.59,88.386 661.416,88.532 Z M673.804,89.678 L685.28,76 L691.468,76 L683.668,85.294 L678.382,91.596 C676.924,90.83 675.394,90.188 673.804,89.678 Z" />
            <path class="multicolor-2:yellow" d="M637.294,125.206 C637.22,124.996 637.15,124.79 637.084,124.612 L632.058,124.296 C631.338,121.72 631.13,119.136 631.706,116.526 L636.168,117.998 C636.16,117.718 636.156,117.436 636.156,117.156 C636.156,101.224 649.07,88.31 665,88.31 C680.932,88.31 693.844,101.224 693.844,117.156 C693.844,117.436 693.84,117.718 693.832,117.998 L698.294,116.526 C698.87,119.136 698.664,121.72 697.942,124.296 L692.918,124.612 C692.85,124.79 692.78,124.996 692.706,125.208 C692.636,125.448 692.564,125.688 692.488,125.926 L697.474,125.864 C696.872,127.556 696.052,129.178 695.114,130.664 L690.494,130.664 C690.268,131.088 690.032,131.506 689.786,131.918 L694.116,132.132 C691.494,135.706 688.226,138.21 685.758,138.498 C685.19,138.566 684.938,138.584 684.544,138.37 C679.404,143.108 672.54,146 665,146 C657.46,146 650.596,143.108 645.456,138.37 C645.062,138.584 644.812,138.566 644.242,138.498 C641.776,138.21 638.506,135.706 635.886,132.132 L640.214,131.918 C639.97,131.506 639.734,131.088 639.508,130.664 L634.886,130.664 C633.95,129.178 633.13,127.556 632.526,125.864 L637.514,125.926 C637.438,125.688 637.364,125.448 637.294,125.206 Z M688.264,120.894 C688.458,119.678 688.56,118.432 688.56,117.164 C688.56,104.172 677.988,93.606 665,93.606 C652.008,93.606 641.442,104.172 641.442,117.164 C641.442,118.432 641.542,119.678 641.736,120.894 C642.484,125.574 644.614,129.8 647.696,133.136 C652.002,137.8 658.166,140.724 665,140.724 C671.836,140.724 677.998,137.8 682.306,133.136 C685.386,129.8 687.518,125.574 688.264,120.894 Z" />
            <path class="multicolor-3:orange" d="M665.001,92.058 C678.533,92.058 689.521,103.047 689.521,116.582 C689.521,130.117 678.533,141.105 665.001,141.105 C651.466,141.105 640.478,130.117 640.478,116.582 C640.478,103.047 651.466,92.058 665.001,92.058 Z M657.383,126.043 C656.905,126.778 656.167,127.598 655.122,127.963 C653.896,128.387 655.201,130.513 658.958,130.009 C660.643,129.778 661.267,128.089 660.966,126.379 C662.084,126.737 663.231,127.196 664.327,127.377 C666.503,127.738 667.523,127.171 669.116,126.354 C670.944,125.413 672.547,125.017 673.313,124.874 C673.582,124.82 673.852,124.973 673.943,125.235 C674.222,126.011 674.726,127.298 675.663,127.522 C676.699,127.773 678.625,127.307 679.822,126.639 C680.111,126.477 680.203,126.11 680.012,125.837 C679.867,125.631 679.626,125.406 679.195,125.226 C677.219,124.361 676.842,123.477 676.661,122.822 C676.617,122.667 676.645,122.505 676.734,122.369 C677.051,121.894 677.859,120.804 678.717,120.921 C679.807,121.067 679.572,122.191 681.093,123.135 C682.075,123.747 683.003,123.775 683.589,123.541 C683.912,123.417 684.029,123.028 683.848,122.733 C683.535,122.217 683.012,121.194 682.724,119.607 C682.372,117.681 683.164,115.213 683.966,113.896 C684.713,112.673 685.435,111.979 685.948,111.609 L685.948,111.593 C686.325,111.311 686.208,110.709 685.749,110.601 C685.255,110.484 684.517,110.465 683.462,110.744 C680.941,111.393 679.822,115.679 678.213,116.651 C677.368,117.155 675.724,116.712 674.197,116.072 C673.731,115.568 673.281,114.795 673.053,113.949 C672.385,111.485 670.538,110.034 670.538,110.034 C670.294,110.845 668.967,112.02 668.429,112.568 C667.925,112.195 667.463,111.856 667.143,111.618 C666.911,111.438 666.845,111.114 667.019,110.861 C667.694,109.844 668.163,108.701 668.359,108.153 C668.432,107.953 668.384,107.728 668.242,107.573 C667.738,107.044 666.458,105.783 665.046,105.007 C663.658,104.241 661.615,103.468 659.94,103.297 C656.769,102.983 654.571,103.576 653.554,103.953 C653.212,104.079 653.085,104.485 653.285,104.786 C654.624,106.819 655.562,108.897 655.977,109.889 C656.113,110.221 655.904,110.592 655.553,110.655 C654.267,110.89 652.733,110.753 651.213,110.744 C649.053,110.744 648.53,110.772 646.816,111.476 C645.613,111.97 645.071,113.934 645.134,115.581 C645.169,116.483 646.063,117.066 646.908,116.788 L646.937,116.788 C648.071,116.43 649.034,116.645 650.104,117.193 C651.321,117.814 653.348,119.128 654.038,120.253 C654.735,121.381 654.78,121.247 653.069,121.571 C651.184,121.919 649.401,123.002 648.502,122.885 C647.808,122.793 647.285,122.489 646.937,122.191 C646.63,121.932 646.151,122.093 646.044,122.48 C645.8,123.405 645.755,124.352 647.044,124.893 C648.609,125.549 649.664,125.768 651.501,125.964 C653.373,126.173 655.087,126.217 656.652,126.1 C656.911,126.081 657.155,126.059 657.383,126.043 Z" />
            <path class="multicolor-3:orange" d="M655.895,118.875 C654.311,118.463 653.24,117.057 653.446,115.435 C653.709,113.329 655.581,111.7 658.049,112.755 C660.643,113.861 660.092,116.518 659.509,117.627 C658.929,118.732 657.301,119.246 655.895,118.875 Z M656.699,114.285 C656.101,114.247 655.651,114.52 655.356,115.023 C654.925,115.752 655.229,116.832 656.363,117.202 C657.311,117.507 658.239,116.826 658.229,115.844 C658.229,114.906 657.383,114.339 656.687,114.292 L656.699,114.285 Z" />
            <path class="multicolor-3:orange" d="M657.067,115.419 L657.067,115.429 C657.228,115.609 657.311,115.939 657.067,116.176 C656.823,116.411 656.436,116.357 656.284,116.049 C656.094,115.679 656.284,115.346 656.563,115.273 C656.759,115.22 656.93,115.267 657.067,115.419 Z" />
        </g>
    </g>
</svg>