<?xml version="1.0" encoding="UTF-8"?>
<svg height="600" width="800" xmlns="http://www.w3.org/2000/svg" xmlns:xlink="http://www.w3.org/1999/xlink">
    <style>
        .multicolor-0:orange { fill:#FF5033; opacity:1.0 }
    </style>
    <g id="Notes" font-family="'LucidaGrande', 'Lucida Grande', sans-serif" font-size="13">
        <rect fill="white" height="600.0" width="800.0" x="0.0" y="0.0" />
        <g font-size="13">
            <text x="18.0" y="176.0">Small</text>
            <text x="18.0" y="376.0">Medium</text>
            <text x="18.0" y="576.0">Large</text>
        </g>
        <g font-size="9">
            <text x="250.0" y="30.0">Ultralight</text>
            <text x="450.0" y="30.0">Regular</text>
            <text x="650.0" y="30.0">Black</text>
            <text id="template-version" fill="#505050" text-anchor="end" x="785.0" y="575.0">Template v.3.0</text>
            <a href="https://github.com/swhitty/SwiftDraw">
                <text fill="#505050" text-anchor="end" x="785.0" y="590.0">https://github.com/swhitty/SwiftDraw</text>
            </a>
        </g>
    </g>
    <g id="Guides" stroke="rgb(39, 170, 225)" stroke-width="0.5">
        <path id="Capline-S" d="M18,76 l800,0" />
        <path id="H-reference" d="M85,145.755 L87.685,145.755 L113.369,79.287 L114.052,79.287 L114.052,76 L112.148,76 L85,145.755 Z M95.693,121.536 L130.996,121.536 L130.263,119.313 L96.474,119.313 L95.693,121.536 Z M139.15,145.755 L141.787,145.755 L114.638,76 L113.466,76 L113.466,79.287 L139.15,145.755 Z" stroke="none" />
        <path id="Baseline-S" d="M18,146 l800,0" />
        <path id="left-margin-Ultralight-S" d="M211,56 l0,110" />
        <path id="right-margin-Ultralight-S" d="M319,56 l0,110" />
        <path id="left-margin-Regular-S" d="M411,56 l0,110" />
        <path id="right-margin-Regular-S" d="M519,56 l0,110" />
        <path id="left-margin-Black-S" d="M611,56 l0,110" />
        <path id="right-margin-Black-S" d="M719,56 l0,110" />
        <path id="Capline-M" d="M18,276 l800,0" />
        <path id="Baseline-M" d="M18,346 l800,0" />
        <path id="Capline-L" d="M18,476 l800,0" />
        <path id="Baseline-L" d="M18,546 l800,0" />
    </g>
    <g id="Symbols">
        <g id="Ultralight-S">
            <path class="multicolor-0:orange" d="M284.109,106.108 C284.677,106.073 285.244,106.203 285.742,106.478 C286.239,106.755 286.646,107.169 286.914,107.668 C287.152,108.104 287.284,108.588 287.299,109.083 C287.315,109.578 287.213,110.068 287.004,110.519 C286.793,110.968 286.481,111.362 286.089,111.67 C285.7,111.978 285.242,112.191 284.754,112.29 C284.303,112.444 283.821,112.491 283.348,112.425 C282.875,112.359 282.426,112.183 282.035,111.91 C281.643,111.639 281.324,111.281 281.097,110.863 C280.873,110.445 280.752,109.98 280.743,109.505 C280.763,108.621 281.122,107.776 281.749,107.145 C282.373,106.513 283.218,106.144 284.109,106.108 Z M283.35,110.09 C283.462,110.211 283.603,110.304 283.759,110.357 C283.916,110.412 284.083,110.427 284.246,110.403 C284.408,110.379 284.562,110.313 284.697,110.216 C284.829,110.117 284.934,109.989 285.007,109.84 C285.101,109.697 285.161,109.534 285.178,109.364 C285.198,109.195 285.178,109.023 285.117,108.863 C285.057,108.702 284.961,108.559 284.833,108.443 C284.708,108.328 284.554,108.242 284.389,108.196 C284.199,108.143 283.999,108.143 283.81,108.196 C283.623,108.251 283.454,108.357 283.322,108.504 C283.148,108.718 283.055,108.986 283.06,109.261 C283.066,109.536 283.17,109.884 283.35,110.09 Z" />
            <path class="multicolor-0:orange" d="M275.061,131.723 C272.72,132.484 270.322,133.428 268.036,133.848 C264.463,134.479 260.783,133.709 257.769,131.703 C254.924,130.26 251.895,129.21 248.764,128.583 C248.487,128.528 248.196,128.572 247.95,128.711 C247.701,128.847 247.514,129.07 247.418,129.336 C246.828,131.008 245.763,133.736 243.744,134.237 C240.65,134.53 237.542,133.89 234.823,132.4 C234.68,132.319 234.552,132.211 234.453,132.079 C234.352,131.949 234.281,131.8 234.242,131.641 C234.202,131.481 234.196,131.316 234.224,131.155 C234.251,130.992 234.312,130.838 234.402,130.7 C234.851,130.108 235.452,129.648 236.14,129.364 C240.378,127.525 241.163,125.631 241.555,124.238 C241.599,124.078 241.605,123.911 241.577,123.748 C241.548,123.583 241.482,123.429 241.387,123.292 C240.714,122.289 238.974,119.951 237.15,120.202 C234.823,120.536 235.3,122.987 232.075,124.964 C231.307,125.503 230.425,125.862 229.497,126.012 C228.568,126.161 227.616,126.097 226.716,125.827 C226.557,125.763 226.414,125.666 226.298,125.541 C226.181,125.418 226.091,125.268 226.038,125.107 C225.985,124.945 225.968,124.773 225.988,124.604 C226.007,124.437 226.065,124.274 226.155,124.129 C227.365,122.078 228.174,119.819 228.54,117.471 C228.938,113.23 227.957,108.973 225.735,105.327 C224.639,103.457 223.191,101.812 221.471,100.483 C221.297,100.349 221.163,100.171 221.082,99.968 C221.002,99.766 220.98,99.544 221.018,99.328 C221.055,99.115 221.152,98.912 221.295,98.747 C221.44,98.582 221.627,98.461 221.836,98.393 C223.464,98.103 225.138,98.206 226.716,98.699 C232.13,100.065 234.543,109.173 237.936,111.206 C239.812,112.328 243.304,111.36 246.542,109.974 C246.945,109.606 247.31,109.199 247.635,108.759 C248.364,107.772 248.863,106.639 249.101,105.44 C250.038,102.192 251.91,99.288 254.486,97.084 C254.999,98.776 257.742,101.191 258.946,102.377 C259.997,101.603 260.952,100.892 261.612,100.399 C261.861,100.226 262.03,99.959 262.083,99.662 C262.133,99.365 262.065,99.06 261.891,98.811 C260.741,97 259.799,95.067 259.086,93.047 C259.005,92.842 258.981,92.618 259.02,92.4 C259.06,92.185 259.161,91.982 259.311,91.822 C261.317,89.655 263.623,87.778 266.155,86.251 C269.543,84.368 273.252,83.121 277.096,82.575 C281.694,81.992 286.366,82.458 290.755,83.939 C290.925,83.998 291.079,84.095 291.206,84.223 C291.332,84.348 291.426,84.502 291.484,84.672 C291.541,84.841 291.558,85.021 291.534,85.2 C291.51,85.376 291.444,85.545 291.345,85.692 C289.147,89.146 287.268,92.792 285.735,96.582 C285.665,96.747 285.632,96.923 285.643,97.102 C285.651,97.28 285.7,97.454 285.786,97.608 C285.874,97.764 285.995,97.898 286.142,98.001 C286.287,98.103 286.457,98.171 286.633,98.199 C289.726,98.525 292.843,98.58 295.945,98.367 C299.157,98.067 302.393,98.595 305.344,99.898 C307.924,100.927 309.13,105.105 308.989,108.614 C308.987,109.063 308.875,109.503 308.663,109.899 C308.452,110.295 308.146,110.636 307.775,110.889 C307.403,111.144 306.976,111.305 306.527,111.36 C306.081,111.415 305.625,111.362 305.203,111.206 C304.072,110.874 302.882,110.781 301.714,110.935 C300.543,111.087 299.419,111.483 298.414,112.097 C295.171,113.643 292.3,115.868 289.999,118.613 C288.54,121.038 288.428,120.73 292.102,121.398 C295.778,122.067 299.984,124.406 301.892,124.184 C303.135,124.005 304.301,123.484 305.258,122.679 C305.412,122.551 305.594,122.463 305.792,122.424 C305.99,122.384 306.193,122.397 306.384,122.459 C306.576,122.518 306.747,122.628 306.884,122.773 C307.02,122.921 307.119,123.099 307.165,123.292 C307.698,125.242 307.812,127.248 305.062,128.416 C302.035,129.708 298.812,130.489 295.525,130.728 C291.86,131.177 288.159,131.289 284.472,131.063 C283.852,130.97 283.227,130.9 282.602,130.856 C282.921,131.331 283.275,131.784 283.663,132.211 C284.76,133.428 286.096,134.409 287.587,135.102 C290.223,135.993 287.447,140.672 279.395,139.473 C275.767,139.005 274.407,135.388 275.061,131.723 Z M278.105,113.155 C278.946,114.354 280.151,115.254 281.544,115.725 C282.937,116.195 284.444,116.213 285.847,115.773 C287.477,115.401 288.914,114.444 289.882,113.089 C290.848,111.734 291.279,110.071 291.092,108.421 C291.017,107.303 290.663,106.221 290.062,105.272 C289.462,104.326 288.632,103.541 287.651,102.989 C286.67,102.437 285.568,102.135 284.439,102.111 C283.311,102.087 282.195,102.34 281.19,102.85 C280.264,103.279 279.439,103.9 278.77,104.67 C278.103,105.437 277.606,106.339 277.316,107.314 C277.023,108.286 276.942,109.312 277.078,110.319 C277.214,111.325 277.564,112.293 278.105,113.155 Z" />
        </g>
        <g id="Regular-S">
            <path class="multicolor-0:orange" d="M484.109,106.108 C484.677,106.073 485.244,106.203 485.742,106.478 C486.239,106.755 486.646,107.169 486.914,107.668 C487.152,108.104 487.284,108.588 487.299,109.083 C487.315,109.578 487.213,110.068 487.004,110.519 C486.793,110.968 486.481,111.362 486.089,111.67 C485.7,111.978 485.242,112.191 484.754,112.29 C484.303,112.444 483.821,112.491 483.348,112.425 C482.875,112.359 482.426,112.183 482.035,111.91 C481.643,111.639 481.324,111.281 481.097,110.863 C480.873,110.445 480.752,109.98 480.743,109.505 C480.763,108.621 481.122,107.776 481.749,107.145 C482.373,106.513 483.218,106.144 484.109,106.108 Z M483.35,110.09 C483.462,110.211 483.603,110.304 483.759,110.357 C483.916,110.412 484.083,110.427 484.246,110.403 C484.408,110.379 484.562,110.313 484.697,110.216 C484.829,110.117 484.934,109.989 485.007,109.84 C485.101,109.697 485.161,109.534 485.178,109.364 C485.198,109.195 485.178,109.023 485.117,108.863 C485.057,108.702 484.961,108.559 484.833,108.443 C484.708,108.328 484.554,108.242 484.389,108.196 C484.199,108.143 483.999,108.143 483.81,108.196 C483.623,108.251 483.454,108.357 483.322,108.504 C483.148,108.718 483.055,108.986 483.06,109.261 C483.066,109.536 483.17,109.884 483.35,110.09 Z" />
            <path class="multicolor-0:orange" d="M475.061,131.723 C472.72,132.484 470.322,133.428 468.036,133.848 C464.463,134.479 460.783,133.709 457.769,131.703 C454.924,130.26 451.895,129.21 448.764,128.583 C448.487,128.528 448.196,128.572 447.95,128.711 C447.701,128.847 447.514,129.07 447.418,129.336 C446.828,131.008 445.763,133.736 443.744,134.237 C440.65,134.53 437.542,133.89 434.823,132.4 C434.68,132.319 434.552,132.211 434.453,132.079 C434.352,131.949 434.281,131.8 434.242,131.641 C434.202,131.481 434.196,131.316 434.224,131.155 C434.251,130.992 434.312,130.838 434.402,130.7 C434.851,130.108 435.452,129.648 436.141,129.364 C440.378,127.525 441.163,125.631 441.555,124.238 C441.599,124.078 441.605,123.911 441.577,123.748 C441.548,123.583 441.482,123.429 441.387,123.292 C440.714,122.289 438.974,119.951 437.15,120.202 C434.823,120.536 435.3,122.987 432.075,124.964 C431.307,125.503 430.425,125.862 429.497,126.012 C428.568,126.161 427.616,126.097 426.716,125.827 C426.557,125.763 426.414,125.666 426.298,125.541 C426.181,125.418 426.091,125.268 426.038,125.107 C425.985,124.945 425.968,124.773 425.988,124.604 C426.007,124.437 426.065,124.274 426.155,124.129 C427.365,122.078 428.174,119.819 428.54,117.471 C428.938,113.23 427.957,108.973 425.735,105.327 C424.639,103.457 423.191,101.812 421.471,100.483 C421.297,100.349 421.163,100.171 421.082,99.968 C421.002,99.766 420.98,99.544 421.018,99.328 C421.055,99.115 421.152,98.912 421.295,98.747 C421.44,98.582 421.627,98.461 421.836,98.393 C423.464,98.103 425.138,98.206 426.716,98.699 C432.13,100.065 434.543,109.173 437.936,111.206 C439.812,112.328 443.304,111.36 446.542,109.974 C446.945,109.606 447.31,109.199 447.635,108.759 C448.364,107.772 448.863,106.639 449.101,105.44 C450.038,102.192 451.91,99.288 454.486,97.084 C454.999,98.776 457.742,101.191 458.946,102.377 C459.997,101.603 460.952,100.892 461.612,100.399 C461.861,100.226 462.03,99.959 462.083,99.662 C462.133,99.365 462.065,99.06 461.891,98.811 C460.741,97 459.799,95.067 459.086,93.047 C459.005,92.842 458.981,92.618 459.02,92.4 C459.06,92.185 459.161,91.982 459.311,91.822 C461.317,89.655 463.623,87.778 466.155,86.251 C469.543,84.368 473.252,83.121 477.096,82.575 C481.694,81.992 486.366,82.458 490.755,83.939 C490.925,83.998 491.079,84.095 491.206,84.223 C491.332,84.348 491.426,84.502 491.484,84.672 C491.541,84.841 491.558,85.021 491.534,85.2 C491.51,85.376 491.444,85.545 491.345,85.692 C489.147,89.146 487.268,92.792 485.735,96.582 C485.665,96.747 485.632,96.923 485.643,97.102 C485.651,97.28 485.7,97.454 485.786,97.608 C485.874,97.764 485.995,97.898 486.142,98.001 C486.287,98.103 486.457,98.171 486.633,98.199 C489.726,98.525 492.843,98.58 495.945,98.367 C499.157,98.067 502.393,98.595 505.344,99.898 C507.924,100.927 509.13,105.105 508.989,108.614 C508.987,109.063 508.875,109.503 508.663,109.899 C508.452,110.295 508.146,110.636 507.775,110.889 C507.403,111.144 506.976,111.305 506.527,111.36 C506.081,111.415 505.625,111.362 505.203,111.206 C504.072,110.874 502.882,110.781 501.714,110.935 C500.543,111.087 499.419,111.483 498.414,112.097 C495.171,113.643 492.3,115.868 489.999,118.613 C488.54,121.038 488.428,120.73 492.102,121.398 C495.778,122.067 499.984,124.406 501.892,124.184 C503.135,124.005 504.301,123.484 505.258,122.679 C505.412,122.551 505.594,122.463 505.792,122.424 C505.99,122.384 506.193,122.397 506.384,122.459 C506.576,122.518 506.747,122.628 506.884,122.773 C507.02,122.921 507.119,123.099 507.165,123.292 C507.698,125.242 507.812,127.248 505.062,128.416 C502.035,129.708 498.812,130.489 495.525,130.728 C491.86,131.177 488.159,131.289 484.472,131.063 C483.852,130.97 483.227,130.9 482.602,130.856 C482.921,131.331 483.275,131.784 483.663,132.211 C484.76,133.428 486.096,134.409 487.587,135.102 C490.223,135.993 487.447,140.672 479.395,139.473 C475.767,139.005 474.407,135.388 475.061,131.723 Z M478.105,113.155 C478.946,114.354 480.151,115.254 481.544,115.725 C482.937,116.195 484.444,116.213 485.847,115.773 C487.477,115.401 488.914,114.444 489.882,113.089 C490.848,111.734 491.279,110.071 491.092,108.421 C491.017,107.303 490.663,106.221 490.062,105.272 C489.462,104.326 488.632,103.541 487.651,102.989 C486.67,102.437 485.568,102.135 484.439,102.111 C483.311,102.087 482.195,102.34 481.19,102.85 C480.264,103.279 479.439,103.9 478.77,104.67 C478.103,105.437 477.606,106.339 477.316,107.314 C477.023,108.286 476.942,109.312 477.078,110.319 C477.214,111.325 477.564,112.293 478.105,113.155 Z" />
        </g>
        <g id="Black-S">
            <path class="multicolor-0:orange" d="M684.109,106.108 C684.677,106.073 685.244,106.203 685.742,106.478 C686.239,106.755 686.646,107.169 686.914,107.668 C687.152,108.104 687.284,108.588 687.299,109.083 C687.315,109.578 687.213,110.068 687.004,110.519 C686.793,110.968 686.481,111.362 686.089,111.67 C685.7,111.978 685.242,112.191 684.754,112.29 C684.303,112.444 683.821,112.491 683.348,112.425 C682.875,112.359 682.426,112.183 682.035,111.91 C681.643,111.639 681.324,111.281 681.097,110.863 C680.873,110.445 680.752,109.98 680.743,109.505 C680.763,108.621 681.122,107.776 681.749,107.145 C682.373,106.513 683.218,106.144 684.109,106.108 Z M683.35,110.09 C683.462,110.211 683.603,110.304 683.759,110.357 C683.916,110.412 684.083,110.427 684.246,110.403 C684.408,110.379 684.562,110.313 684.697,110.216 C684.829,110.117 684.934,109.989 685.007,109.84 C685.101,109.697 685.161,109.534 685.178,109.364 C685.198,109.195 685.178,109.023 685.117,108.863 C685.057,108.702 684.961,108.559 684.833,108.443 C684.708,108.328 684.554,108.242 684.389,108.196 C684.199,108.143 683.999,108.143 683.81,108.196 C683.623,108.251 683.454,108.357 683.322,108.504 C683.148,108.718 683.055,108.986 683.06,109.261 C683.066,109.536 683.17,109.884 683.35,110.09 Z" />
            <path class="multicolor-0:orange" d="M675.061,131.723 C672.72,132.484 670.322,133.428 668.036,133.848 C664.463,134.479 660.783,133.709 657.769,131.703 C654.924,130.26 651.895,129.21 648.764,128.583 C648.487,128.528 648.196,128.572 647.95,128.711 C647.701,128.847 647.514,129.07 647.418,129.336 C646.828,131.008 645.763,133.736 643.744,134.237 C640.651,134.53 637.542,133.89 634.823,132.4 C634.68,132.319 634.552,132.211 634.453,132.079 C634.352,131.949 634.281,131.8 634.242,131.641 C634.202,131.481 634.196,131.316 634.224,131.155 C634.251,130.992 634.312,130.838 634.402,130.7 C634.851,130.108 635.452,129.648 636.141,129.364 C640.378,127.525 641.163,125.631 641.555,124.238 C641.599,124.078 641.605,123.911 641.577,123.748 C641.548,123.583 641.482,123.429 641.388,123.292 C640.714,122.289 638.974,119.951 637.15,120.202 C634.823,120.536 635.3,122.987 632.075,124.964 C631.307,125.503 630.425,125.862 629.497,126.012 C628.568,126.161 627.616,126.097 626.716,125.827 C626.557,125.763 626.414,125.666 626.298,125.541 C626.181,125.418 626.091,125.268 626.038,125.107 C625.985,124.945 625.968,124.773 625.987,124.604 C626.007,124.437 626.065,124.274 626.155,124.129 C627.365,122.078 628.174,119.819 628.539,117.471 C628.938,113.23 627.956,108.973 625.734,105.327 C624.639,103.457 623.191,101.812 621.471,100.483 C621.297,100.349 621.163,100.171 621.082,99.968 C621.002,99.766 620.98,99.544 621.018,99.328 C621.055,99.115 621.152,98.912 621.295,98.747 C621.44,98.582 621.627,98.461 621.836,98.393 C623.464,98.103 625.138,98.206 626.716,98.699 C632.13,100.065 634.543,109.173 637.936,111.206 C639.812,112.328 643.304,111.36 646.542,109.974 C646.945,109.606 647.31,109.199 647.635,108.759 C648.364,107.772 648.863,106.639 649.101,105.44 C650.038,102.192 651.91,99.288 654.486,97.084 C654.999,98.776 657.742,101.191 658.946,102.377 C659.997,101.603 660.952,100.892 661.612,100.399 C661.861,100.226 662.03,99.959 662.083,99.662 C662.133,99.365 662.065,99.06 661.891,98.811 C660.741,97 659.799,95.067 659.086,93.047 C659.005,92.842 658.981,92.618 659.02,92.4 C659.06,92.185 659.161,91.982 659.311,91.822 C661.317,89.655 663.623,87.778 666.155,86.251 C669.543,84.368 673.252,83.121 677.096,82.575 C681.694,81.992 686.366,82.458 690.755,83.939 C690.925,83.998 691.079,84.095 691.206,84.223 C691.332,84.348 691.426,84.502 691.484,84.672 C691.541,84.841 691.558,85.021 691.534,85.2 C691.51,85.376 691.444,85.545 691.345,85.692 C689.147,89.146 687.268,92.792 685.735,96.582 C685.665,96.747 685.632,96.923 685.643,97.102 C685.651,97.28 685.7,97.454 685.786,97.608 C685.874,97.764 685.995,97.898 686.142,98.001 C686.287,98.103 686.457,98.171 686.633,98.199 C689.726,98.525 692.843,98.58 695.945,98.367 C699.157,98.067 702.393,98.595 705.344,99.898 C707.924,100.927 709.13,105.105 708.989,108.614 C708.987,109.063 708.875,109.503 708.663,109.899 C708.452,110.295 708.146,110.636 707.775,110.889 C707.403,111.144 706.976,111.305 706.527,111.36 C706.081,111.415 705.625,111.362 705.203,111.206 C704.072,110.874 702.882,110.781 701.714,110.935 C700.543,111.087 699.419,111.483 698.414,112.097 C695.171,113.643 692.3,115.868 689.999,118.613 C688.54,121.038 688.428,120.73 692.102,121.398 C695.778,122.067 699.984,124.406 701.892,124.184 C703.135,124.005 704.301,123.484 705.258,122.679 C705.412,122.551 705.594,122.463 705.792,122.424 C705.99,122.384 706.193,122.397 706.384,122.459 C706.576,122.518 706.747,122.628 706.884,122.773 C707.02,122.921 707.119,123.099 707.165,123.292 C707.698,125.242 707.812,127.248 705.062,128.416 C702.035,129.708 698.812,130.489 695.525,130.728 C691.86,131.177 688.159,131.289 684.472,131.063 C683.852,130.97 683.227,130.9 682.602,130.856 C682.921,131.331 683.275,131.784 683.663,132.211 C684.76,133.428 686.096,134.409 687.587,135.102 C690.223,135.993 687.447,140.672 679.395,139.473 C675.767,139.005 674.407,135.388 675.061,131.723 Z M678.105,113.155 C678.946,114.354 680.151,115.254 681.544,115.725 C682.937,116.195 684.444,116.213 685.847,115.773 C687.477,115.401 688.914,114.444 689.882,113.089 C690.848,111.734 691.279,110.071 691.092,108.421 C691.017,107.303 690.663,106.221 690.062,105.272 C689.462,104.326 688.632,103.541 687.651,102.989 C686.67,102.437 685.568,102.135 684.439,102.111 C683.311,102.087 682.195,102.34 681.19,102.85 C680.264,103.279 679.439,103.9 678.77,104.67 C678.103,105.437 677.606,106.339 677.316,107.314 C677.023,108.286 676.942,109.312 677.078,110.319 C677.214,111.325 677.564,112.293 678.105,113.155 Z" />
        </g>
    </g>
</svg>