<?xml version="1.0" encoding="UTF-8"?>
<svg height="600" width="800" xmlns="http://www.w3.org/2000/svg" xmlns:xlink="http://www.w3.org/1999/xlink">
    <g id="Notes" font-family="'LucidaGrande', 'Lucida Grande', sans-serif" font-size="13">
        <rect fill="white" height="600.0" width="800.0" x="0.0" y="0.0" />
        <g font-size="13">
            <text x="18.0" y="176.0">Small</text>
            <text x="18.0" y="376.0">Medium</text>
            <text x="18.0" y="576.0">Large</text>
        </g>
        <g font-size="9">
            <text x="250.0" y="30.0">Ultralight</text>
            <text x="450.0" y="30.0">Regular</text>
            <text x="650.0" y="30.0">Black</text>
            <text id="template-version" fill="#505050" text-anchor="end" x="785.0" y="575.0">Template v.3.0</text>
            <a href="https://github.com/swhitty/SwiftDraw">
                <text fill="#505050" text-anchor="end" x="785.0" y="590.0">https://github.com/swhitty/SwiftDraw</text>
            </a>
        </g>
    </g>
    <g id="Guides" stroke="rgb(39, 170, 225)" stroke-width="0.5">
        <path id="Capline-S" d="M18,76 l800,0" />
        <path id="H-reference" d="M85,145.755 L87.685,145.755 L113.369,79.287 L114.052,79.287 L114.052,76 L112.148,76 L85,145.755 Z M95.693,121.536 L130.996,121.536 L130.263,119.313 L96.474,119.313 L95.693,121.536 Z M139.15,145.755 L141.787,145.755 L114.638,76 L113.466,76 L113.466,79.287 L139.15,145.755 Z" stroke="none" />
        <path id="Baseline-S" d="M18,146 l800,0" />
        <path id="left-margin-Ultralight-S" d="M217.167,56 l0,110" />
        <path id="right-margin-Ultralight-S" d="M312.833,56 l0,110" />
        <path id="left-margin-Regular-S" d="M417.167,56 l0,110" />
        <path id="right-margin-Regular-S" d="M512.833,56 l0,110" />
        <path id="left-margin-Black-S" d="M617.167,56 l0,110" />
        <path id="right-margin-Black-S" d="M712.833,56 l0,110" />
        <path id="Capline-M" d="M18,276 l800,0" />
        <path id="Baseline-M" d="M18,346 l800,0" />
        <path id="Capline-L" d="M18,476 l800,0" />
        <path id="Baseline-L" d="M18,546 l800,0" />
    </g>
    <g id="Symbols">
        <g id="Ultralight-S">
            <path d="M295.472,116.899 C290.358,115.349 284.512,113.937 277.076,112.353 C273.902,111.654 272.173,112.426 271.929,113.765 C271.784,114.577 271.857,116.266 272.279,118.628 C269.739,119.09 264.104,120.218 259.769,121.274 C263.365,118.278 265.476,116.655 268.333,113.449 C274.291,106.791 275.664,103.584 276.297,98.932 C277.703,88.817 271.289,82.615 265.865,79.514 C261.887,77.224 247.997,71.662 228.196,82.265 C227.384,89.701 230.34,98.259 234.748,101.75 C241.016,97.105 245.563,95.976 248.664,96.009 C250.993,96.042 253.527,96.709 254.549,98.332 C255.13,99.315 255.329,101.093 254.754,102.278 C253.807,104.226 252.287,106.313 248.869,110.022 C244.848,114.386 242.638,116.145 240.014,118.589 C237.769,120.678 235.415,122.713 233.125,124.685 C231.33,126.236 227.384,129.654 227.384,129.654 C226.5,135.572 228.368,142.336 231.964,145.298 C242.752,142.237 259.525,137.545 274.146,138.04 C274.146,138.568 274.219,139.729 274.324,140.647 C274.641,143.325 275.42,144.17 275.875,144.698 C276.72,145.655 277.993,146.248 279.577,145.899 C281.16,145.516 283.351,143.893 284.301,143.048 C295.122,133.039 298.89,129.159 300.335,127.364 C304.848,121.657 303.258,119.222 295.472,116.899 Z" />
        </g>
        <g id="Regular-S">
            <path d="M495.472,116.899 C490.358,115.349 484.512,113.937 477.076,112.353 C473.902,111.654 472.173,112.426 471.929,113.765 C471.784,114.577 471.857,116.266 472.279,118.628 C469.739,119.09 464.104,120.218 459.769,121.274 C463.365,118.278 465.476,116.655 468.333,113.449 C474.291,106.791 475.664,103.584 476.297,98.932 C477.703,88.817 471.289,82.615 465.865,79.514 C461.887,77.224 447.997,71.662 428.196,82.265 C427.384,89.701 430.341,98.259 434.748,101.75 C441.016,97.105 445.563,95.976 448.664,96.009 C450.993,96.042 453.527,96.709 454.549,98.332 C455.13,99.315 455.329,101.093 454.754,102.278 C453.807,104.226 452.287,106.313 448.869,110.022 C444.848,114.386 442.638,116.145 440.014,118.589 C437.769,120.678 435.415,122.713 433.125,124.685 C431.33,126.236 427.384,129.654 427.384,129.654 C426.5,135.572 428.368,142.336 431.964,145.298 C442.752,142.237 459.525,137.545 474.146,138.04 C474.146,138.568 474.219,139.729 474.324,140.647 C474.641,143.325 475.42,144.17 475.875,144.698 C476.72,145.655 477.993,146.248 479.577,145.899 C481.16,145.516 483.351,143.893 484.301,143.048 C495.122,133.039 498.89,129.159 500.335,127.364 C504.848,121.657 503.258,119.222 495.472,116.899 Z" />
        </g>
        <g id="Black-S">
            <path d="M695.472,116.899 C690.358,115.349 684.512,113.937 677.076,112.353 C673.902,111.654 672.173,112.426 671.929,113.765 C671.784,114.577 671.857,116.266 672.279,118.628 C669.739,119.09 664.104,120.218 659.769,121.274 C663.365,118.278 665.476,116.655 668.333,113.449 C674.291,106.791 675.664,103.584 676.297,98.932 C677.703,88.817 671.289,82.615 665.865,79.514 C661.887,77.224 647.997,71.662 628.196,82.265 C627.384,89.701 630.341,98.259 634.748,101.75 C641.016,97.105 645.563,95.976 648.664,96.009 C650.993,96.042 653.527,96.709 654.549,98.332 C655.13,99.315 655.329,101.093 654.754,102.278 C653.807,104.226 652.287,106.313 648.869,110.022 C644.848,114.386 642.638,116.145 640.014,118.589 C637.769,120.678 635.415,122.713 633.125,124.685 C631.33,126.236 627.384,129.654 627.384,129.654 C626.5,135.572 628.368,142.336 631.964,145.298 C642.752,142.237 659.525,137.545 674.146,138.04 C674.146,138.568 674.219,139.729 674.324,140.647 C674.641,143.325 675.42,144.17 675.875,144.698 C676.72,145.655 677.993,146.248 679.577,145.899 C681.16,145.516 683.351,143.893 684.301,143.048 C695.122,133.039 698.89,129.159 700.335,127.364 C704.848,121.657 703.258,119.222 695.472,116.899 Z" />
        </g>
    </g>
</svg>