<?xml version="1.0" encoding="UTF-8"?>
<svg height="600" width="800" xmlns="http://www.w3.org/2000/svg" xmlns:xlink="http://www.w3.org/1999/xlink">
    <g id="Notes" font-family="'LucidaGrande', 'Lucida Grande', sans-serif" font-size="13">
        <rect fill="white" height="600.0" width="800.0" x="0.0" y="0.0" />
        <g font-size="13">
            <text x="18.0" y="176.0">Small</text>
            <text x="18.0" y="376.0">Medium</text>
            <text x="18.0" y="576.0">Large</text>
        </g>
        <g font-size="9">
            <text x="250.0" y="30.0">Ultralight</text>
            <text x="450.0" y="30.0">Regular</text>
            <text x="650.0" y="30.0">Black</text>
            <text id="template-version" fill="#505050" text-anchor="end" x="785.0" y="575.0">Template v.3.0</text>
            <a href="https://github.com/swhitty/SwiftDraw">
                <text fill="#505050" text-anchor="end" x="785.0" y="590.0">https://github.com/swhitty/SwiftDraw</text>
            </a>
        </g>
    </g>
    <g id="Guides" stroke="rgb(39, 170, 225)" stroke-width="0.5">
        <path id="Capline-S" d="M18,76 l800,0" />
        <path id="H-reference" d="M85,145.755 L87.685,145.755 L113.369,79.287 L114.052,79.287 L114.052,76 L112.148,76 L85,145.755 Z M95.693,121.536 L130.996,121.536 L130.263,119.313 L96.474,119.313 L95.693,121.536 Z M139.15,145.755 L141.787,145.755 L114.638,76 L113.466,76 L113.466,79.287 L139.15,145.755 Z" stroke="none" />
        <path id="Baseline-S" d="M18,146 l800,0" />
        <path id="left-margin-Ultralight-S" d="M221,56 l0,110" />
        <path id="right-margin-Ultralight-S" d="M309,56 l0,110" />
        <path id="left-margin-Regular-S" d="M421,56 l0,110" />
        <path id="right-margin-Regular-S" d="M509,56 l0,110" />
        <path id="left-margin-Black-S" d="M621,56 l0,110" />
        <path id="right-margin-Black-S" d="M709,56 l0,110" />
        <path id="Capline-M" d="M18,276 l800,0" />
        <path id="Baseline-M" d="M18,346 l800,0" />
        <path id="Capline-L" d="M18,476 l800,0" />
        <path id="Baseline-L" d="M18,546 l800,0" />
    </g>
    <g id="Symbols">
        <g id="Ultralight-S">
            <path d="M268.559,96.203 C268.694,94.527 267.232,93.325 265.217,94.012 C260.668,95.564 256.185,99.625 256.178,99.654 C252.091,96.452 249.629,91.762 249.48,86.664 C255.954,80.992 263.668,76.273 272.416,76.008 C272.974,75.991 274.851,76.008 274.851,76.008 C279.216,76.602 283.829,79.498 285.305,83.923 C287.446,89.406 284.475,95.112 280.636,99.045 C280.882,99.065 282.255,98.877 284.696,99.349 C298.751,102.069 301.102,120.805 278.677,133.418 C278.33,133.613 273.498,136.118 269.881,137.409 C265.737,138.887 265.707,138.713 259.933,140.248 C260.971,142.406 259.693,145.283 257.667,145.889 C255.616,146.503 249.612,144.374 248.941,144.136 C246.513,143.273 244.125,142.539 241.836,141.6 C236.435,139.388 230.134,137.337 239.103,129.871 C240.351,128.832 241.599,127.793 242.871,126.783 C245.139,124.982 246.336,124.097 247.45,123.3 C248.122,122.82 248.937,122.315 249.558,122.002 C251.111,121.221 252.527,120.676 253.841,122.553 C253.895,122.63 254.222,123.097 254.351,123.604 C254.445,124.302 254.688,125.444 254.875,126.115 C255.484,126.05 259.927,125.268 262.369,124.518 C265.663,123.506 271.095,122.328 274.64,120.044 C275.228,119.666 280.956,115.975 279.723,112.948 C278.46,109.113 268.766,113.119 267.814,113.024 C266.316,112.876 262.16,106.004 262.09,104.001 C262.002,101.444 262.905,101.798 265.037,100.399 C265.404,100.158 268.297,98.26 268.559,96.203 Z" />
        </g>
        <g id="Regular-S">
            <path d="M468.559,96.203 C468.694,94.527 467.232,93.325 465.217,94.012 C460.668,95.564 456.185,99.625 456.178,99.654 C452.091,96.452 449.629,91.762 449.48,86.664 C455.954,80.992 463.668,76.273 472.416,76.008 C472.974,75.991 474.851,76.008 474.851,76.008 C479.216,76.602 483.829,79.498 485.305,83.923 C487.446,89.406 484.475,95.112 480.636,99.045 C480.882,99.065 482.255,98.877 484.696,99.349 C498.751,102.069 501.102,120.805 478.677,133.418 C478.33,133.613 473.498,136.118 469.881,137.409 C465.737,138.887 465.707,138.713 459.933,140.248 C460.971,142.406 459.693,145.283 457.667,145.889 C455.616,146.503 449.612,144.374 448.941,144.136 C446.513,143.273 444.125,142.539 441.836,141.6 C436.435,139.388 430.134,137.337 439.103,129.871 C440.351,128.832 441.599,127.793 442.871,126.783 C445.139,124.982 446.336,124.097 447.45,123.3 C448.122,122.82 448.937,122.315 449.558,122.002 C451.111,121.221 452.527,120.676 453.841,122.553 C453.895,122.63 454.222,123.097 454.351,123.604 C454.445,124.302 454.688,125.444 454.875,126.115 C455.484,126.05 459.927,125.268 462.369,124.518 C465.663,123.506 471.095,122.328 474.64,120.044 C475.228,119.666 480.956,115.975 479.723,112.948 C478.46,109.113 468.766,113.119 467.814,113.024 C466.316,112.876 462.16,106.004 462.09,104.001 C462.002,101.444 462.905,101.798 465.037,100.399 C465.404,100.158 468.297,98.26 468.559,96.203 Z" />
        </g>
        <g id="Black-S">
            <path d="M668.559,96.203 C668.694,94.527 667.232,93.325 665.217,94.012 C660.668,95.564 656.185,99.625 656.178,99.654 C652.091,96.452 649.629,91.762 649.48,86.664 C655.954,80.992 663.668,76.273 672.416,76.008 C672.974,75.991 674.851,76.008 674.851,76.008 C679.216,76.602 683.829,79.498 685.304,83.923 C687.446,89.406 684.475,95.112 680.636,99.045 C680.882,99.065 682.255,98.877 684.696,99.349 C698.751,102.069 701.102,120.805 678.677,133.418 C678.33,133.613 673.498,136.118 669.881,137.409 C665.737,138.887 665.707,138.713 659.933,140.248 C660.971,142.406 659.693,145.283 657.667,145.889 C655.616,146.503 649.612,144.374 648.941,144.136 C646.513,143.273 644.125,142.539 641.836,141.6 C636.435,139.388 630.134,137.337 639.103,129.871 C640.351,128.832 641.599,127.793 642.871,126.783 C645.139,124.982 646.336,124.097 647.45,123.3 C648.122,122.82 648.937,122.315 649.558,122.002 C651.111,121.221 652.527,120.676 653.841,122.553 C653.895,122.63 654.222,123.097 654.351,123.604 C654.445,124.302 654.688,125.444 654.875,126.115 C655.484,126.05 659.927,125.268 662.369,124.518 C665.663,123.506 671.095,122.328 674.64,120.044 C675.228,119.666 680.956,115.975 679.723,112.948 C678.46,109.113 668.766,113.119 667.814,113.024 C666.316,112.876 662.16,106.004 662.09,104.001 C662.002,101.444 662.905,101.798 665.037,100.399 C665.404,100.158 668.297,98.26 668.559,96.203 Z" />
        </g>
    </g>
</svg>