<?xml version="1.0" encoding="UTF-8"?>
<svg height="600" width="800" xmlns="http://www.w3.org/2000/svg" xmlns:xlink="http://www.w3.org/1999/xlink">
    <g id="Notes" font-family="'LucidaGrande', 'Lucida Grande', sans-serif" font-size="13">
        <rect fill="white" height="600.0" width="800.0" x="0.0" y="0.0" />
        <g font-size="13">
            <text x="18.0" y="176.0">Small</text>
            <text x="18.0" y="376.0">Medium</text>
            <text x="18.0" y="576.0">Large</text>
        </g>
        <g font-size="9">
            <text x="250.0" y="30.0">Ultralight</text>
            <text x="450.0" y="30.0">Regular</text>
            <text x="650.0" y="30.0">Black</text>
            <text id="template-version" fill="#505050" text-anchor="end" x="785.0" y="575.0">Template v.3.0</text>
            <a href="https://github.com/swhitty/SwiftDraw">
                <text fill="#505050" text-anchor="end" x="785.0" y="590.0">https://github.com/swhitty/SwiftDraw</text>
            </a>
        </g>
    </g>
    <g id="Guides" stroke="rgb(39, 170, 225)" stroke-width="0.5">
        <path id="Capline-S" d="M18,76 l800,0" />
        <path id="H-reference" d="M85,145.755 L87.685,145.755 L113.369,79.287 L114.052,79.287 L114.052,76 L112.148,76 L85,145.755 Z M95.693,121.536 L130.996,121.536 L130.263,119.313 L96.474,119.313 L95.693,121.536 Z M139.15,145.755 L141.787,145.755 L114.638,76 L113.466,76 L113.466,79.287 L139.15,145.755 Z" stroke="none" />
        <path id="Baseline-S" d="M18,146 l800,0" />
        <path id="left-margin-Ultralight-S" d="M217.167,56 l0,110" />
        <path id="right-margin-Ultralight-S" d="M312.833,56 l0,110" />
        <path id="left-margin-Regular-S" d="M417.167,56 l0,110" />
        <path id="right-margin-Regular-S" d="M512.833,56 l0,110" />
        <path id="left-margin-Black-S" d="M617.167,56 l0,110" />
        <path id="right-margin-Black-S" d="M712.833,56 l0,110" />
        <path id="Capline-M" d="M18,276 l800,0" />
        <path id="Baseline-M" d="M18,346 l800,0" />
        <path id="Capline-L" d="M18,476 l800,0" />
        <path id="Baseline-L" d="M18,546 l800,0" />
    </g>
    <g id="Symbols">
        <g id="Ultralight-S">
            <path d="M295.472,116.899 C303.258,119.222 304.848,121.657 300.335,127.364 C298.89,129.159 295.122,133.039 284.301,143.048 C283.351,143.893 281.16,145.516 279.577,145.899 C277.993,146.248 276.72,145.655 275.875,144.698 C275.42,144.17 274.641,143.325 274.324,140.647 C274.219,139.729 274.146,138.568 274.146,138.04 C259.525,137.545 242.752,142.237 231.964,145.298 C228.368,142.336 226.5,135.572 227.384,129.654 C227.384,129.654 231.33,126.236 233.125,124.685 C235.415,122.712 237.769,120.678 240.014,118.589 C242.638,116.145 244.848,114.386 248.869,110.022 C252.287,106.313 253.807,104.226 254.754,102.278 C255.329,101.093 255.13,99.315 254.549,98.332 C253.527,96.709 250.993,96.042 248.664,96.009 C245.563,95.976 241.016,97.105 234.748,101.75 C230.34,98.259 227.384,89.701 228.196,82.265 C247.997,71.662 261.887,77.224 265.865,79.514 C271.289,82.615 277.703,88.817 276.297,98.932 C275.664,103.584 274.291,106.791 268.333,113.449 C265.476,116.655 263.365,118.278 259.769,121.274 C264.104,120.218 269.739,119.09 272.279,118.628 C271.857,116.266 271.784,114.577 271.929,113.765 C272.173,112.426 273.902,111.654 277.076,112.353 C284.512,113.937 290.358,115.349 295.472,116.899 Z M279.577,140.114 C280.044,139.776 280.474,139.388 280.753,139.139 C291.135,129.536 294.801,125.813 296.209,124.071 C296.452,123.763 296.692,123.409 296.903,123.08 C296.105,122.724 295.006,122.269 293.963,121.958 C293.956,121.955 293.948,121.953 293.94,121.951 C289.301,120.544 284.044,119.258 277.499,117.843 C277.923,120.654 276.038,123.31 273.223,123.822 C270.745,124.272 265.247,125.373 261.018,126.403 C258.632,126.984 256.159,125.843 255.055,123.649 C253.95,121.456 254.503,118.79 256.39,117.218 C259.744,114.425 261.728,112.928 264.392,109.937 C264.395,109.934 264.397,109.931 264.4,109.928 C269.248,104.511 270.552,102.006 271.067,98.22 C271.068,98.215 271.068,98.211 271.069,98.206 C272.098,90.803 267.215,86.366 263.245,84.096 C263.241,84.094 263.237,84.091 263.233,84.089 C259.972,82.212 249.046,78.198 233.337,85.586 C233.429,88.898 234.284,92.267 235.703,94.772 C241.325,91.444 245.639,90.698 248.72,90.731 C248.726,90.731 248.732,90.731 248.738,90.731 C252.912,90.79 257.183,92.61 259.016,95.518 C259.042,95.561 259.069,95.604 259.094,95.648 L259.987,97.762 L260.351,99.858 L260.18,102.571 L259.502,104.584 L259.501,104.585 C258.405,106.841 256.708,109.304 252.751,113.599 L252.751,113.6 C248.598,118.106 246.321,119.928 243.611,122.451 C241.318,124.587 238.913,126.666 236.573,128.682 C235.522,129.59 233.734,131.138 232.434,132.264 C232.333,134.793 232.779,137.39 233.799,139.298 C244.94,136.197 260.557,132.299 274.325,132.765 C277.169,132.861 279.425,135.194 279.425,138.04 C279.425,138.444 279.487,139.331 279.568,140.037 C279.571,140.063 279.574,140.089 279.577,140.114 Z" />
        </g>
        <g id="Regular-S">
            <path d="M495.472,116.899 C503.258,119.222 504.848,121.657 500.335,127.364 C498.89,129.159 495.122,133.039 484.301,143.048 C483.351,143.893 481.16,145.516 479.577,145.899 C477.993,146.248 476.72,145.655 475.875,144.698 C475.42,144.17 474.641,143.325 474.324,140.647 C474.219,139.729 474.146,138.568 474.146,138.04 C459.525,137.545 442.752,142.237 431.964,145.298 C428.368,142.336 426.5,135.572 427.384,129.654 C427.384,129.654 431.33,126.236 433.125,124.685 C435.415,122.712 437.769,120.678 440.014,118.589 C442.638,116.145 444.848,114.386 448.869,110.022 C452.287,106.313 453.807,104.226 454.754,102.278 C455.329,101.093 455.13,99.315 454.549,98.332 C453.527,96.709 450.993,96.042 448.664,96.009 C445.563,95.976 441.016,97.105 434.748,101.75 C430.34,98.259 427.384,89.701 428.196,82.265 C447.997,71.662 461.887,77.224 465.865,79.514 C471.289,82.615 477.703,88.817 476.297,98.932 C475.664,103.584 474.291,106.791 468.333,113.449 C465.476,116.655 463.365,118.278 459.769,121.274 C464.104,120.218 469.739,119.09 472.279,118.628 C471.857,116.266 471.784,114.577 471.929,113.765 C472.173,112.426 473.902,111.654 477.076,112.353 C484.512,113.937 490.358,115.349 495.472,116.899 Z M479.577,140.114 C480.044,139.776 480.474,139.388 480.753,139.139 C491.135,129.536 494.801,125.813 496.209,124.071 C496.452,123.763 496.692,123.409 496.903,123.08 C496.105,122.724 495.006,122.269 493.963,121.958 C493.956,121.955 493.948,121.953 493.94,121.951 C489.301,120.544 484.044,119.258 477.499,117.843 C477.923,120.654 476.038,123.31 473.223,123.822 C470.745,124.272 465.247,125.373 461.018,126.403 C458.632,126.984 456.159,125.843 455.055,123.649 C453.95,121.456 454.503,118.79 456.39,117.218 C459.744,114.425 461.728,112.928 464.392,109.937 C464.395,109.934 464.397,109.931 464.4,109.928 C469.248,104.511 470.552,102.006 471.067,98.22 C471.068,98.215 471.068,98.211 471.069,98.206 C472.098,90.803 467.215,86.366 463.245,84.096 C463.241,84.094 463.237,84.091 463.233,84.089 C459.972,82.212 449.046,78.198 433.337,85.586 C433.429,88.898 434.284,92.267 435.703,94.772 C441.325,91.444 445.639,90.698 448.72,90.731 C448.726,90.731 448.732,90.731 448.738,90.731 C452.912,90.79 457.183,92.61 459.016,95.518 C459.042,95.561 459.069,95.604 459.094,95.648 L459.987,97.762 L460.351,99.858 L460.18,102.571 L459.502,104.584 L459.501,104.585 C458.405,106.841 456.708,109.304 452.751,113.599 L452.751,113.6 C448.598,118.106 446.321,119.928 443.611,122.451 C441.318,124.587 438.913,126.666 436.573,128.682 C435.522,129.59 433.734,131.138 432.434,132.264 C432.333,134.793 432.779,137.39 433.799,139.298 C444.94,136.197 460.557,132.299 474.325,132.765 C477.169,132.861 479.425,135.194 479.425,138.04 C479.425,138.444 479.487,139.331 479.568,140.037 C479.571,140.063 479.574,140.089 479.577,140.114 Z" />
        </g>
        <g id="Black-S">
            <path d="M695.472,116.899 C703.258,119.222 704.848,121.657 700.335,127.364 C698.89,129.159 695.122,133.039 684.301,143.048 C683.351,143.893 681.16,145.516 679.577,145.899 C677.993,146.248 676.72,145.655 675.875,144.698 C675.42,144.17 674.641,143.325 674.324,140.647 C674.219,139.729 674.146,138.568 674.146,138.04 C659.525,137.545 642.752,142.237 631.964,145.298 C628.368,142.336 626.5,135.572 627.384,129.654 C627.384,129.654 631.33,126.236 633.125,124.685 C635.415,122.712 637.769,120.678 640.013,118.589 C642.638,116.145 644.848,114.386 648.869,110.022 C652.287,106.313 653.807,104.226 654.754,102.278 C655.329,101.093 655.13,99.315 654.549,98.332 C653.527,96.709 650.993,96.042 648.664,96.009 C645.563,95.976 641.016,97.105 634.748,101.75 C630.34,98.259 627.384,89.701 628.196,82.265 C647.997,71.662 661.887,77.224 665.865,79.514 C671.289,82.615 677.703,88.817 676.297,98.932 C675.664,103.584 674.291,106.791 668.333,113.449 C665.476,116.655 663.365,118.278 659.769,121.274 C664.104,120.218 669.739,119.09 672.279,118.628 C671.857,116.266 671.784,114.577 671.929,113.765 C672.173,112.426 673.902,111.654 677.076,112.353 C684.512,113.937 690.358,115.349 695.472,116.899 Z M679.577,140.114 C680.044,139.776 680.474,139.388 680.753,139.139 C691.135,129.536 694.801,125.813 696.209,124.071 C696.452,123.763 696.692,123.409 696.903,123.08 C696.105,122.724 695.006,122.269 693.963,121.958 C693.956,121.955 693.948,121.953 693.94,121.951 C689.301,120.544 684.044,119.258 677.499,117.843 C677.923,120.654 676.038,123.31 673.223,123.822 C670.745,124.272 665.247,125.373 661.018,126.403 C658.632,126.984 656.159,125.843 655.055,123.649 C653.95,121.456 654.503,118.79 656.39,117.218 C659.744,114.425 661.728,112.928 664.392,109.937 C664.395,109.934 664.397,109.931 664.4,109.928 C669.248,104.511 670.552,102.006 671.067,98.22 C671.068,98.215 671.068,98.211 671.069,98.206 C672.097,90.803 667.215,86.366 663.245,84.096 C663.241,84.094 663.237,84.091 663.233,84.089 C659.972,82.212 649.046,78.198 633.337,85.586 C633.429,88.898 634.284,92.267 635.703,94.772 C641.325,91.444 645.638,90.698 648.72,90.731 C648.726,90.731 648.732,90.731 648.738,90.731 C652.912,90.79 657.183,92.61 659.016,95.518 C659.042,95.561 659.069,95.604 659.094,95.648 L659.987,97.762 L660.351,99.858 L660.18,102.571 L659.502,104.584 L659.501,104.585 C658.405,106.841 656.708,109.304 652.751,113.599 L652.751,113.6 C648.599,118.106 646.321,119.928 643.611,122.451 C641.318,124.587 638.913,126.666 636.573,128.682 C635.522,129.59 633.734,131.138 632.434,132.264 C632.333,134.793 632.779,137.39 633.799,139.298 C644.94,136.197 660.557,132.299 674.325,132.765 C677.169,132.861 679.425,135.194 679.425,138.04 C679.425,138.444 679.487,139.331 679.568,140.037 C679.571,140.063 679.574,140.089 679.577,140.114 Z" />
        </g>
    </g>
</svg>