<?xml version="1.0" encoding="UTF-8"?>
<svg height="600" width="800" xmlns="http://www.w3.org/2000/svg" xmlns:xlink="http://www.w3.org/1999/xlink">
    <g id="Notes" font-family="'LucidaGrande', 'Lucida Grande', sans-serif" font-size="13">
        <rect fill="white" height="600.0" width="800.0" x="0.0" y="0.0" />
        <g font-size="13">
            <text x="18.0" y="176.0">Small</text>
            <text x="18.0" y="376.0">Medium</text>
            <text x="18.0" y="576.0">Large</text>
        </g>
        <g font-size="9">
            <text x="250.0" y="30.0">Ultralight</text>
            <text x="450.0" y="30.0">Regular</text>
            <text x="650.0" y="30.0">Black</text>
            <text id="template-version" fill="#505050" text-anchor="end" x="785.0" y="575.0">Template v.3.0</text>
            <a href="https://github.com/swhitty/SwiftDraw">
                <text fill="#505050" text-anchor="end" x="785.0" y="590.0">https://github.com/swhitty/SwiftDraw</text>
            </a>
        </g>
    </g>
    <g id="Guides" stroke="rgb(39, 170, 225)" stroke-width="0.5">
        <path id="Capline-S" d="M18,76 l800,0" />
        <path id="H-reference" d="M85,145.755 L87.685,145.755 L113.369,79.287 L114.052,79.287 L114.052,76 L112.148,76 L85,145.755 Z M95.693,121.536 L130.996,121.536 L130.263,119.313 L96.474,119.313 L95.693,121.536 Z M139.15,145.755 L141.787,145.755 L114.638,76 L113.466,76 L113.466,79.287 L139.15,145.755 Z" stroke="none" />
        <path id="Baseline-S" d="M18,146 l800,0" />
        <path id="left-margin-Ultralight-S" d="M221,56 l0,110" />
        <path id="right-margin-Ultralight-S" d="M309,56 l0,110" />
        <path id="left-margin-Regular-S" d="M421,56 l0,110" />
        <path id="right-margin-Regular-S" d="M509,56 l0,110" />
        <path id="left-margin-Black-S" d="M621,56 l0,110" />
        <path id="right-margin-Black-S" d="M709,56 l0,110" />
        <path id="Capline-M" d="M18,276 l800,0" />
        <path id="Baseline-M" d="M18,346 l800,0" />
        <path id="Capline-L" d="M18,476 l800,0" />
        <path id="Baseline-L" d="M18,546 l800,0" />
    </g>
    <g id="Symbols">
        <g id="Ultralight-S">
            <path d="M268.559,96.203 C268.694,94.527 267.232,93.325 265.217,94.012 C260.668,95.564 256.185,99.625 256.178,99.654 C252.091,96.452 249.629,91.762 249.48,86.664 C255.954,80.992 263.668,76.273 272.416,76.008 C272.974,75.991 274.851,76.008 274.851,76.008 C279.216,76.602 283.829,79.498 285.305,83.923 C287.446,89.406 284.475,95.112 280.636,99.045 C280.882,99.065 282.255,98.877 284.696,99.349 C298.751,102.069 301.102,120.805 278.677,133.418 C278.33,133.613 273.498,136.118 269.881,137.409 C265.737,138.887 265.707,138.713 259.933,140.248 C260.971,142.406 259.693,145.283 257.667,145.889 C255.616,146.503 249.612,144.374 248.941,144.136 C246.513,143.273 244.125,142.539 241.836,141.6 C236.435,139.388 230.134,137.337 239.103,129.871 C240.351,128.832 241.599,127.793 242.871,126.783 C245.139,124.982 246.336,124.097 247.45,123.3 C248.122,122.82 248.937,122.315 249.558,122.002 C251.111,121.221 252.527,120.676 253.841,122.553 C253.895,122.63 254.222,123.097 254.351,123.604 C254.445,124.302 254.688,125.444 254.875,126.115 C255.484,126.05 259.927,125.268 262.369,124.518 C265.663,123.506 271.095,122.328 274.64,120.044 C275.228,119.666 280.956,115.975 279.723,112.948 C278.46,109.113 268.766,113.119 267.814,113.024 C266.316,112.876 262.16,106.004 262.09,104.001 C262.002,101.444 262.905,101.798 265.037,100.399 C265.404,100.158 268.297,98.26 268.559,96.203 Z M240.613,135.465 C241.581,135.933 242.857,136.535 243.759,136.904 L243.762,136.905 C245.977,137.814 248.289,138.52 250.637,139.354 C250.923,139.455 253.178,140.03 254.863,140.455 C254.831,139.663 254.984,138.864 255.324,138.127 C255.956,136.753 257.168,135.733 258.629,135.344 C264.168,133.872 264.2,134.048 268.175,132.63 L268.175,132.629 C271.471,131.454 275.873,129.173 276.19,128.995 C292.907,119.592 294.21,106.358 283.731,104.331 L283.731,104.331 C281.62,103.922 280.429,104.119 280.216,104.102 C278.257,103.939 276.57,102.66 275.883,100.819 C275.195,98.978 275.633,96.906 277.005,95.5 C279.52,92.924 281.981,89.36 280.578,85.77 C280.547,85.69 280.517,85.61 280.491,85.528 C279.65,83.005 276.955,81.5 274.45,81.078 C273.917,81.074 272.935,81.068 272.57,81.079 L272.569,81.079 C265.896,81.282 259.987,84.626 254.844,88.779 C255.182,90.244 255.803,91.625 256.662,92.866 C258.617,91.522 261.093,90.057 263.58,89.209 L265.304,88.807 L267.119,88.78 L268.936,89.195 L270.623,90.077 L272.023,91.382 L273.017,93.002 L273.546,94.791 L273.617,96.61 C273.611,96.689 273.603,96.768 273.593,96.846 L273.054,98.861 L271.805,101.025 C270.43,102.85 268.348,104.291 267.866,104.612 L269.509,107.368 C271.693,106.819 274.902,106.132 276.992,106.222 C278.006,106.265 278.94,106.431 279.761,106.699 L281.842,107.728 L283.462,109.287 L284.476,111.235 L284.896,112.783 L284.943,114.485 L284.586,116.27 L283.622,118.37 C281.855,121.292 277.95,123.948 277.388,124.311 C273.467,126.836 267.501,128.25 263.859,129.368 C261.108,130.213 256.101,131.087 255.414,131.16 C253.019,131.416 250.785,129.954 250.048,127.682 C249.075,128.385 247.957,129.224 246.027,130.757 C244.786,131.743 243.568,132.757 242.35,133.771 C241.717,134.297 241.101,134.929 240.613,135.465 Z" />
        </g>
        <g id="Regular-S">
            <path d="M468.559,96.203 C468.694,94.527 467.232,93.325 465.217,94.012 C460.668,95.564 456.185,99.625 456.178,99.654 C452.091,96.452 449.629,91.762 449.48,86.664 C455.954,80.992 463.668,76.273 472.416,76.008 C472.974,75.991 474.851,76.008 474.851,76.008 C479.216,76.602 483.829,79.498 485.305,83.923 C487.446,89.406 484.475,95.112 480.636,99.045 C480.882,99.065 482.255,98.877 484.696,99.349 C498.751,102.069 501.102,120.805 478.677,133.418 C478.33,133.613 473.498,136.118 469.881,137.409 C465.737,138.887 465.707,138.713 459.933,140.248 C460.971,142.406 459.693,145.283 457.667,145.889 C455.616,146.503 449.612,144.374 448.941,144.136 C446.513,143.273 444.125,142.539 441.836,141.6 C436.435,139.388 430.134,137.337 439.103,129.871 C440.351,128.832 441.599,127.793 442.871,126.783 C445.139,124.982 446.336,124.097 447.45,123.3 C448.122,122.82 448.937,122.315 449.558,122.002 C451.111,121.221 452.527,120.676 453.841,122.553 C453.895,122.63 454.222,123.097 454.351,123.604 C454.445,124.302 454.688,125.444 454.875,126.115 C455.484,126.05 459.927,125.268 462.369,124.518 C465.663,123.506 471.095,122.328 474.64,120.044 C475.228,119.666 480.956,115.975 479.723,112.948 C478.46,109.113 468.766,113.119 467.814,113.024 C466.316,112.876 462.16,106.004 462.09,104.001 C462.002,101.444 462.905,101.798 465.037,100.399 C465.404,100.158 468.297,98.26 468.559,96.203 Z M440.613,135.465 C441.581,135.933 442.857,136.535 443.759,136.904 L443.762,136.905 C445.977,137.814 448.289,138.52 450.637,139.354 C450.923,139.455 453.178,140.03 454.863,140.455 C454.831,139.663 454.984,138.864 455.324,138.127 C455.956,136.753 457.168,135.733 458.629,135.344 C464.168,133.872 464.2,134.048 468.175,132.63 L468.175,132.629 C471.471,131.454 475.873,129.173 476.19,128.995 C492.907,119.592 494.21,106.358 483.732,104.331 L483.732,104.331 C481.62,103.922 480.429,104.119 480.216,104.102 C478.257,103.939 476.57,102.66 475.883,100.819 C475.195,98.978 475.633,96.906 477.005,95.5 C479.52,92.924 481.981,89.36 480.578,85.77 C480.547,85.69 480.517,85.61 480.491,85.528 C479.65,83.005 476.955,81.5 474.45,81.078 C473.917,81.074 472.935,81.068 472.57,81.079 L472.569,81.079 C465.896,81.282 459.987,84.626 454.844,88.779 C455.182,90.244 455.803,91.625 456.662,92.866 C458.617,91.522 461.093,90.057 463.58,89.209 L465.304,88.807 L467.119,88.78 L468.936,89.195 L470.623,90.077 L472.023,91.382 L473.017,93.002 L473.546,94.791 L473.617,96.61 C473.611,96.689 473.603,96.768 473.593,96.846 L473.054,98.861 L471.805,101.025 C470.43,102.85 468.348,104.291 467.866,104.612 L469.509,107.368 C471.693,106.819 474.902,106.132 476.992,106.222 C478.006,106.265 478.94,106.431 479.761,106.699 L481.842,107.728 L483.462,109.287 L484.476,111.235 L484.896,112.783 L484.943,114.485 L484.586,116.27 L483.622,118.37 C481.855,121.292 477.95,123.948 477.388,124.311 C473.467,126.836 467.501,128.25 463.859,129.368 C461.108,130.213 456.101,131.087 455.414,131.16 C453.019,131.416 450.785,129.954 450.048,127.682 C449.075,128.385 447.957,129.224 446.027,130.757 C444.786,131.743 443.568,132.757 442.35,133.771 C441.717,134.297 441.101,134.929 440.613,135.465 Z" />
        </g>
        <g id="Black-S">
            <path d="M668.559,96.203 C668.694,94.527 667.232,93.325 665.217,94.012 C660.668,95.564 656.185,99.625 656.178,99.654 C652.091,96.452 649.629,91.762 649.48,86.664 C655.954,80.992 663.668,76.273 672.416,76.008 C672.974,75.991 674.851,76.008 674.851,76.008 C679.216,76.602 683.829,79.498 685.305,83.923 C687.446,89.406 684.475,95.112 680.636,99.045 C680.882,99.065 682.255,98.877 684.696,99.349 C698.751,102.069 701.102,120.805 678.677,133.418 C678.33,133.613 673.498,136.118 669.881,137.409 C665.737,138.887 665.707,138.713 659.933,140.248 C660.971,142.406 659.693,145.283 657.667,145.889 C655.616,146.503 649.612,144.374 648.941,144.136 C646.513,143.273 644.125,142.539 641.836,141.6 C636.435,139.388 630.134,137.337 639.103,129.871 C640.351,128.832 641.599,127.793 642.871,126.783 C645.139,124.982 646.336,124.097 647.45,123.3 C648.122,122.82 648.937,122.315 649.558,122.002 C651.111,121.221 652.527,120.676 653.841,122.553 C653.895,122.63 654.222,123.097 654.351,123.604 C654.445,124.302 654.688,125.444 654.875,126.115 C655.484,126.05 659.927,125.268 662.369,124.518 C665.663,123.506 671.095,122.328 674.64,120.044 C675.228,119.666 680.956,115.975 679.723,112.948 C678.46,109.113 668.766,113.119 667.814,113.024 C666.316,112.876 662.16,106.004 662.09,104.001 C662.002,101.444 662.905,101.798 665.037,100.399 C665.404,100.158 668.297,98.26 668.559,96.203 Z M640.613,135.465 C641.581,135.933 642.857,136.535 643.759,136.904 L643.762,136.905 C645.977,137.814 648.289,138.52 650.637,139.354 C650.923,139.455 653.178,140.03 654.863,140.455 C654.831,139.663 654.984,138.864 655.324,138.127 C655.956,136.753 657.168,135.733 658.629,135.344 C664.168,133.872 664.2,134.048 668.175,132.63 L668.175,132.629 C671.471,131.454 675.873,129.173 676.19,128.995 C692.907,119.592 694.21,106.358 683.732,104.331 L683.732,104.331 C681.62,103.922 680.429,104.119 680.216,104.102 C678.257,103.939 676.57,102.66 675.883,100.819 C675.195,98.978 675.633,96.906 677.005,95.5 C679.52,92.924 681.981,89.36 680.578,85.77 C680.547,85.69 680.517,85.61 680.491,85.528 C679.65,83.005 676.955,81.5 674.45,81.078 C673.917,81.074 672.935,81.068 672.57,81.079 L672.569,81.079 C665.896,81.282 659.987,84.626 654.844,88.779 C655.182,90.244 655.803,91.625 656.662,92.866 C658.617,91.522 661.093,90.057 663.58,89.209 L665.304,88.807 L667.119,88.78 L668.936,89.195 L670.623,90.077 L672.023,91.382 L673.017,93.002 L673.546,94.791 L673.617,96.61 C673.611,96.689 673.603,96.768 673.593,96.846 L673.054,98.861 L671.805,101.025 C670.43,102.85 668.348,104.291 667.866,104.612 L669.509,107.368 C671.693,106.819 674.902,106.132 676.992,106.222 C678.006,106.265 678.94,106.431 679.761,106.699 L681.842,107.728 L683.462,109.287 L684.476,111.235 L684.896,112.783 L684.943,114.485 L684.586,116.27 L683.622,118.37 C681.855,121.292 677.95,123.948 677.388,124.311 C673.467,126.836 667.501,128.25 663.859,129.368 C661.108,130.213 656.101,131.087 655.414,131.16 C653.019,131.416 650.785,129.954 650.048,127.682 C649.075,128.385 647.957,129.224 646.027,130.757 C644.786,131.743 643.568,132.757 642.35,133.771 C641.717,134.297 641.101,134.929 640.613,135.465 Z" />
        </g>
    </g>
</svg>