<?xml version="1.0" encoding="UTF-8"?>
<svg id="_图层_2" data-name="图层 2" xmlns="http://www.w3.org/2000/svg" xmlns:xlink="http://www.w3.org/1999/xlink" viewBox="0 0 30.88 23.7">
  <defs>
    <style>
      .cls-1 {
        fill: url(#_未命名的渐变);
      }

      .cls-1, .cls-2, .cls-3, .cls-4, .cls-5, .cls-6, .cls-7, .cls-8, .cls-9, .cls-10 {
        stroke-width: 0px;
      }

      .cls-11 {
        clip-path: url(#clippath);
      }

      .cls-2, .cls-12 {
        fill: none;
      }

      .cls-13 {
        opacity: .1;
      }

      .cls-14 {
        clip-path: url(#clippath-1);
      }

      .cls-3 {
        fill: #7f7c1b;
      }

      .cls-4 {
        fill: #ccc;
        isolation: isolate;
        opacity: .4;
      }

      .cls-5 {
        fill: url(#_未命名的渐变_7);
      }

      .cls-6 {
        fill: url(#_未命名的渐变_7-5);
      }

      .cls-7 {
        fill: url(#_未命名的渐变_7-3);
      }

      .cls-8 {
        fill: url(#_未命名的渐变_7-6);
      }

      .cls-9 {
        fill: url(#_未命名的渐变_7-4);
      }

      .cls-10 {
        fill: url(#_未命名的渐变_7-2);
      }

      .cls-12 {
        stroke: #605650;
        stroke-miterlimit: 10;
        stroke-width: 4.57px;
      }
    </style>
    <linearGradient id="_未命名的渐变" data-name="未命名的渐变" x1="15.44" y1="2.47" x2="15.44" y2="24.8" gradientTransform="translate(0 24.8) scale(1 -1)" gradientUnits="userSpaceOnUse">
      <stop offset="0" stop-color="#ff0"/>
      <stop offset="1" stop-color="#e6a100"/>
    </linearGradient>
    <clipPath id="clippath">
      <path class="cls-2" d="M27.96,6.3c-2.1-2-5.1-3.9-7.2-4.8-2-.9-3.7-1.4-5.3-1.5-1.6,0-3.3.6-5.3,1.5-2.1.9-5,2.8-7.2,4.8-2.6,2.3-5,7.8-.2,12.4,3.5,3.3,8.3,3.7,12.7,3.7s9.2-.4,12.7-3.7c4.8-4.6,2.3-10.1-.2-12.4Z"/>
    </clipPath>
    <linearGradient id="_未命名的渐变_7" data-name="未命名的渐变 7" x1="-249.17" y1="-84.92" x2="58.42" y2="27.03" gradientTransform="translate(0 24.8) scale(1 -1)" gradientUnits="userSpaceOnUse">
      <stop offset="0" stop-color="#f30"/>
      <stop offset="1" stop-color="#6fff00"/>
    </linearGradient>
    <linearGradient id="_未命名的渐变_7-2" data-name="未命名的渐变 7" x1="-249.85" y1="-83.68" x2="57.74" y2="28.28" xlink:href="#_未命名的渐变_7"/>
    <clipPath id="clippath-1">
      <path class="cls-2" d="M27.96,6.3c-2.1-2-5.1-3.9-7.2-4.8-2-.9-3.7-1.4-5.3-1.5-1.6,0-3.3.6-5.3,1.5-2.1.9-5,2.8-7.2,4.8-2.6,2.3-5,7.8-.2,12.4,3.5,3.3,8.3,3.7,12.7,3.7s9.2-.4,12.7-3.7c4.8-4.6,2.3-10.1-.2-12.4Z"/>
    </clipPath>
    <linearGradient id="_未命名的渐变_7-3" data-name="未命名的渐变 7" x1="-143.73" y1="-98.38" x2="54.76" y2="-26.14" xlink:href="#_未命名的渐变_7"/>
    <linearGradient id="_未命名的渐变_7-4" data-name="未命名的渐变 7" x1="-142.38" y1="-102.09" x2="56.11" y2="-29.85" xlink:href="#_未命名的渐变_7"/>
    <linearGradient id="_未命名的渐变_7-5" data-name="未命名的渐变 7" x1="-141.02" y1="-105.98" x2="57.47" y2="-33.74" xlink:href="#_未命名的渐变_7"/>
    <linearGradient id="_未命名的渐变_7-6" data-name="未命名的渐变 7" x1="-163.28" y1="-44.65" x2="35.2" y2="27.59" xlink:href="#_未命名的渐变_7"/>
  </defs>
  <g id="_图层_1-2" data-name="图层 1">
    <path class="cls-3" d="M27.36,8.1c-2.1-1.9-5-3.8-7-4.7s-3.6-1.4-5.2-1.4-3.2.5-5.2,1.4-4.9,2.8-7,4.7c-2.5,2.3-4.9,7.6-.2,12,3.4,3.2,8.1,3.6,12.4,3.6s9-.4,12.4-3.6c4.7-4.4,2.4-9.7-.2-12Z"/>
    <path class="cls-1" d="M27.96,6.3c-2.1-2-5.1-3.9-7.2-4.8-2-.9-3.7-1.4-5.3-1.5-1.6,0-3.3.6-5.3,1.5-2.1.9-5,2.8-7.2,4.8-2.6,2.3-5,7.8-.2,12.4,3.5,3.3,8.3,3.7,12.7,3.7s9.2-.4,12.7-3.7c4.8-4.6,2.3-10.1-.2-12.4Z"/>
    <g class="cls-11">
      <g>
        <circle class="cls-12" cx="-36.34" cy="84.1" r="97"/>
        <circle class="cls-12" cx="-42.94" cy="90.7" r="97"/>
        <circle class="cls-12" cx="-49.84" cy="97.6" r="97"/>
      </g>
    </g>
    <ellipse class="cls-4" cx="11.06" cy="6" rx="3.3" ry="2.8"/>
    <g class="cls-13">
      <path class="cls-5" d="M27.36,8.1c-2.1-1.9-5-3.8-7-4.7s-3.6-1.4-5.2-1.4-3.2.5-5.2,1.4-4.9,2.8-7,4.7c-2.5,2.3-4.9,7.6-.2,12,3.4,3.2,8.1,3.6,12.4,3.6s9-.4,12.4-3.6c4.7-4.4,2.4-9.7-.2-12Z"/>
      <path class="cls-10" d="M27.96,6.3c-2.1-2-5.1-3.9-7.2-4.8-2-.9-3.7-1.4-5.3-1.5-1.6,0-3.3.6-5.3,1.5-2.1.9-5,2.8-7.2,4.8-2.6,2.3-5,7.8-.2,12.4,3.5,3.3,8.3,3.7,12.7,3.7s9.2-.4,12.7-3.7c4.8-4.6,2.3-10.1-.2-12.4Z"/>
      <g class="cls-14">
        <g>
          <circle class="cls-7" cx="-36.34" cy="84.1" r="97"/>
          <circle class="cls-9" cx="-42.94" cy="90.7" r="97"/>
          <circle class="cls-6" cx="-49.84" cy="97.6" r="97"/>
        </g>
      </g>
      <ellipse class="cls-8" cx="11.06" cy="6" rx="3.3" ry="2.8"/>
    </g>
  </g>
</svg>