<?xml version="1.0" encoding="UTF-8"?>
<svg height="600" width="800" xmlns="http://www.w3.org/2000/svg" xmlns:xlink="http://www.w3.org/1999/xlink">
    <style>
        .multicolor-0:green { fill:#B3F95F; opacity:1.0 }
        .multicolor-1:blue { fill:#0042F0; opacity:1.0 }
        .multicolor-2:orange { fill:#F47140; opacity:1.0 }
    </style>
    <g id="Notes" font-family="'LucidaGrande', 'Lucida Grande', sans-serif" font-size="13">
        <rect fill="white" height="600.0" width="800.0" x="0.0" y="0.0" />
        <g font-size="13">
            <text x="18.0" y="176.0">Small</text>
            <text x="18.0" y="376.0">Medium</text>
            <text x="18.0" y="576.0">Large</text>
        </g>
        <g font-size="9">
            <text x="250.0" y="30.0">Ultralight</text>
            <text x="450.0" y="30.0">Regular</text>
            <text x="650.0" y="30.0">Black</text>
            <text id="template-version" fill="#505050" text-anchor="end" x="785.0" y="575.0">Template v.3.0</text>
            <a href="https://github.com/swhitty/SwiftDraw">
                <text fill="#505050" text-anchor="end" x="785.0" y="590.0">https://github.com/swhitty/SwiftDraw</text>
            </a>
        </g>
    </g>
    <g id="Guides" stroke="rgb(39, 170, 225)" stroke-width="0.5">
        <path id="Capline-S" d="M18,76 l800,0" />
        <path id="H-reference" d="M85,145.755 L87.685,145.755 L113.369,79.287 L114.052,79.287 L114.052,76 L112.148,76 L85,145.755 Z M95.693,121.536 L130.996,121.536 L130.263,119.313 L96.474,119.313 L95.693,121.536 Z M139.15,145.755 L141.787,145.755 L114.638,76 L113.466,76 L113.466,79.287 L139.15,145.755 Z" stroke="none" />
        <path id="Baseline-S" d="M18,146 l800,0" />
        <path id="left-margin-Ultralight-S" d="M220.573,56 l0,110" />
        <path id="right-margin-Ultralight-S" d="M309.427,56 l0,110" />
        <path id="left-margin-Regular-S" d="M420.573,56 l0,110" />
        <path id="right-margin-Regular-S" d="M509.427,56 l0,110" />
        <path id="left-margin-Black-S" d="M620.573,56 l0,110" />
        <path id="right-margin-Black-S" d="M709.427,56 l0,110" />
        <path id="Capline-M" d="M18,276 l800,0" />
        <path id="Baseline-M" d="M18,346 l800,0" />
        <path id="Capline-L" d="M18,476 l800,0" />
        <path id="Baseline-L" d="M18,546 l800,0" />
    </g>
    <g id="Symbols">
        <g id="Ultralight-S">
            <path class="multicolor-0:green" d="M245.816,121.234 C245.233,119.211 243.607,117.472 241.443,117.672 C238.313,117.963 236.946,120.703 233.664,120.664 C230.382,120.625 230.125,115.441 233.374,114.989 C236.62,114.534 240.533,116.209 242.864,113.409 C245.194,110.612 241.978,107.608 238.75,108.099 C235.522,108.589 234.508,103.551 237.278,102.438 C240.045,101.323 243.121,105.966 245.122,102.504 C247.127,99.043 240.832,99.174 240.614,96.362 C240.396,93.55 244.192,92.114 246.253,94.911 C248.315,97.708 252.5,92.458 251.037,90.726 C249.577,88.994 246.113,85.538 250.143,84.488 C254.169,83.438 252.147,89.451 255.115,90.537 C258.083,91.623 260.548,88.03 259.16,85.296 C257.772,82.558 255.719,80.294 257.529,77.215 C259.339,74.137 263.507,77.559 262.983,80.276 C262.46,82.992 261.17,87.713 264.18,88.952 C264.856,90.211 262.834,90.917 262.319,92.177 C261.804,93.433 261.804,95.33 263.516,95.599 C265.227,95.869 266.373,95.887 267.546,94.711 C268.718,93.535 269.741,92.799 271.357,92.844 C272.976,92.886 274.151,94.51 273.685,96.063 C273.218,97.616 271.596,97.795 270.163,97.927 C268.73,98.059 266.684,97.532 265.601,99.049 C264.521,100.569 263.632,100.398 264.688,102.803 C265.742,105.212 269.176,106.788 271.659,106.902 C274.142,107.016 274.178,107.36 275.623,108.622 C277.065,109.888 276.41,111.126 275.474,112.212 C274.537,113.298 272.634,113.532 271.429,112.518 C270.223,111.503 269.718,110.914 268.135,110.127 C266.555,109.34 265.362,110.714 264.18,111.091 C261.137,111.94 259.267,107.982 260.356,105.472 C261.445,102.962 258.726,99.985 256.327,101.741 C253.927,103.497 255.105,106.301 256.626,108.174 C258.148,110.047 259.06,112.421 256.721,114.402 C254.384,116.382 252.416,111.204 249.894,113.559 C247.372,115.913 250.352,116.972 251.68,119.102 C253.009,121.233 247.847,122.816 245.816,121.234 Z" />
            <path class="multicolor-0:green" d="M234.262,91.345 C230.251,90.675 228.883,96.599 233.365,97.628 C237.847,98.657 238.478,92.051 234.262,91.345 Z" />
            <path class="multicolor-0:green" d="M236.357,123.656 C233.093,122.627 230.897,127.138 233.763,128.643 C236.629,130.145 239.163,124.541 236.357,123.656 Z" />
            <path class="multicolor-1:blue" d="M264.18,88.952 C264.856,90.211 262.834,90.917 262.319,92.177 C261.804,93.433 261.804,95.33 263.516,95.599 C265.227,95.869 266.373,95.887 267.546,94.711 C268.718,93.535 269.741,92.799 271.357,92.844 C272.976,92.886 274.151,94.51 273.685,96.063 C273.218,97.616 271.596,97.795 270.163,97.927 C268.73,98.059 266.684,97.532 265.601,99.049 C264.521,100.569 263.632,100.398 264.688,102.803 C265.742,105.212 269.176,106.788 271.659,106.902 C274.142,107.016 274.178,107.36 275.623,108.622 C277.065,109.888 276.41,111.126 275.474,112.212 C274.537,113.298 272.634,113.532 271.429,112.518 C270.223,111.503 269.718,110.914 268.135,110.127 C266.555,109.34 265.362,110.714 264.18,111.091 C267.133,112.168 264.946,115.189 263.258,115.853 C261.574,116.521 258.92,118.857 259.985,120.969 C261.047,123.084 264.147,121.556 265.167,119.856 C266.187,118.16 266.893,114.941 269.568,115.282 C272.243,115.623 271.333,119.288 269.49,120.589 C267.647,121.891 266.107,123.539 266.274,126.049 C266.442,128.559 269.667,129.122 271.435,127.022 C273.2,124.921 271.707,122.444 273.433,120.344 C275.156,118.244 276.646,121.397 277.568,123.431 C278.492,125.463 281.873,123.06 282.729,121.861 C282.621,118.869 285.026,119.019 287.315,119.967 C289.601,120.915 289.723,116.311 286.986,116.706 C284.248,117.101 285.071,112.138 286.717,112.386 C288.362,112.634 292.144,112.811 291.68,109.918 C291.219,107.022 287.919,108.963 286.543,107.276 C285.17,105.586 285.598,103.222 287.491,102.091 C289.385,100.964 291.644,100.987 293.732,100.554 C295.817,100.117 297.559,98.851 297.487,96.631 C297.415,94.412 294.776,93.023 292.811,93.948 C290.842,94.872 290.429,96.311 288.787,97.703 C287.141,99.094 285.209,99.991 283.052,99.399 C280.892,98.809 280.551,95.997 281.541,94.346 C282.528,92.694 283.345,91.237 285.053,90.08 C286.761,88.922 288.305,88.252 288.778,86.026 C289.251,83.803 287.635,81.831 285.424,82.373 C283.213,82.914 282.543,84.545 281.81,86.537 C281.074,88.527 280.563,89.93 278.747,91.252 C276.934,92.578 274.241,91.952 273.553,89.75 C272.865,87.549 275.539,85.146 273.176,83.546 C270.812,81.942 269.55,84.937 269.191,86.783 C268.835,88.632 265.673,89.565 264.18,88.952 Z" />
            <path class="multicolor-1:blue" d="M297.687,112.886 C293.433,111.593 291.351,116.027 294.992,117.975 C298.636,119.922 301.352,113.998 297.687,112.886 Z" />
            <path class="multicolor-2:orange" d="M245.861,124.185 C244.59,127.494 241.751,125.879 239.923,128.718 C238.095,131.557 241.9,134.004 244.21,131.808 C246.52,129.612 246.529,127.312 249.819,126.648 C253.11,125.986 252.991,131.575 251.974,133.454 C250.953,135.336 250.089,138.052 248.249,139.736 C246.412,141.424 246.355,146.857 249.61,145.884 C252.868,144.915 252.41,141.513 253.413,138.917 C254.415,136.32 254.639,133.819 257.074,131.808 C259.51,129.798 263.052,131.805 261.786,135.623 C260.521,139.44 267.946,139.644 266.872,135.922 C265.798,132.2 268.398,129.792 271.59,130.606 C274.783,131.419 272.15,137.128 275.839,137.11 C279.53,137.095 275.405,131.521 275.249,130.238 C275.079,128.837 275.665,127.249 277.044,126.648 C280.721,125.041 282.741,128.23 285.197,130.761 C287.653,133.292 292.317,130.719 289.984,127.47 C287.647,124.224 282.89,126.336 282.729,121.861 C281.873,123.06 278.492,125.463 277.568,123.431 C276.646,121.397 275.156,118.244 273.433,120.344 C271.707,122.444 273.2,124.921 271.435,127.022 C269.667,129.122 266.442,128.559 266.274,126.049 C266.107,123.539 267.647,121.891 269.49,120.589 C271.333,119.288 272.243,115.623 269.568,115.282 C266.893,114.941 266.187,118.16 265.167,119.856 C264.147,121.556 261.047,123.084 259.985,120.969 C258.92,118.857 261.574,116.521 263.258,115.853 C264.946,115.189 267.133,112.168 264.18,111.091 C261.137,111.94 259.267,107.982 260.356,105.472 C261.445,102.962 258.726,99.985 256.327,101.741 C253.927,103.497 255.106,106.301 256.626,108.174 C258.148,110.046 259.061,112.422 256.721,114.402 C254.385,116.383 252.416,111.204 249.894,113.559 C247.372,115.913 250.352,116.972 251.68,119.102 C253.009,121.233 247.848,122.816 245.816,121.234 C245.969,121.997 246.149,123.381 245.93,123.955 L245.861,124.185 Z" />
            <path class="multicolor-2:orange" d="M283.925,133.529 C281.026,132.793 280.287,136.622 283.007,137.439 C285.726,138.255 286.349,134.142 283.925,133.529 Z" />
        </g>
        <g id="Regular-S">
            <path class="multicolor-0:green" d="M445.816,121.234 C445.233,119.211 443.607,117.472 441.443,117.672 C438.313,117.963 436.946,120.703 433.664,120.664 C430.382,120.625 430.125,115.441 433.374,114.989 C436.62,114.534 440.533,116.209 442.864,113.409 C445.194,110.612 441.978,107.608 438.75,108.099 C435.522,108.589 434.508,103.551 437.278,102.438 C440.046,101.323 443.121,105.966 445.122,102.504 C447.127,99.043 440.832,99.174 440.614,96.362 C440.396,93.55 444.192,92.114 446.253,94.911 C448.315,97.708 452.5,92.458 451.037,90.726 C449.577,88.994 446.113,85.538 450.143,84.488 C454.169,83.438 452.147,89.451 455.115,90.537 C458.083,91.623 460.548,88.03 459.16,85.296 C457.772,82.558 455.719,80.294 457.529,77.215 C459.339,74.137 463.507,77.559 462.983,80.276 C462.46,82.992 461.17,87.713 464.18,88.952 C464.856,90.211 462.834,90.917 462.319,92.177 C461.804,93.433 461.804,95.33 463.516,95.599 C465.227,95.869 466.373,95.887 467.546,94.711 C468.718,93.535 469.741,92.799 471.357,92.844 C472.976,92.886 474.151,94.51 473.685,96.063 C473.218,97.616 471.596,97.795 470.163,97.927 C468.73,98.059 466.684,97.532 465.601,99.049 C464.521,100.569 463.632,100.398 464.688,102.803 C465.742,105.212 469.176,106.788 471.659,106.902 C474.142,107.016 474.178,107.36 475.623,108.622 C477.065,109.888 476.41,111.126 475.474,112.212 C474.537,113.298 472.634,113.532 471.429,112.518 C470.223,111.503 469.718,110.914 468.135,110.127 C466.555,109.34 465.362,110.714 464.18,111.091 C461.137,111.94 459.267,107.982 460.356,105.472 C461.445,102.962 458.726,99.985 456.327,101.741 C453.927,103.497 455.105,106.301 456.626,108.174 C458.148,110.047 459.06,112.421 456.721,114.402 C454.384,116.382 452.416,111.204 449.894,113.559 C447.372,115.913 450.352,116.972 451.68,119.102 C453.009,121.233 447.847,122.816 445.816,121.234 Z" />
            <path class="multicolor-0:green" d="M434.262,91.345 C430.251,90.675 428.883,96.599 433.365,97.628 C437.847,98.657 438.478,92.051 434.262,91.345 Z" />
            <path class="multicolor-0:green" d="M436.357,123.656 C433.093,122.627 430.897,127.138 433.763,128.643 C436.629,130.145 439.163,124.541 436.357,123.656 Z" />
            <path class="multicolor-1:blue" d="M464.18,88.952 C464.856,90.211 462.834,90.917 462.319,92.177 C461.804,93.433 461.804,95.33 463.516,95.599 C465.227,95.869 466.373,95.887 467.546,94.711 C468.718,93.535 469.741,92.799 471.357,92.844 C472.976,92.886 474.151,94.51 473.685,96.063 C473.218,97.616 471.596,97.795 470.163,97.927 C468.73,98.059 466.684,97.532 465.601,99.049 C464.521,100.569 463.632,100.398 464.688,102.803 C465.742,105.212 469.176,106.788 471.659,106.902 C474.142,107.016 474.178,107.36 475.623,108.622 C477.065,109.888 476.41,111.126 475.474,112.212 C474.537,113.298 472.634,113.532 471.429,112.518 C470.223,111.503 469.718,110.914 468.135,110.127 C466.555,109.34 465.362,110.714 464.18,111.091 C467.133,112.168 464.946,115.189 463.258,115.853 C461.574,116.521 458.92,118.857 459.985,120.969 C461.047,123.084 464.147,121.556 465.167,119.856 C466.187,118.16 466.893,114.941 469.568,115.282 C472.243,115.623 471.333,119.288 469.49,120.589 C467.647,121.891 466.107,123.539 466.274,126.049 C466.442,128.559 469.667,129.122 471.435,127.022 C473.2,124.921 471.707,122.444 473.433,120.344 C475.156,118.244 476.646,121.397 477.568,123.431 C478.492,125.463 481.873,123.06 482.729,121.861 C482.621,118.869 485.026,119.019 487.315,119.967 C489.601,120.915 489.723,116.311 486.986,116.706 C484.248,117.101 485.071,112.138 486.717,112.386 C488.362,112.634 492.144,112.811 491.68,109.918 C491.219,107.022 487.919,108.963 486.543,107.276 C485.17,105.586 485.598,103.222 487.491,102.091 C489.385,100.964 491.644,100.987 493.732,100.554 C495.817,100.117 497.559,98.851 497.487,96.631 C497.415,94.412 494.776,93.023 492.811,93.948 C490.842,94.872 490.429,96.311 488.787,97.703 C487.141,99.094 485.209,99.991 483.052,99.399 C480.892,98.809 480.551,95.997 481.541,94.346 C482.528,92.694 483.345,91.237 485.053,90.08 C486.761,88.922 488.305,88.252 488.778,86.026 C489.251,83.803 487.635,81.831 485.424,82.373 C483.213,82.914 482.543,84.545 481.81,86.537 C481.074,88.527 480.563,89.93 478.747,91.252 C476.934,92.578 474.241,91.952 473.553,89.75 C472.865,87.549 475.539,85.146 473.176,83.546 C470.812,81.942 469.55,84.937 469.191,86.783 C468.835,88.632 465.673,89.565 464.18,88.952 Z" />
            <path class="multicolor-1:blue" d="M497.687,112.886 C493.433,111.593 491.351,116.027 494.992,117.975 C498.636,119.922 501.352,113.998 497.687,112.886 Z" />
            <path class="multicolor-2:orange" d="M445.861,124.185 C444.59,127.494 441.751,125.879 439.923,128.718 C438.095,131.557 441.9,134.004 444.21,131.808 C446.52,129.612 446.529,127.312 449.819,126.648 C453.11,125.986 452.991,131.575 451.974,133.454 C450.953,135.336 450.089,138.052 448.249,139.736 C446.412,141.424 446.355,146.857 449.61,145.884 C452.868,144.915 452.41,141.513 453.413,138.917 C454.415,136.32 454.639,133.819 457.074,131.808 C459.51,129.798 463.052,131.805 461.786,135.623 C460.521,139.44 467.946,139.644 466.872,135.922 C465.798,132.2 468.398,129.792 471.59,130.606 C474.783,131.419 472.15,137.128 475.839,137.11 C479.53,137.095 475.405,131.521 475.249,130.238 C475.079,128.837 475.665,127.249 477.044,126.648 C480.721,125.041 482.741,128.23 485.197,130.761 C487.653,133.292 492.317,130.719 489.984,127.47 C487.647,124.224 482.89,126.336 482.729,121.861 C481.873,123.06 478.492,125.463 477.568,123.431 C476.646,121.397 475.156,118.244 473.433,120.344 C471.707,122.444 473.2,124.921 471.435,127.022 C469.667,129.122 466.442,128.559 466.274,126.049 C466.107,123.539 467.647,121.891 469.49,120.589 C471.333,119.288 472.243,115.623 469.568,115.282 C466.893,114.941 466.187,118.16 465.167,119.856 C464.147,121.556 461.047,123.084 459.985,120.969 C458.92,118.857 461.574,116.521 463.258,115.853 C464.946,115.189 467.133,112.168 464.18,111.091 C461.137,111.94 459.267,107.982 460.356,105.472 C461.445,102.962 458.726,99.985 456.327,101.741 C453.927,103.497 455.106,106.301 456.626,108.174 C458.148,110.046 459.061,112.422 456.721,114.402 C454.385,116.383 452.416,111.204 449.894,113.559 C447.372,115.913 450.352,116.972 451.68,119.102 C453.009,121.233 447.848,122.816 445.816,121.234 C445.969,121.997 446.149,123.381 445.93,123.955 L445.861,124.185 Z" />
            <path class="multicolor-2:orange" d="M483.925,133.529 C481.026,132.793 480.287,136.622 483.007,137.439 C485.726,138.255 486.349,134.142 483.925,133.529 Z" />
        </g>
        <g id="Black-S">
            <path class="multicolor-0:green" d="M645.816,121.234 C645.233,119.211 643.607,117.472 641.443,117.672 C638.313,117.963 636.946,120.703 633.664,120.664 C630.382,120.625 630.125,115.441 633.374,114.989 C636.62,114.534 640.533,116.209 642.864,113.409 C645.194,110.612 641.978,107.608 638.75,108.099 C635.522,108.589 634.508,103.551 637.278,102.438 C640.045,101.323 643.121,105.966 645.122,102.504 C647.127,99.043 640.832,99.174 640.614,96.362 C640.396,93.55 644.192,92.114 646.253,94.911 C648.315,97.708 652.5,92.458 651.037,90.726 C649.577,88.994 646.113,85.538 650.143,84.488 C654.169,83.438 652.147,89.451 655.115,90.537 C658.083,91.623 660.548,88.03 659.16,85.296 C657.772,82.558 655.719,80.294 657.529,77.215 C659.339,74.137 663.507,77.559 662.983,80.276 C662.46,82.992 661.17,87.713 664.18,88.952 C664.856,90.211 662.834,90.917 662.319,92.177 C661.804,93.433 661.804,95.33 663.516,95.599 C665.227,95.869 666.373,95.887 667.546,94.711 C668.718,93.535 669.741,92.799 671.357,92.844 C672.976,92.886 674.151,94.51 673.685,96.063 C673.218,97.616 671.596,97.795 670.163,97.927 C668.73,98.059 666.684,97.532 665.601,99.049 C664.521,100.569 663.632,100.398 664.688,102.803 C665.742,105.212 669.176,106.788 671.659,106.902 C674.142,107.016 674.178,107.36 675.623,108.622 C677.065,109.888 676.41,111.126 675.474,112.212 C674.537,113.298 672.634,113.532 671.429,112.518 C670.223,111.503 669.718,110.914 668.135,110.127 C666.555,109.34 665.362,110.714 664.18,111.091 C661.137,111.94 659.267,107.982 660.356,105.472 C661.445,102.962 658.726,99.985 656.327,101.741 C653.927,103.497 655.105,106.301 656.626,108.174 C658.148,110.047 659.06,112.421 656.721,114.402 C654.384,116.382 652.416,111.204 649.894,113.559 C647.372,115.913 650.352,116.972 651.68,119.102 C653.009,121.233 647.847,122.816 645.816,121.234 Z" />
            <path class="multicolor-0:green" d="M634.262,91.345 C630.251,90.675 628.883,96.599 633.365,97.628 C637.847,98.657 638.478,92.051 634.262,91.345 Z" />
            <path class="multicolor-0:green" d="M636.357,123.656 C633.093,122.627 630.897,127.138 633.763,128.643 C636.629,130.145 639.163,124.541 636.357,123.656 Z" />
            <path class="multicolor-1:blue" d="M664.18,88.952 C664.856,90.211 662.834,90.917 662.319,92.177 C661.804,93.433 661.804,95.33 663.516,95.599 C665.227,95.869 666.373,95.887 667.546,94.711 C668.718,93.535 669.741,92.799 671.357,92.844 C672.976,92.886 674.151,94.51 673.685,96.063 C673.218,97.616 671.596,97.795 670.163,97.927 C668.73,98.059 666.684,97.532 665.601,99.049 C664.521,100.569 663.632,100.398 664.688,102.803 C665.742,105.212 669.176,106.788 671.659,106.902 C674.142,107.016 674.178,107.36 675.623,108.622 C677.065,109.888 676.41,111.126 675.474,112.212 C674.537,113.298 672.634,113.532 671.429,112.518 C670.223,111.503 669.718,110.914 668.135,110.127 C666.555,109.34 665.362,110.714 664.18,111.091 C667.133,112.168 664.946,115.189 663.258,115.853 C661.574,116.521 658.92,118.857 659.985,120.969 C661.047,123.084 664.147,121.556 665.167,119.856 C666.187,118.16 666.893,114.941 669.568,115.282 C672.243,115.623 671.333,119.288 669.49,120.589 C667.647,121.891 666.107,123.539 666.274,126.049 C666.442,128.559 669.667,129.122 671.435,127.022 C673.2,124.921 671.707,122.444 673.433,120.344 C675.156,118.244 676.646,121.397 677.568,123.431 C678.492,125.463 681.873,123.06 682.729,121.861 C682.621,118.869 685.026,119.019 687.315,119.967 C689.601,120.915 689.723,116.311 686.986,116.706 C684.248,117.101 685.071,112.138 686.717,112.386 C688.362,112.634 692.144,112.811 691.68,109.918 C691.219,107.022 687.919,108.963 686.543,107.276 C685.17,105.586 685.598,103.222 687.491,102.091 C689.385,100.964 691.644,100.987 693.732,100.554 C695.817,100.117 697.559,98.851 697.487,96.631 C697.415,94.412 694.776,93.023 692.811,93.948 C690.842,94.872 690.429,96.311 688.787,97.703 C687.141,99.094 685.209,99.991 683.052,99.399 C680.892,98.809 680.551,95.997 681.541,94.346 C682.528,92.694 683.345,91.237 685.053,90.08 C686.761,88.922 688.305,88.252 688.778,86.026 C689.251,83.803 687.635,81.831 685.424,82.373 C683.213,82.914 682.543,84.545 681.81,86.537 C681.074,88.527 680.563,89.93 678.747,91.252 C676.934,92.578 674.241,91.952 673.553,89.75 C672.865,87.549 675.539,85.146 673.176,83.546 C670.812,81.942 669.55,84.937 669.191,86.783 C668.835,88.632 665.673,89.565 664.18,88.952 Z" />
            <path class="multicolor-1:blue" d="M697.687,112.886 C693.433,111.593 691.351,116.027 694.992,117.975 C698.636,119.922 701.352,113.998 697.687,112.886 Z" />
            <path class="multicolor-2:orange" d="M645.861,124.185 C644.59,127.494 641.751,125.879 639.923,128.718 C638.095,131.557 641.9,134.004 644.21,131.808 C646.52,129.612 646.529,127.312 649.82,126.648 C653.11,125.986 652.991,131.575 651.974,133.454 C650.953,135.336 650.089,138.052 648.249,139.736 C646.412,141.424 646.355,146.857 649.61,145.884 C652.868,144.915 652.41,141.513 653.413,138.917 C654.415,136.32 654.639,133.819 657.074,131.808 C659.51,129.798 663.052,131.805 661.786,135.623 C660.521,139.44 667.946,139.644 666.872,135.922 C665.798,132.2 668.398,129.792 671.59,130.606 C674.783,131.419 672.15,137.128 675.839,137.11 C679.53,137.095 675.405,131.521 675.249,130.238 C675.079,128.837 675.665,127.249 677.044,126.648 C680.721,125.041 682.741,128.23 685.197,130.761 C687.653,133.292 692.317,130.719 689.984,127.47 C687.647,124.224 682.89,126.336 682.729,121.861 C681.873,123.06 678.492,125.463 677.568,123.431 C676.646,121.397 675.156,118.244 673.433,120.344 C671.707,122.444 673.2,124.921 671.435,127.022 C669.667,129.122 666.442,128.559 666.274,126.049 C666.107,123.539 667.647,121.891 669.49,120.589 C671.333,119.288 672.243,115.623 669.568,115.282 C666.893,114.941 666.187,118.16 665.167,119.856 C664.147,121.556 661.047,123.084 659.985,120.969 C658.92,118.857 661.574,116.521 663.258,115.853 C664.946,115.189 667.133,112.168 664.18,111.091 C661.137,111.94 659.267,107.982 660.356,105.472 C661.445,102.962 658.726,99.985 656.327,101.741 C653.927,103.497 655.106,106.301 656.626,108.174 C658.148,110.046 659.061,112.422 656.721,114.402 C654.385,116.383 652.416,111.204 649.894,113.559 C647.372,115.913 650.352,116.972 651.68,119.102 C653.009,121.233 647.848,122.816 645.816,121.234 C645.969,121.997 646.149,123.381 645.93,123.955 L645.861,124.185 Z" />
            <path class="multicolor-2:orange" d="M683.925,133.529 C681.026,132.793 680.287,136.622 683.007,137.439 C685.726,138.255 686.349,134.142 683.925,133.529 Z" />
        </g>
    </g>
</svg>