<svg width="33" height="31" viewBox="0 0 33 31" fill="none" xmlns="http://www.w3.org/2000/svg">
<g clip-path="url(#clip0_7_153)">
<path d="M10.1 29.4C18.8 31.6 24.6 25.1 24.9 20.9C25.1 18.1 25.1 11.9 23.3 8C23.2 6.3 25.6 3.5 28.5 3C27.2 -2.38419e-07 21.8 -0.5 19.6 3.2C17.5 1.2 12.1 2.7 13 7.3C14.6 6.4 18.5 7.2 19.6 8.9C19.6 8.9 19.9 12.4 18.2 12.3C17 11.3 15.5 11.4 14.4 12.2C14.3 12 13.8 11.6 13.1 11.1C12.4 10.6 11.3 10.8 10.9 11C10.4 11.2 8.80002 12.1 8.40002 12.5C8.00002 12.9 3.70002 12.5 3.70002 12.5C3.40002 12 2.50002 11.5 1.50002 11.9C0.500018 12.3 0.500018 13.8 0.600018 14.4C0.600018 15.2 1.00002 16 1.60002 16.3L10.1 29.4Z" fill="url(#paint0_linear_7_153)"/>
<path opacity="0.1" d="M10.1 29.4C18.8 31.6 24.6 25.1 24.9 20.9C25.1 18.1 25.1 11.9 23.3 8C23.2 6.3 25.6 3.5 28.5 3C27.2 -2.38419e-07 21.8 -0.5 19.6 3.2C17.5 1.2 12.1 2.7 13 7.3C14.6 6.4 18.5 7.2 19.6 8.9C19.6 8.9 19.9 12.4 18.2 12.3C17 11.3 15.5 11.4 14.4 12.2C14.3 12 13.8 11.6 13.1 11.1C12.4 10.6 11.3 10.8 10.9 11C10.4 11.2 8.80002 12.1 8.40002 12.5C8.00002 12.9 3.70002 12.5 3.70002 12.5C3.40002 12 2.50002 11.5 1.50002 11.9C0.500018 12.3 0.500018 13.8 0.600018 14.4C0.600018 15.2 1.00002 16 1.60002 16.3L10.1 29.4Z" fill="url(#paint1_linear_7_153)"/>
<path d="M3.99998 19.7C2.19998 21.7 1.89998 26.7 6.59998 27.3C11.4 27.9 14.3 26.6 14.4 25.8C14.6 25 13.8 19.2 12.9 18.5C12.1 17.9 4.69998 18.9 3.99998 19.7Z" fill="url(#paint2_linear_7_153)"/>
<path opacity="0.46" d="M3.99998 19.7C2.19998 21.7 1.89998 26.7 6.59998 27.3C11.4 27.9 14.3 26.6 14.4 25.8C14.6 25 13.8 19.2 12.9 18.5C12.1 17.9 4.69998 18.9 3.99998 19.7Z" fill="#CCA000"/>
<path d="M1.7 19.4C1.6 20 2.2 22 2.4 22.4C2.7 22.8 3 22.8 3.3 22.4C3.6 22.1 4.3 20.1 4.4 19.6" fill="url(#paint3_linear_7_153)"/>
<path d="M7.79999 19.4C7.89999 20 8.89999 21.8 9.29999 22.1C9.69999 22.4 9.99999 22.3 10.2 21.9C10.4 21.5 10.6 19.4 10.5 18.9" fill="url(#paint4_linear_7_153)"/>
<path d="M8.4 27.8C8.4 27.3 7.6 26 7.3 25.8C7 25.6 6.7 25.6 6.5 25.9C6.3 26.2 6 27.7 6 28" fill="url(#paint5_linear_7_153)"/>
<path d="M11.8 27.9C11.8 27.4 11 26.2 10.7 25.9C10.4 25.7 10.1 25.7 9.89999 26C9.69999 26.3 9.29999 27.8 9.29999 28.2" fill="url(#paint6_linear_7_153)"/>
<path d="M20.8 17.6C21.4 16.5 22.7 11.6 22.8 11C25.8 10.5 30.9 12.3 33 16.8C31.5 17 24.6 19 23.4 19.5C23.2 20.6 22.5 21.6 21.6 21.9C20.2 22.3 18.7 21.8 18.9 19.9C19 18.4 20.2 17.8 20.8 17.6Z" fill="url(#paint7_linear_7_153)"/>
<path d="M4.49998 13.1C5.49998 12 7.59998 11.5 8.79998 12.9C9.99998 14.3 9.79998 15.9 8.89998 16.8C7.99998 17.7 5.89998 17.8 4.69998 16.9C3.49998 15.8 3.69998 14 4.49998 13.1Z" fill="url(#paint8_radial_7_153)"/>
<path d="M5.9 13.9C6.3 13.5 7.1 13.3 7.5 13.8C7.9 14.3 7.9 15 7.5 15.3C7.2 15.6 6.3 15.7 5.9 15.3C5.5 14.9 5.6 14.2 5.9 13.9Z" fill="url(#paint9_linear_7_153)"/>
<path opacity="0.3" d="M5.9 13.9C6.3 13.5 7.1 13.3 7.5 13.8C7.9 14.3 7.9 15 7.5 15.3C7.2 15.6 6.3 15.7 5.9 15.3C5.5 14.9 5.6 14.2 5.9 13.9Z" fill="#CCA000"/>
<path d="M3.99998 14.2C3.69998 13.9 3.59998 12.5 3.59998 12.3C4.29998 11.5 9.29998 8.4 9.69998 8.2C9.99998 8.7 9.89998 11.6 9.79998 11.9C9.29998 12.2 4.39998 14.2 3.99998 14.2Z" fill="url(#paint10_linear_7_153)"/>
<path d="M9.90001 30.3C8.90001 30.3 8.00001 30.2 7.30001 30.1H7.10001C6.20001 30 5.50001 29.2 5.50001 28.2C5.60001 27.3 6.40001 26.6 7.40001 26.6H7.70001C8.40001 26.7 10 26.8 10.9 26.7C11.6 26.6 12.3 26.5 12 24.6C11.8 23.4 11.6 21.9 11.5 20.3C11.5 20.1 11.4 19.9 11.1 19.7C10.9 19.5 10.6 19.5 10.4 19.6C8.60001 20.2 4.30001 20.3 1.30001 19.5C0.400012 19.3 -0.199988 18.3 0.100012 17.4C0.300012 16.5 1.30001 15.9 2.20001 16.2C4.70001 16.9 8.30001 16.7 9.30001 16.4C10.5 16 11.9 16.2 13.1 17C14.2 17.8 14.9 19 15 20.2C15.1 21.6 15.2 23 15.4 24.1C15.6 25.7 15.7 29.4 11.5 30.1C11 30.3 10.4 30.3 9.90001 30.3Z" fill="url(#paint11_linear_7_153)"/>
<path opacity="0.7" d="M1.99998 14.1C2.49703 14.1 2.89998 13.7866 2.89998 13.4C2.89998 13.0134 2.49703 12.7 1.99998 12.7C1.50292 12.7 1.09998 13.0134 1.09998 13.4C1.09998 13.7866 1.50292 14.1 1.99998 14.1Z" fill="#CCCCCC"/>
<path opacity="0.7" d="M15.2 14.7C15.2 13.9 16 13.2 16.9 13.2C17.1 13.2 17.2 13.2 17.4 13.3C17.2 12.9 16.7 12.5 16.1 12.5C15.3 12.5 14.6 13.1 14.6 13.8C14.6 14.2 14.8 14.6 15.2 14.7C15.2 14.8 15.2 14.8 15.2 14.7Z" fill="#CCCCCC"/>
<path opacity="0.4" d="M17.8 3.4C18.2 3.4 18.6 3.5 19 3.6C18.5 3.1 17.7 2.8 16.8 2.8C15.1 2.8 13.8 4 13.8 5.4C13.8 5.7 13.9 6 14 6.2C14.3 4.6 15.9 3.4 17.8 3.4Z" fill="#CCCCCC"/>
<mask id="mask0_7_153" style="mask-type:luminance" maskUnits="userSpaceOnUse" x="18" y="10" width="15" height="13">
<path d="M20.8 17.6C21.4 16.5 22.7 11.6 22.8 11C25.8 10.5 30.9 12.3 33 16.8C31.5 17 24.6 19 23.4 19.5C23.2 20.6 22.5 21.6 21.6 21.9C20.2 22.3 18.7 21.8 18.9 19.9C19 18.4 20.2 17.8 20.8 17.6Z" fill="white"/>
</mask>
<g mask="url(#mask0_7_153)">
<path opacity="0.4" d="M27.5 11.2L22.9 16.5L26 10.8L27.5 11.2Z" fill="#CCCCCC"/>
<path opacity="0.4" d="M31.9 14.3L25.4 17L30.7 13.2L31.9 14.3Z" fill="#CCCCCC"/>
</g>
</g>
<defs>
<linearGradient id="paint0_linear_7_153" x1="14.4572" y1="29.8981" x2="14.4572" y2="0.657498" gradientUnits="userSpaceOnUse">
<stop stop-color="#FFD500"/>
<stop offset="0.3276" stop-color="#FFFF00"/>
<stop offset="1" stop-color="#CCA000"/>
</linearGradient>
<linearGradient id="paint1_linear_7_153" x1="2.75372" y1="20.9793" x2="31.211" y2="10.6217" gradientUnits="userSpaceOnUse">
<stop stop-color="#F700FF"/>
<stop offset="1" stop-color="#0080FF"/>
</linearGradient>
<linearGradient id="paint2_linear_7_153" x1="8.66868" y1="27.4225" x2="8.66868" y2="18.3149" gradientUnits="userSpaceOnUse">
<stop stop-color="#FFFF00"/>
<stop offset="1" stop-color="#CCA000"/>
</linearGradient>
<linearGradient id="paint3_linear_7_153" x1="3.0614" y1="22.7149" x2="3.0614" y2="19.4193" gradientUnits="userSpaceOnUse">
<stop stop-color="#FFFF00"/>
<stop offset="1" stop-color="#CCA000"/>
</linearGradient>
<linearGradient id="paint4_linear_7_153" x1="9.18429" y1="22.2619" x2="9.18429" y2="18.9319" gradientUnits="userSpaceOnUse">
<stop stop-color="#FFFF00"/>
<stop offset="1" stop-color="#CCA000"/>
</linearGradient>
<linearGradient id="paint5_linear_7_153" x1="7.2236" y1="25.6521" x2="7.2236" y2="28.0737" gradientUnits="userSpaceOnUse">
<stop stop-color="#FFFF00"/>
<stop offset="1" stop-color="#EDBA00"/>
</linearGradient>
<linearGradient id="paint6_linear_7_153" x1="10.5092" y1="25.7809" x2="10.5092" y2="28.2228" gradientUnits="userSpaceOnUse">
<stop stop-color="#FFFF00"/>
<stop offset="1" stop-color="#EDBA00"/>
</linearGradient>
<linearGradient id="paint7_linear_7_153" x1="23.3984" y1="23.5053" x2="28.6513" y2="12.2406" gradientUnits="userSpaceOnUse">
<stop stop-color="#FFC800"/>
<stop offset="0.3056" stop-color="#FFFF00"/>
<stop offset="0.9976" stop-color="#CCA000"/>
</linearGradient>
<radialGradient id="paint8_radial_7_153" cx="0" cy="0" r="1" gradientUnits="userSpaceOnUse" gradientTransform="translate(6.71308 14.7165) scale(2.7919)">
<stop stop-color="#FFFF00"/>
<stop offset="1" stop-color="#F0CC00"/>
</radialGradient>
<linearGradient id="paint9_linear_7_153" x1="6.743" y1="15.5612" x2="6.743" y2="13.4981" gradientUnits="userSpaceOnUse">
<stop stop-color="#FFFF00"/>
<stop offset="1" stop-color="#CCA000"/>
</linearGradient>
<linearGradient id="paint10_linear_7_153" x1="6.78658" y1="14.2383" x2="6.78658" y2="8.2741" gradientUnits="userSpaceOnUse">
<stop stop-color="#FFFF00"/>
<stop offset="1" stop-color="#CCA000"/>
</linearGradient>
<linearGradient id="paint11_linear_7_153" x1="7.69551" y1="30.3425" x2="7.69551" y2="16.2095" gradientUnits="userSpaceOnUse">
<stop stop-color="#EDD900"/>
<stop offset="1" stop-color="#E6B400"/>
</linearGradient>
<clipPath id="clip0_7_153">
<rect width="33" height="31" fill="white"/>
</clipPath>
</defs>
</svg>
