<?xml version="1.0" encoding="UTF-8"?>
<svg height="600" width="800" xmlns="http://www.w3.org/2000/svg" xmlns:xlink="http://www.w3.org/1999/xlink">
    <style>
        .multicolor-0:orange { fill:#E6A100; opacity:1.0 }
    </style>
    <g id="Notes" font-family="'LucidaGrande', 'Lucida Grande', sans-serif" font-size="13">
        <rect fill="white" height="600.0" width="800.0" x="0.0" y="0.0" />
        <g font-size="13">
            <text x="18.0" y="176.0">Small</text>
            <text x="18.0" y="376.0">Medium</text>
            <text x="18.0" y="576.0">Large</text>
        </g>
        <g font-size="9">
            <text x="250.0" y="30.0">Ultralight</text>
            <text x="450.0" y="30.0">Regular</text>
            <text x="650.0" y="30.0">Black</text>
            <text id="template-version" fill="#505050" text-anchor="end" x="785.0" y="575.0">Template v.3.0</text>
            <a href="https://github.com/swhitty/SwiftDraw">
                <text fill="#505050" text-anchor="end" x="785.0" y="590.0">https://github.com/swhitty/SwiftDraw</text>
            </a>
        </g>
    </g>
    <g id="Guides" stroke="rgb(39, 170, 225)" stroke-width="0.5">
        <path id="Capline-S" d="M18,76 l800,0" />
        <path id="H-reference" d="M85,145.755 L87.685,145.755 L113.369,79.287 L114.052,79.287 L114.052,76 L112.148,76 L85,145.755 Z M95.693,121.536 L130.996,121.536 L130.263,119.313 L96.474,119.313 L95.693,121.536 Z M139.15,145.755 L141.787,145.755 L114.638,76 L113.466,76 L113.466,79.287 L139.15,145.755 Z" stroke="none" />
        <path id="Baseline-S" d="M18,146 l800,0" />
        <path id="left-margin-Ultralight-S" d="M211,56 l0,110" />
        <path id="right-margin-Ultralight-S" d="M319,56 l0,110" />
        <path id="left-margin-Regular-S" d="M411,56 l0,110" />
        <path id="right-margin-Regular-S" d="M519,56 l0,110" />
        <path id="left-margin-Black-S" d="M611,56 l0,110" />
        <path id="right-margin-Black-S" d="M719,56 l0,110" />
        <path id="Capline-M" d="M18,276 l800,0" />
        <path id="Baseline-M" d="M18,346 l800,0" />
        <path id="Capline-L" d="M18,476 l800,0" />
        <path id="Baseline-L" d="M18,546 l800,0" />
    </g>
    <g id="Symbols">
        <g id="Ultralight-S">
            <path class="multicolor-0:orange" d="M221.181,112.621 C221.81,107.709 224.019,103.264 226.68,99.938 C247.513,111.199 266.699,125.119 283.785,141.242 C277.647,142.638 271.207,142.915 265.043,142.915 C264.567,142.915 264.092,142.912 263.613,142.909 C250.465,131.568 236.266,121.418 221.181,112.621 Z M234.377,136.569 C233.214,135.865 232.083,135.081 230.986,134.215 C232.123,134.993 233.254,135.777 234.377,136.569 Z M237.149,90.843 C241.515,87.722 246.023,85.069 249.704,83.462 C270.403,95.131 289.412,109.456 306.264,125.966 C305.059,128.134 303.409,130.286 301.232,132.371 C299.859,133.668 298.414,134.808 296.909,135.808 C279.123,118.32 259.036,103.167 237.149,90.843 Z M268.446,79.499 C272.022,80.134 275.84,81.422 280.146,83.36 C286.13,85.924 294.678,91.338 300.662,97.037 C303.788,99.915 306.917,104.549 308.285,109.951 C295.955,98.676 282.628,88.475 268.446,79.499 Z" />
            <path class="multicolor-0:orange" d="M300.662,97.037 C307.786,103.591 314.91,119.264 301.232,132.371 C291.259,141.775 277.581,142.915 265.043,142.915 C252.505,142.915 238.828,141.775 228.854,132.371 C215.177,119.264 222.016,103.591 229.424,97.037 C235.693,91.338 243.957,85.924 249.941,83.36 C255.64,80.795 260.484,79.085 265.043,79.085 C269.603,79.37 274.447,80.795 280.146,83.36 C286.13,85.924 294.678,91.338 300.662,97.037 Z M296.733,101.163 C291.239,95.932 283.394,90.954 277.9,88.597 C277.869,88.586 277.838,88.571 277.806,88.557 C272.925,86.36 268.782,85.061 264.835,84.787 C261.031,84.841 257.025,86.42 252.28,88.557 C252.249,88.571 252.218,88.586 252.186,88.597 C246.661,90.965 239.047,95.992 233.257,101.255 C233.24,101.272 233.22,101.289 233.2,101.306 C227.552,106.301 222.372,118.246 232.781,128.242 C241.646,136.586 253.905,137.216 265.043,137.216 C276.182,137.216 288.441,136.586 297.306,128.242 C307.746,118.218 302.249,106.241 296.804,101.232 C296.778,101.209 296.756,101.186 296.733,101.163 Z" />
        </g>
        <g id="Regular-S">
            <path class="multicolor-0:orange" d="M421.181,112.621 C421.81,107.709 424.019,103.264 426.68,99.938 C447.513,111.199 466.699,125.119 483.785,141.242 C477.647,142.638 471.207,142.915 465.043,142.915 C464.567,142.915 464.092,142.912 463.613,142.909 C450.465,131.568 436.266,121.418 421.181,112.621 Z M434.377,136.569 C433.214,135.865 432.083,135.081 430.986,134.215 C432.123,134.993 433.254,135.777 434.377,136.569 Z M437.149,90.843 C441.515,87.722 446.023,85.069 449.704,83.462 C470.403,95.131 489.412,109.456 506.264,125.966 C505.059,128.134 503.409,130.286 501.232,132.371 C499.859,133.668 498.414,134.808 496.909,135.808 C479.123,118.32 459.036,103.167 437.149,90.843 Z M468.446,79.499 C472.022,80.134 475.84,81.422 480.146,83.36 C486.13,85.924 494.678,91.338 500.662,97.037 C503.788,99.915 506.917,104.549 508.285,109.951 C495.955,98.676 482.628,88.475 468.446,79.499 Z" />
            <path class="multicolor-0:orange" d="M500.662,97.037 C507.786,103.591 514.91,119.264 501.232,132.371 C491.259,141.775 477.581,142.915 465.043,142.915 C452.505,142.915 438.828,141.775 428.854,132.371 C415.177,119.264 422.016,103.591 429.424,97.037 C435.693,91.338 443.957,85.924 449.941,83.36 C455.64,80.795 460.484,79.085 465.043,79.085 C469.603,79.37 474.447,80.795 480.146,83.36 C486.13,85.924 494.678,91.338 500.662,97.037 Z M496.733,101.163 C491.239,95.932 483.394,90.954 477.9,88.597 C477.869,88.586 477.838,88.571 477.806,88.557 C472.925,86.36 468.782,85.061 464.835,84.787 C461.031,84.841 457.025,86.42 452.28,88.557 C452.249,88.571 452.218,88.586 452.186,88.597 C446.661,90.965 439.047,95.992 433.257,101.255 C433.24,101.272 433.22,101.289 433.2,101.306 C427.552,106.301 422.372,118.246 432.781,128.242 C441.646,136.586 453.905,137.216 465.043,137.216 C476.182,137.216 488.441,136.586 497.306,128.242 C507.746,118.218 502.249,106.241 496.804,101.232 C496.778,101.209 496.756,101.186 496.733,101.163 Z" />
        </g>
        <g id="Black-S">
            <path class="multicolor-0:orange" d="M621.181,112.621 C621.81,107.709 624.019,103.264 626.68,99.938 C647.513,111.199 666.699,125.119 683.785,141.242 C677.647,142.638 671.207,142.915 665.043,142.915 C664.567,142.915 664.092,142.912 663.613,142.909 C650.465,131.568 636.266,121.418 621.181,112.621 Z M634.377,136.569 C633.214,135.865 632.083,135.081 630.986,134.215 C632.123,134.993 633.254,135.777 634.377,136.569 Z M637.149,90.843 C641.515,87.722 646.023,85.069 649.704,83.462 C670.403,95.131 689.412,109.456 706.264,125.966 C705.059,128.134 703.409,130.286 701.232,132.371 C699.859,133.668 698.414,134.808 696.909,135.808 C679.123,118.32 659.036,103.167 637.149,90.843 Z M668.446,79.499 C672.022,80.134 675.84,81.422 680.146,83.36 C686.13,85.924 694.678,91.338 700.662,97.037 C703.788,99.915 706.917,104.549 708.285,109.951 C695.955,98.676 682.628,88.475 668.446,79.499 Z" />
            <path class="multicolor-0:orange" d="M700.662,97.037 C707.786,103.591 714.91,119.264 701.232,132.371 C691.259,141.775 677.581,142.915 665.043,142.915 C652.505,142.915 638.828,141.775 628.854,132.371 C615.177,119.264 622.016,103.591 629.424,97.037 C635.693,91.338 643.957,85.924 649.941,83.36 C655.64,80.795 660.484,79.085 665.043,79.085 C669.602,79.37 674.447,80.795 680.146,83.36 C686.13,85.924 694.678,91.338 700.662,97.037 Z M696.733,101.163 C691.239,95.932 683.394,90.954 677.9,88.597 C677.869,88.586 677.838,88.571 677.806,88.557 C672.925,86.36 668.782,85.061 664.835,84.787 C661.031,84.841 657.025,86.42 652.28,88.557 C652.249,88.571 652.218,88.586 652.186,88.597 C646.661,90.965 639.047,95.992 633.257,101.255 C633.24,101.272 633.22,101.289 633.2,101.306 C627.552,106.301 622.372,118.246 632.781,128.242 C641.646,136.586 653.905,137.216 665.043,137.216 C676.182,137.216 688.441,136.586 697.305,128.242 C707.746,118.218 702.249,106.241 696.804,101.232 C696.778,101.209 696.756,101.186 696.733,101.163 Z" />
        </g>
    </g>
</svg>