<svg viewBox="0 0 72.42 36.71">
    <g>
        <path class="white" d="M12.28 24.31c-1.59-1.09-2.85.11-6.25-2.22a6.83 6.83 0 0 1-1.77-1.84 4.53 4.53 0 0 1-1 1.29C2.52 22.1-1.46 23.2.57 28a6.1 6.1 0 0 0 4.79-2.38c-.2.26-2.76 3.64-1.06 6.05 0 0 2.26.94 5-3-2.71 3.94-1 5.72-1 5.72 2.87.73 5.11-2.87 5.28-3.15a6.1 6.1 0 0 0-.58 5.29c5.18.19 4.78-3.92 5.08-4.79a4.55 4.55 0 0 1 .85-1.39 6.85 6.85 0 0 1-2.35-1c-3.38-2.35-2.71-3.94-4.3-5.04zM28.09 1.28C25.67-.38 3.2 4.57 1.6 9c-.36 1 .67 2.45 1.82 3.68a10.26 10.26 0 0 1 1.25-2.58C7.36 6.23 12.5 4 17.29 7.93c2.41 2 2.36 3.52 3.34 4.2s2.4.07 5.12 1.61c5.39 3.06 5.14 8.67 2.46 12.56a10.29 10.29 0 0 1-2 2.1c1.55.63 3.27 1.07 4.08.38 3.63-3.07.23-25.78-2.2-27.5z"></path>
        <path class="white" d="M26.22 24a6.19 6.19 0 0 0-1.28-8.65 6 6 0 0 0-6.49-.05 5.94 5.94 0 0 0-2.37-6 6.19 6.19 0 0 0-8.53 1.89 6.19 6.19 0 0 0 1.29 8.65 6 6 0 0 0 6.49.05 5.94 5.94 0 0 0 2.37 6A6.19 6.19 0 0 0 26.22 24zm-9.65-8.25a3.43 3.43 0 0 1-4.79.74 3.43 3.43 0 0 1-1-4.74 3.44 3.44 0 0 1 4.8-.75 3.44 3.44 0 0 1 .99 4.76zm3.31 6.32a3.34 3.34 0 1 1 3.78-5.49 3.34 3.34 0 1 1-3.78 5.49z"></path>
        <path class="bg2" d="M69.92 11.4c-2.85-1-5.76 1.24-9 2.26-2.06.65-2.49-.67-1.54-1.85C60.89 10 64.13 8.8 65.69 7c2.52-3 1.75-6.72-3.18-7-2.15-.12-5 1-6.2 2.74-2.29 3.53-1.08 4.8-2.38 7.71-.47 1-1.57 2.36-3 1.6-.77-.41-.77-1.34-.11-2.06 2.26-2.47 3.65-6.93-1.65-7a7.49 7.49 0 0 0-6.27 4.34 11.87 11.87 0 0 0-.17 6.18c.67 3.62 1.68 6.88-5.22 9.51-2.42.92-1.83 2.62.24 2.3 6.25-1 9 .22 10.4 3.06s1.61 5.58 4.73 7.48A6.15 6.15 0 0 0 59 36c3.11-1.41 2.57-4.27 1.14-5.63s-5.33-3-4.22-4.05c.8-1 3.61-1 6.05.76 1.4 1 4.3 2.25 6.52.91a3.7 3.7 0 0 0 1.16-5.83c-1.13-1.46-3.73-2.18-6.06-1.75-1.76.33-4 .77-4.06-.63 0-.76 1.08-1.35 2-1.51 3-.54 6.17 1.41 8.68.06 3.37-1.85 2.59-5.94-.29-6.93z"></path>
    </g>
</svg>