<?xml version="1.0" encoding="UTF-8"?>
<svg height="600" width="800" xmlns="http://www.w3.org/2000/svg" xmlns:xlink="http://www.w3.org/1999/xlink">
    <style>
        .multicolor-0:purple { fill:#B322FF; opacity:1.0 }
        .multicolor-1:pink { fill:#FF00B5; opacity:1.0 }
    </style>
    <g id="Notes" font-family="'LucidaGrande', 'Lucida Grande', sans-serif" font-size="13">
        <rect fill="white" height="600.0" width="800.0" x="0.0" y="0.0" />
        <g font-size="13">
            <text x="18.0" y="176.0">Small</text>
            <text x="18.0" y="376.0">Medium</text>
            <text x="18.0" y="576.0">Large</text>
        </g>
        <g font-size="9">
            <text x="250.0" y="30.0">Ultralight</text>
            <text x="450.0" y="30.0">Regular</text>
            <text x="650.0" y="30.0">Black</text>
            <text id="template-version" fill="#505050" text-anchor="end" x="785.0" y="575.0">Template v.3.0</text>
            <a href="https://github.com/swhitty/SwiftDraw">
                <text fill="#505050" text-anchor="end" x="785.0" y="590.0">https://github.com/swhitty/SwiftDraw</text>
            </a>
        </g>
    </g>
    <g id="Guides" stroke="rgb(39, 170, 225)" stroke-width="0.5">
        <path id="Capline-S" d="M18,76 l800,0" />
        <path id="H-reference" d="M85,145.755 L87.685,145.755 L113.369,79.287 L114.052,79.287 L114.052,76 L112.148,76 L85,145.755 Z M95.693,121.536 L130.996,121.536 L130.263,119.313 L96.474,119.313 L95.693,121.536 Z M139.15,145.755 L141.787,145.755 L114.638,76 L113.466,76 L113.466,79.287 L139.15,145.755 Z" stroke="none" />
        <path id="Baseline-S" d="M18,146 l800,0" />
        <path id="left-margin-Ultralight-S" d="M214.75,56 l0,110" />
        <path id="right-margin-Ultralight-S" d="M315.25,56 l0,110" />
        <path id="left-margin-Regular-S" d="M414.75,56 l0,110" />
        <path id="right-margin-Regular-S" d="M515.25,56 l0,110" />
        <path id="left-margin-Black-S" d="M614.75,56 l0,110" />
        <path id="right-margin-Black-S" d="M715.25,56 l0,110" />
        <path id="Capline-M" d="M18,276 l800,0" />
        <path id="Baseline-M" d="M18,346 l800,0" />
        <path id="Capline-L" d="M18,476 l800,0" />
        <path id="Baseline-L" d="M18,546 l800,0" />
    </g>
    <g id="Symbols">
        <g id="Ultralight-S">
            <path class="multicolor-0:purple" d="M249.522,132.862 C249.473,132.826 249.422,132.791 249.37,132.756 C245.136,132.031 234.307,122.619 230.997,120.79 C226.718,118.42 223.681,115.603 225.105,112.238 C226.531,108.873 227.896,109.881 228.357,110.625 C229.477,112.431 228.524,113.545 230.749,115.029 L231.683,108.731 L235.753,111.855 L233.103,116.247 C236.355,117.75 235.537,117.267 240.512,118.314 C244.193,119.087 247.358,121.331 247.358,121.331 C247.358,121.331 248.028,117.345 247.722,113.58 C247.641,112.586 247.557,111.571 247.451,110.554 L245.455,111.671 L244.09,108.09 L247.087,107.781 C246.846,106.31 246.508,104.864 246.009,103.483 L243.423,106.271 L241.05,103.202 L244.853,100.971 C244.521,100.395 244.148,99.841 243.726,99.306 C243.249,98.704 242.773,98.108 242.293,97.571 L240.123,101.65 L236.909,99.274 L240.731,96.099 C239.739,95.388 238.748,95.178 237.756,95.941 C236.069,97.236 234.6,94.621 234.723,92.882 C234.884,90.661 238.699,88.574 239.746,87.782 C241.72,86.291 244.927,87.309 248.379,90.001 C250.813,91.904 252.648,93.803 253.949,95.117 C254.165,95.33 254.48,95.404 254.764,95.297 C259.513,93.488 259.877,81.445 256.461,76 C262.733,78.602 264.994,85.299 263.168,92.1 C263.168,92.1 267.612,89.537 264.891,80.717 C264.891,80.717 272.023,84.832 274.245,93.51 C275.001,98.791 271.099,100.021 270.226,100.804 C272.706,100.813 275.056,100.111 275.916,96.949 C275.916,96.949 278.167,102.027 273.153,105.434 C272.564,105.833 272.062,106.165 271.627,106.435 C271.221,106.693 271.189,107.273 271.562,107.569 C272.438,108.268 273.472,109.185 274.538,110.2 C276.025,109.034 277.491,107.739 277.932,106.751 C277.932,106.751 280.572,111.243 281.374,116.92 C281.458,117.512 281.59,118.101 281.757,118.668 C281.773,118.703 281.786,118.739 281.799,118.771 C283.48,123.366 287.315,122.171 288.77,120.288 C290.564,117.963 288.187,111.127 292.921,106.744 C295.085,104.748 297.747,103.183 297.322,108.039 C297.007,111.665 296.707,115.603 296.781,117.158 C297.039,122.677 300.082,125.044 302.143,126.245 L302.152,126.245 C306.026,128.499 305.549,129.674 304.535,130.392 C303.659,131.01 299.972,132.118 297.532,130.653 C293.439,128.199 293.153,128.289 291.385,128.785 C287.814,129.783 289.089,133.544 284.401,136.32 C286.143,136.819 288.31,137.724 288.699,138.841 C289.256,140.438 286.284,144.261 285.17,144.885 C284.056,145.507 283.035,146.663 282.295,145.507 C281.557,144.351 279.445,140.909 274.525,140.551 C267.673,143.333 263.059,144.566 258.383,141.285 C256.657,140.075 255.398,139.018 254.426,138.085 C252.858,139.476 249.003,141.891 246.051,141.057 C244.515,140.619 241.543,134.726 242.261,133.3 C242.644,132.533 243.6,132.459 245.104,133.09 C246.762,133.789 248.408,132.83 248.987,132.714 C249.103,132.691 249.287,132.746 249.522,132.862 Z M253.698,128.167 C262.386,136.223 274.502,127.752 267.46,117.158 L267.232,117.248 C271.337,125.443 260.109,132.118 253.779,127.932 L253.698,128.167 Z M255.881,116.536 L255.881,116.53 C259.375,117.451 263.4,116.205 264.852,113.481 C266.304,110.753 267.686,104.204 261.271,101.448 C255.16,98.823 250.484,102.832 249.824,108.023 C249.316,112.016 251.953,115.496 255.881,116.536 Z" />
            <path class="multicolor-1:pink" d="M257.913,105.228 L257.916,105.228 C259.639,105.353 261.719,106.754 261.719,109.066 C261.719,111.494 259.423,113.172 257.076,112.408 C254.265,111.494 253.505,108.837 254.587,107.031 C255.324,105.804 256.448,105.128 257.913,105.228 Z M258.815,108.016 C258.483,107.64 258.048,107.533 257.572,107.656 C256.87,107.83 256.409,108.657 256.87,109.549 C257.25,110.296 258.212,110.444 258.802,109.858 C259.391,109.272 259.204,108.461 258.815,108.016 Z" />
        </g>
        <g id="Regular-S">
            <path class="multicolor-0:purple" d="M449.522,132.862 C449.473,132.826 449.422,132.791 449.37,132.756 C445.136,132.031 434.307,122.619 430.997,120.79 C426.718,118.42 423.681,115.603 425.104,112.238 C426.531,108.873 427.896,109.881 428.357,110.625 C429.477,112.431 428.524,113.545 430.749,115.029 L431.683,108.731 L435.753,111.855 L433.103,116.247 C436.355,117.75 435.537,117.267 440.512,118.314 C444.193,119.087 447.358,121.331 447.358,121.331 C447.358,121.331 448.028,117.345 447.722,113.58 C447.641,112.586 447.557,111.571 447.451,110.554 L445.455,111.671 L444.09,108.09 L447.087,107.781 C446.846,106.31 446.508,104.864 446.009,103.483 L443.423,106.271 L441.05,103.202 L444.853,100.971 C444.521,100.395 444.148,99.841 443.726,99.306 C443.249,98.704 442.773,98.108 442.293,97.571 L440.123,101.65 L436.909,99.274 L440.731,96.099 C439.739,95.388 438.748,95.178 437.756,95.941 C436.069,97.236 434.6,94.621 434.723,92.882 C434.884,90.661 438.699,88.574 439.746,87.782 C441.72,86.291 444.927,87.309 448.379,90.001 C450.813,91.904 452.648,93.803 453.949,95.117 C454.165,95.33 454.48,95.404 454.764,95.297 C459.513,93.488 459.877,81.445 456.461,76 C462.733,78.602 464.994,85.299 463.168,92.1 C463.168,92.1 467.612,89.537 464.891,80.717 C464.891,80.717 472.023,84.832 474.245,93.51 C475.001,98.791 471.099,100.021 470.226,100.804 C472.706,100.813 475.056,100.111 475.916,96.949 C475.916,96.949 478.167,102.027 473.153,105.434 C472.564,105.833 472.062,106.165 471.627,106.435 C471.221,106.693 471.189,107.273 471.562,107.569 C472.438,108.268 473.472,109.185 474.538,110.2 C476.025,109.034 477.491,107.739 477.932,106.751 C477.932,106.751 480.572,111.243 481.374,116.92 C481.458,117.512 481.59,118.101 481.757,118.668 C481.773,118.703 481.786,118.739 481.799,118.771 C483.48,123.366 487.315,122.171 488.77,120.288 C490.564,117.963 488.187,111.127 492.921,106.744 C495.085,104.748 497.747,103.183 497.322,108.039 C497.007,111.665 496.707,115.603 496.781,117.158 C497.039,122.677 500.082,125.044 502.143,126.245 L502.152,126.245 C506.026,128.499 505.549,129.674 504.535,130.392 C503.659,131.01 499.972,132.118 497.532,130.653 C493.439,128.199 493.153,128.289 491.385,128.785 C487.814,129.783 489.089,133.544 484.401,136.32 C486.143,136.819 488.31,137.724 488.699,138.841 C489.256,140.438 486.284,144.261 485.17,144.885 C484.056,145.507 483.035,146.663 482.295,145.507 C481.557,144.351 479.445,140.909 474.525,140.551 C467.673,143.333 463.059,144.566 458.383,141.285 C456.657,140.075 455.398,139.018 454.426,138.085 C452.858,139.476 449.003,141.891 446.051,141.057 C444.515,140.619 441.543,134.726 442.261,133.3 C442.644,132.533 443.6,132.459 445.104,133.09 C446.762,133.789 448.408,132.83 448.987,132.714 C449.103,132.691 449.287,132.746 449.522,132.862 Z M453.698,128.167 C462.386,136.223 474.502,127.752 467.46,117.158 L467.232,117.248 C471.337,125.443 460.109,132.118 453.779,127.932 L453.698,128.167 Z M455.881,116.536 L455.881,116.53 C459.375,117.451 463.4,116.205 464.852,113.481 C466.304,110.753 467.686,104.204 461.271,101.448 C455.16,98.823 450.484,102.832 449.824,108.023 C449.316,112.016 451.953,115.496 455.881,116.536 Z" />
            <path class="multicolor-1:pink" d="M457.913,105.228 L457.916,105.228 C459.639,105.353 461.719,106.754 461.719,109.066 C461.719,111.494 459.423,113.172 457.076,112.408 C454.265,111.494 453.505,108.837 454.587,107.031 C455.324,105.804 456.448,105.128 457.913,105.228 Z M458.815,108.016 C458.483,107.64 458.048,107.533 457.572,107.656 C456.87,107.83 456.409,108.657 456.87,109.549 C457.25,110.296 458.212,110.444 458.802,109.858 C459.391,109.272 459.204,108.461 458.815,108.016 Z" />
        </g>
        <g id="Black-S">
            <path class="multicolor-0:purple" d="M649.522,132.862 C649.473,132.826 649.422,132.791 649.37,132.756 C645.136,132.031 634.307,122.619 630.997,120.79 C626.718,118.42 623.681,115.603 625.104,112.238 C626.531,108.873 627.896,109.881 628.357,110.625 C629.477,112.431 628.524,113.545 630.749,115.029 L631.683,108.731 L635.753,111.855 L633.103,116.247 C636.355,117.75 635.537,117.267 640.512,118.314 C644.193,119.087 647.358,121.331 647.358,121.331 C647.358,121.331 648.028,117.345 647.722,113.58 C647.641,112.586 647.557,111.571 647.451,110.554 L645.455,111.671 L644.09,108.09 L647.087,107.781 C646.846,106.31 646.508,104.864 646.009,103.483 L643.423,106.271 L641.05,103.202 L644.853,100.971 C644.521,100.395 644.148,99.841 643.726,99.306 C643.249,98.704 642.773,98.108 642.293,97.571 L640.123,101.65 L636.909,99.274 L640.731,96.099 C639.739,95.388 638.748,95.178 637.756,95.941 C636.069,97.236 634.6,94.621 634.723,92.882 C634.884,90.661 638.699,88.574 639.746,87.782 C641.72,86.291 644.927,87.309 648.379,90.001 C650.813,91.904 652.648,93.803 653.949,95.117 C654.165,95.33 654.48,95.404 654.764,95.297 C659.513,93.488 659.877,81.445 656.461,76 C662.733,78.602 664.994,85.299 663.168,92.1 C663.168,92.1 667.612,89.537 664.891,80.717 C664.891,80.717 672.023,84.832 674.245,93.51 C675.001,98.791 671.099,100.021 670.226,100.804 C672.706,100.813 675.056,100.111 675.916,96.949 C675.916,96.949 678.167,102.027 673.153,105.434 C672.564,105.833 672.062,106.165 671.627,106.435 C671.221,106.693 671.189,107.273 671.562,107.569 C672.438,108.268 673.472,109.185 674.538,110.2 C676.025,109.034 677.49,107.739 677.932,106.751 C677.932,106.751 680.572,111.243 681.374,116.92 C681.458,117.512 681.59,118.101 681.757,118.668 C681.773,118.703 681.786,118.739 681.799,118.771 C683.48,123.366 687.315,122.171 688.77,120.288 C690.564,117.963 688.187,111.127 692.921,106.744 C695.085,104.748 697.747,103.183 697.322,108.039 C697.007,111.665 696.707,115.603 696.781,117.158 C697.039,122.677 700.082,125.044 702.143,126.245 L702.152,126.245 C706.026,128.499 705.549,129.674 704.535,130.392 C703.659,131.01 699.972,132.118 697.532,130.653 C693.439,128.199 693.153,128.289 691.385,128.785 C687.814,129.783 689.089,133.544 684.401,136.32 C686.143,136.819 688.31,137.724 688.699,138.841 C689.256,140.438 686.284,144.261 685.17,144.885 C684.056,145.507 683.035,146.663 682.295,145.507 C681.557,144.351 679.445,140.909 674.525,140.551 C667.673,143.333 663.059,144.566 658.383,141.285 C656.657,140.075 655.398,139.018 654.426,138.085 C652.858,139.476 649.003,141.891 646.051,141.057 C644.515,140.619 641.543,134.726 642.261,133.3 C642.644,132.533 643.6,132.459 645.104,133.09 C646.762,133.789 648.408,132.83 648.987,132.714 C649.103,132.691 649.287,132.746 649.522,132.862 Z M653.698,128.167 C662.386,136.223 674.502,127.752 667.46,117.158 L667.232,117.248 C671.337,125.443 660.109,132.118 653.779,127.932 L653.698,128.167 Z M655.881,116.536 L655.881,116.53 C659.375,117.451 663.4,116.205 664.852,113.481 C666.304,110.753 667.686,104.204 661.271,101.448 C655.16,98.823 650.484,102.832 649.824,108.023 C649.316,112.016 651.953,115.496 655.881,116.536 Z" />
            <path class="multicolor-1:pink" d="M657.913,105.228 L657.916,105.228 C659.639,105.353 661.719,106.754 661.719,109.066 C661.719,111.494 659.423,113.172 657.076,112.408 C654.265,111.494 653.505,108.837 654.587,107.031 C655.324,105.804 656.448,105.128 657.913,105.228 Z M658.815,108.016 C658.483,107.64 658.048,107.533 657.572,107.656 C656.87,107.83 656.409,108.657 656.87,109.549 C657.25,110.296 658.212,110.444 658.802,109.858 C659.391,109.272 659.204,108.461 658.815,108.016 Z" />
        </g>
    </g>
</svg>